<?xml version="1.0" encoding="UTF-8"?>
<!DOCTYPE svg PUBLIC "-//W3C//DTD SVG 1.0//EN" "http://www.w3.org/TR/2001/REC-SVG-20010904/DTD/svg10.dtd">
<svg shape-rendering="geometricPrecision" text-rendering="geometricPrecision" image-rendering="optimizeQuality" fill-rule="evenodd" xml:space="preserve" 
 xmlns="http://www.w3.org/2000/svg" xmlns:xlink="http://www.w3.org/1999/xlink"  viewBox="0 0 1764.771835938096 2268.4029271006584" width="176.4771835938096mm" height="226.84029271006585mm" >
<g><path fill="#000000" d="M1689.9147,84.36994 L1699.3634,85.205864 1704.3602,85.843834 1709.3142,86.84673 1713.0002,87.9738 1716.4736,89.56505 1718.0955,90.58691 1719.6405,91.79663 1721.0922,93.21422 1722.4498,94.88411 1723.7206,97.012344 1724.808,99.28136 1725.724,101.686356 1726.4512,104.10732 1727.4951,109.23758 1728.0697,114.590294 1728.3019,121.12161 1728.18,127.64069 1727.5096,139.99384 1725.3923,154.65373 1722.633,169.39642 1719.3369,183.99942 1715.5747,198.47331 1711.4078,212.68448 1713.0955,197.5633 1713.9662,185.66533 1714.4348,173.69684 1714.0891,166.68555 1713.5254,159.73315 1712.6805,152.85524 1711.4902,146.10722 1709.8438,139.38556 1707.7897,133.15047 1705.1605,127.095215 1701.9148,121.371216 1700.2546,118.99504 1698.342,116.649666 1694.5258,112.82901 1690.0748,109.39784 1685.5833,106.718315 1681.1548,104.63867 1676.8578,103.02019 1672.3582,101.64566 1667.7604,100.496765 1659.2363,99.01597 1650.5355,98.122375 1641.8208,97.763306 1633.1006,97.855606 1624.3895,98.31522 1615.6954,99.0581 1598.4319,101.053925 1593.7472,101.86136 1603.0835,98.98558 1624.5479,93.40278 1635.4027,90.941055 1646.308,88.78373 1657.2509,86.99016 1668.2325,85.61666 1679.2509,84.720436 1689.9147,84.36994 Z M63.20857,78.27985 L72.909065,78.704575 82.551605,79.55695 97.12544,82.0385 111.63766,85.08115 126.083405,88.64912 140.45767,92.70714 154.75122,97.218666 168.95375,102.146324 183.06758,107.45752 193.44675,111.64739 184.13768,109.492485 173.88466,107.35966 163.60387,105.447426 153.29152,103.768456 142.9536,102.33761 132.58429,101.16742 122.2207,100.27334 114.55993,100.05628 106.92799,100.05988 99.30707,100.37259 91.72589,101.08684 84.17482,102.30684 76.77641,104.10888 69.50638,106.59908 65.95592,108.11945 62.436043,109.858795 59.193684,111.864716 56.182213,114.16931 53.3127,116.840744 50.778046,119.66928 48.523987,122.64015 46.434383,125.8697 44.52915,129.32835 42.776924,133.08148 40.21518,139.98312 38.252674,147.17548 36.851547,154.38602 35.910458,161.75505 35.3896,174.47415 35.564545,187.15901 36.353413,199.78287 37.67621,212.33989 38.31453,216.82529 32.85669,198.24193 27.52438,177.94894 23.97782,159.18057 22.352522,149.534 20.978668,139.84454 19.951647,130.11339 19.36668,120.34557 19.317772,110.5343 19.865229,101.338 20.689884,97.80488 21.919224,93.65445 23.621887,89.72234 24.702671,87.94027 25.97505,86.31264 27.873491,84.492584 29.944904,83.004005 32.178925,81.79994 34.52166,80.84963 37.019012,80.08973 39.47182,79.52797 44.279427,78.74977 53.732674,78.292564 63.20857,78.27985 Z M1563.5804,222.5782 L1568.8356,222.5945 1573.365,222.94249 1577.8278,223.72078 1582.1427,225.03821 1586.4314,227.06502 1589.2428,228.81886 1591.9348,230.9727 1594.4203,233.49278 1596.6112,236.34378 1598.427,239.51338 1599.7634,242.92334 1600.5326,246.47026 1600.6906,250.35756 1600.0115,258.17606 1598.66,265.801 1596.715,273.31555 1594.321,280.57098 1591.5607,287.6665 1588.5293,294.62854 1582.0623,308.1915 1575.5781,320.82367 1562.1562,345.78717 1555.598,358.48016 1550.4072,367.95703 1547.5989,372.57263 1544.5911,377.0331 1541.4163,381.18326 1537.9435,385.08185 1534.1841,388.59863 1533.7057,388.958 1533.1666,388.8751 1513.4968,361.35812 1502.1498,346.03317 1490.6469,330.8776 1478.9845,315.89258 1467.1665,301.0888 1446.9949,276.72833 1447.0369,276.18668 1451.9739,271.81815 1461.6711,264.03696 1471.6957,256.89413 1482.018,250.35133 1492.5962,244.38124 1503.39,238.9562 1514.3513,234.0518 1525.4,229.6548 1536.6925,226.33601 1542.5591,224.83998 1548.2657,223.71677 1558.3682,222.84425 1563.5804,222.5782 Z M197.54613,243.97052 L203.59833,244.10352 209.54494,244.59224 215.46078,245.41263 221.34766,246.54227 227.19958,247.95824 233.012,249.637 238.78528,251.55685 244.52805,253.70012 255.8572,258.54437 266.94473,263.97342 277.81866,269.8299 288.26596,276.1635 298.40393,283.17953 308.20218,290.85352 312.2052,294.38284 312.2518,294.9237 292.10605,320.06564 280.5868,334.9547 269.22562,350.00696 258.0161,365.2311 246.96616,380.61792 227.74457,408.37833 227.2082,408.42786 223.73718,404.9843 220.67677,401.36743 217.8766,397.61002 212.67456,389.4957 208.0115,381.07547 202.78448,370.8986 186.44316,340.3535 181.15433,330.04865 176.11,319.5776 171.4137,308.88672 167.30583,298.28186 164.78557,288.94153 163.62788,283.8944 162.74747,278.8008 162.3351,274.76328 162.28513,270.6518 162.72646,266.62244 163.81308,262.5103 165.4647,258.94116 167.67241,255.68025 170.2192,252.92987 173.10397,250.5686 176.23128,248.58951 179.56514,246.95369 182.89761,245.69022 185.96208,244.8238 191.63486,244.21304 197.54613,243.97052 Z M1555.1573,202.49867 L1546.0734,203.93164 1539.6445,205.18787 1533.2368,206.80486 1520.5702,210.51685 1508.5032,215.3083 1496.643,220.61697 1485.0051,226.47435 1473.6326,232.90633 1462.5564,239.94426 1451.8147,247.61699 1441.4326,255.9645 1436.3904,260.3981 1430.0197,266.45483 1428.2683,269.09918 1427.2058,271.80353 1426.6506,275.0585 1426.6643,277.08572 1427.3068,280.50378 1428.6138,283.45035 1429.5815,284.87717 1442.6062,300.22464 1454.4354,314.6665 1466.1123,329.29416 1477.631,344.09552 1488.9924,359.06555 1500.1958,374.19724 1511.2463,389.4917 1522.7959,405.96722 1524.7363,408.09344 1526.8165,409.6141 1529.1271,410.6363 1531.5687,411.10452 1534.7053,410.86847 1536.0837,410.43494 1538.4832,409.17368 1543.7968,405.2096 1548.5569,400.86337 1552.8741,396.16635 1556.8184,391.19775 1560.5846,385.81497 1564.1139,380.2004 1567.4326,374.43994 1577.2123,355.754 1590.6978,330.66483 1597.2026,317.99133 1604.5625,302.33536 1607.9609,294.2892 1611.0305,286.09583 1613.6748,277.7339 1615.802,269.14108 1617.2877,260.4199 1617.7672,255.96858 1618.0857,247.8755 1617.8516,244.52313 1617.379,241.32806 1616.652,238.1022 1615.6963,234.96634 1614.543,231.96608 1613.1732,229.03462 1611.617,226.22353 1609.8851,223.53716 1607.9961,220.99202 1605.9617,218.59497 1603.7954,216.35506 1601.5132,214.28418 1599.1268,212.39021 1596.511,210.59845 1591.0569,207.57965 1588.2367,206.34985 1585.212,205.27142 1581.99,204.36511 1575.7188,203.19469 1569.362,202.66975 1563.757,202.6409 1556.323,203.06868 1555.6777,202.59799 1555.1573,202.49867 Z M191.77852,223.04784 L182.7167,225.21144 177.31793,226.81587 171.86626,229.0743 166.91116,231.78218 161.9587,235.27989 157.57622,239.26253 153.75444,243.75832 152.00429,246.29634 150.3634,249.0832 148.9326,251.98183 147.74315,254.897 146.69427,258.24194 145.91023,261.55658 145.35292,264.9373 145.01154,268.477 144.96075,275.28638 145.58496,281.96475 146.57263,287.75653 147.8656,293.52042 150.99655,305.24152 155.45132,316.78577 160.26793,327.78793 165.43425,338.5606 170.85349,349.17252 187.63042,380.6632 193.02821,391.18527 198.79489,401.48505 201.90956,406.46118 205.1917,411.237 208.67145,415.78494 212.37071,420.0636 216.4421,424.1481 220.5726,427.6849 222.19035,428.8787 224.85904,430.1059 227.94196,430.65802 230.58655,430.43634 233.7428,429.32666 236.2384,427.6193 238.16449,425.54617 249.68695,408.57272 260.45105,393.20288 271.37424,377.99353 282.45642,362.94324 293.69403,348.05606 305.08804,333.32938 316.63217,318.7705 328.27594,304.44333 330.38483,301.51727 331.9776,298.4205 332.56827,296.44745 332.88663,294.21222 332.82483,291.76553 332.39578,289.60767 331.61566,287.56702 330.48798,285.69125 329.1907,284.1916 318.378,274.68845 313.11026,270.43854 307.7746,266.3859 296.80954,258.80124 285.48236,251.93517 273.45724,245.49078 261.1732,239.56354 254.93106,236.84514 248.64471,234.32924 242.3093,232.0345 235.92448,229.98225 229.49007,228.19478 223.01741,226.6973 216.50409,225.51143 209.9576,224.66087 203.37743,224.16841 196.76965,224.05757 193.55,224.20042 192.75558,223.44058 192.30174,223.14845 191.77852,223.04784 Z M449.8962,916.86444 L451.0118,917.22504 452.48767,918.6643 453.15036,919.7288 453.5864,920.83 453.74094,922.2988 453.0856,924.6351 452.65005,925.51447 451.95227,926.2445 450.25,927.01404 448.5399,927.08606 447.73105,926.80975 446.97263,926.13605 445.71106,924.3242 445.4072,923.1135 445.4112,921.7386 445.91785,919.46234 446.30328,918.6105 446.85535,917.9068 448.89465,917.0239 449.8962,916.86444 Z M1307.0924,916.38135 L1307.5786,916.76746 1309.2417,917.0003 1310.2659,917.4143 1311.7118,918.5746 1312.2272,919.3128 1312.5671,920.2422 1312.6868,922.67377 1312.5652,923.96875 1312.0668,925.0524 1311.2976,925.9096 1310.4214,926.5453 1308.6377,927.25244 1307.5105,927.1116 1305.8643,925.87897 1305.0244,924.843 1304.6796,923.74133 1304.6089,922.5003 1304.9946,919.95386 1305.4669,918.7427 1306.0541,917.90015 1306.7385,917.3529 1307.0924,916.38135 Z M449.42145,896.92334 L446.14288,897.29895 441.38953,898.809 438.7857,900.19714 436.41187,901.9996 434.42297,904.0178 432.45624,906.65076 430.9083,909.4134 429.72467,912.25665 428.7642,915.5906 428.2168,918.813 428.018,921.9177 428.16583,925.3143 428.63376,928.339 429.46976,931.4116 430.74255,934.49713 432.21222,937.0539 433.46582,938.7105 435.5163,941.1692 437.54263,942.9985 439.90738,944.5891 442.62308,945.86304 445.28485,946.6425 447.98892,947.0223 450.742,947.00934 453.4899,946.60187 456.15646,945.8139 458.51205,944.7632 461.09442,943.16864 463.2996,941.34283 465.14844,939.3642 467.00607,936.7679 468.43817,934.0518 469.49957,931.22534 470.32648,928.6473 470.9411,925.328 471.125,921.8051 470.82812,918.1393 470.15186,914.9132 469.04514,911.64966 467.46838,908.4159 465.71188,905.7311 463.54346,903.19293 460.9123,900.87476 458.21878,899.14923 455.5915,897.9785 452.35336,897.14185 449.42145,896.92334 Z M1309.1981,896.9824 L1306.8247,897.03625 1304.2953,897.44116 1301.6274,898.2853 1299.3456,899.3192 1296.7524,901.0189 1294.2871,903.2819 1292.2882,905.75854 1290.6797,908.3816 1289.23,911.5683 1288.2053,914.8014 1287.5635,918.0293 1287.2607,921.5117 1287.3657,925.1426 1287.8342,928.3729 1288.7072,931.64 1290.0549,934.8998 1291.7356,937.7466 1293.8176,940.3039 1297.935,943.8767 1300.487,945.3775 1303.3962,946.48096 1306.6605,947.07587 1309.4746,947.10486 1312.4865,946.653 1315.6827,945.6236 1318.5288,944.1773 1321.0046,942.4382 1323.3969,940.21094 1325.5958,937.48584 1327.3203,934.6022 1328.5977,931.63873 1329.5804,928.086 1330.0363,924.5346 1329.9858,919.1837 1329.6218,916.323 1328.9133,913.4231 1327.8282,910.529 1326.5059,907.97186 1325.0181,905.74866 1323.0874,903.48926 1321.04,901.61743 1318.8705,900.0685 1316.5687,898.8166 1314.1665,897.8767 1311.6888,897.261 1309.1981,896.9824 Z M445.93353,846.14044 L450.25534,846.42224 454.4109,847.1061 458.56195,848.19714 462.6357,849.672 466.6086,851.51526 469.15314,852.967 469.10352,853.18787 451.07034,854.556 445.4114,855.32043 440.08603,856.70544 434.78714,858.76245 429.84003,861.3377 425.12106,864.44385 420.7589,867.9569 416.49023,872.10016 412.6399,876.57654 409.20602,881.3367 406.02243,886.6427 403.36563,892.049 401.0961,897.8319 399.30215,903.84827 397.99457,910.1829 397.25443,916.57184 397.10025,928.3915 397.5217,933.6785 398.3286,938.9047 399.4758,943.92883 401.03607,948.8205 397.49698,942.464 395.15475,937.07153 393.28912,931.26587 391.90808,925.2122 391.0318,919.0967 390.64124,912.85504 390.74268,906.5891 391.33643,900.3596 392.42233,894.2264 394.00018,888.24994 395.4163,884.22296 397.0409,880.3865 398.8851,876.68243 400.9361,873.1265 403.18295,869.73065 405.6115,866.51166 408.212,863.4801 410.9726,860.64954 413.87848,858.03687 416.91876,855.65375 420.00894,853.55927 423.277,851.6715 426.64304,850.0533 430.09537,848.71796 433.6216,847.679 437.2779,846.93805 441.72934,846.29456 445.93353,846.14044 Z M1325.9304,846.1325 L1330.1705,846.39435 1334.2487,847.04376 1338.3655,848.09955 1342.3236,849.497 1346.2288,851.26434 1350.0172,853.3721 1353.6991,855.83044 1357.1554,858.54987 1360.4618,861.58966 1363.5634,864.9099 1366.4391,868.496 1369.0663,872.33234 1371.4244,876.4043 1373.5176,880.7562 1375.1554,884.6931 1376.5381,888.7308 1377.6774,892.87335 1378.5729,897.0991 1379.2245,901.38434 1379.6338,905.71326 1379.8014,910.0604 1379.7283,914.4139 1379.4154,918.7522 1378.863,923.0527 1378.0734,927.2945 1377.0457,931.4633 1375.7825,935.53357 1374.2838,939.48755 1372.5508,943.3072 1370.5884,946.96423 1368.7449,949.9428 1370.4231,945.01184 1371.6315,940.23303 1372.5447,935.3398 1373.1487,930.37616 1373.4336,925.362 1373.389,920.32355 1373.0015,915.2534 1372.3037,909.61615 1371.1566,903.9972 1369.623,898.6413 1367.7063,893.46423 1365.4266,888.4901 1362.8629,883.842 1359.9331,879.3588 1356.6351,875.07654 1353.1243,871.19574 1349.3574,867.6537 1345.4573,864.5514 1341.2749,861.77673 1336.8672,859.39813 1332.3059,857.47614 1327.4575,855.9934 1322.7771,855.0815 1317.3176,854.3742 1312.1814,854.3226 1306.9475,854.8732 1301.624,856.05176 1296.7058,857.708 1292.0283,859.82715 1294.2578,857.80273 1297.3364,855.42786 1300.4015,853.38464 1303.6375,851.54425 1306.9661,849.96606 1310.3749,848.6625 1313.8517,847.64514 1317.4521,846.9144 1321.803,846.2898 1325.9304,846.1325 Z M1312.8418,874.29333 L1316.5332,874.3166 1320.2875,874.8068 1323.6182,875.4601 1326.9794,876.50287 1330.1456,877.8458 1333.283,879.5529 1336.2463,881.5367 1339.0308,883.7705 1341.6888,886.29236 1344.1925,889.08563 1346.455,892.0388 1348.5319,895.2233 1350.3838,898.5889 1351.9949,902.1155 1353.35,905.7835 1354.4417,909.6107 1355.2296,913.46344 1356.0015,921.09985 1356.0317,924.73584 1355.8246,928.3232 1355.3901,931.8764 1354.7362,935.379 1353.8698,938.8162 1352.7986,942.1692 1351.53,945.42365 1350.0721,948.5612 1348.433,951.5655 1346.6189,954.42084 1344.64,957.10846 1342.5625,959.5484 1340.2819,961.8563 1337.859,963.94965 1335.3025,965.811 1331.8824,967.89417 1328.4386,969.509 1324.7925,970.761 1321.1212,971.6107 1317.4512,972.0883 1313.7123,972.2172 1309.9818,972.0059 1306.2656,971.46014 1303.4142,970.59576 1300.6726,969.4984 1297.9631,968.1431 1295.337,966.55695 1292.7777,964.72906 1290.316,962.6821 1288.0112,960.46906 1285.8336,958.0715 1283.7937,955.5008 1281.9036,952.76874 1280.1722,949.885 1278.6123,946.8626 1277.2345,943.7135 1276.049,940.44666 1275.0685,937.0781 1274.431,934.17865 1274.0686,928.6996 1273.8953,922.4346 1274.1558,916.3243 1274.5233,913.19135 1275.0544,910.22675 1276.1462,906.02966 1277.5848,902.00385 1279.3463,898.167 1281.4052,894.5395 1283.7638,891.1083 1286.3458,887.9643 1289.1178,885.1202 1292.1171,882.536 1295.2887,880.2639 1298.6077,878.324 1302.0488,876.7367 1305.5869,875.5221 1309.1968,874.7005 1312.8418,874.29333 Z M455.14175,874.2821 L458.1308,874.38257 461.13477,874.7567 464.02124,875.37006 466.9044,876.2396 469.76535,877.36597 472.47995,878.6884 475.1446,880.2505 477.70956,882.0264 480.16083,884.0076 482.48477,886.1856 484.6682,888.5519 486.69702,891.0977 488.55786,893.81445 490.23718,896.6937 491.7504,899.79114 493.60428,904.23224 494.9802,908.89624 495.89935,913.6876 496.40536,918.5623 496.5425,923.5583 496.35132,928.4597 495.8818,933.31635 495.29404,937.3018 493.5631,942.47705 491.16864,947.80096 488.2974,952.77576 484.9832,957.332 481.2593,961.40155 477.1599,964.9153 472.7183,967.80505 470.38614,968.9913 467.97482,969.9998 464.76163,971.05585 461.498,971.7704 458.19946,972.1582 454.88644,972.2322 451.53378,971.99805 448.29614,971.48773 445.05945,970.69464 441.88867,969.63763 438.9228,968.3036 436.0641,966.6717 433.29077,964.73346 430.68887,962.5621 428.25635,960.1777 425.95306,957.5431 423.82123,954.7056 421.83035,951.6122 420.08542,948.4247 418.54935,945.09 417.23532,941.6275 416.1573,938.0579 415.328,934.40265 414.76978,930.76355 414.4692,926.9907 414.4552,923.1481 414.5843,918.54553 415.11896,914.0018 416.03546,909.57086 417.31082,905.27924 418.92178,901.1545 420.8452,897.2227 423.0585,893.51117 425.5376,890.04724 428.25995,886.85754 431.202,883.9687 434.34045,881.4078 437.6966,879.17706 441.1129,877.37665 444.75763,875.94293 448.39145,874.9763 452.23303,874.4502 455.14175,874.2821 Z M445.90207,826.20135 L440.13538,826.4452 434.89252,827.1913 427.83426,828.5675 427.01663,829.0522 425.28372,829.5635 420.81912,831.2689 416.3509,833.3849 411.92236,835.9121 407.8718,838.62805 403.85468,841.7468 400.01877,845.1683 396.37894,848.8757 392.95032,852.85236 389.74774,857.0825 386.78644,861.5497 384.0833,866.2337 381.6503,871.12354 379.50266,876.20337 377.6507,881.47784 375.59357,889.2521 374.17844,897.21747 373.40677,905.2983 373.27823,913.4253 373.79294,921.5271 374.9505,929.53107 376.75134,937.369 379.19293,944.9614 382.30386,952.13336 385.94833,958.92194 390.16513,965.3827 394.80133,971.27435 399.84897,976.60846 405.30862,981.3688 411.12787,985.4872 414.0249,987.2144 420.54578,990.49524 423.969,991.9015 427.47745,993.09015 431.0315,994.0524 434.62912,994.7918 438.25558,995.30927 441.90317,995.6059 445.56656,995.6836 449.2263,995.5442 452.88116,995.1889 456.5219,994.6192 460.13452,993.8371 463.71274,992.84424 467.2693,991.632 476.76974,987.5409 480.03818,985.89777 483.21564,984.01276 486.2776,981.9045 489.2221,979.5818 492.04074,977.05664 494.72598,974.3413 497.27374,971.4453 499.67773,968.3794 501.93204,965.1547 504.0302,961.7817 505.96646,958.27155 507.73325,954.638 509.32697,950.8869 510.7403,947.0326 512.13086,942.50934 514.18744,934.71655 515.82196,925.9039 516.76,916.9863 516.95825,912.4917 516.77655,903.5216 516.3873,899.0297 515.7944,894.60376 514.9918,890.224 513.97375,885.89764 512.73535,881.63745 511.22406,877.3374 506.87115,867.37396 503.81277,861.81854 500.43414,856.6721 496.65686,851.78876 492.4586,847.1637 488.05017,843.0227 483.37827,839.28674 478.5822,836.0439 473.36932,833.11444 468.09042,830.7176 462.80356,828.8494 457.2827,827.4368 451.51306,826.5298 445.90207,826.20135 Z M1325.8512,826.1975 L1320.1962,826.44257 1315.0409,827.172 1307.9972,828.54565 1307.177,829.0337 1301.1476,831.17914 1296.7278,833.2479 1292.3499,835.71216 1288.3246,838.37146 1284.337,841.41895 1280.5254,844.76324 1276.9043,848.3888 1273.4895,852.2807 1270.2972,856.42236 1267.3414,860.7996 1264.6373,865.3981 1262.2007,870.20215 1260.0461,875.197 1258.1887,880.36896 1256.1315,887.45435 1254.6523,894.7174 1253.7439,902.11676 1253.401,909.6975 1253.6279,917.1826 1254.4113,924.62427 1255.7163,931.8295 1258.3937,942.7214 1259.763,947.4219 1261.4258,952.0041 1263.361,956.421 1265.555,960.6583 1267.9934,964.69806 1270.6643,968.52905 1273.5525,972.13257 1276.6453,975.4954 1279.963,978.6295 1283.4283,981.4636 1287.1455,984.06714 1290.8344,986.2531 1294.749,988.17914 1298.7902,989.77405 1302.404,990.8598 1307.2378,992.78796 1313.0436,994.4038 1318.9226,995.37274 1324.9148,995.7155 1330.8822,995.4313 1336.7495,994.5594 1342.4094,993.1569 1348.0903,991.1772 1353.7377,988.60736 1358.9766,985.63916 1364.1064,982.1207 1368.9781,978.1292 1373.5571,973.6828 1377.8085,968.79913 1381.6929,963.5009 1385.1678,957.8231 1387.7295,953.04785 1389.9943,948.0628 1391.953,942.9069 1393.6034,937.60583 1394.9443,932.1877 1395.9758,926.67163 1396.696,921.08856 1397.1047,915.45294 1397.2002,909.7995 1396.9814,904.1508 1396.4473,898.528 1395.5969,892.9592 1394.4286,887.4674 1392.9417,882.07733 1391.135,876.8155 1388.9999,871.68915 1386.2566,865.9846 1383.1405,860.59753 1379.6006,855.4375 1375.8638,850.7918 1371.6841,846.3392 1367.3058,842.3465 1362.6803,838.74677 1357.9365,835.6203 1352.8077,832.8085 1347.729,830.55206 1342.409,828.7118 1336.9863,827.36127 1331.3478,826.5035 1325.8512,826.1975 Z M838.6056,19.733301 L937.6862,19.736303 951.8912,20.650206 966.1088,21.86879 980.3165,23.395926 994.50916,25.236155 1008.67316,27.393013 1022.8095,29.872032 1036.9049,32.676678 1050.9556,35.811913 1064.949,39.280754 1078.8854,43.08964 1092.7516,47.241116 1106.5421,51.74025 1120.2501,56.591385 1133.8699,61.79947 1147.3903,67.36739 1160.7975,73.296364 1173.8949,79.38906 1186.8606,85.80963 1199.706,92.5562 1212.42,99.61628 1225.0112,106.98774 1237.469,114.65753 1249.7964,122.620804 1261.9879,130.86755 1274.045,139.39195 1285.9637,148.18497 1297.7421,157.23865 1309.3767,166.54372 1320.8685,176.09492 1332.2139,185.88286 1343.412,195.90082 1358.1245,209.5951 1359.0905,209.97621 1359.8083,209.78053 1378.0327,199.08238 1392.1973,191.4551 1406.5269,184.26276 1420.9939,177.44865 1435.57,170.95642 1450.2384,164.72427 1463.801,159.248 1464.7236,159.52458 1465.1621,159.45506 1480.1289,154.58281 1495.7266,149.73308 1511.3859,145.13684 1527.1074,140.83932 1542.8948,136.8849 1558.7489,133.31853 1574.6787,130.18344 1590.7017,127.523056 1607.2657,125.6481 1615.6282,124.92353 1624.0172,124.45363 1632.4131,124.32232 1640.8053,124.61295 1649.1708,125.40837 1657.4922,126.788994 1661.0634,127.6433 1664.739,128.6981 1668.3016,129.96188 1671.8325,131.54012 1674.6742,133.13858 1677.3439,135.04085 1679.7399,137.26831 1681.9305,140.00949 1684.5071,144.4281 1686.5538,149.15393 1688.1292,154.1092 1689.3159,159.31488 1690.1477,164.54562 1690.717,169.84969 1691.3184,179.9992 1690.856,191.23862 1689.9695,202.7361 1688.7039,214.15811 1687.0894,225.51085 1685.156,236.79987 1682.9358,248.0231 1680.4565,259.19455 1677.7502,270.31512 1671.7819,292.4043 1665.2771,314.31253 1651.9264,356.80588 1651.8616,357.28696 1652.2014,358.15408 1655.0771,359.8918 1655.2589,360.39267 1644.5405,389.31107 1639.5414,402.25662 1629.4503,427.10632 1618.9501,451.73035 1613.4523,463.8727 1607.7322,475.8718 1601.7511,487.69644 1594.4906,501.05807 1593.4159,504.14066 1592.9617,507.3322 1593.08,510.3312 1593.6305,513.0306 1594.4895,515.41455 1595.6272,517.6332 1610.4612,541.85974 1624.3577,565.0698 1651.742,611.8328 1678.6886,658.9438 1711.25,716.7019 1716.8522,727.30975 1722.111,738.14154 1726.9788,749.19775 1731.4114,760.4883 1735.3591,772.00793 1738.7777,783.7669 1741.6107,795.72675 1743.1682,803.12115 1744.46,810.5453 1745.496,818.0149 1746.2808,825.5173 1746.819,833.04004 1747.1162,840.58203 1747.1765,848.131 1747.0056,855.676 1746.6078,863.2124 1745.9883,870.72955 1745.1514,878.21857 1744.103,885.6688 1742.8473,893.0774 1741.3871,900.44086 1738.4352,912.7734 1738.0951,913.1067 1731.8759,914.4619 1731.4403,914.3201 1728.4745,911.14856 1727.5769,911.0393 1723.9719,911.7782 1711.8076,914.40717 1699.6788,917.2885 1687.597,920.3974 1675.5645,923.7104 1651.603,930.86957 1627.7501,938.5959 1603.9792,946.7138 1471.3402,993.3388 1440.5465,1004.02814 1409.7201,1014.544 1378.8398,1024.8328 1347.8982,1034.8374 1316.8796,1044.5021 1285.7728,1053.7704 1260.6143,1060.9425 1235.3785,1067.8473 1210.0765,1074.4539 1184.7,1080.7368 1159.2675,1086.664 1133.7681,1092.2094 1108.2148,1097.3425 1082.6066,1102.036 1056.9429,1106.2616 1031.2327,1109.9899 1005.4805,1113.1919 979.67957,1115.8405 953.8433,1117.906 927.9663,1119.3604 902.0619,1120.1747 876.0951,1120.3204 859.32904,1120.2676 842.53436,1119.9211 825.75,1119.2905 808.9778,1118.3848 792.2228,1117.213 775.4764,1115.7837 758.75055,1114.1061 742.04095,1112.1885 725.35236,1110.0408 708.6829,1107.6709 692.03595,1105.0881 675.4059,1102.2998 642.234,1096.1486 609.19244,1089.2914 586.19836,1084.184 563.26654,1078.7587 540.3956,1073.0353 517.5728,1067.0303 494.8054,1060.7648 472.08585,1054.2574 449.40988,1047.5259 426.77286,1040.589 381.62042,1026.1797 336.60626,1011.1817 291.70087,995.7447 175.4278,954.7691 139.6298,942.4253 103.72396,930.5669 85.55009,925.0283 67.276344,919.96136 48.912163,915.39026 36.06861,912.5689 35.72929,912.23785 33.64281,903.7498 32.15113,896.4818 29.732021,881.78723 28.820704,874.4049 28.109982,866.9753 27.60809,859.5233 27.320665,852.0616 27.252815,844.5956 27.410088,837.1296 27.797674,829.6797 28.420565,822.2512 29.28509,814.8443 30.395828,807.47565 31.758257,800.15076 34.285336,788.8862 37.273098,777.8006 40.703766,766.8983 44.558224,756.1929 48.81627,745.70105 53.45725,735.4399 58.463074,725.4204 63.79537,715.6905 89.71728,669.3906 115.98709,623.4133 142.55048,577.70703 173.28642,525.61127 173.47939,524.9908 173.29378,524.1845 173.0266,523.8504 167.57059,518.80994 163.41768,514.551 159.61058,509.85223 156.08669,504.76126 152.86685,499.4665 146.97295,488.3995 141.37903,477.11768 135.50511,464.59164 129.79729,451.9242 118.8554,426.2592 108.47103,400.23752 98.54875,373.94406 90.26928,350.39362 87.4813,343.44873 74.79133,300.6145 68.840355,278.8178 66.0928,267.83432 61.047886,245.36484 58.73948,233.8656 56.693745,222.28587 54.991695,210.64119 53.71361,198.94447 52.938255,187.20255 52.745155,175.42458 53.20861,163.69373 53.909172,158.17229 54.95641,152.66692 56.436134,147.14198 58.38772,141.84956 60.495144,137.5959 63.05498,133.76744 64.52129,132.06024 66.13129,130.50162 67.88984,129.11359 69.806465,127.91131 75.88276,125.1329 82.1378,123.05502 88.533134,121.58701 95.10904,120.6283 101.65893,120.109856 108.24542,119.92351 121.38848,120.1836 131.42169,121.05276 141.48236,122.19388 151.5239,123.59214 161.53946,125.23318 171.52914,127.10306 181.5108,129.19249 201.37769,133.9594 221.1299,139.42291 240.77263,145.47527 260.30783,152.00911 279.7574,158.92545 294.93988,165.08649 310.14215,171.47534 325.28043,178.14062 340.318,185.14835 355.21786,192.56485 369.94177,200.45537 384.45642,208.88774 403.02728,220.79253 403.81516,221.03021 404.34323,220.92696 404.79514,220.63483 420.06796,205.94902 431.6195,195.28008 443.3318,184.8471 455.20126,174.66124 467.22812,164.73112 479.40732,155.06906 491.739,145.68327 504.22293,136.58255 516.8542,127.77892 529.6343,119.27987 542.55835,111.09727 555.6281,103.23869 568.8367,95.71688 582.1912,88.53672 595.67926,81.71365 609.29596,75.25819 620.1336,70.32986 631.03815,65.64589 642.00665,61.203037 653.0407,56.995804 664.1349,53.02204 675.28577,49.27893 686.4892,45.763454 697.74005,42.47332 709.04,39.403915 720.37756,36.554398 731.7551,33.92035 743.16516,31.49972 754.6097,29.288391 766.0899,27.283102 788.9716,23.904352 838.6056,19.733301 Z M884.5601,1208.2709 L885.6758,1208.6315 887.1516,1210.0708 887.8144,1211.1353 888.25024,1212.236 888.4048,1213.705 887.74945,1216.0413 887.31384,1216.921 886.6161,1217.6509 884.91376,1218.4205 883.2037,1218.4927 882.39484,1218.2163 881.6367,1217.5428 880.3749,1215.7303 880.07086,1214.5201 880.0752,1213.145 880.5814,1210.8694 880.96747,1210.0162 881.5194,1209.3132 883.5586,1208.4302 884.5601,1208.2709 Z M884.08545,1188.3298 L880.8069,1188.7054 876.0498,1190.2174 873.4495,1191.6038 871.2344,1193.2673 868.9607,1195.571 867.1112,1198.073 865.572,1200.8201 864.38885,1203.6627 863.42804,1206.9971 862.8808,1210.219 862.68195,1213.3242 862.82965,1216.7208 863.29767,1219.7458 864.13367,1222.818 865.4065,1225.9039 866.876,1228.4602 868.1299,1230.117 870.1803,1232.5757 872.20654,1234.405 874.5712,1235.9956 877.28705,1237.2695 879.94855,1238.0488 882.65283,1238.4288 885.40594,1238.4159 888.1538,1238.0084 890.6367,1237.2877 893.19727,1236.1603 895.75867,1234.5751 897.96344,1232.7494 899.82776,1230.7543 901.6701,1228.1744 903.10205,1225.4584 904.1634,1222.6318 904.9904,1220.0538 905.60156,1216.754 905.7891,1213.2112 905.4922,1209.5458 904.81616,1206.3204 903.7089,1203.0558 902.13226,1199.8221 900.3762,1197.1378 898.18866,1194.5775 895.5764,1192.2814 893.0776,1190.6614 890.25543,1189.3849 887.01733,1188.5482 884.08545,1188.3298 Z M880.0823,1166.6276 L889.1251,1166.6577 893.5706,1166.9474 898.03284,1167.4337 902.47516,1168.1271 906.8833,1169.0352 912.238,1170.3885 917.6247,1172.0437 922.8617,1174.0265 928.0285,1176.4615 932.96796,1179.3877 937.59686,1182.8698 941.86694,1187.0109 943.8258,1189.3373 945.59076,1191.7551 947.21826,1194.523 948.34924,1197.5756 948.99884,1200.8445 949.1878,1204.1598 948.97076,1207.5505 948.4041,1210.8375 947.5471,1213.9518 946.39124,1216.9758 943.9165,1222.5479 941.0871,1227.8829 937.9193,1232.9745 934.43823,1237.7938 930.66656,1242.3142 926.6936,1246.4436 922.42377,1250.279 917.939,1253.728 913.2644,1256.7617 908.4245,1259.3518 903.4438,1261.4697 898.3475,1263.0869 893.16,1264.1754 887.9058,1264.7064 882.6097,1264.652 877.3674,1263.9926 873.1798,1262.9567 869.01935,1261.6184 864.92755,1259.9977 860.9164,1258.105 856.9965,1255.9503 853.1786,1253.544 849.47284,1250.8958 845.8898,1248.0161 842.43976,1244.915 839.132,1241.601 835.98004,1238.0874 832.9927,1234.3828 830.1778,1230.494 827.5502,1226.4363 825.11896,1222.2178 822.89185,1217.8441 821.5079,1214.6921 820.4189,1211.2655 819.6988,1207.7059 819.39575,1204.103 819.56464,1200.5248 820.2458,1197.1001 821.48834,1193.9001 823.3445,1190.9904 825.59454,1188.2135 828.0687,1185.5757 830.5988,1183.2393 833.23,1181.124 835.9558,1179.2109 838.7096,1177.5173 844.56464,1174.5438 851.1532,1171.966 857.98834,1169.9293 864.7938,1168.385 871.3119,1167.247 880.0823,1166.6276 Z M42.21728,934.2354 L63.4182,939.3993 81.27931,944.3527 99.04734,949.7679 134.83401,961.5876 170.51834,973.8934 286.82166,1014.8794 331.96188,1030.3933 377.2111,1045.4642 422.59836,1059.9421 445.3546,1066.9124 468.14902,1073.676 490.98712,1080.2146 513.87396,1086.5101 536.81604,1092.5444 559.8069,1098.296 582.8594,1103.7485 605.972,1108.882 639.41895,1115.822 672.9915,1122.0435 689.82526,1124.8634 706.67426,1127.4747 723.54565,1129.8705 740.434,1132.041 757.3475,1133.9791 774.2744,1135.6741 791.2195,1137.118 808.1783,1138.3019 825.1479,1139.2163 842.12494,1139.8528 867.0433,1140.2207 867.4204,1140.6113 867.2772,1147.4521 866.93384,1147.8534 861.457,1148.8196 853.64703,1150.624 845.8611,1152.9789 838.28076,1155.9581 834.3655,1157.8281 830.532,1159.926 826.80817,1162.2551 823.2083,1164.8265 819.7471,1167.6511 816.43805,1170.7415 813.29626,1174.1089 810.4807,1177.5801 792.6555,1201.3411 792.3784,1202.0647 792.5231,1202.826 793.0458,1203.3969 793.79236,1203.6082 801.76263,1200.6486 802.1769,1200.9392 802.089,1205.4384 802.29926,1208.6305 802.7233,1211.9512 803.3487,1215.2357 804.17004,1218.4677 805.182,1221.6276 806.444,1224.838 810.452,1232.9397 813.41003,1238.0651 816.59937,1242.9772 820.0187,1247.6859 823.65094,1252.1718 827.48737,1256.4281 831.51245,1260.4391 835.7175,1264.1968 840.08636,1267.6854 844.6084,1270.8949 849.2715,1273.813 854.0628,1276.4277 858.9701,1278.727 863.9792,1280.6979 866.93585,1281.6431 867.2361,1282.0533 867.3355,1389.474 866.576,1389.8594 866.17426,1390.6086 853.72534,1390.0498 837.10443,1388.9644 820.5011,1387.5536 803.921,1385.831 787.36707,1383.8096 770.8364,1381.5026 754.3345,1378.9237 737.8584,1376.0854 721.4131,1373.0015 704.9961,1369.6846 688.61414,1366.1492 672.25165,1362.4044 639.6452,1354.3525 607.1637,1345.628 587.1645,1339.5466 567.19385,1333.1515 547.2895,1326.4467 527.4582,1319.4279 507.70682,1312.0898 488.04013,1304.4276 468.47046,1296.4377 448.99713,1288.1134 429.63226,1279.4515 410.37933,1270.4459 391.25003,1261.0945 372.2455,1251.3896 353.3729,1241.3268 334.64255,1230.9028 316.05902,1220.1122 297.62296,1208.9459 275.29846,1194.6454 253.25047,1179.7268 242.34937,1172.0194 231.53362,1164.1327 220.81612,1156.064 210.20335,1147.8055 199.7064,1139.3533 189.3298,1130.698 179.08452,1121.8359 168.97528,1112.7577 159.01422,1103.4608 149.20197,1093.9319 139.55496,1084.1727 130.06631,1074.1616 118.3945,1061.0742 107.07421,1047.5151 96.174385,1033.4772 85.763245,1018.9552 80.75414,1011.4981 71.175995,996.19714 66.632385,988.3645 62.248055,980.3838 58.04088,972.26996 54.017,964.01715 50.17689,955.6056 42.957478,937.6525 41.91121,934.57 42.21728,934.2354 Z M1722.4248,932.40375 L1722.863,932.54144 1725.5084,935.4568 1725.9843,935.80096 1726.5587,935.92236 1733.7213,934.35614 1734.0162,934.69434 1730.7527,943.47766 1725.3805,956.2805 1719.5449,968.8295 1713.27,981.1115 1706.5826,993.10944 1699.5015,1004.81946 1692.0558,1016.22034 1684.2659,1027.3053 1676.1599,1038.0571 1663.3755,1053.9963 1650.109,1069.3367 1636.392,1084.1067 1622.263,1098.3263 1607.7604,1112.0144 1592.9203,1125.1937 1577.7793,1137.8842 1562.3916,1150.0942 1543.865,1164.3555 1525.0516,1177.9972 1505.9576,1191.0773 1486.6185,1203.6318 1467.0603,1215.7034 1447.3099,1227.3329 1427.3983,1238.5591 1407.3414,1249.4294 1381.5049,1262.5138 1355.4437,1274.9971 1329.1725,1286.88 1302.7062,1298.1631 1276.055,1308.8488 1249.2374,1318.9363 1222.262,1328.4291 1195.1411,1337.3282 1185.0563,1340.4282 1179.9691,1342.2681 1175.8992,1343.956 1168.767,1345.33 1144.4532,1352.2849 1113.9597,1360.0559 1083.3347,1367.1348 1052.6016,1373.4518 1037.1968,1376.3035 1021.7657,1378.9402 1006.3082,1381.353 990.83203,1383.533 975.3365,1385.4718 959.82153,1387.1611 944.2925,1388.5916 928.7488,1389.7557 913.1886,1390.6448 898.3397,1391.2222 895.51886,1390.7515 891.4727,1390.5743 885.12006,1390.9984 884.7221,1390.6271 884.62415,1284.9756 885.0125,1284.593 888.11835,1284.6362 894.6377,1284.0416 901.2459,1282.7501 907.84174,1280.7607 914.03595,1278.2373 920.27875,1275.0194 926.1894,1271.3014 931.85657,1267.061 937.2482,1262.3317 942.3361,1257.1438 947.0214,1251.6152 951.38525,1245.6559 955.4285,1239.214 958.9412,1232.6212 962.04694,1225.6405 964.1179,1220.0696 965.5822,1214.1852 966.39044,1208.1163 966.5029,1201.9908 965.85706,1195.7712 965.2845,1192.9508 964.4708,1190.0023 963.4218,1187.0674 962.2453,1184.4312 960.82544,1181.8253 956.8795,1176.1599 954.457,1173.2343 951.8727,1170.4901 949.1533,1167.9348 946.31274,1165.5638 943.2547,1163.297 937.1827,1159.4865 930.68,1156.2041 924.0115,1153.497 917.18005,1151.2738 910.32056,1149.493 905.27625,1148.4518 900.2129,1147.655 895.1276,1147.0907 890.02814,1146.7493 885.10754,1146.6381 884.7296,1146.2466 884.7943,1140.5875 885.17883,1140.2053 902.30975,1140.1093 928.48126,1139.2892 954.6203,1137.8242 980.726,1135.7426 1006.7946,1133.0729 1032.8153,1129.845 1058.7968,1126.0854 1084.7257,1121.8248 1110.605,1117.0902 1136.4294,1111.9108 1162.1938,1106.3158 1187.899,1100.3324 1213.5398,1093.9902 1239.1108,1087.3184 1264.613,1080.3439 1290.0376,1073.0972 1321.2544,1063.7965 1352.383,1054.0986 1383.4335,1044.0605 1414.4194,1033.738 1445.3474,1023.1893 1476.2365,1012.46814 1608.2864,966.02704 1631.8109,957.97943 1655.4176,950.31934 1679.1332,943.22156 1691.0396,939.93866 1703.0046,936.8561 1722.4248,932.40375 Z M97.981995,1539.7745 L100.06037,1551.106 101.89095,1559.0682 103.99043,1566.9336 106.357635,1574.6941 108.988556,1582.3322 111.88182,1589.8368 115.03398,1597.193 118.440674,1604.3833 122.103485,1611.4021 126.01411,1618.2257 130.17473,1624.8478 134.57942,1631.2499 139.22672,1637.4198 144.11885,1643.349 151.68053,1651.7924 159.71207,1659.6759 168.15862,1666.9497 176.98077,1673.5856 186.14581,1679.5613 195.61252,1684.848 205.37093,1689.4324 210.33348,1691.4475 219.07161,1694.453 219.36024,1694.8757 219.03127,1702.8357 218.33258,1710.5934 217.26448,1718.2902 215.80884,1725.8937 213.94928,1733.3611 211.66768,1740.6593 208.94554,1747.7538 204.87126,1756.5103 200.3547,1764.9951 195.43051,1773.1661 190.12126,1781.0077 184.45291,1788.5004 178.44897,1795.6262 172.1383,1802.3625 165.58833,1808.6525 161.19858,1812.2506 156.63097,1815.6366 151.95068,1818.6798 147.03806,1821.3632 141.97148,1823.5364 136.76762,1825.0934 134.08913,1825.6105 131.45067,1825.9255 128.74907,1826.038 125.97751,1825.9253 123.56345,1825.6182 121.153015,1825.0892 118.79424,1824.3541 116.49005,1823.4243 112.05486,1821.02 107.891914,1817.973 104.0245,1814.3691 100.48388,1810.298 97.30125,1805.8507 94.64194,1801.3455 93.962944,1800.7263 92.897606,1797.6904 90.77877,1790.668 88.950836,1783.5585 87.39416,1776.3721 86.08756,1769.1134 85.01039,1761.7825 83.470245,1746.9915 82.6146,1732.0939 82.279686,1717.1338 82.53066,1687.3317 83.54937,1666.9857 84.93629,1646.62 86.68085,1626.2761 88.77337,1605.9603 91.20386,1585.6833 93.96268,1565.4531 97.981995,1539.7745 Z M440.8933,1566.6523 L447.6833,1566.8146 454.3922,1567.3416 461.0832,1568.2434 464.18118,1568.8424 464.45886,1569.3107 459.83444,1583.7882 456.01276,1596.9917 452.59473,1610.3325 449.66742,1623.8167 447.3198,1637.4429 445.63937,1651.2297 445.07712,1658.187 444.71777,1665.1565 444.58844,1672.6268 444.75043,1680.0897 445.1981,1687.5294 445.92615,1694.9338 446.92902,1702.2937 448.20078,1709.5936 449.7363,1716.8267 451.52884,1723.9749 453.57388,1731.0328 455.86606,1737.9891 458.39804,1744.8267 461.16592,1751.5399 464.16357,1758.1152 467.3844,1764.5393 470.8187,1770.795 479.3715,1784.7743 484.7101,1792.3168 490.41165,1799.4856 496.436,1806.3142 502.73825,1812.8286 509.27386,1819.0536 515.3986,1824.4825 515.4527,1825.019 510.85217,1831.1405 496.5561,1848.3662 484.87354,1863.5837 476.5793,1874.0691 471.6926,1879.5637 466.6013,1885.748 461.70435,1892.1425 456.99335,1898.7262 452.4549,1905.4856 448.0893,1912.3855 441.31958,1923.9282 431.25748,1928.9149 418.8542,1934.1554 406.26697,1938.6686 393.5135,1942.468 380.62222,1945.562 367.62115,1947.9596 354.53268,1949.6714 341.38675,1950.7057 328.20746,1951.0726 315.0191,1950.7814 301.84988,1949.8411 288.72803,1948.2618 275.67548,1946.0522 262.72266,1943.2228 249.89188,1939.7815 237.2425,1935.7499 224.07861,1931.2872 211.00775,1926.3584 198.09932,1920.8567 185.46176,1914.6925 179.27116,1911.3308 173.15823,1907.7555 167.14874,1903.9609 161.25179,1899.9333 155.48085,1895.662 149.84467,1891.1339 144.34946,1886.331 135.20346,1877.5273 131.548,1873.6443 128.02856,1869.5923 124.64999,1865.3827 121.40278,1861.0066 115.36608,1851.8738 112.57416,1847.1239 109.94813,1842.0992 110.14904,1841.8795 114.540344,1843.6868 117.782166,1844.644 121.23058,1845.371 124.92182,1845.8206 128.33167,1845.967 131.72008,1845.863 135.18584,1845.5096 138.61955,1844.9205 142.01427,1844.1097 145.50104,1843.0435 152.0725,1840.4246 158.44437,1837.1472 164.49202,1833.3943 170.4507,1829.1072 176.15857,1824.4756 183.55222,1817.3839 190.60904,1809.853 197.30788,1801.9017 203.6202,1793.5533 209.52753,1784.8193 215.00208,1775.7229 220.02383,1766.2766 224.56116,1756.5166 227.71977,1748.3046 230.37497,1739.8787 232.54683,1731.2708 234.25325,1722.5168 235.51062,1713.6598 236.33762,1704.732 236.75142,1695.7754 236.76086,1691.096 237.0774,1690.6864 244.73415,1688.389 249.85114,1686.4685 254.90108,1684.2905 259.87512,1681.8685 264.76706,1679.2158 269.57388,1676.3445 274.29114,1673.2666 278.91528,1669.9944 283.43845,1666.542 287.84088,1662.9365 296.34848,1655.2399 305.5924,1646.0641 332.53174,1616.9763 341.1653,1608.1135 345.57956,1603.8668 350.10013,1599.7649 354.73676,1595.8466 359.50452,1592.143 364.422,1588.6832 369.30142,1585.6222 375.32657,1582.598 381.61346,1579.7329 387.98785,1577.1204 394.44003,1574.771 400.96014,1572.6975 407.53665,1570.9099 414.16547,1569.419 420.83066,1568.2367 427.52463,1567.374 434.23734,1566.8422 440.8933,1566.6523 Z M1206.9202,1418.515 L1210.9653,1421.5657 1215.9021,1425.8629 1220.642,1430.4884 1225.2216,1435.384 1233.895,1445.5874 1241.9788,1456.633 1249.6334,1468.0518 1256.8997,1479.848 1263.7838,1491.9808 1270.3,1504.4205 1276.4559,1517.1284 1282.2616,1530.0675 1287.7283,1543.2062 1292.3053,1555.1792 1296.6356,1567.3196 1300.671,1579.6165 1304.3654,1592.0603 1307.6741,1604.6483 1310.5537,1617.38 1312.9587,1630.2493 1314.8467,1643.2722 1315.851,1654.9927 1316.0549,1660.8757 1315.8834,1672.6545 1315.5093,1678.5272 1314.1978,1690.2351 1312.1521,1701.7799 1309.3904,1713.1136 1305.9355,1724.1624 1303.9573,1729.5502 1301.7933,1734.8925 1297.3346,1744.3994 1292.4165,1753.6105 1287.052,1762.4791 1281.2548,1770.9606 1275.0326,1779.0177 1268.4022,1786.6019 1261.3699,1793.6781 1253.9847,1800.1738 1248.8385,1804.382 1248.357,1805.1516 1248.4412,1806.0555 1253.0375,1816.3708 1255.0392,1819.9735 1257.3358,1823.4589 1280.0562,1852.082 1290.3447,1864.753 1297.1464,1872.68 1297.2388,1873.1082 1296.0001,1877.3452 1294.3969,1882.0835 1292.6106,1886.7218 1290.6477,1891.2543 1288.5039,1895.6974 1283.7875,1904.1372 1278.4349,1912.1421 1272.5287,1919.614 1266.1201,1926.5134 1259.26,1932.804 1251.9379,1938.4916 1248.1746,1941.0515 1240.4702,1945.6127 1232.3597,1949.5017 1228.2817,1951.1246 1224.1235,1952.562 1219.9264,1953.793 1215.6912,1954.8152 1211.4266,1955.6224 1207.1403,1956.2109 1202.8353,1956.5756 1198.5232,1956.7122 1186.8474,1956.4943 1180.127,1955.6719 1173.5809,1954.2656 1166.9991,1952.3136 1160.5839,1949.9636 1154.2386,1947.2786 1144.6967,1942.7175 1144.465,1942.4838 1136.9113,1926.2665 1132.6743,1916.4963 1128.6106,1906.6143 1124.7355,1896.6287 1121.0576,1886.5283 1116.4706,1872.7275 1116.6146,1872.2485 1117.9176,1871.2258 1123.9656,1867.6 1132.2667,1862.1362 1140.4199,1856.3718 1148.4187,1850.2998 1156.2428,1843.9213 1163.871,1837.2384 1171.2878,1830.249 1178.4711,1822.9572 1185.4043,1815.3595 1192.0648,1807.462 1198.4396,1799.2572 1204.5024,1790.755 1210.2401,1781.948 1215.6309,1772.8402 1220.6543,1763.4354 1225.2955,1753.7257 1229.5289,1743.7261 1232.2218,1736.3687 1234.6738,1728.9305 1236.8939,1721.4053 1238.8855,1713.7976 1240.6509,1706.1155 1242.191,1698.3702 1243.5088,1690.5695 1244.6062,1682.7195 1245.485,1674.831 1246.147,1666.9167 1246.5948,1658.9791 1246.8303,1651.0269 1246.8553,1643.0728 1246.6721,1635.1234 1246.2834,1627.1991 1244.4279,1605.218 1242.8846,1591.2043 1241.0785,1577.2527 1239.027,1563.3562 1236.7463,1549.5029 1234.2567,1535.7067 1228.7145,1508.2411 1222.5388,1480.9288 1215.8734,1453.7659 1206.6885,1418.6704 1206.9202,1418.515 Z M577.72626,1421.0234 L578.01154,1421.234 568.58826,1459.6869 562.08844,1488.467 556.1156,1517.3964 550.77374,1546.4873 548.3718,1561.0984 546.1683,1575.7446 544.1754,1590.4309 542.40607,1605.1608 540.87286,1619.9382 539.5923,1634.7101 538.99896,1653.289 538.96136,1671.7354 539.2678,1680.9231 539.854,1690.0607 540.7662,1699.1508 543.3008,1716.569 544.83374,1724.8728 546.64825,1733.099 548.73895,1741.236 551.1006,1749.2753 553.72687,1757.2032 556.61456,1765.0149 559.7553,1772.6913 563.1469,1780.2283 566.7803,1787.6082 570.65283,1794.8246 574.7571,1801.8628 579.0907,1808.7172 583.64294,1815.3674 588.40436,1821.7996 597.762,1833.2054 602.26996,1838.2211 611.634,1847.7314 621.4601,1856.6165 631.682,1864.885 642.2429,1872.5596 653.097,1879.672 664.1858,1886.2432 670.04395,1889.3906 670.2375,1889.8878 665.24426,1904.2272 658.4874,1921.4902 651.24365,1938.4874 644.7834,1952.6606 641.91296,1954.4178 636.67126,1957.2007 631.3069,1959.6421 625.8416,1961.7382 620.2862,1963.4899 614.657,1964.8955 608.97394,1965.952 603.2536,1966.6582 597.50586,1967.0132 591.7537,1967.0151 586.0111,1966.6619 580.2923,1965.9523 574.6193,1964.8854 569.0013,1963.458 563.4596,1961.6705 558.0205,1959.5253 552.1841,1956.8617 546.5248,1953.7987 541.03534,1950.3472 535.7277,1946.5223 530.6127,1942.3407 525.71027,1937.8231 521.02966,1932.9845 516.5845,1927.8413 512.3914,1922.4144 508.46262,1916.7196 504.811,1910.7734 501.4513,1904.594 498.39755,1898.1998 495.65866,1891.596 492.87546,1883.4774 492.9468,1883.0465 509.94666,1861.0776 524.8957,1842.8926 528.49304,1838.1952 531.9105,1833.3219 535.1206,1828.1595 539.2026,1821.1337 539.4091,1820.4426 539.35864,1820.0175 538.89124,1819.2999 526.66144,1809.2684 520.5615,1803.8892 514.61664,1798.2662 508.8723,1792.3738 503.37253,1786.1829 498.16043,1779.6669 493.27255,1772.7878 485.49445,1760.0902 482.41843,1754.495 479.53043,1748.7493 476.84305,1742.8751 474.36133,1736.883 472.09128,1730.7843 470.0356,1724.5829 468.2017,1718.2952 466.59378,1711.9282 465.21677,1705.4924 464.07587,1698.9972 463.17587,1692.4526 462.52213,1685.8665 462.11978,1679.2548 461.97336,1672.6172 462.08917,1665.9625 462.96478,1652.8784 464.5664,1639.9504 466.80566,1627.1594 469.59473,1614.5006 472.84476,1601.9769 476.46872,1589.5815 480.37592,1577.3214 484.49283,1565.1534 489.7476,1551.2584 495.40558,1537.5425 501.46085,1524.05 507.9135,1510.8098 514.7657,1497.8447 522.0173,1485.1835 529.6687,1472.8528 537.65393,1460.982 543.45844,1453.4607 549.70184,1445.8137 556.2561,1438.4872 563.14636,1431.7137 566.46045,1428.8271 569.8865,1426.1086 573.3522,1423.6423 577.72626,1421.0234 Z M1311.0538,1889.1564 L1316.2726,1895.8048 1323.3322,1905.8422 1326.6434,1911.0411 1329.7969,1916.3844 1332.7606,1921.8575 1335.5145,1927.462 1338.037,1933.1979 1340.3099,1939.07 1342.3109,1945.0764 1344.0211,1951.2219 1345.419,1957.5052 1346.4755,1963.8624 1347.0587,1971.3011 1347.2758,1978.8569 1347.0555,1986.475 1346.3347,1993.9586 1345.0227,2001.386 1343.05,2008.5765 1341.7695,2012.1106 1340.3132,2015.4932 1338.6542,2018.7668 1336.8286,2021.8468 1334.4608,2025.2485 1332.0145,2028.4125 1326.6422,2034.383 1320.7892,2039.7101 1314.4884,2044.383 1311.254,2046.4219 1304.4829,2049.9968 1297.4697,2052.8032 1293.8324,2053.9246 1290.2085,2054.8232 1282.8057,2056.1667 1279.1163,2056.6145 1271.5912,2056.9685 1264.0933,2056.6213 1256.6035,2055.6267 1249.1794,2054.0466 1241.9022,2051.9563 1234.7467,2049.4075 1227.7882,2046.4846 1218.2908,2041.5267 1209.1322,2035.8569 1200.2202,2029.3933 1195.957,2025.9272 1191.7789,2022.2694 1187.7148,2018.4377 1183.7723,2014.4344 1179.9576,2010.26 1176.2823,2005.9219 1172.749,2001.416 1169.369,1996.7489 1166.1484,1991.9222 1163.1188,1986.9774 1158.5433,1977.2925 1155.0667,1969.1112 1155.3213,1968.843 1163.665,1971.8792 1171.1393,1973.9967 1178.8226,1975.558 1186.3687,1976.4186 1190.2437,1976.5818 1198.5635,1976.6489 1203.6207,1976.4928 1208.6854,1976.0703 1213.7212,1975.3881 1218.7249,1974.45 1223.6909,1973.2621 1228.6105,1971.8297 1233.4745,1970.1593 1238.279,1968.2545 1243.0155,1966.1216 1247.6749,1963.7675 1252.2538,1961.1953 1256.741,1958.4124 1261.1332,1955.4222 1265.4199,1952.2327 1269.5956,1948.8478 1273.6532,1945.2727 1277.5852,1941.514 1281.3862,1937.5746 1285.0461,1933.4633 1288.5592,1929.1835 1291.9185,1924.7413 1295.1165,1920.1417 1298.1464,1915.3905 1301.0006,1910.4929 1303.6715,1905.4564 1306.1544,1900.2802 1308.436,1894.9847 1310.5991,1889.2267 1311.0538,1889.1564 Z M479.27957,1899.4326 L479.74075,1899.4949 482.91876,1907.2822 486.45685,1914.6917 490.34555,1921.8427 494.57318,1928.7233 499.1197,1935.3075 503.9763,1941.5851 509.12036,1947.5271 514.54144,1953.121 520.2238,1958.3457 526.14844,1963.1783 532.3035,1967.6025 538.67084,1971.5973 545.23627,1975.1433 552.00775,1978.2308 558.3398,1980.7279 564.7888,1982.8088 571.3279,1984.4711 577.93274,1985.7139 584.5865,1986.5394 591.2725,1986.9502 597.9677,1986.947 604.6557,1986.5321 611.3155,1985.7075 617.9347,1984.4739 624.4888,1982.8344 630.96234,1980.7892 635.3203,1979.1138 635.43805,1979.2902 631.58356,1988.5195 629.34827,1993.1733 626.9305,1997.6884 624.33026,2002.0809 618.7072,2010.3822 612.48785,2018.2081 605.83716,2025.4705 598.80975,2032.233 591.4907,2038.5171 584.0095,2044.3091 574.9922,2050.1238 570.3868,2052.747 565.6771,2055.1975 560.8904,2057.4517 556.03394,2059.4966 551.1153,2061.3218 546.1421,2062.9146 541.1172,2064.266 536.058,2065.3616 530.9621,2066.192 525.84235,2066.7444 520.7024,2067.008 515.5538,2066.9712 510.40155,2066.6226 505.3279,2065.9636 498.25604,2064.427 491.24313,2062.2578 484.30035,2059.3943 481.0339,2057.7632 474.55563,2053.898 471.4031,2051.6602 468.405,2049.2727 465.52362,2046.6991 462.76767,2043.9346 460.14917,2040.9773 457.67447,2037.8154 453.28384,2031.3392 451.3683,2027.9504 449.7262,2024.5145 448.30197,2020.9708 447.0838,2017.3322 446.0751,2013.6685 444.56195,2006.0175 443.69843,1998.1967 443.3921,1990.2346 443.55698,1982.3884 444.0986,1974.6663 444.74197,1969.5334 445.69846,1964.5336 446.9177,1959.6216 448.35196,1954.7677 451.63358,1945.2487 454.8241,1936.6879 462.15918,1924.0964 466.20023,1917.6932 470.40256,1911.4159 474.76724,1905.2988 479.27957,1899.4326 Z M1171.9127,1364.9296 L1172.387,1365.1907 1184.0345,1403.0913 1185.5254,1407.5566 1192.1265,1432.1494 1199.0248,1458.683 1205.5846,1485.3431 1211.6655,1512.1495 1217.1251,1539.1111 1219.5779,1552.6542 1221.8245,1566.2537 1223.8458,1579.9031 1225.6243,1593.6028 1227.1425,1607.3608 1228.3828,1621.1776 1229.294,1635.8109 1229.449,1650.4518 1228.8363,1665.0564 1228.2378,1672.3223 1227.4402,1679.5721 1226.4421,1686.7859 1225.2415,1693.9552 1223.8365,1701.0692 1222.225,1708.1229 1220.4052,1715.1038 1218.3748,1722.0084 1216.1321,1728.8247 1213.6665,1735.567 1209.7421,1744.8258 1205.4352,1753.8104 1200.7682,1762.5121 1195.7595,1770.9335 1190.4285,1779.073 1184.793,1786.9324 1178.8745,1794.507 1172.6898,1801.8009 1166.2622,1808.8081 1159.6041,1815.5355 1152.7428,1821.9741 1145.6908,1828.1306 1138.4713,1834.0006 1131.1007,1839.5857 1123.5999,1844.8845 1115.9656,1849.9093 1111.8677,1852.284 1107.6213,1855.1581 1104.9797,1857.3458 1103.7217,1857.5885 1092.4949,1863.7782 1084.4377,1867.9039 1063.5424,1878.0555 1063.1927,1878.2957 1062.7833,1878.9983 1063.6617,1903.4164 1065.0613,1921.5662 1066.9637,1939.6606 1069.2555,1957.6594 1070.8533,1965.6758 1072.7109,1973.5619 1074.8057,1981.3385 1077.1122,1989.0095 1082.2703,2004.078 1088.0037,2018.8542 1094.138,2033.4406 1110.7196,2071.2932 1110.6814,2071.732 1107.3062,2076.818 1103.8723,2081.445 1100.2444,2085.8733 1096.4408,2090.0845 1092.4662,2094.0781 1088.3353,2097.8416 1084.0554,2101.3699 1079.6401,2104.654 1075.0984,2107.6877 1070.4391,2110.4636 1065.6757,2112.973 1060.8132,2115.2112 1055.8699,2117.1665 1050.8483,2118.8354 1045.763,2120.2085 1041.0077,2121.18 1036.2013,2121.9097 1031.3738,2122.3936 1026.5288,2122.6316 1021.67786,2122.6226 1016.8305,2122.3674 1011.997,2121.8655 1007.1842,2121.1162 1002.40814,2120.1199 997.67224,2118.8762 992.9885,2117.3845 988.364,2115.6443 983.8129,2113.6567 979.3424,2111.4207 974.96216,2108.9355 970.72034,2106.2288 967.0962,2103.8455 963.68976,2101.2783 957.26013,2095.692 947.452,2086.2095 944.0843,2068.748 941.0107,2048.147 938.69025,2027.4177 937.07855,2006.5951 936.1297,1985.7009 935.80005,1964.7795 936.04456,1943.853 937.3017,1913.4049 937.1768,1912.7533 936.42487,1912.0276 935.8835,1911.9209 902.16113,1914.2827 889.42834,1914.9352 876.7075,1915.1809 869.0766,1915.1671 868.52515,1915.279 868.07526,1915.5825 867.77234,1916.0328 867.66125,1916.5846 868.5811,1942.896 868.7978,1960.1476 868.50806,1994.6776 867.98047,2007.1124 867.1489,2019.535 866.0317,2031.9376 864.6482,2044.3069 863.01605,2056.6472 861.1543,2068.9487 857.2598,2090.5732 851.1878,2096.8826 847.0077,2100.7334 842.67053,2104.3816 838.19824,2107.802 833.60126,2110.9817 828.8909,2113.9067 824.0709,2116.5698 819.1543,2118.9556 814.1519,2121.0525 809.06964,2122.849 803.92053,2124.3333 798.71173,2125.4934 793.4508,2126.3179 788.23285,2126.7898 776.35,2126.9644 769.8464,2126.5066 763.3935,2125.556 757.0133,2124.1267 750.64636,2122.2073 744.47437,2119.862 738.43427,2117.083 732.5459,2113.8865 726.8293,2110.286 721.30585,2106.299 715.9891,2101.9346 710.90656,2097.214 706.07367,2092.1484 701.5119,2086.755 697.24005,2081.0454 693.8325,2075.8452 693.7952,2075.4077 713.5785,2030.1123 718.68726,2017.6283 723.47485,2004.9891 727.8381,1992.1428 731.67334,1979.041 733.76465,1970.0292 735.46173,1960.9421 736.8355,1951.788 737.9533,1942.5914 739.6967,1924.1066 741.8539,1897.5668 741.3101,1896.7821 740.85834,1896.5675 727.9694,1893.0433 721.5935,1890.8955 708.9785,1886.0048 687.5801,1877.1685 686.7145,1876.2218 672.05206,1868.4635 661.72784,1862.3628 651.6086,1855.7587 641.75214,1848.6262 632.2129,1840.9421 623.0537,1832.691 618.6221,1828.3341 610.0945,1819.1515 606.0339,1814.3433 601.4844,1808.6616 597.1374,1802.79 592.9879,1796.7288 589.0382,1790.4817 585.29724,1784.0656 581.76697,1777.4851 578.4541,1770.7533 575.3611,1763.8746 572.4962,1756.8661 569.86127,1749.73 567.4641,1742.483 565.30725,1735.1294 563.3967,1727.6814 561.737,1720.146 560.3332,1712.5336 557.9698,1696.2516 557.1172,1687.6571 556.57874,1679.0516 556.30725,1670.4358 556.37317,1653.2344 556.93396,1636.0508 558.189,1621.6113 559.6944,1607.1537 561.4344,1592.7285 563.3966,1578.3319 567.9323,1549.6411 573.19324,1521.0999 579.07684,1492.6893 585.47766,1464.4102 592.29004,1436.264 599.41376,1408.2306 606.2695,1383.2876 610.8159,1367.4786 611.28937,1367.2109 635.9789,1373.84 652.4819,1378.008 685.5943,1385.7816 702.2061,1389.3619 718.8457,1392.7186 735.5142,1395.839 752.21436,1398.7104 768.94086,1401.3193 785.6967,1403.6531 802.4765,1405.6976 819.2826,1407.4403 836.1133,1408.8678 852.96216,1409.9663 869.3139,1410.7001 872.12805,1411.2637 876.4478,1411.5507 880.5441,1411.4126 890.4366,1410.4712 893.25055,1410.5092 897.1377,1411.2052 913.86755,1410.5653 929.64496,1409.6652 945.4103,1408.4867 961.1593,1407.0382 976.8868,1405.3293 992.59894,1403.3674 1008.28766,1401.1616 1023.95526,1398.72 1039.5966,1396.0516 1055.2112,1393.1653 1070.7997,1390.0685 1086.349,1386.7725 1117.3591,1379.6093 1148.087,1371.7797 1155.8557,1369.6095 1163.5582,1367.2057 1171.9127,1364.9296 Z M1119.3198,2091.3823 L1119.7786,2091.4395 1123.902,2101.4153 1128.3564,2114.0728 1130.2871,2120.509 1131.9982,2127.0361 1133.4585,2133.6252 1134.6444,2140.268 1135.5319,2146.9558 1136.097,2153.6807 1136.3157,2160.4333 1136.1647,2167.2063 1135.6193,2173.9932 1134.6696,2180.7036 1133.4263,2186.298 1131.9756,2191.8662 1130.2853,2197.3882 1128.3312,2202.8047 1126.0881,2208.064 1123.5762,2213.0295 1120.6948,2217.8018 1117.4363,2222.2686 1114.0806,2225.6914 1110.4977,2228.8286 1106.7335,2231.6567 1102.8059,2234.1782 1098.701,2236.4087 1094.4609,2238.3384 1090.154,2239.9456 1085.7615,2241.254 1081.2998,2242.2654 1076.788,2242.9824 1072.2407,2243.4082 1067.6846,2243.5425 1063.1349,2243.389 1058.6061,2242.9492 1054.1979,2242.2397 1045.3829,2240.1018 1041.172,2238.7585 1037.0114,2237.1885 1032.9215,2235.4067 1028.902,2233.4238 1024.9342,2231.238 1017.3178,2226.404 1009.87787,2220.8518 1002.8169,2214.807 996.0716,2208.307 989.68304,2201.478 984.7033,2195.184 979.9288,2188.6555 975.373,2181.873 971.07086,2174.842 967.0537,2167.564 963.35657,2160.0461 960.0113,2152.29 957.052,2144.2993 955.04694,2137.7415 953.4786,2131.0881 952.2471,2124.3247 951.10205,2115.3638 954.6472,2118.3154 958.33905,2121.0723 967.1142,2126.738 972.16376,2129.603 977.3165,2132.1794 982.56915,2134.473 987.91,2136.4817 993.32776,2138.2063 998.81335,2139.6465 1004.3498,2140.8008 1009.93335,2141.6702 1015.5468,2142.2534 1021.1812,2142.5508 1026.8251,2142.5618 1032.4672,2142.286 1038.0946,2141.723 1043.7018,2140.8726 1049.2585,2139.7373 1055.1984,2138.1343 1061.0548,2136.191 1066.821,2133.914 1072.4797,2131.314 1078.025,2128.3977 1083.4418,2125.1748 1088.7224,2121.6523 1093.8513,2117.8403 1098.8191,2113.7458 1103.6157,2109.3765 1108.2283,2104.7412 1112.642,2099.8525 1116.8514,2094.7114 1119.3198,2091.3823 Z M685.3755,2095.7922 L688.6997,2100.2302 694.0162,2106.5112 699.6441,2112.4033 705.563,2117.8928 711.7479,2122.9617 718.1742,2127.5916 724.8182,2131.767 731.66187,2135.474 738.6766,2138.6934 745.83887,2141.4077 753.29236,2143.6428 760.6704,2145.2864 768.0424,2146.3682 775.66815,2146.901 789.2461,2146.7024 795.332,2146.1643 801.396,2145.2258 807.41223,2143.9023 813.36273,2142.2073 819.2423,2140.1514 825.0287,2137.7515 830.7233,2135.016 836.3097,2131.9587 841.7728,2128.5947 847.0948,2124.9429 853.57635,2119.893 852.9293,2125.8643 851.75226,2133.074 850.2444,2140.192 848.3238,2147.0642 845.81146,2153.8662 842.047,2162.7705 837.90375,2171.4324 833.385,2179.8105 828.4916,2187.869 823.2249,2195.5715 817.58453,2202.884 811.62775,2209.709 801.60596,2219.61 793.93604,2226.135 789.9967,2229.1018 785.94336,2231.9048 781.80316,2234.5176 777.5827,2236.9314 773.2879,2239.1375 768.9247,2241.1277 764.4975,2242.8928 760.016,2244.424 755.48456,2245.7131 750.90906,2246.7512 746.29596,2247.5298 741.64886,2248.0405 737.0525,2248.2727 730.5283,2247.7952 723.9535,2246.7837 717.4158,2245.1995 710.9914,2243.0027 704.75714,2240.156 701.7402,2238.479 695.9301,2234.5808 693.11536,2232.312 690.4574,2229.8906 687.9656,2227.3289 685.2024,2223.705 682.69604,2219.9358 680.39825,2215.979 678.30817,2211.853 676.42456,2207.575 674.7455,2203.1614 673.26843,2198.6252 671.99445,2193.9917 670.92,2189.2715 670.044,2184.484 669.3651,2179.6458 668.88007,2174.7473 668.4932,2165.0364 668.859,2155.4084 670.1066,2145.34 671.97754,2135.4778 674.39557,2125.781 677.28125,2116.2498 680.5616,2106.8628 684.9215,2095.8528 685.3755,2095.7922 Z M807.03784,-0.20248765 L786.6388,4.1671734 763.8331,7.5347004 751.99725,9.599405 740.20886,11.874633 728.4641,14.363925 716.75995,17.071459 705.1037,19.999365 693.49304,23.151865 681.93884,26.529943 670.4383,30.1381 658.9968,33.978733 647.61957,38.05402 636.304,42.369114 625.0611,46.923916 613.8866,51.724358 602.7844,56.77338 588.8548,63.37652 575.04834,70.35895 561.3846,77.70276 547.86334,85.398964 534.485,93.438835 521.2547,101.81034 508.17123,110.50566 495.23822,119.51392 482.4605,128.82294 469.83337,138.42752 457.36395,148.31429 445.05057,158.4757 432.8986,168.8993 420.9081,179.57668 409.0809,190.49796 402.2658,197.01704 401.74792,197.06885 392.79907,191.39682 377.91486,182.74 362.8116,174.63326 347.52524,167.01016 332.08658,159.80176 316.5319,152.9418 300.8956,146.363 286.21616,140.40588 277.2703,133.91823 267.1285,127.1731 256.78714,120.85772 246.28163,114.93868 235.62825,109.37105 224.85767,104.118164 213.99129,99.138626 203.06819,94.39843 188.5901,88.555 174.0099,83.0738 159.33372,77.99077 144.55461,73.33792 129.68138,69.152626 114.71276,65.46906 99.65369,62.32335 84.52219,59.754223 73.99278,58.817245 63.530605,58.35963 53.111847,58.384686 42.755375,58.902046 38.77361,59.519897 34.851437,60.34754 30.950489,61.438717 27.188416,62.80876 23.569641,64.505974 20.339355,66.49954 19.05213,65.98794 18.303593,66.202324 17.785934,66.76811 16.353888,69.55528 15.5525055,70.093 11.625277,74.81467 9.797922,77.64776 8.198235,80.65991 6.8445964,83.721146 4.571135,90.352066 3.2141354,95.704544 -0.051145457,102.22882 -0.2025,102.89043 -0.18420792,130.06313 4.087498,156.89551 5.362026,163.96805 6.9047637,170.9576 8.807026,177.8237 10.989065,184.0318 16.185755,203.83237 22.289364,224.75414 28.90878,245.40898 36.02025,265.80463 43.59453,285.93405 51.60949,305.80905 60.038574,325.42953 67.87051,342.6325 68.55911,346.5544 69.34793,348.80472 70.54444,351.09818 72.3897,353.50885 74.620125,359.07794 82.57071,381.80096 92.6526,408.51245 103.21936,434.9751 114.378265,461.1299 120.211006,474.06708 126.21491,486.8672 136.08281,506.1489 139.6236,512.3742 143.38173,518.3627 147.45204,524.0906 150.58632,527.89453 150.6258,528.3933 128.10083,566.6206 101.46907,612.44495 75.14565,658.5161 43.484478,715.29236 38.11226,726.05756 33.133667,737.0858 28.565865,748.3657 24.430145,759.87787 20.746784,771.6074 17.538067,783.532 14.822657,795.6463 13.337657,803.6228 12.124086,811.64417 11.175948,819.7056 10.488395,827.7947 10.055707,835.90686 9.87262,844.02997 9.933795,852.15924 10.233763,860.2821 10.767227,868.3923 11.529005,876.4831 12.513344,884.5419 13.715106,892.56305 15.129178,900.53906 16.675978,908.0577 16.317389,908.70886 16.336624,909.448 20.593845,924.12537 21.67263,928.76434 23.132828,934.01483 26.577427,944.31366 30.488892,954.4206 34.555756,964.35205 38.587265,973.1887 42.80931,981.8612 47.217064,990.38055 51.807484,998.7582 56.56981,1006.9905 61.49113,1015.07196 71.802185,1030.8269 82.68913,1046.055 94.08056,1060.758 105.91288,1074.9508 118.126144,1088.653 127.826454,1098.889 137.69014,1108.871 147.7151,1118.6119 157.89514,1128.1201 168.22404,1137.4034 178.69243,1146.4668 189.28973,1155.315 200.01591,1163.9604 210.85379,1172.4028 221.79613,1180.649 243.9825,1196.5939 266.5185,1211.8523 289.33575,1226.4717 308.0123,1237.784 326.83606,1248.7158 345.8079,1259.276 364.92285,1269.4706 384.1711,1279.3025 403.54633,1288.777 423.04733,1297.901 442.66214,1306.6769 462.38763,1315.1116 482.21228,1323.2072 502.1369,1330.9719 522.1495,1338.4083 542.24506,1345.5215 562.4176,1352.3171 582.6605,1358.7996 593.6484,1362.1403 593.90814,1362.6174 589.68396,1377.31 584.3538,1396.7096 584.0583,1397.0244 579.2988,1398.6663 574.53784,1400.7366 569.8566,1403.184 565.2727,1405.9868 560.8271,1409.0931 556.51373,1412.4762 552.3443,1416.0927 544.83276,1423.4583 537.6859,1431.4058 533.2922,1436.7588 532.3996,1436.906 531.90265,1437.3455 524.1484,1448.4193 515.7324,1460.9326 507.71985,1473.8397 500.12537,1487.0925 492.94772,1500.6664 486.18637,1514.5344 479.83823,1528.6752 473.9029,1543.0624 471.39322,1549.6991 470.9305,1549.9565 463.84604,1548.5616 456.42285,1547.5426 448.98032,1546.935 441.52682,1546.7273 434.0734,1546.9078 426.6306,1547.4651 419.2095,1548.3883 411.8204,1549.6656 404.47263,1551.2865 397.18417,1553.2375 389.9543,1555.5105 382.8121,1558.0876 374.5912,1561.516 373.85083,1561.0875 373.41577,1561.0201 372.7004,1561.2152 361.54245,1567.7738 355.96008,1571.2681 350.52338,1575.0741 345.25113,1579.1403 340.13647,1583.4272 330.25467,1592.5924 320.72266,1602.3445 294.29468,1630.9098 285.21878,1639.924 277.79016,1646.6636 270.00635,1652.8724 261.96753,1658.4126 253.48666,1663.3308 249.19852,1665.4591 244.82141,1667.387 240.38142,1669.0902 235.88269,1670.5552 231.33665,1671.769 226.73538,1672.7218 222.0927,1673.3999 219.1142,1673.6503 211.45435,1670.7593 202.67831,1666.6345 194.21524,1661.9022 186.01878,1656.551 178.11742,1650.6007 170.54846,1644.0767 163.34196,1636.9983 156.55139,1629.4131 152.14449,1624.0698 147.96066,1618.5093 143.99524,1612.7365 140.25388,1606.769 136.73444,1600.6132 133.44243,1594.2875 130.37827,1587.8007 127.54599,1581.1696 124.94684,1574.4052 122.58274,1567.5188 120.457184,1560.5273 118.570656,1553.4375 116.92768,1546.2706 115.52651,1539.0164 112.03196,1514.8011 111.01795,1511.014 109.54179,1507.54 107.5239,1504.4009 106.311226,1503.0103 102.59593,1499.9347 99.89876,1499.8356 97.38785,1500.0609 95.22637,1500.6512 93.465355,1501.456 91.62063,1502.6791 89.957245,1504.2 88.487175,1505.9862 87.21657,1508.0096 86.15442,1510.2375 85.226845,1512.8898 84.511284,1515.6287 83.39111,1521.1907 79.93878,1541.6917 76.80571,1562.2384 73.99663,1582.852 71.52118,1603.5269 69.38962,1624.2534 67.6119,1645.023 66.197624,1665.832 65.15729,1686.6514 64.93338,1702.678 64.96001,1718.7306 65.396484,1734.7837 66.40497,1750.7749 67.17472,1758.7311 68.14661,1766.6262 69.341835,1774.4669 70.78092,1782.2462 72.48327,1789.9504 74.46884,1797.5715 76.75887,1805.104 79.219666,1812.1003 82.79253,1823.7854 84.92263,1829.7863 89.694595,1841.4872 95.16578,1852.802 98.159676,1858.2909 101.30928,1863.6271 104.621284,1868.8201 108.09493,1873.863 111.72844,1878.7467 115.521194,1883.4634 119.46893,1888.0012 123.56567,1892.3477 133.48677,1901.9032 139.32948,1907.0216 145.32521,1911.8577 151.46417,1916.4252 157.73543,1920.7372 164.13081,1924.8082 170.64122,1928.6508 177.24663,1932.2726 183.94478,1935.6908 190.70703,1938.9097 204.43204,1944.8223 218.3532,1950.1167 232.37248,1954.8867 245.75679,1959.1511 259.33737,1962.788 273.04257,1965.7725 286.8568,1968.0981 300.7444,1969.7535 314.67657,1970.7302 328.6358,1971.0187 342.5844,1970.609 356.49948,1969.4917 370.35553,1967.6578 384.12112,1965.0981 397.77084,1961.8026 411.2972,1957.7556 418.00558,1955.4464 424.64963,1952.9531 430.96884,1950.3661 431.27496,1950.6396 429.9371,1955.3428 428.58975,1960.9867 427.52936,1966.7247 426.8079,1972.5898 426.17,1982.2826 426.0765,1992.0914 426.6165,2001.9469 427.86145,2011.6146 428.7844,2016.4082 429.91275,2021.0938 431.2614,2025.6884 432.84158,2030.178 434.66278,2034.5438 436.73712,2038.7751 439.0734,2042.8512 441.72745,2046.8193 444.48013,2050.82 447.46707,2054.6545 450.63635,2058.2644 453.97824,2061.6545 457.47687,2064.823 461.12408,2067.7764 464.90237,2070.512 468.79883,2073.0315 472.80383,2075.3396 476.90326,2077.4363 481.08398,2079.3237 485.33353,2081.0034 489.63678,2082.4768 493.9854,2083.7458 498.36047,2084.8127 502.73276,2085.6758 508.65326,2086.4534 514.5749,2086.869 520.48584,2086.9343 526.38654,2086.6616 532.26276,2086.062 538.1107,2085.1472 543.9186,2083.9297 549.679,2082.4204 555.3894,2080.6301 561.03674,2078.572 566.61444,2076.2568 572.11584,2073.696 577.53394,2070.9011 582.856,2067.8855 588.0797,2064.6584 593.1609,2061.2583 601.7874,2054.5635 610.1138,2047.3583 618.08936,2039.5972 621.9093,2035.5134 629.1599,2026.9218 632.5882,2022.3889 635.8456,2017.725 638.9337,2012.9141 641.84204,2007.9526 644.5625,2002.8353 647.07733,1997.5729 652.31085,1984.9781 655.0759,1977.7224 657.5845,1970.3214 659.454,1963.7438 666.9026,1947.1506 674.3813,1929.572 681.3573,1911.7157 686.10187,1898.1239 686.5985,1897.901 704.27057,1905.1952 717.30194,1910.2144 722.9203,1912.0952 723.2053,1912.5304 720.8915,1938.7777 719.8601,1947.4963 718.58295,1956.1761 716.9946,1964.7798 715.02545,1973.2976 711.3048,1985.9841 707.0587,1998.433 702.3944,2010.6798 697.41205,2022.7845 672.19714,2080.1804 668.0492,2090.1187 664.16846,2100.2253 660.63666,2110.4968 657.53107,2120.9414 654.93164,2131.561 652.6984,2144.1265 652.3404,2144.594 652.20447,2145.1301 651.2126,2159.3962 651.1107,2165.3423 651.24976,2171.2822 651.63,2177.2188 652.2533,2183.1309 653.1208,2188.9993 654.23486,2194.8086 655.59564,2200.5356 657.2066,2206.1687 659.06726,2211.6826 661.1811,2217.0645 663.548,2222.2922 666.1706,2227.3499 669.05023,2232.2183 672.1901,2236.8813 675.704,2241.446 678.7959,2244.6387 682.1207,2247.7021 685.569,2250.533 689.1279,2253.1345 692.7879,2255.5107 696.5373,2257.6665 700.37134,2259.609 704.2733,2261.3386 708.23883,2262.864 712.2272,2264.181 720.40515,2266.2534 728.643,2267.5776 736.975,2268.2004 742.391,2267.936 747.8583,2267.3535 753.2783,2266.4653 758.6452,2265.2817 763.9513,2263.811 769.1909,2262.063 774.35675,2260.0474 779.4417,2257.773 784.43994,2255.25 789.3445,2252.4866 794.1482,2249.4937 798.8434,2246.2808 803.42834,2242.8535 807.88934,2239.2273 812.22485,2235.406 816.43463,2231.394 823.4708,2224.3162 830.1514,2216.6782 836.4263,2208.5647 842.29175,2200.0164 847.74133,2191.0784 852.7714,2181.789 857.3758,2172.1938 861.5482,2162.3367 864.4962,2154.3962 866.82587,2146.2024 868.6543,2137.7483 870.07666,2129.1501 873.8913,2097.166 876.1381,2085.0657 878.2838,2072.3586 880.20874,2059.6077 881.89594,2046.8075 883.3257,2033.9675 884.47955,2021.0879 885.3393,2008.1709 885.88635,1995.2196 886.13763,1977.5311 886.18134,1959.9058 885.73285,1935.3182 886.1051,1934.9224 902.6678,1934.2094 918.6948,1933.0875 919.0328,1933.4376 918.6627,1943.4606 918.4172,1965.1096 918.7692,1986.7649 919.7631,2008.3832 921.44434,2029.9368 923.8586,2051.4023 925.355,2062.0913 927.05005,2072.7344 928.95044,2083.3362 930.9625,2093.394 934.49133,2122.7322 935.6026,2130.0906 936.97687,2137.3674 938.703,2144.542 940.87915,2151.6133 944.15564,2160.473 947.8579,2169.084 951.9535,2177.4429 956.4132,2185.5515 961.2033,2193.4033 966.2938,2200.998 971.6533,2208.3333 977.25,2215.405 984.6757,2223.3352 992.4575,2230.7883 1000.60236,2237.6963 1004.7911,2240.9055 1013.4169,2246.7935 1017.8721,2249.4653 1022.3859,2251.9185 1026.975,2254.154 1031.6423,2256.1636 1036.3824,2257.9343 1041.1782,2259.452 1051.6792,2261.9756 1057.0435,2262.823 1062.617,2263.337 1068.2212,2263.4875 1073.8262,2263.273 1079.4225,2262.6907 1084.9806,2261.7393 1090.479,2260.4175 1095.8987,2258.7231 1101.2189,2256.6533 1106.4155,2254.207 1111.4698,2251.3818 1116.3932,2248.1492 1121.081,2244.5671 1125.6556,2240.5137 1129.9424,2236.0996 1134.0188,2230.548 1137.6605,2224.6436 1140.8251,2218.5737 1143.6659,2212.135 1146.1378,2205.5112 1148.2734,2198.7427 1150.1011,2191.8777 1151.6675,2184.859 1152.7539,2177.2642 1153.407,2169.5483 1153.6304,2161.8435 1153.4478,2154.167 1152.8837,2146.5283 1151.9629,2138.932 1150.7089,2131.391 1149.1472,2123.915 1147.3013,2116.511 1145.1947,2109.187 1142.854,2101.959 1140.3082,2094.8457 1134.6754,2080.944 1128.6311,2067.8608 1122.7303,2054.184 1110.4159,2026.458 1104.4664,2012.4799 1098.8992,1998.3208 1093.9047,1983.9243 1091.6804,1976.6189 1089.6628,1969.2098 1087.8779,1961.6982 1086.3582,1954.1228 1084.1837,1936.9948 1082.3636,1919.6757 1081.0149,1902.2252 1080.5598,1891.7524 1080.8085,1891.3342 1091.6523,1886.0425 1100.3363,1881.5615 1100.8368,1881.7646 1104.8997,1893.8889 1108.7207,1904.3909 1112.7472,1914.7754 1116.97,1925.052 1121.3749,1935.2152 1130.5161,1954.8634 1138.7552,1976.2161 1143.3636,1986.9796 1148.4275,1997.6107 1151.8397,2003.1917 1155.4935,2008.6895 1159.3169,2013.995 1163.306,2019.1124 1167.4519,2024.0371 1171.7487,2028.769 1176.1855,2033.3033 1180.7554,2037.6381 1185.4548,2041.7753 1190.2717,2045.7087 1195.2002,2049.4385 1200.2325,2052.962 1205.3613,2056.277 1210.5789,2059.3826 1215.8761,2062.2751 1221.216,2064.9407 1229.4126,2068.373 1237.7422,2071.3035 1246.1917,2073.6814 1254.7837,2075.4556 1263.3896,2076.5476 1272.0039,2076.911 1276.3564,2076.8 1280.6749,2076.4822 1284.9766,2075.9531 1293.7037,2074.3635 1298.1245,2073.2646 1302.4934,2071.9146 1306.8087,2070.3174 1311.0583,2068.4792 1315.2363,2066.4028 1319.3289,2064.0964 1323.3278,2061.5642 1327.2244,2058.8093 1331.0059,2055.8408 1334.6648,2052.6606 1338.1884,2049.2766 1341.5667,2045.695 1344.7928,2041.9166 1347.856,2037.948 1350.73,2033.8192 1353.0929,2029.8594 1355.202,2025.7664 1357.0709,2021.547 1358.7091,2017.2133 1360.1241,2012.7838 1361.3218,2008.291 1363.1466,1998.9121 1364.2013,1989.5312 1364.5964,1980.1025 1364.4072,1970.595 1363.6978,1961.1934 1362.5028,1953.9084 1360.9459,1946.7808 1359.0515,1939.809 1356.8394,1932.9922 1354.3314,1926.3304 1351.5498,1919.8264 1348.5115,1913.47 1345.2424,1907.2701 1341.7587,1901.2166 1338.0833,1895.3114 1334.2374,1889.5554 1330.251,1883.957 1321.8993,1873.1768 1316.8555,1867.2567 1316.5736,1866.7493 1302.6552,1850.6748 1292.5007,1838.1595 1270.8983,1810.9071 1270.9469,1810.368 1272.3314,1809.1528 1280.1633,1801.2838 1287.5485,1792.8525 1294.4786,1783.8982 1300.9395,1774.465 1306.9175,1764.5969 1312.4016,1754.336 1317.377,1743.7301 1319.8235,1737.691 1322.0653,1731.5833 1324.113,1725.3843 1325.9652,1719.104 1327.6189,1712.7505 1329.0724,1706.3302 1330.3221,1699.8578 1331.3666,1693.3374 1332.2043,1686.7745 1332.8317,1680.183 1333.247,1673.57 1333.4478,1666.9446 1333.4319,1660.3129 1333.1968,1653.6854 1332.7404,1647.0697 1332.0616,1640.4844 1330.0762,1626.7681 1327.5513,1613.196 1324.5303,1599.7698 1321.058,1586.4926 1317.1783,1573.3655 1312.9374,1560.3965 1308.3772,1547.5819 1303.5476,1534.9365 1297.7987,1521.1262 1291.6921,1507.5325 1285.2118,1494.1794 1278.3491,1481.1074 1271.0895,1468.3442 1263.4236,1455.9276 1255.3346,1443.8832 1246.83,1432.2699 1241.7706,1426.1865 1236.5875,1420.3153 1231.2249,1414.6859 1225.6628,1409.3737 1219.8796,1404.4531 1213.8132,1399.974 1207.523,1396.0677 1199.2274,1392.0348 1198.9817,1391.748 1189.2913,1360.2153 1189.5452,1359.7333 1199.5703,1356.6046 1227.0806,1347.5791 1254.4325,1337.9558 1281.6123,1327.734 1308.6143,1316.909 1335.4226,1305.4802 1362.0306,1293.4446 1388.427,1280.7998 1414.6006,1267.5444 1435.0212,1256.476 1455.2793,1245.0507 1475.363,1233.2206 1495.2426,1220.9452 1514.8921,1208.183 1534.2872,1194.8911 1553.3937,1181.0331 1572.2041,1166.5516 1588.0115,1154.0051 1603.5685,1140.9574 1618.8218,1127.3994 1633.73,1113.3152 1648.2577,1098.6814 1662.368,1083.4764 1669.252,1075.6561 1682.644,1059.578 1689.1573,1051.2983 1697.673,1040.0 1705.8666,1028.3315 1713.7013,1016.3195 1721.156,1003.97015 1728.2058,991.29675 1734.8287,978.3051 1741.0011,965.0067 1746.6948,951.4234 1752.2091,936.2609 1753.4772,931.62537 1754.3763,927.01355 1754.8762,922.1979 1754.8933,919.2715 1758.3135,904.99097 1759.9028,896.94586 1761.2661,888.8592 1762.4019,880.7232 1763.3043,872.5537 1763.97,864.35406 1764.3932,856.13794 1764.5693,847.9106 1764.4939,839.6859 1764.1608,831.46735 1763.5664,823.2747 1762.7052,815.10486 1761.573,806.98004 1760.1638,798.89923 1758.4695,790.8619 1755.4531,778.1082 1751.8158,765.5514 1747.6156,753.237 1742.9003,741.16455 1737.7211,729.3425 1732.1246,717.76526 1726.1614,706.4395 1693.1718,647.9142 1666.155,600.68243 1638.6816,553.76984 1611.2765,508.38385 1611.2657,507.93164 1616.5482,498.16348 1622.6864,486.04193 1628.5581,473.74414 1634.2015,461.3031 1644.9735,436.08612 1655.3175,410.634 1660.2761,397.78873 1669.8057,371.7986 1675.1034,358.58188 1679.66,343.4764 1686.6334,328.9554 1692.4578,315.98697 1698.04,302.8817 1703.4103,289.67526 1713.6604,263.03696 1718.7937,248.3527 1723.7174,233.60258 1728.3707,218.748 1732.6831,203.77885 1736.5833,188.68498 1740.0,173.45636 1742.8623,158.08286 1745.1545,142.06279 1745.903,127.48879 1746.0085,120.22712 1745.7383,112.97649 1745.3569,108.84744 1744.7847,104.78389 1744.0048,100.791504 1742.997,96.87536 1741.7437,93.04833 1740.2069,89.2861 1738.4028,85.68012 1736.2065,82.079475 1733.7968,79.092735 1731.2124,76.45643 1728.4781,74.1603 1725.6115,72.18341 1722.7354,70.55745 1719.6406,69.13476 1716.4984,67.97482 1713.0907,66.99097 1707.6898,65.87722 1702.0305,65.1128 1690.4868,64.033806 1678.6251,64.408455 1667.089,65.33437 1655.5944,66.7545 1644.1406,68.61168 1632.736,70.847534 1621.3765,73.406006 1610.0703,76.228294 1599.8853,78.9704 1599.2095,79.38212 1598.8624,80.07398 1598.5392,79.81708 1597.8282,79.625 1597.4094,79.6883 1580.4406,84.9196 1562.2817,91.021194 1544.2604,97.6589 1526.4242,104.8921 1508.8141,112.78307 1491.4637,121.39903 1482.8995,125.99798 1474.4413,130.78766 1459.7754,139.75052 1444.1052,146.0793 1429.0736,152.47241 1414.1483,159.1285 1399.3547,166.10515 1384.7045,173.46664 1370.2286,181.2678 1361.3167,186.44832 1360.8099,186.39214 1354.1742,180.24278 1342.7098,169.98917 1331.0919,159.96909 1319.324,150.19232 1307.4099,140.66785 1295.3483,131.40125 1283.1436,122.40203 1270.7988,113.67915 1258.3116,105.2374 1245.691,97.08922 1232.9355,89.24029 1220.0455,81.69762 1207.025,74.47053 1193.8763,67.56698 1180.6031,60.99587 1167.1974,54.760307 1153.4613,48.685345 1139.6068,42.978615 1125.6487,37.639606 1111.5979,32.665688 1097.4595,28.051466 1083.24,23.792795 1068.9445,19.884857 1054.5854,16.324913 1040.1622,13.106564 1025.6874,10.22694 1011.1639,7.6810985 996.6046,5.465465 982.0083,3.5746155 967.388,2.0050576 952.7485,0.7522646 938.14856,-0.18708727 807.03784,-0.20248765 Z " />
</g></svg>