<?xml version="1.0" encoding="UTF-8" standalone="no"?>
<svg
   xmlns:dc="http://purl.org/dc/elements/1.1/"
   xmlns:cc="http://creativecommons.org/ns#"
   xmlns:rdf="http://www.w3.org/1999/02/22-rdf-syntax-ns#"
   xmlns:svg="http://www.w3.org/2000/svg"
   xmlns="http://www.w3.org/2000/svg"
   xmlns:sodipodi="http://sodipodi.sourceforge.net/DTD/sodipodi-0.dtd"
   xmlns:inkscape="http://www.inkscape.org/namespaces/inkscape"
   sodipodi:docname="fox_v1_c.svg"
   inkscape:version="1.0 (4035a4f, 2020-05-01)"
   id="svg1612"
   version="1.1"
   viewBox="0 0 120.38956 154.75357"
   height="154.75357mm"
   width="120.38956mm">
  <defs
     id="defs1606">
    <clipPath
       id="clipPath2723"
       clipPathUnits="userSpaceOnUse">
      <path
         d="m 354.68155,12.901943 c -2.30937,0.04584 -4.56031,0.267826 -6.75563,0.656162 2.76286,0.549597 5.93685,0.263182 9.40556,-0.632824 -0.88963,-0.02509 -1.77458,-0.04076 -2.64993,-0.02329 z M 55.118977,17.253055 c -2.199467,0.006 -4.399347,0.03195 -6.597989,0.09049 -5.473663,0.145731 -10.908409,0.85793 -16.362458,1.28609 -0.553663,0.04345 -1.074952,0.05166 -1.616798,0.08168 -0.485429,2.091491 -1.080189,4.199154 -1.81133,6.445007 -0.219555,0.674394 -0.492608,1.334752 -0.774849,1.99184 9.208178,2.665277 12.863126,3.81667 -0.107339,0.250803 -0.181531,0.419992 -0.364488,0.840192 -0.536694,1.262752 -0.274135,0.672527 -0.04843,2.236835 -0.828536,2.015163 C 20.901107,29.090613 15.41137,27.277398 9.9461052,25.407116 9.2856021,27.370212 8.626181,29.330905 7.5779357,31.1493 c 1.016078,1.653613 1.7765522,3.295474 0.5903636,4.526094 -5.1687344,5.362314 -9.2587563,9.768209 -12.7599088,13.187509 V 98.194985 H 438.43603 V 20.781863 c -0.33032,0.147821 -0.6836,0.331672 -1.0063,0.469534 -14.46327,6.178944 -32.05414,1.705768 -49.45301,-2.720912 -21.01537,3.369429 -32.8273,2.813263 -59.09675,3.059198 -18.10197,0.169472 -36.20391,-0.043 -54.30674,-0.122437 -184.847954,-0.811629 55.49672,0.0045 -87.1759,-0.454947 -6.53102,0.04375 -13.06227,0.04121 -19.5927,0.122438 -1.99862,0.867144 -5.31272,1.327629 -10.32801,1.262767 -8.59545,-0.111239 -12.17507,-0.835339 -13.03832,-3.834932 -53.405808,-0.551059 0.50264,-0.235857 -69.522022,-1.070285 -6.598368,-0.07884 -13.198882,-0.25485 -19.797301,-0.239142 z m -54.55832221,4.89938 c 0.87083571,1.733839 1.73660501,3.46941 2.66670891,5.179344 -0.6282843,-2.230146 -1.5157446,-3.911277 -2.59960925,-5.156007 -0.0223265,-0.0075 -0.0448247,-0.01538 -0.0671512,-0.02329 z"
         style="fill:#ff0000;fill-opacity:1;fill-rule:nonzero;stroke:none;stroke-width:1.60136"
         id="path2725" />
    </clipPath>
    <clipPath
       id="clipPath2764"
       clipPathUnits="userSpaceOnUse">
      <path
         d="m 820.80044,18.985341 c -17.92073,0.264944 -35.83682,0.933335 -53.76335,1.064448 -1.90986,-0.01195 -3.81934,-0.04494 -5.7292,-0.06122 -0.41168,5.778856 -0.71451,4.742973 -0.9325,-0.009 -11.17987,-0.09899 -22.35745,-0.238575 -33.53668,-0.370359 -0.16968,0.207636 -0.27398,0.33754 -0.44613,0.548267 -2.17001,2.656125 -7.4933,-0.04091 -11.24039,-0.07869 -9.25992,-0.09332 -18.51584,-0.261196 -27.77056,-0.463696 -6.00802,0.126917 -12.01603,0.260105 -18.02623,0.24498 -3.95993,-0.01045 -7.91937,-0.220433 -11.8777,-0.125424 -5.94719,0.142894 -27.33187,1.502954 -32.73165,1.831431 -5.09708,0.21997 -10.19073,0.54543 -15.29242,0.659088 -15.18678,0.338272 -30.25793,-0.715186 -45.42782,0.425785 -8.74233,0.657536 -17.44904,1.629304 -26.1739,2.443859 -11.08027,0.830248 -22.16123,1.660213 -33.2415,2.49052 -21.00851,0.965826 -30.13932,1.745784 -49.86559,1.53979 -9.66656,-0.100936 -15.70635,-0.714604 -24.94956,-1.081932 -13.56351,-0.53901 -14.97659,-0.402492 -29.71273,-0.478284 -26.37808,0.0987 -52.75677,0.411361 -79.13557,0.341213 -7.07504,-0.01881 -14.14975,-0.275813 -21.2229,-0.131247 -5.93156,0.121243 -11.8517,0.529155 -17.77464,0.848643 1.8408,7.013329 2.38267,14.321777 1.68053,21.297717 -0.43332,4.305272 -9.86081,1.083739 -14.79263,1.624376 -11.84404,-0.982907 -23.7366,-1.599948 -35.53252,-2.951289 -1.49557,-0.171338 -2.80105,-0.33751 -4.2533,-0.507445 0.53304,9.315816 -7.71795,20.103336 -27.05945,24.779789 -3.13424,0.7578 -6.20511,1.520005 -9.2479,2.2922 -2.87029,2.286437 -5.73634,4.577547 -8.6911,6.780398 -4.88759,3.643839 -25.42172,17.950744 -31.08801,22.572151 -2.76383,2.25414 -5.10271,4.8696 -7.6546,7.30531 -13.39068,13.03316 -27.35672,25.81146 -39.32962,39.89204 -2.63558,3.09954 -4.97945,6.37662 -7.470109,9.56545 -8.555523,11.86975 -19.269159,22.41295 -28.300563,33.98653 -2.366366,3.03246 -4.150235,6.39232 -6.587925,9.38172 -2.332757,2.86079 -4.550429,5.25123 -6.802587,7.54739 2.854011,2.07236 5.733045,4.09735 8.738052,5.90259 -2.58654,4.94925 -5.172066,9.89763 -7.758589,14.84685 -3.509843,6.716 -7.187529,8.70944 -10.817745,7.80985 -0.157145,0.99406 -0.332201,1.98669 -0.553474,2.97172 -1.403975,6.25021 -3.598839,13.39847 -5.860031,20.30034 1.813889,1.23648 2.905173,4.39083 2.951836,10.30036 0.01202,1.52494 0.02456,3.04781 0.03692,4.57276 -0.485429,2.58983 -1.030951,5.2309 -1.351799,7.83609 -0.330226,2.68142 -0.335859,5.3923 -0.784914,8.06064 -1.368372,8.13105 -4.560526,15.99082 -5.081832,24.25484 -1.972699,13.45502 -2.96913,17.69079 -3.461669,31.26271 -0.782681,21.56693 0.616554,43.18231 0.211328,64.75345 -0.182905,31.45552 -0.162296,62.90639 -0.774866,94.35971 0.584593,46.69583 4.45597,93.6135 -2.693535,140.09309 -2.432384,18.36215 -4.469435,36.71402 -5.595033,55.17927 -0.570939,9.36649 -0.779159,18.7482 -1.381991,28.11311 -0.566303,8.79774 -1.995884,25.8073 -3.253707,40.58027 4.360791,-0.45639 6.70447,-0.49162 7.929661,0.61534 0.415084,-0.0288 0.761247,-0.0391 1.184076,-0.07 0.549043,-0.04 -0.29744,0.93235 -0.305237,1.4115 -4.46e-4,0.0272 4.12e-4,0.0545 0,0.0817 0.680786,2.04692 0.474798,5.66573 0.570236,11.77018 -0.03796,0.56296 -0.104591,1.12062 -0.160923,1.67979 0.17303,3.07401 0.362136,6.14723 0.533345,9.22133 0.358821,13.08687 0.783299,19.71455 -0.04019,33.38869 -1.141553,18.94612 -5.240317,37.47631 -7.634471,56.28745 -9.96e-4,0.007 -0.0017,0.0154 -0.0034,0.0233 1.256414,0.0635 2.512227,0.11049 3.763575,0.13409 -0.447732,17.84165 -1.794379,35.933 -4.42437,53.62195 -2.102879,14.14371 -6.018789,28.06855 -8.788371,42.14051 6.880831,3.1656 12.979034,7.78851 18.110071,13.49078 2.570293,2.85639 4.509004,6.08759 6.483936,9.29709 6.149553,3.107 9.934888,8.0666 11.0559,15.1881 4.773813,3.9988 8.261931,7.352 10.767442,10.2391 0.401482,-0.1058 -0.499787,0.4633 5.883508,-1.0061 6.067564,-1.3968 -1.074401,-0.6522 6.289386,-2.0822 4.279523,-0.831 6.222527,-1.1388 8.144322,-1.2044 1.921812,-0.066 3.822791,0.1106 8.013523,0.2537 6.109864,0.5777 12.250951,0.8472 18.395204,0.7174 0.45376,-0.011 6.18929,-0.2614 6.4638,-0.2216 3.97753,0.5675 7.8716,1.5149 11.80728,2.2717 1.21825,0.5022 2.423,1.0304 3.64952,1.5165 -0.70909,-0.2861 -1.57442,-0.6539 -1.98242,-0.907 -0.13671,-0.085 0.22544,-0.2911 0.39246,-0.2741 3.02782,0.2738 6.02693,0.751 9.03994,1.1286 7.0309,0.8811 3.82241,0.606 9.28481,0.9536 3.86355,1.3126 7.63923,2.8451 11.59259,3.9371 -0.87574,-0.4875 -1.75405,-0.9735 -2.6298,-1.4611 -0.0778,-0.077 -0.34743,-0.2502 -0.23145,-0.2333 7.56768,1.1814 14.86349,3.2572 22.40699,4.5523 5.92263,-0.2749 11.77591,0.8009 17.65724,1.2832 0.009,-0.011 0.0407,-0.021 0.11403,-0.047 2.30913,-0.8049 4.72259,-1.3587 7.08437,-2.0385 3.05507,-0.2633 6.10014,-0.6747 9.1674,-0.7903 4.09389,-0.1546 5.40056,0.2866 9.01647,0.5687 5.05839,0.3945 10.23974,0.2303 15.30248,0.2362 7.51056,0.7393 14.6117,-0.6659 21.88036,-1.9568 2.82083,-0.5006 6.14289,-1.3347 9.02316,-1.0237 3.27189,0.3535 6.41783,1.3168 9.62695,1.9744 -2.21623,-1.1238 -6.28011,-1.0494 -0.78826,-1.2074 1.35063,-0.039 2.68818,-0.1582 4.03862,-0.2187 1.18416,-0.9524 2.73075,-1.2748 4.69943,-0.7816 0.79397,-0.2353 1.64301,-0.4717 2.48221,-0.7057 1.36884,-10.3003 14.24177,-18.6462 36.46166,-13.7358 0.5634,0.1246 1.12983,0.233 1.69395,0.3529 0.27022,-2.1415 0.56594,-3.3532 0.91238,-3.1875 0.28808,0.138 0.61573,1.3207 0.98281,3.5841 10.476,2.1299 21.07379,3.479 31.72534,4.459 3.34047,-0.1182 6.70583,0.1287 11.47184,0.1546 12.48962,0.067 32.61897,-0.012 45.29028,-0.053 4.66828,-2.5937 10.97889,-4.5053 19.08283,-5.2377 20.01676,-1.809 40.42118,-2.5235 60.52231,-1.1665 9.94499,0.6713 19.83507,1.8643 29.74964,2.8171 12.61046,1.2119 25.21815,2.4513 37.82688,3.6775 25.71854,0.694 38.31265,1.985 62.17938,-0.1399 3.6562,-0.3257 6.99143,-2.4123 10.66678,-2.4235 15.7622,-0.057 20.01383,1.1568 35.84782,3.4004 7.77309,1.4296 19.59441,3.9149 28.04898,4.5232 6.36157,0.4575 17.25016,-0.1077 23.29253,-0.3966 27.01358,-1.2902 -0.66823,-0.2783 27.57267,-1.2015 18.74236,-0.4899 37.50558,1.3285 56.20529,-0.5629 0.20458,-0.021 0.40647,-0.058 0.6105,-0.082 0.49825,-1.0839 1.0654,-2.1411 1.76439,-3.1437 3.48774,-5.0029 12.53556,-7.9628 18.66018,-9.0814 1.03459,-0.189 2.08579,-0.2636 3.14302,-0.3091 -0.0861,-0.01 -0.13413,-0.022 -0.0605,-0.061 0.85566,-0.4494 10.3501,-4.7808 10.96869,-4.9402 3.28869,-0.8481 6.74234,-1.1047 10.11333,-1.6565 11.70394,1.1111 3.06656,-0.1233 12.87396,2.2018 1.34864,0.3197 -5.36039,-1.3547 -3.98496,-1.1374 2.78033,0.4388 5.4582,1.2775 8.21813,1.8052 1.36202,0.2601 2.75774,0.369 4.1359,0.5541 2.87573,0.595 5.75169,1.1898 8.62736,1.7848 14.30724,1.7266 28.44859,4.6713 42.94225,4.774 0.23328,-0.033 0.17186,-0.029 0.36897,-0.055 0.0155,-0.086 0.0459,-0.1867 0.0605,-0.2712 2.35831,0.01 2.14207,-0.025 -0.0605,0.2712 -0.44857,2.4903 -1.52,5.5413 -2.83776,8.816 1.96801,-1.2061 3.79526,-2.883 5.70237,-4.2083 0.27413,-2.005 0.70993,-3.8929 1.45242,-5.5526 0.77174,-1.7252 4.25515,0.1328 6.38331,0.1837 1.53091,0.036 3.06421,0.059 4.59545,0.085 -1.96762,-6.9311 -3.09746,-11.1847 -5.70909,-18.4368 -0.80087,-2.22412 -2.04172,-4.3299 -2.64993,-6.59954 -2.04818,-7.64351 -2.80599,-15.70063 -3.78705,-23.50245 0.0979,-10.95401 0.94096,-21.88428 0.99289,-32.84333 0.0155,-3.01215 -0.27298,-6.02666 -0.0905,-9.03469 0.19977,-3.30358 0.82351,-6.57707 1.23442,-9.86584 4.3673,-12.75508 5.74326,-26.04922 8.38584,-39.10754 3.72196,-18.39222 1.54135,-4.74299 3.55559,-18.41059 3.50224,-14.18451 1.11447,-28.6182 0.85871,-42.93081 -0.0455,-9.7727 0.19273,-19.5431 0.29854,-29.31463 0.0325,-3.0481 -0.14958,-6.10225 0.0503,-9.14551 0.26924,-4.09553 0.90337,-8.16808 1.35517,-12.25135 2.9344,-17.87592 1.2035,-35.91827 0.80168,-53.87569 0.024,-13.45933 0.0239,-26.91991 0.11747,-40.37904 0.0532,-11.43732 0.40603,-22.87515 0.27171,-34.31315 -0.0661,-5.65217 -0.43854,-11.27055 -0.41259,-16.92328 -1.72666,-9.5906 -1.68752,-19.32888 -2.68347,-28.96758 -1.28517,-12.43855 -1.22504,-0.91057 -2.17697,-14.29277 -0.25765,-3.64793 -0.20539,-7.30854 -0.30859,-10.96237 0.096,-4.27287 -0.012,-8.55146 0.28848,-12.81712 0.66447,-9.4162 2.31627,-18.76423 3.08598,-28.17436 0.16522,-2.02043 0.1489,-2.03126 0.25828,-3.41789 -6.38041,-4.51467 -10.95567,-12.96035 -10.54603,-25.36887 0.2966,-8.90711 -0.0957,-17.81149 -0.0268,-26.71911 0.0979,-5.86597 3.09706,-11.41733 3.22688,-17.27323 0.003,-0.19132 -0.65788,-1.83343 -0.67088,-1.88977 -0.69712,-5.30199 -0.2244,-10.65508 -0.13087,-15.97839 0.63275,-2.96631 1.26231,-5.93135 1.89521,-8.89762 0.18087,-0.57438 0.38301,-1.14377 0.5803,-1.71478 -0.67767,-0.89107 -0.5614,-1.5462 0.57359,-1.89852 0.0654,-0.23792 0.15474,-0.47119 0.20796,-0.71157 0.41089,-1.85397 -0.66536,-7.56591 -0.80168,-9.3584 -0.0584,-1.59235 -0.14855,-3.18394 -0.17442,-4.77689 -0.027,-1.62848 -0.21303,-3.26903 -0.003,-4.88771 0.89661,-7.04018 3.56518,-13.58146 3.25036,-20.67365 -1.01988,-10.05687 -0.8034,-20.1455 -0.6541,-30.22448 0.72635,-7.19313 -0.45737,-14.51036 0.13756,-21.69142 0.59081,-7.13496 2.49109,-14.07332 3.03568,-21.21606 0.49507,-11.17765 -1.83855,-22.46619 -0.78828,-33.63366 0.30261,-3.21738 1.0617,-6.38804 1.59333,-9.58295 2.50139,-7.64054 1.37891,-15.43074 0.58699,-23.20498 -0.0694,0.38402 -0.0718,1.5213 -0.21131,1.15194 -1.57745,-4.17595 -1.88082,-8.44458 -2.45203,-12.77922 -0.60496,-4.59172 -1.51547,-9.15632 -1.91532,-13.76493 -0.27393,-3.15895 -0.26544,-6.32967 -0.39916,-9.49545 -0.75259,-3.84686 0.38504,-7.69589 0.29517,-11.53687 -0.35992,0.16078 -0.89083,0.20713 -0.94927,0.0291 -0.60113,-1.82304 -1.21217,-3.65634 -1.50946,-5.53514 -0.27623,-1.74536 -0.32339,-3.50951 -0.39245,-5.27266 -26.00299,3.6493 -25.18799,-17.46983 -29.15927,-36.64328 -4.6589,-37.35159 -1.30629,-11.0119 -6.62482,-51.172269 -1.13714,-3.887804 -2.3043,-7.769994 -3.40465,-11.665189 -4.34763,-15.390345 -4.99474,-20.479369 -11.25716,-34.158601 -0.59607,-1.301947 -0.92461,-1.997841 -1.35515,-2.930877 -0.48947,-0.122737 -1.24231,-0.30944 -1.68053,-0.417021 -3.59791,-0.883359 -4.10579,-5.453321 -5.74263,-8.375613 -3.0901,-5.516824 -4.45101,-11.74776 -5.6487,-17.897319 -1.09197,-0.158483 -2.09976,-0.304945 -3.4013,-0.489931 -1.00222,-0.140654 -1.99475,-0.461142 -3.00884,-0.419947 -0.80243,0.0324 1.67091,0.07973 2.35474,0.446197 0.35908,0.192212 -0.83391,0.116913 -1.25453,0.142894 -1.70493,0.10437 -3.41083,0.189524 -5.11872,0.247877 -6.01781,0.205531 -7.1543,0.1305 -13.45424,0.09033 -6.65326,0.465801 -14.90847,-0.668018 -22.01453,-0.347037 -0.63072,0.09407 -1.26151,0.18306 -1.89184,0.279965 0.002,-0.04659 0.002,-0.09332 0.003,-0.139908 -0.34834,0.03106 -0.69576,0.06465 -1.0365,0.104968 0.005,0.06226 0.012,0.124379 0.0172,0.186643 0.33842,-0.05286 0.67783,-0.09676 1.01637,-0.148717 l -0.003,0.09631 c -0.0194,0.540518 -2.4786,0.03374 -1.865,-0.0554 0.269,-0.03912 0.56081,-0.04912 0.83522,-0.08167 -0.13705,-1.726821 -0.30525,-3.453284 -0.4629,-5.179344 z M 324.30466,1022.1566 c -0.63219,-0.1286 -1.26389,-0.2625 -1.8952,-0.3966 -0.13241,1.05 -0.25739,2.3916 -0.37905,3.8466 0.83331,0.039 1.83282,0.1242 2.78075,0.1924 -0.17829,-1.4561 -0.34647,-2.6556 -0.5065,-3.6424 z M 930.58459,25.867795 c 0.0209,0.10676 0.0393,0.214013 0.0605,0.320802 3.43123,17.370942 4.61718,20.381942 7.04075,36.153337 0.0215,-4.899723 0.88099,-9.488827 2.2474,-14.476496 1.18559,-4.327475 2.68535,-3.037667 1.18745,-4.196556 -0.0792,-0.311948 -0.27708,-0.618401 -0.23818,-0.936127 0.31592,-2.627546 1.08383,-5.209371 1.29479,-7.844846 0.0306,-0.380871 -0.49474,-0.652653 -0.58365,-1.026536 -0.61233,-2.573613 -0.96346,-5.244998 -1.25788,-7.909006 -3.25003,-0.04494 -6.5008,-0.05763 -9.75107,-0.08451 z M 111.66307,38.53911 c -21.74953,0.05808 -43.499212,0.02777 -65.248603,0.09915 -0.302249,1.945686 -0.71431,3.88528 -1.049911,5.823845 -0.836024,4.829321 -1.891499,9.627584 -2.837764,14.441496 -2.891932,18.984179 -4.219481,22.723669 -3.995014,42.359219 0.05994,5.24861 4.921597,11.47565 1.345084,15.70426 -2.388469,2.824 -12.472292,-7.45573 -11.112919,-4.15572 16.812422,40.81402 20.634973,5.06979 15.990121,30.19242 -12.459841,36.90631 -3.992386,12.05114 -10.307877,29.62667 0.0103,-0.0119 0.01717,-0.0257 0.02679,-0.0379 8.839981,-11.21466 18.987571,-21.60699 27.378102,-33.09706 3.108207,-3.93466 6.077079,-7.95679 9.325066,-11.80517 8.172642,-9.68333 17.395882,-18.67586 26.391941,-27.771898 2.785764,-2.816713 5.425814,-5.747725 8.305344,-8.492258 1.12368,-1.071003 2.29912,-2.098107 3.48515,-3.117521 -3.95587,-5.334273 -7.565,-10.804989 -9.878523,-16.786196 -0.995297,-2.57315 5.137443,-3.091421 7.808893,-4.496932 4.14738,-2.182037 7.86564,-4.113687 11.41148,-5.890932 0.95681,-0.997898 2.01791,-2.098689 4.09563,-3.785345 3.58876,-2.913288 7.16223,-5.880315 11.15318,-8.366863 5.85244,-3.646318 11.48247,-6.737545 17.15408,-9.652939 -13.13537,0.278546 -26.33545,-0.583565 -39.4403,-0.790321 z m 769.06263,7.809846 c -0.15062,0.129456 -0.0732,1.042274 -0.007,2.379699 0.4629,0.03852 0.95561,0.04375 1.44238,0.05539 -0.87956,-1.854933 -1.28283,-2.566535 -1.43566,-2.435109 z M -4.5916095,64.771205 v 0.382036 c 0.4333398,0.25818 0.8821879,0.503578 1.2947812,0.77866 -0.4190165,-0.395026 -0.8619566,-0.774554 -1.2947812,-1.160696 z M 280.43998,939.97825 c 9.80859,0.30656 6.23554,12.36882 1.9824,23.69492 3.2902,4.58712 3.33008,11.33249 0.43607,15.82967 5.64841,-3.24766 12.7123,-6.63828 5.18246,-1.19277 -3.76153,2.72027 -6.40296,4.23389 -8.18123,4.7944 7.87268,5.60068 9.95735,9.46491 -4.69608,8.0898 -9.51189,-0.89256 -20.41619,1.72252 -28.53536,-2.67715 -5.85153,-3.17093 -6.49322,-10.85192 -7.39631,-16.79496 -0.54279,-3.57165 1.34094,-7.23581 3.2604,-10.42869 0.28801,-0.47905 0.59554,-0.93902 0.90569,-1.3969 -2.56387,-2.43045 -2.25884,-3.90307 2.97194,-3.76202 6.3378,-6.87185 15.4515,-11.00462 24.88918,-14.30153 3.8914,-1.35937 6.89827,-1.92608 9.18084,-1.85477 z m -34.07002,16.1563 c -1.07806,1.16888 -2.06655,2.4253 -2.97194,3.76202 5.26951,4.99527 22.47896,13.9763 33.35553,21.09358 0.0939,-3.45348 3.01067,-10.23825 5.66883,-17.31698 -0.91556,-1.27649 -2.06882,-2.3929 -3.49521,-3.23709 -7.37699,-4.36588 -17.61995,-2.48222 -26.42883,-3.72411 -2.55724,-0.36051 -4.54193,-0.53467 -6.12838,-0.57742 z m 30.38359,24.8556 c -0.028,1.02876 0.19828,1.75852 0.75474,2.11432 0.0598,-0.17174 0.41795,-0.48935 1.03648,-0.92739 -0.56642,-0.38619 -1.1814,-0.7879 -1.79122,-1.18693 z m 0.75474,2.11432 c -0.0385,0.11049 0.0155,0.17583 0.28176,0.13408 -0.10099,-0.0364 -0.19671,-0.0797 -0.28176,-0.13408 z m 0.28176,0.13408 c 0.49079,0.17746 1.16309,0.15083 2.06963,-0.13408 -0.17485,-0.12438 -0.3495,-0.24723 -0.53,-0.37329 -0.48091,0.22369 -0.97963,0.41198 -1.50274,0.50452 -0.0155,0.003 -0.0218,-4.9e-4 -0.0369,0.003 z m 546.27416,51.15185 c -0.0562,0 -0.54071,0.132 -1.5497,0.4054 0.48223,-0.1323 0.96893,-0.2392 1.45242,-0.3646 0.002,0 0.10271,-0.041 0.0972,-0.041 z m -552.56355,4.7507 c -0.64664,0.028 -1.44804,0.1915 -1.04991,0.2537 0.59675,0.093 1.44616,0.047 2.32457,-0.035 -0.24444,-0.062 -0.48548,-0.135 -0.73125,-0.1925 -0.13018,-0.031 -0.32787,-0.035 -0.54341,-0.026 z m -76.79424,1.6856 c -0.55904,-0.03 -1.98989,0.3195 -2.08304,0.3091 1.74316,0.1424 3.48855,0.2394 5.23949,0.2246 1.07152,-0.011 -2.08679,-0.4772 -3.15645,-0.5337 z"
         style="fill:#ff0000;fill-opacity:1;fill-rule:nonzero;stroke:none;stroke-width:1.60136"
         id="path2766" />
    </clipPath>
  </defs>
  <sodipodi:namedview
     fit-margin-bottom="0"
     fit-margin-right="0"
     fit-margin-left="0"
     fit-margin-top="0"
     inkscape:window-maximized="0"
     inkscape:window-y="23"
     inkscape:window-x="0"
     inkscape:window-height="655"
     inkscape:window-width="1248"
     showgrid="true"
     inkscape:document-rotation="0"
     inkscape:current-layer="g2545"
     inkscape:document-units="mm"
     inkscape:cy="272.63116"
     inkscape:cx="265.48375"
     inkscape:zoom="0.71253427"
     inkscape:pageshadow="2"
     inkscape:pageopacity="0.0"
     borderopacity="1.0"
     bordercolor="#666666"
     pagecolor="#ffffff"
     id="base">
    <inkscape:grid
       originy="-38.51218"
       originx="-37.818723"
       id="grid2357"
       type="xygrid" />
  </sodipodi:namedview>
  <metadata
     id="metadata1609">
    <rdf:RDF>
      <cc:Work
         rdf:about="">
        <dc:format>image/svg+xml</dc:format>
        <dc:type
           rdf:resource="http://purl.org/dc/dcmitype/StillImage" />
        <dc:title></dc:title>
      </cc:Work>
    </rdf:RDF>
  </metadata>
  <g
     transform="translate(-37.818721,-38.51218)"
     id="layer1"
     inkscape:groupmode="layer"
     inkscape:label="Ebene 1">
    <g
       style="fill:none;stroke:#000000;stroke-width:9.1829;stroke-miterlimit:4;stroke-dasharray:none;stroke-opacity:1"
       transform="matrix(0.15405848,0,0,0.17719878,19.348027,39.178499)"
       id="g2545">
      <path
         style="fill:none;stroke:#000000;stroke-width:7.52058;stroke-miterlimit:4;stroke-dasharray:none;stroke-opacity:1"
         fill="#ffdfd3"
         d="M 477.63101,0 H 491.1562 C 483.74647,0.45603504 476.35291,1.1856911 468.93508,1.625143 471.84721,1.169108 474.73507,0.5555336 477.63101,0 Z"
         id="path2458" />
      <path
         style="fill:none;stroke:#000000;stroke-width:7.52058;stroke-miterlimit:4;stroke-dasharray:none;stroke-opacity:1"
         fill="#ff6932"
         d="m 491.1562,0 h 44.02971 c 34.19318,1.5919769 68.28931,8.1754646 100.24987,20.894697 31.41858,12.296363 60.56409,30.24756 86.78939,51.74754 16.57484,-8.714415 34.16083,-15.140364 51.78727,-21.184901 17.78822,-5.339756 35.83531,-9.991313 54.23022,-12.487069 9.80415,-1.077901 19.79436,-2.072887 29.58233,-0.26533 4.67557,0.928654 9.72326,2.504048 12.74863,6.533739 3.76149,5.049552 4.52997,11.624748 4.80501,17.768784 -0.59861,24.285939 -9.27836,47.22036 -17.12491,69.81482 -3.17907,6.50886 -5.6382,13.35768 -8.70402,19.92458 -5.96985,12.92652 -12.06105,25.86133 -19.76199,37.81775 -0.906,1.04473 -0.5339,2.28846 0.30739,3.22541 16.73661,23.67236 32.63196,47.94172 48.34125,72.34374 7.32885,10.85364 13.46049,22.71884 16.56675,35.6039 4.14978,15.71248 3.09009,32.50286 -1.70683,47.93343 -0.16986,0.38141 -0.49344,1.14423 -0.65522,1.52565 -2.36206,0.42286 -4.70793,0.87061 -7.04572,1.33493 -0.37211,-0.35654 -1.10823,-1.06132 -1.47225,-1.41786 -28.67633,5.1076 -56.32533,14.65946 -84.20892,22.95929 -36.35301,11.17701 -72.73029,22.34572 -109.59293,31.65714 -59.6581,15.06573 -120.76417,26.15153 -182.39604,25.74524 -39.91228,0.199 -79.7194,-4.58522 -118.92791,-12.01444 -54.52144,-10.17373 -107.85375,-25.89451 -160.88677,-42.1791 -21.08053,-6.45912 -42.10443,-13.10065 -63.33055,-19.02081 -10.58071,-2.92692 -21.28276,-5.39779 -32.08997,-7.32144 -4.78882,-15.24815 -6.1559,-31.78149 -2.48339,-47.44422 2.79887,-12.07249 7.9598,-23.50654 14.72239,-33.77147 15.18348,-23.84649 30.87658,-47.36131 46.78809,-70.70202 -5.58157,-4.48572 -8.99522,-10.98629 -12.5383,-17.13862 -7.15088,-12.98456 -13.38767,-26.47491 -19.17956,-40.14766 -1.71491,-3.91361 -3.01728,-8.00964 -4.94252,-11.83204 -3.84238,-11.1853 -7.83845,-22.34572 -10.75057,-33.837801 -3.12245,-12.064204 -5.68673,-24.542981 -4.68367,-37.096382 0.73612,-6.591779 3.23569,-13.913215 9.51293,-16.931337 7.67668,-3.532199 16.34833,-3.631698 24.61552,-3.358077 24.28386,1.525645 48.02574,7.752596 71.1933,15.090614 18.30593,6.367908 36.55525,13.316224 53.45365,23.050499 C 325.43208,53.9448 355.58065,34.700121 388.31779,21.657519 414.11435,11.168713 441.37506,4.7427644 468.93508,1.625143 476.35291,1.1856911 483.74647,0.45603504 491.1562,0 Z"
         id="path2460" />
      <path
         style="fill:none;stroke:#000000;stroke-width:7.6705;stroke-miterlimit:4;stroke-dasharray:none;stroke-opacity:1"
         fill="#583d00"
         d="m 828.93316,30.564293 c 12.95903,-3.125912 26.17893,-5.671417 39.5503,-5.754332 5.97463,0.514076 13.11893,0.472618 17.29274,5.439254 4.43469,5.787499 3.58478,13.523511 3.1472,20.32258 -2.1963,15.704188 -7.64919,30.753342 -13.64065,45.396209 -5.81474,13.531806 -12.12596,26.947526 -20.17907,39.351676 8.16251,-22.59446 17.19176,-45.528877 17.81447,-69.81481 -0.28612,-6.144037 -1.08553,-12.719233 -4.99849,-17.768784 -3.14719,-4.029692 -8.39813,-5.605085 -13.26198,-6.533738 -10.18209,-1.807557 -20.57457,-0.812572 -30.7735,0.265329 -19.13561,2.495755 -37.90939,7.147313 -56.41389,12.487069 19.14404,-10.787302 40.18985,-17.918032 61.46287,-23.390453 z"
         id="path2464" />
      <path
         style="fill:none;stroke:#000000;stroke-width:7.52058;stroke-miterlimit:4;stroke-dasharray:none;stroke-opacity:1"
         fill="#583d00"
         d="m 128.69392,26.740237 c 2.75842,-2.67817 6.69788,-3.557074 10.35421,-3.988234 5.90513,-0.381411 11.8588,-0.265329 17.75585,0.298495 17.65878,2.296759 34.92928,7.064398 51.68207,13.13381 12.65963,4.659849 25.13323,10.090811 36.45816,17.586369 -23.16756,-7.338018 -46.90944,-13.564969 -71.1933,-15.090614 -8.26719,-0.273621 -16.93884,-0.174122 -24.61552,3.358077 -6.27724,3.018122 -8.77681,10.339558 -9.51293,16.931337 -1.00306,12.553401 1.56122,25.032178 4.68367,37.096382 2.91212,11.492081 6.90819,22.652501 10.75057,33.837801 -0.98688,-0.53066 -1.36707,-1.59198 -1.27,-2.70305 -10.49982,-19.51 -19.31708,-40.039876 -25.42444,-61.448648 -2.26499,-10.198602 -4.61895,-20.571327 -3.48646,-31.118173 0.72803,-2.852292 1.68256,-5.795791 3.81812,-7.893552 z"
         id="path2466" />
      <path
         style="fill:none;stroke:#000000;stroke-width:7.52058;stroke-miterlimit:4;stroke-dasharray:none;stroke-opacity:1"
         fill="#d5cebf"
         d="m 124.8758,34.633789 c -1.13249,10.546846 1.22147,20.919571 3.48646,31.118173 -2.84741,-6.251826 -3.24378,-13.249891 -4.70793,-19.891419 v -9.11241 c 0.30739,-0.530659 0.91408,-1.583686 1.22147,-2.114344 z"
         id="path2468" />
      <path
         style="fill:none;stroke:#000000;stroke-width:7.52058;stroke-miterlimit:4;stroke-dasharray:none;stroke-opacity:1"
         fill="#ffc37e"
         d="m 805.17217,78.570692 c 6.34196,-0.48091 13.15309,-1.28519 19.07441,1.666601 4.69984,2.213843 8.77682,7.039523 8.44515,12.628024 -0.38827,8.697833 -4.57849,16.541643 -8.72828,23.912823 -3.73722,6.5752 -7.97598,12.83531 -11.73747,19.39392 -3.30041,5.48072 -7.11044,10.97802 -12.70819,14.20342 -0.88173,0.68821 -1.94142,0.28192 -2.45913,-0.61357 -12.85378,-16.03585 -26.4437,-31.45813 -40.794,-46.101 -0.96262,-0.62187 -0.84128,-1.84902 0.0971,-2.42942 11.12269,-9.319697 24.30813,-15.762231 37.9385,-20.2065 3.59971,-0.928653 7.18324,-1.940222 10.87193,-2.454298 z"
         id="path2470" />
      <path
         style="fill:none;stroke:#000000;stroke-width:7.52058;stroke-miterlimit:4;stroke-dasharray:none;stroke-opacity:1"
         fill="#ffc37e"
         d="m 201.59403,86.721282 c 14.98934,-1.857306 29.67128,3.48245 43.01043,9.958148 6.51992,3.200533 12.70009,7.1556 18.37065,11.75742 1.17294,0.66332 0.0971,1.7578 -0.46918,2.37967 -13.98628,14.78382 -27.26881,30.26414 -39.76666,46.3829 -0.57434,1.11937 -2.02231,1.3764 -2.96067,0.57212 -4.69174,-3.20053 -8.1054,-7.95159 -11.04179,-12.79385 -6.20443,-10.78731 -13.57372,-20.95274 -18.35445,-32.53603 -1.65829,-5.25684 -3.71296,-11.11897 -1.51269,-16.541633 2.19218,-5.198798 7.53916,-8.084261 12.72436,-9.178745 z"
         id="path2472" />
      <path
         style="fill:none;stroke:#000000;stroke-width:7.52058;stroke-miterlimit:4;stroke-dasharray:none;stroke-opacity:1"
         fill="#ffffff"
         d="m 313.00702,318.5695 c 11.67276,-2.00655 24.06547,4.78423 29.14551,15.70418 3.80194,7.3629 3.55926,16.21828 0.84128,23.90454 1.1244,-5.72946 1.02733,-12.04762 -1.88479,-17.22984 -3.9799,-7.77747 -12.68392,-12.59486 -21.20998,-11.81545 -11.04988,0.72137 -20.52238,11.04434 -20.28779,22.44522 -0.3802,9.52698 6.0103,18.69743 14.79521,21.68239 4.48952,1.47589 9.44822,1.6583 13.95392,0.14096 -6.981,3.09274 -15.18349,3.27515 -22.17259,0.0912 -6.54418,-2.76937 -11.8669,-8.27496 -14.79521,-14.85845 -2.89594,-6.7742 -3.09817,-14.70091 -0.62286,-21.64094 3.49454,-9.6099 12.27137,-17.05571 22.2373,-18.42381 z"
         id="path2474" />
      <path
         style="fill:none;stroke:#000000;stroke-width:7.52058;stroke-miterlimit:4;stroke-dasharray:none;stroke-opacity:1"
         fill="#ffffff"
         d="m 702.83527,318.56121 c 11.45435,-1.94851 23.55585,4.55206 28.83003,15.09061 4.77265,9.08754 4.17405,20.81178 -1.50459,29.3272 -6.72216,10.53855 -20.74889,15.7954 -32.33267,11.12726 5.23373,0.86232 10.79104,0.12437 15.40998,-2.64501 7.53918,-4.35306 12.07724,-13.50693 10.94474,-22.32084 -0.97071,-10.01619 -9.17319,-18.65598 -18.92881,-19.83338 -10.66161,-1.79097 -21.75195,5.80408 -24.37286,16.52505 -0.85746,3.50733 -0.65522,7.18048 -0.34783,10.75414 -2.24072,-6.40107 -2.23264,-13.64789 0.21841,-19.98263 3.51881,-9.46894 12.27137,-16.68259 22.0836,-18.0424 z"
         id="path2476" />
      <path
         style="fill:none;stroke:#000000;stroke-width:7.52058;stroke-miterlimit:4;stroke-dasharray:none;stroke-opacity:1"
         fill="#553018"
         d="m 319.89904,329.13293 c 8.52606,-0.77941 17.23008,4.03798 21.20998,11.81545 2.91212,5.18222 3.00919,11.50038 1.88479,17.22984 -2.28925,7.03952 -7.67669,12.95968 -14.63343,15.22328 -4.5057,1.51734 -9.4644,1.33493 -13.95392,-0.14096 -8.78491,-2.98496 -15.17541,-12.15541 -14.79521,-21.68239 -0.23459,-11.40088 9.23791,-21.72385 20.28779,-22.44522 z"
         id="path2478" />
      <path
         style="fill:none;stroke:#000000;stroke-width:7.52058;stroke-miterlimit:4;stroke-dasharray:none;stroke-opacity:1"
         fill="#553018"
         d="m 680.88109,345.8321 c 2.62091,-10.72097 13.71125,-18.31602 24.37286,-16.52505 9.75562,1.1774 17.9581,9.81719 18.92881,19.83338 1.1325,8.81391 -3.40556,17.96778 -10.94474,22.32084 -4.61894,2.76938 -10.17625,3.50733 -15.40998,2.64501 -8.45325,-1.85731 -15.41808,-8.86367 -17.29478,-17.52004 -0.30739,-3.57366 -0.50963,-7.24681 0.34783,-10.75414 z"
         id="path2480" />
      <path
         style="fill:none;stroke:#000000;stroke-width:7.52058;stroke-miterlimit:4;stroke-dasharray:none;stroke-opacity:1"
         fill="#995c3c"
         d="m 317.45726,345.72565 c 4.34392,-1.53394 8.76873,3.60682 6.75451,7.81063 -1.31855,3.78094 -6.81923,4.82569 -9.34307,1.74952 -2.96065,-2.844 -1.48032,-8.74759 2.58856,-9.56015 z"
         id="path2482" />
      <path
         style="fill:none;stroke:#000000;stroke-width:7.52058;stroke-miterlimit:4;stroke-dasharray:none;stroke-opacity:1"
         fill="#995c3c"
         d="m 697.69168,345.75052 c 3.4622,-1.20227 7.65242,1.56711 7.43401,5.45584 0.42064,4.62668 -5.59775,7.72772 -9.0195,4.73448 -3.69677,-2.45431 -2.56429,-8.96317 1.58549,-10.19032 z"
         id="path2484" />
      <path
         style="fill:none;stroke:#000000;stroke-width:7.52058;stroke-miterlimit:4;stroke-dasharray:none;stroke-opacity:1"
         fill="#f5e8bb"
         d="m 892.64105,351.19674 c 0.16178,-0.38142 0.48536,-1.14424 0.65522,-1.52565 0.26695,4.07115 -1.77154,7.69455 -3.27613,11.31796 -6.27725,13.75567 -14.85183,26.35883 -24.86631,37.51925 -14.98935,16.89817 -32.51063,31.27571 -51.10778,43.77107 -21.81666,15.05744 -45.25116,27.46989 -69.1953,38.54739 -30.60157,13.84689 -62.27901,25.18143 -94.5874,34.06997 -2.91213,0.72136 -5.80807,1.50077 -8.59886,2.59526 -4.80501,0.52236 -9.35924,2.22213 -14.06718,3.21712 -36.12652,8.35788 -72.98107,14.13708 -110.02975,15.09061 -4.09316,-0.90378 -8.20248,0.83745 -12.28755,-0.17412 1.2781,-0.67991 3.04964,-1.40956 2.61282,-3.25858 -0.0404,-15.2067 0.0162,-30.41339 -0.0486,-45.62009 14.2775,2.29676 28.63588,-7.14731 34.66236,-20.18991 2.15983,-4.27844 2.42677,-9.94986 -0.76847,-13.77226 -4.70793,-6.02796 -12.27946,-8.72271 -19.44652,-10.15714 -5.56539,-1.11937 -11.27639,-1.25203 -16.91459,-0.73795 0.93026,-0.63016 2.5643,-0.94524 2.42677,-2.41285 0.21032,-2.66987 0.089,-5.33975 0.12134,-8.00134 61.63187,0.40629 122.73795,-10.67951 182.39604,-25.74524 36.86264,-9.31142 73.23992,-20.48013 109.59293,-31.65714 27.88359,-8.29983 55.53259,-17.85169 84.20893,-22.95929 0.36401,0.35654 1.10013,1.06132 1.47224,1.41786 2.33779,-0.46432 4.68367,-0.91207 7.04573,-1.33493 z"
         id="path2486" />
      <path
         style="fill:none;stroke:#000000;stroke-width:7.52058;stroke-miterlimit:4;stroke-dasharray:none;stroke-opacity:1"
         fill="#fbeebe"
         d="m 132.68999,350.93969 c 10.80721,1.92365 21.50926,4.39452 32.08997,7.32144 21.22612,5.92016 42.25002,12.56169 63.33055,19.02081 53.03302,16.28459 106.36533,32.00537 160.88677,42.1791 39.20851,7.42922 79.01563,12.21344 118.92791,12.01444 -0.0324,2.66159 0.089,5.33147 -0.12134,8.00134 0.13752,1.46761 -1.49651,1.78269 -2.42677,2.41285 -8.55032,1.14423 -17.75587,3.53219 -23.68527,10.39759 -3.68869,4.0297 -3.32468,10.27323 -0.69568,14.77554 5.56539,10.12398 15.66075,17.64441 26.84816,19.68413 0.0647,15.2067 0.008,30.41339 0.0486,45.62009 0.43682,1.84902 -1.33472,2.57867 -2.61282,3.25858 -39.61298,-1.18569 -78.85385,-8.17547 -117.3586,-17.49517 -47.73463,-12.28806 -94.40141,-29.52619 -138.02665,-52.98298 -26.79963,-14.54337 -52.58808,-31.45812 -75.01951,-52.47719 -14.30175,-13.51523 -27.16362,-28.9375 -36.18311,-46.70628 -2.29734,-4.86714 -4.7322,-9.73428 -6.00221,-15.02429 z"
         id="path2488" />
      <path
         style="fill:none;stroke:#000000;stroke-width:7.52058;stroke-miterlimit:4;stroke-dasharray:none;stroke-opacity:1"
         fill="#553018"
         d="m 481.69181,452.28726 c 5.9294,-6.8654 15.13495,-9.25336 23.68527,-10.39759 5.63819,-0.51408 11.3492,-0.38142 16.91459,0.73795 7.16706,1.43443 14.73858,4.12918 19.44652,10.15714 3.19524,3.8224 2.9283,9.49382 0.76847,13.77226 -6.02648,13.0426 -20.38486,22.48667 -34.66237,20.18991 -11.18741,-2.03972 -21.28277,-9.56015 -26.84816,-19.68413 -2.629,-4.50231 -2.99301,-10.74584 0.69568,-14.77554 z"
         id="path2490" />
      <path
         style="fill:none;stroke:#000000;stroke-width:7.52058;stroke-miterlimit:4;stroke-dasharray:none;stroke-opacity:1"
         fill="#ff6932"
         d="m 627.59731,520.70911 c 4.70794,-0.99499 9.26217,-2.69476 14.06718,-3.21712 2.1032,5.90358 4.13359,11.84033 6.26916,17.73562 0.817,0.2902 1.63402,0.58869 2.45912,0.89548 -0.49345,0.0663 -1.47224,0.20729 -1.96568,0.27362 8.51796,27.32894 16.74471,55.04758 19.35754,83.74462 1.57739,15.56323 -0.49345,31.62395 -6.81923,45.93517 -9.1651,20.107 -26.09587,35.44636 -44.91143,45.84395 -2.2488,1.0779 -4.49761,2.27189 -6.2368,4.13748 -0.20222,-0.0912 -0.5986,-0.2902 -0.79274,-0.38141 -4.75647,2.33822 -9.65046,4.36965 -14.52826,6.41766 0.25886,9.17874 1.35898,18.32432 2.7827,27.39527 3.35703,16.07731 12.02869,30.18123 19.05823,44.74947 -7.45019,11.35943 -19.37371,19.44368 -32.44592,22.1716 -12.1743,2.4543 -25.19796,0.52237 -36.00518,-5.82067 -4.40863,-2.32163 -8.03261,-5.81237 -11.87499,-8.95486 -5.15284,-21.25953 -6.26915,-43.33163 -5.0396,-65.1301 -7.5877,0.45603 -15.16731,1.05303 -22.77119,1.04473 0.42873,8.93829 0.40447,17.89316 0.21032,26.83974 -0.4449,13.07576 -2.43485,26.03546 -5.26608,38.77127 -9.69091,9.67623 -22.86827,16.05243 -36.53099,15.91976 -16.58292,0.68821 -33.0526,-7.88526 -42.78395,-21.5663 -0.38829,-0.72137 -0.68759,-1.46761 -0.88173,-2.2553 6.12355,-12.52024 13.21781,-24.68394 17.33523,-38.10795 2.63709,-8.91341 3.14671,-18.28286 4.07697,-27.49477 -7.82229,-1.77439 -15.20775,-4.9998 -22.79545,-7.52043 -0.17797,0.47261 -0.5339,1.40956 -0.71186,1.88217 -0.0486,-0.65503 -0.14561,-1.9568 -0.20223,-2.61183 -12.93469,-5.75433 -25.29503,-13.42401 -35.13963,-23.88794 -11.47053,-11.973 -19.24429,-27.60256 -21.75195,-44.20223 -1.70683,-8.97146 -1.45606,-18.15849 -1.04352,-27.23774 2.70181,-30.22268 10.34614,-59.70742 18.96926,-88.6615 1.9495,-6.4757 4.11743,-12.86848 6.2368,-19.28614 38.50475,9.3197 77.74563,16.30948 117.3586,17.49517 4.08507,1.01157 8.19439,-0.72966 12.28755,0.17412 37.04868,-0.95353 73.90323,-6.73273 110.02975,-15.09061 z"
         id="path2492" />
      <path
         style="fill:none;stroke:#000000;stroke-width:7.52058;stroke-miterlimit:4;stroke-dasharray:none;stroke-opacity:1"
         fill="#fe480a"
         d="m 648.42709,536.39671 c 0.49344,-0.0663 1.47223,-0.20729 1.96568,-0.27362 7.40165,2.81912 13.42813,8.38276 18.81556,14.14538 10.07919,11.44233 18.1037,24.67564 24.51847,38.58885 5.70291,12.57828 10.37039,25.8033 12.32798,39.58384 1.77155,12.76069 -0.50152,25.994 -6.11545,37.50267 -5.29037,10.50539 -12.90233,19.82509 -22.391,26.59099 0.80083,1.60856 1.81198,3.10104 3.06582,4.38622 6.04266,6.48399 11.84264,13.21673 18.1846,19.40222 -5.72718,22.16331 -27.89169,38.12454 -50.12089,37.1793 -8.62313,0.28191 -16.8337,-2.78597 -24.62363,-6.22695 -5.58157,-9.97474 -10.47556,-20.37233 -14.23706,-31.21768 1.73919,-1.86559 3.988,-3.05958 6.2368,-4.13748 18.81556,-10.39759 35.74633,-25.73695 44.91143,-45.84395 6.32578,-14.31122 8.39662,-30.37194 6.81923,-45.93517 -2.61283,-28.69704 -10.83958,-56.41568 -19.35754,-83.74462 z"
         id="path2494" />
      <path
         style="fill:none;stroke:#000000;stroke-width:7.52058;stroke-miterlimit:4;stroke-dasharray:none;stroke-opacity:1"
         fill="#fe480a"
         d="m 355.03867,556.38763 c 7.2156,-8.27496 15.52325,-16.94792 26.64594,-18.97106 -8.62312,28.95408 -16.26745,58.43882 -18.96926,88.6615 -0.41254,9.07925 -0.66331,18.26628 1.04352,27.23774 2.50766,16.59967 10.28142,32.22923 21.75195,44.20223 9.8446,10.46393 22.20494,18.13361 35.13963,23.88794 0.0566,0.65503 0.15369,1.9568 0.20223,2.61183 -3.42174,9.30312 -7.85465,18.16678 -12.44933,26.91437 -12.86997,7.33802 -28.85429,8.63979 -42.68688,3.45757 -15.01362,-5.40608 -27.13939,-18.3326 -31.9363,-33.87926 2.51576,-2.73621 5.00723,-5.49729 7.45019,-8.30813 4.0527,-4.8091 8.95478,-8.84708 12.47359,-14.13708 -7.78184,-5.48071 -15.15922,-11.774 -20.52238,-19.82509 -8.38045,-11.63303 -13.08838,-26.12666 -12.4736,-40.62857 0.58242,-13.9298 5.09621,-27.28749 10.18434,-40.08134 6.13973,-14.76724 14.17234,-28.75508 24.14636,-41.14265 z"
         id="path2496" />
      <path
         style="fill:none;stroke:#000000;stroke-width:7.52058;stroke-miterlimit:4;stroke-dasharray:none;stroke-opacity:1"
         fill="#fbeebe"
         d="m 160.59783,582.77962 c 0.45299,-2.02314 0.84937,-5.17393 3.51072,-5.16563 1.90097,1.34322 1.76345,4.01311 2.22454,6.10257 1.94141,15.94465 8.91433,31.34205 20.14217,42.63514 8.2591,8.54858 18.66185,14.88332 29.93014,18.2414 1.49651,0.43945 2.99302,0.86232 4.5057,1.25202 0.19413,8.56517 -1.25383,17.32104 -4.99105,25.03218 -4.82118,9.70111 -11.89926,18.17506 -20.28778,24.81659 -5.83234,4.33649 -12.78098,8.00135 -20.19071,7.47898 -7.11852,-0.49749 -13.26634,-5.34805 -16.9712,-11.376 0.0324,0.21558 0.089,0.66332 0.12134,0.8872 -6.35814,-14.64287 -6.32578,-31.05184 -5.99412,-46.77262 0.99498,-21.21806 3.78576,-42.33663 8.00025,-63.13183 z"
         id="path2498" />
      <path
         style="fill:none;stroke:#000000;stroke-width:7.52058;stroke-miterlimit:4;stroke-dasharray:none;stroke-opacity:1"
         fill="#ff6932"
         d="m 281.7664,603.35924 c 15.28056,-6.98149 32.68859,-9.9084 49.12591,-5.82896 -5.08813,12.79385 -9.60192,26.15154 -10.18434,40.08134 -0.61478,14.50191 4.09315,28.99554 12.4736,40.62857 5.36316,8.05109 12.74054,14.34438 20.52238,19.82509 -3.51881,5.29 -8.42089,9.32798 -12.47359,14.13708 -2.44296,2.81084 -4.93443,5.57192 -7.45019,8.30813 -6.13973,5.77092 -11.30066,12.52853 -15.85489,19.66755 -29.35584,13.42402 -63.39533,14.31121 -94.05353,5.13247 -16.01666,-4.50231 -32.06569,-10.64635 -44.91138,-21.74872 -9.65045,-7.8521 -16.60718,-18.90473 -20.36867,-30.87772 -0.0324,-0.22388 -0.089,-0.67162 -0.12134,-0.8872 3.70486,6.02795 9.85268,10.87851 16.9712,11.376 7.40973,0.52237 14.35837,-3.14249 20.19071,-7.47898 8.38852,-6.64153 15.4666,-15.11548 20.28778,-24.81659 3.73722,-7.71114 5.18518,-16.46701 4.99105,-25.03218 -1.51268,-0.3897 -3.00919,-0.81257 -4.5057,-1.25202 11.95588,-0.55553 23.15137,-6.2767 32.28413,-13.9298 11.03371,-9.07095 20.23117,-20.72887 33.07687,-27.30406 z"
         id="path2500" />
      <path
         style="fill:none;stroke:#000000;stroke-width:7.52058;stroke-miterlimit:4;stroke-dasharray:none;stroke-opacity:1"
         fill="#f1e3b0"
         d="m 698.79875,716.32326 c 9.84459,9.63478 19.00969,21.37561 21.2585,35.52928 1.00307,8.58175 0.27504,18.06728 -4.96678,25.19801 -5.98604,7.90184 -15.15924,13.15039 -24.8016,14.49362 -9.44014,1.65831 -19.1553,-0.23216 -28.00492,-3.69803 -12.07723,-4.99151 -22.99769,-13.32452 -30.4317,-24.34398 -3.0092,-5.18221 -5.44406,-10.70439 -7.79802,-16.22655 7.78993,3.44098 16.0005,6.50886 24.62363,6.22695 22.2292,0.94524 44.39371,-15.01599 50.12089,-37.1793 z"
         id="path2502" />
      <path
         style="fill:none;stroke:#000000;stroke-width:7.52058;stroke-miterlimit:4;stroke-dasharray:none;stroke-opacity:1"
         fill="#f1e3b0"
         d="m 317.92528,740.17804 c 4.55423,-7.13902 9.71516,-13.89663 15.85489,-19.66755 4.79691,15.54666 16.92268,28.47318 31.9363,33.87926 13.83259,5.18222 29.81691,3.88045 42.68688,-3.45757 -1.08396,3.74777 -2.70181,7.28827 -4.38437,10.79559 -4.87781,10.64635 -13.78405,18.78035 -23.37788,24.93268 -11.18741,6.77419 -24.42948,10.74585 -37.46933,8.91342 -9.3916,-1.41786 -18.79129,-5.71288 -24.66407,-13.61473 -5.84852,-7.03952 -6.68171,-16.88158 -5.75145,-25.72037 0.58242,-5.68801 2.97684,-10.89509 5.16903,-16.06073 z"
         id="path2504" />
      <path
         style="fill:none;stroke:#000000;stroke-width:7.52058;stroke-miterlimit:4;stroke-dasharray:none;stroke-opacity:1"
         fill="#fbeebe"
         d="m 616.3371,794.23892 c 7.11852,12.67778 12.83761,27.62744 9.88504,42.46102 -1.52078,6.45911 -4.06079,12.96797 -8.5665,17.85169 -8.83344,8.46567 -22.04316,11.0858 -33.6593,8.45738 -10.89619,-2.16409 -20.52239,-8.57346 -28.45792,-16.30948 -6.39858,-6.7659 -11.89926,-14.55995 -15.33719,-23.34069 -2.75843,-6.89857 -3.04155,-14.44388 -4.19022,-21.72385 3.84238,3.14249 7.46636,6.63323 11.87499,8.95486 10.80722,6.34304 23.83088,8.27497 36.00518,5.82067 13.07221,-2.72792 24.99573,-10.81217 32.44592,-22.1716 z"
         id="path2506" />
      <path
         style="fill:none;stroke:#000000;stroke-width:7.52058;stroke-miterlimit:4;stroke-dasharray:none;stroke-opacity:1"
         fill="#fbeebe"
         d="m 412.30236,825.84629 c 1.11632,-10.89508 5.65438,-21.03564 10.64543,-30.5875 0.19414,0.78769 0.49344,1.53393 0.88173,2.2553 9.73135,13.68104 26.20103,22.25451 42.78395,21.5663 13.66272,0.13267 26.84008,-6.24353 36.53099,-15.91976 -1.24575,8.10913 -1.52078,16.62455 -5.16094,24.11181 -4.42481,9.7094 -10.79103,18.57307 -18.99352,25.28922 -9.07612,7.81893 -20.61946,13.03431 -32.58343,13.24989 -8.77682,-0.25703 -17.90148,-2.89374 -24.46184,-9.1207 -7.59579,-8.05939 -10.62117,-19.86654 -9.64237,-30.84456 z"
         id="path2508" />
      <path
         id="path2482-4"
         d="m 509.97226,457.93656 c 4.34392,-1.53394 8.76873,3.60682 6.75451,7.81063 -1.31855,3.78094 -6.81923,4.82569 -9.34307,1.74952 -2.96065,-2.844 -1.48032,-8.74759 2.58856,-9.56015 z"
         fill="#995c3c"
         style="fill:none;stroke:#000000;stroke-width:7.52059;stroke-miterlimit:4;stroke-dasharray:none;stroke-opacity:1" />
      <path
         style="fill:#ff7b00;fill-opacity:1;stroke:none;stroke-width:11.1391"
         d="m 344.83127,432.87793 c -39.14328,-3.77589 -70.54474,-12.07761 -153.2423,-40.51318 -18.13948,-6.23727 -34.32291,-11.34644 -35.96318,-11.35371 -3.55034,-0.0157 -4.73662,-4.3928 -4.73662,-17.47695 0,-15.44518 5.17579,-27.36594 30.46572,-70.168 7.31234,-12.37579 7.37776,-12.5872 4.77781,-15.43785 -3.51815,-3.8574 -6.21968,-9.36713 -13.71464,-27.97072 -13.22264,-32.82057 -18.21851,-63.1381 -11.5097,-69.84691 2.74543,-2.74543 4.0374,-2.93489 15.11774,-2.21703 15.18401,0.98373 38.53404,8.30301 57.77277,18.1094 l 13.75504,7.01124 10.30963,-8.99135 c 38.87319,-33.90252 85.62711,-48.17261 136.80554,-41.75538 34.886,4.37434 60.77558,16.33533 92.13157,42.56481 l 6.46048,5.40422 13.0895,-6.40982 c 23.97155,-11.73867 59.79728,-18.53099 67.88004,-12.86961 5.87077,4.11205 5.30928,17.29854 -1.79495,42.15358 -1.98564,6.94704 -3.77917,13.89407 -3.9856,15.43786 -0.44494,3.32727 -8.06015,22.51705 -12.0012,30.24215 -1.52465,2.98858 -2.75697,6.56415 -2.73849,7.94571 0.0185,1.38156 5.41692,11.66939 11.99649,22.86183 23.80808,40.4996 28.91625,54.19121 26.7179,71.61291 l -0.97873,7.75633 -12.21829,3.13528 c -6.72006,1.72443 -28.63594,8.86311 -48.70195,15.86377 -73.52127,25.65022 -109.56109,33.97826 -153.68263,35.51281 -10.42055,0.36242 -24.82592,0.0918 -32.01195,-0.60139 z m -79.30384,-32.15247 c 13.57479,-6.16316 15.31835,-28.30458 3.0423,-38.63419 -3.14943,-2.65006 -5.82291,-3.54852 -10.55919,-3.54852 -11.5741,0 -18.88368,8.31873 -19.00327,21.62682 -0.0987,10.98077 5.12664,19.23168 13.83146,21.84027 5.7254,1.71575 6.18261,1.66948 12.6887,-1.28438 z m 229.20486,-1.29496 c 5.8088,-4.28221 8.79525,-10.81325 8.72104,-19.07198 -0.12129,-13.49851 -7.36693,-21.81577 -19.00497,-21.81577 -15.93209,0 -24.60352,21.81661 -14.55658,36.62321 5.44297,8.02152 17.0428,10.01295 24.84051,4.26454 z M 216.72289,239.67901 c 7.01745,-9.41284 12.759,-17.98957 12.759,-19.05941 0,-5.09078 -24.24585,-17.76394 -34.10315,-17.82552 -16.63917,-0.10394 -19.52588,11.22836 -8.59753,33.75115 6.5142,13.42543 12.47591,21.35996 15.51045,20.64308 0.91972,-0.21728 7.41377,-8.09646 14.43123,-17.5093 z m 326.74406,9.04447 c 5.40885,-5.86854 16.22601,-29.02099 16.91651,-36.20715 0.59639,-6.20672 0.25412,-7.22104 -3.80712,-11.28228 -4.22095,-4.22094 -4.89906,-4.42283 -12.53076,-3.73081 -12.20744,1.10693 -33.87544,13.09133 -33.87544,18.73624 0,1.10091 3.77533,6.75251 8.38962,12.55911 4.61429,5.80659 10.32857,13.37561 12.69839,16.82004 4.8098,6.9908 7.90237,7.77728 12.2088,3.10485 z"
         id="path892"
         transform="matrix(1.7174214,0,0,1.4931442,-125.58885,-221.09915)" />
      <path
         style="fill:#ff7b00;fill-opacity:1;stroke:none;stroke-width:11.1391"
         d=""
         id="path894"
         transform="matrix(1.7174214,0,0,1.4931442,-125.58885,-221.09915)" />
      <path
         style="fill:#ffc200;fill-opacity:1;stroke:none;stroke-width:11.1391"
         d="M 350.17783,502.35915 C 349.02,502.1323 343.33606,501.19977 337.54686,500.28686 279.93555,491.20198 217.45445,461.71318 183.07828,427.38333 169.82341,414.14632 161.18113,402.66056 157.0668,392.81359 l -2.11138,-5.05323 4.63323,0.99742 c 2.54827,0.54858 19.15883,6.0458 36.91237,12.21605 77.39914,26.90011 114.91238,36.26666 154.37701,38.54586 8.48997,0.49032 14.48968,1.17852 13.33269,1.52933 -15.1514,4.59399 -19.25749,14.93535 -10.49279,26.42647 1.93424,2.53592 5.40252,5.72468 7.70728,7.08614 4.17303,2.46507 4.19048,2.52962 4.19048,15.50548 v 13.0301 l -6.66635,-0.16281 c -3.66649,-0.0895 -7.61367,-0.3484 -8.77151,-0.57525 z"
         id="path896"
         transform="matrix(1.7174214,0,0,1.4931442,-125.58885,-221.09915)" />
      <path
         style="fill:#ffc200;fill-opacity:1;stroke:none;stroke-width:11.1391"
         d="m 371.22945,490.57774 v -12.51946 l 4.24395,-0.93212 c 9.17315,-2.01476 16.80767,-11.80407 16.80767,-21.55151 0,-8.13147 -6.20368,-13.08872 -18.24473,-14.57904 -1.92974,-0.23884 4.09081,-0.87661 13.379,-1.41726 35.90171,-2.08978 71.76359,-10.42163 129.07029,-29.98713 49.9277,-17.04619 69.44895,-23.15851 70.96672,-22.22048 3.67043,2.26846 -12.0632,25.67797 -27.40358,40.77282 -21.46756,21.12393 -53.00396,40.27498 -90.40034,54.89723 -27.992,10.94507 -68.60864,20.0283 -89.64747,20.04814 l -8.77151,0.008 z"
         id="path898"
         transform="matrix(1.7174214,0,0,1.4931442,-125.58885,-221.09915)" />
      <path
         style="fill:#ff9500;fill-opacity:1;stroke:none;stroke-width:11.1391"
         d="m 337.02024,691.94922 c -2.99126,-1.09143 -7.48322,-3.96607 -9.98212,-6.38812 l -4.54347,-4.40369 4.64698,-10.78825 c 4.28727,-9.95319 7.56205,-24.007 7.58775,-32.56304 0.009,-2.96066 -1.09593,-3.92305 -6.8496,-5.96658 -9.85699,-3.50089 -23.34152,-12.94585 -28.92763,-20.26175 -10.86142,-14.22477 -13.94054,-32.48415 -9.8917,-58.65842 2.49918,-16.15626 9.94631,-49.37131 11.68681,-52.12445 0.74061,-1.17152 3.6453,-0.93226 10.83594,0.89256 41.00955,10.40731 76.15677,10.60086 118.26519,0.65126 8.1323,-1.92154 15.00244,-3.27724 15.267,-3.01268 0.26456,0.26456 2.9654,10.22087 6.00187,22.12512 6.90548,27.07243 9.43238,47.80178 7.25756,59.53702 -3.38271,18.25295 -15.83299,34.54572 -33.62892,44.00771 l -8.86104,4.71137 0.92224,10.02477 c 1.0703,11.63429 3.74582,21.96651 8.43229,32.56345 3.30155,7.46539 3.30592,7.54311 0.6158,10.96305 -4.48087,5.69649 -14.51044,9.79293 -21.31332,8.70509 -7.52722,-1.20364 -14.88572,-5.80137 -16.73481,-10.45622 -0.80441,-2.02497 -1.79527,-12.75491 -2.20193,-23.84429 l -0.73938,-20.16252 -6.31231,0.8652 c -3.47177,0.47586 -7.72993,0.8652 -9.46259,0.8652 -3.07222,0 -3.15631,0.40867 -3.39349,16.49043 -0.37026,25.10531 -1.11931,28.25953 -7.8006,32.84795 -7.03303,4.82999 -13.86891,5.93669 -20.87652,3.37983 z"
         id="path900"
         transform="matrix(1.7174214,0,0,1.4931442,-125.58885,-221.09915)" />
      <path
         style="fill:#ff9500;fill-opacity:1;stroke:none;stroke-width:11.1391"
         d="m 441.56248,647.10005 c -1.99773,-1.10732 -4.69347,-5.16352 -6.68513,-10.05892 -3.13967,-7.71713 -3.1908,-8.28432 -0.86268,-9.5697 1.36114,-0.75151 6.32586,-5.05209 11.0327,-9.55687 20.36024,-19.48614 24.26995,-41.19224 15.17683,-84.25952 -1.95369,-9.25315 -3.2868,-17.08926 -2.96248,-17.41358 2.32691,-2.32691 16.09309,23.34986 20.79292,38.78307 6.33999,20.81917 3.06697,38.68961 -9.28408,50.69036 -2.68625,2.61007 -4.89082,5.15666 -4.89904,5.65909 -0.008,0.50244 2.85631,4.73314 6.36563,9.40156 l 6.38057,8.48804 -2.72263,5.33457 c -3.10359,6.08101 -6.01728,8.93788 -12.42484,12.18255 -5.38496,2.72683 -15.27813,2.88554 -19.90777,0.31935 z"
         id="path902"
         transform="matrix(1.7174214,0,0,1.4931442,-125.58885,-221.09915)" />
      <path
         style="fill:#ff9500;fill-opacity:1;stroke:none;stroke-width:11.1391"
         d="m 285.24403,648.9469 c -5.36493,-2.83187 -13.65891,-12.73089 -13.65891,-16.30216 0,-1.07515 2.62736,-5.43472 5.83857,-9.68794 l 5.83857,-7.73313 -6.3952,-6.59193 c -8.9519,-9.22726 -12.60925,-17.17771 -13.38844,-29.10411 -0.80237,-12.28125 2.90987,-26.82962 10.90194,-42.72507 5.01165,-9.96768 13.64361,-21.94444 14.90605,-20.682 0.26766,0.26765 -1.09869,8.34111 -3.03634,17.94101 -4.75767,23.57145 -5.93251,46.89857 -2.94644,58.50298 4.07717,15.84457 12.44438,27.8788 25.74749,37.03158 l 5.95303,4.09579 -3.20981,7.33073 c -1.85807,4.24355 -4.64704,8.0608 -6.62262,9.06434 -5.01855,2.54929 -13.90117,2.0411 -19.92789,-1.14009 z"
         id="path904"
         transform="matrix(1.7174214,0,0,1.4931442,-125.58885,-221.09915)" />
      <path
         style="fill:#aa4400;fill-opacity:1;stroke:none;stroke-width:11.1391"
         d=""
         id="path906"
         transform="matrix(1.7174214,0,0,1.4931442,-125.58885,-221.09915)" />
      <path
         style="fill:#aa4400;fill-opacity:1;stroke:none;stroke-width:11.1391"
         d="m 409.82409,721.23834 c -6.67293,-3.458 -13.15131,-10.48305 -17.08859,-18.53056 -1.9999,-4.08764 -3.29475,-7.7735 -2.87744,-8.1908 0.4173,-0.4173 2.6807,0.23516 5.02978,1.44992 5.57048,2.8806 18.71582,2.85013 24.47917,-0.0567 2.47032,-1.24596 6.20678,-3.86974 8.30324,-5.83062 l 3.81175,-3.56525 1.61864,4.07633 c 2.4978,6.29041 2.20372,18.8431 -0.56349,24.0516 -4.30786,8.10835 -14.23287,10.99068 -22.71306,6.59612 z"
         id="path908"
         transform="matrix(1.7174214,0,0,1.4931442,-125.58885,-221.09915)" />
      <path
         style="fill:#aa4400;fill-opacity:1;stroke:none;stroke-width:11.1391"
         d="m 465.25093,674.45299 c -6.88851,-2.18117 -12.20305,-5.64764 -17.28854,-11.27667 -2.83659,-3.13976 -5.15743,-6.26081 -5.15743,-6.93567 0,-0.67485 2.84938,-0.90583 6.33196,-0.51329 8.7613,0.98752 17.46035,-2.62324 24.08216,-9.99593 2.9555,-3.29063 6.04369,-7.15653 6.86265,-8.59089 1.35179,-2.36759 1.79556,-2.11193 4.81532,2.77415 3.98029,6.44024 5.35116,18.46276 2.80588,24.60759 -3.21648,7.76526 -14.09492,12.57689 -22.452,9.93071 z"
         id="path910"
         transform="matrix(1.7174214,0,0,1.4931442,-125.58885,-221.09915)" />
      <path
         style="fill:#aa4400;fill-opacity:1;stroke:none;stroke-width:11.1391"
         d="m 326.36146,723.04549 c -5.95687,-3.01421 -9.86622,-10.3654 -9.86622,-18.55258 0,-4.01608 0.69445,-9.29406 1.54323,-11.72885 l 1.54322,-4.42689 4.4214,3.72842 c 2.43177,2.05063 6.45365,4.58004 8.93751,5.62091 6.09092,2.55241 17.81486,2.39161 23.05112,-0.31616 2.34908,-1.21476 4.62695,-1.85275 5.06195,-1.41775 1.38986,1.38986 -4.39483,12.5644 -9.37666,18.1133 -8.39736,9.3532 -17.90936,12.72718 -25.31555,8.9796 z"
         id="path912"
         transform="matrix(1.7174214,0,0,1.4931442,-125.58885,-221.09915)" />
      <path
         style="fill:#aa4400;fill-opacity:1;stroke:none;stroke-width:11.1391"
         d=""
         id="path916"
         transform="matrix(1.7174214,0,0,1.4931442,-125.58885,-221.09915)" />
      <path
         style="fill:#aa4400;fill-opacity:1;stroke:none;stroke-width:11.1391"
         d="m 270.64891,676.98737 c -5.53139,-1.60141 -11.30425,-8.28391 -12.4549,-14.41743 -1.05436,-5.6202 1.43755,-15.57052 5.23495,-20.90348 l 2.78116,-3.90577 3.76758,5.6098 c 7.21401,10.74139 19.14022,16.65454 30.06659,14.90734 l 5.42031,-0.86674 -2.55447,4.37943 c -3.5851,6.14637 -12.00588,12.47788 -19.65836,14.78094 -7.27194,2.18853 -6.56117,2.16507 -12.60286,0.41591 z"
         id="path918"
         transform="matrix(1.7174214,0,0,1.4931442,-125.58885,-221.09915)" />
      <path
         style="fill:#ffffff;fill-opacity:1;stroke:none;stroke-width:11.1391"
         d="m 209.54452,645.58215 c -11.47529,-3.1596 -24.48217,-10.07088 -30.75102,-16.33973 l -6.05545,-6.05546 4.36157,-0.89203 c 13.29072,-2.71825 27.12032,-20.86555 27.12032,-35.58748 0,-3.77995 0.71281,-4.71142 4.71211,-6.15758 2.59166,-0.93716 9.38081,-6.503 15.08699,-12.36854 11.83597,-12.16651 21.03114,-17.33255 30.88777,-17.35341 l 6.47846,-0.0137 -2.04986,8.77151 c -3.11426,13.32612 -1.86243,30.71276 2.8761,39.94626 2.06505,4.02395 5.71036,9.54372 8.10069,12.26616 l 4.34606,4.94989 -7.12696,8.52936 c -3.91983,4.69114 -8.18861,10.32659 -9.48618,12.5232 -4.93285,8.35065 -31.15428,12.55768 -48.5006,7.78156 z"
         id="path920"
         transform="matrix(1.7174214,0,0,1.4931442,-125.58885,-221.09915)" />
      <path
         style="fill:#ffffff;fill-opacity:1;stroke:none;stroke-width:11.1391"
         d="m 170.57305,612.60132 c -1.52415,-1.52415 -3.26091,-4.524 -3.85946,-6.66634 -1.42764,-5.10981 -1.34244,-39.49204 0.12408,-50.07191 l 1.14826,-8.28384 3.12696,7.69372 c 5.10997,12.57281 15.06974,23.20024 25.21686,26.90728 5.38978,1.96905 0.0122,17.01617 -9.70589,27.15861 -6.50338,6.7873 -11.50862,7.80467 -16.05081,3.26248 z"
         id="path922"
         transform="matrix(1.7174214,0,0,1.4931442,-125.58885,-221.09915)" />
      <path
         style="fill:#ff6600;fill-opacity:1;stroke:none;stroke-width:11.1391"
         d="m 207.72855,644.99633 c -4.63136,-1.35045 -11.75785,-4.16899 -15.83665,-6.26343 -7.43272,-3.81667 -20.229,-15.18879 -17.75823,-15.78185 0.72365,-0.1737 3.08981,-0.70823 5.25814,-1.18786 10.01609,-2.2155 24.82448,-22.88782 24.82703,-34.65822 9.3e-4,-4.3196 0.56025,-5.2511 3.61306,-6.01731 1.98658,-0.4986 9.1348,-6.23057 15.88493,-12.73773 13.65239,-13.16093 21.39376,-17.45907 31.52801,-17.5049 5.91825,-0.0268 6.69246,0.29241 5.87524,2.42207 -2.49722,6.50765 -3.80549,17.04996 -3.32491,26.79284 0.60181,12.20065 4.78476,22.93163 12.25549,31.44032 l 4.49722,5.12205 -8.43677,10.61678 c -4.64022,5.83923 -8.93824,11.50099 -9.55116,12.58169 -0.61292,1.0807 -5.04166,3.28476 -9.84164,4.8979 -10.8369,3.64198 -27.0557,3.75748 -38.98976,0.27765 z"
         id="path924"
         transform="matrix(1.7174214,0,0,1.4931442,-125.58885,-221.09915)" />
      <path
         style="fill:#ffffff;fill-opacity:1;stroke:none;stroke-width:11.1391"
         d="m 535.34926,240.39002 c -1.76275,-2.55661 -6.57109,-8.8786 -10.68518,-14.04887 l -7.48018,-9.40049 4.56446,-3.48149 c 11.69071,-8.91693 28.83029,-12.27706 32.03922,-6.28111 2.10199,3.92759 -0.0306,11.38081 -6.76735,23.65154 -8.39519,15.29149 -7.96335,14.93775 -11.67097,9.56042 z"
         id="path926"
         transform="matrix(1.7174214,0,0,1.4931442,-125.58885,-221.09915)" />
      <path
         style="fill:#800000;fill-opacity:1;stroke:none;stroke-width:11.1391"
         d="m 193.12257,235.1599 c -10.05572,-19.57642 -9.51991,-25.38192 2.3426,-25.38192 6.14357,0 17.7015,4.61285 23.73389,9.47237 l 3.04987,2.45688 -10.06708,13.57562 c -5.53689,7.46659 -10.48216,13.62419 -10.9895,13.68355 -0.50733,0.0594 -4.13874,-6.15356 -8.06978,-13.8065 z"
         id="path928"
         transform="matrix(1.7174214,0,0,1.4931442,-125.58885,-221.09915)" />
      <path
         style="fill:#800000;fill-opacity:1;stroke:none;stroke-width:11.1391"
         d="m 535.34926,240.39002 c -1.76275,-2.55661 -6.57109,-8.8786 -10.68518,-14.04887 l -7.48018,-9.40049 4.60282,-3.51074 c 11.91211,-9.08581 28.72616,-12.3707 32.00086,-6.25186 2.10199,3.92759 -0.0306,11.38081 -6.76735,23.65154 -8.39519,15.29149 -7.96335,14.93775 -11.67097,9.56042 z"
         id="path930"
         transform="matrix(1.7174214,0,0,1.4931442,-125.58885,-221.09915)" />
      <path
         style="fill:#800000;fill-opacity:1;stroke:none;stroke-width:11.1391"
         d=""
         id="path932"
         transform="matrix(1.7174214,0,0,1.4931442,-125.58885,-221.09915)" />
      <path
         style="fill:#f4d7d7;fill-opacity:1;stroke:none;stroke-width:11.1391"
         d=""
         id="path942"
         transform="matrix(1.7174214,0,0,1.4931442,-125.58885,-221.09915)" />
      <path
         style="fill:#ffccaa;fill-opacity:1;stroke:none;stroke-width:11.1391"
         d="m 361.56781,465.88581 c -3.00267,-2.71273 -5.77665,-6.14539 -6.1644,-7.62813 -2.44251,-9.34018 16.86535,-14.79583 27.5611,-7.78771 5.38392,3.52768 4.82089,8.33269 -1.74586,14.89943 -7.17361,7.17361 -12.13772,7.30406 -19.65084,0.51641 z m 13.59128,-2.36565 c 0.92627,-0.92627 1.68413,-3.32615 1.68413,-5.33308 0,-7.31697 -6.73517,-9.49081 -10.69254,-3.45111 -4.43709,6.77187 3.38922,14.40338 9.00841,8.78419 z"
         id="path944"
         transform="matrix(1.7174214,0,0,1.4931442,-125.58885,-221.09915)" />
      <path
         style="fill:#ffccaa;fill-opacity:1;stroke:none;stroke-width:11.1391"
         d=""
         id="path946"
         transform="matrix(1.7174214,0,0,1.4931442,-125.58885,-221.09915)" />
      <path
         style="fill:#ffccaa;fill-opacity:1;stroke:none;stroke-width:11.1391"
         d="m 475.18597,391.33436 c -4.17298,-5.30509 -3.74044,-11.1242 1.19362,-16.05827 2.2563,-2.2563 4.83108,-4.10236 5.72172,-4.10236 3.3328,0 9.82409,8.14956 9.82409,12.33374 0,10.13734 -10.90958,15.23835 -16.73943,7.82689 z m 8.41105,-1.96528 c 3.07665,-1.64657 3.69909,-8.22886 1.03049,-10.89746 -5.58503,-5.58503 -13.27783,2.26822 -8.84661,9.03112 2.41024,3.6785 3.80693,4.012 7.81612,1.86634 z"
         id="path948"
         transform="matrix(1.7174214,0,0,1.4931442,-125.58885,-221.09915)" />
      <path
         style="fill:#ffccaa;fill-opacity:1;stroke:none;stroke-width:11.1391"
         d="m 253.44225,391.33436 c -4.17298,-5.30509 -3.74044,-11.1242 1.19362,-16.05827 2.2563,-2.2563 4.83108,-4.10236 5.72172,-4.10236 3.3328,0 9.82409,8.14956 9.82409,12.33374 0,10.13734 -10.90958,15.23835 -16.73943,7.82689 z m 8.41105,-1.96528 c 1.67164,-0.89463 2.70636,-2.91668 2.69313,-5.2629 -0.0316,-5.60468 -1.85248,-7.60461 -6.44628,-7.08021 -3.45468,0.39437 -4.12445,1.15504 -4.50466,5.1161 -0.43639,4.54635 1.57292,8.67983 4.21933,8.67983 0.72812,0 2.54544,-0.65377 4.03848,-1.45282 z"
         id="path950"
         transform="matrix(1.7174214,0,0,1.4931442,-125.58885,-221.09915)" />
      <path
         style="fill:#ffccaa;fill-opacity:1;stroke:none;stroke-width:11.1391"
         d="m 255.44555,392.22535 c -0.4876,-0.78896 0.62986,-1.40345 2.55221,-1.40345 4.61748,0 6.85324,-3.07298 6.31505,-8.67983 -0.39681,-4.13402 -0.96553,-4.70267 -5.10013,-5.09952 -3.8577,-0.37029 -4.36833,-0.7903 -2.9859,-2.45603 2.55533,-3.07898 6.42571,-2.40125 9.64272,1.68852 3.61406,4.59454 3.78082,11.91917 0.34221,15.03107 -2.83043,2.5615 -9.40429,3.12279 -10.76616,0.91924 z"
         id="path952"
         transform="matrix(1.7174214,0,0,1.4931442,-125.58885,-221.09915)" />
    </g>
  </g>
</svg>
