<?xml version="1.0" encoding="UTF-8"?>
<!DOCTYPE svg PUBLIC "-//W3C//DTD SVG 1.0//EN" "http://www.w3.org/TR/2001/REC-SVG-20010904/DTD/svg10.dtd">
<svg shape-rendering="geometricPrecision" text-rendering="geometricPrecision" image-rendering="optimizeQuality" fill-rule="evenodd" xml:space="preserve" 
 xmlns="http://www.w3.org/2000/svg" xmlns:xlink="http://www.w3.org/1999/xlink"  viewBox="0 0 1000.2002677321434 1125.564523883164" width="100.02002677321434mm" height="112.55645238831639mm" >
<g><path fill="#000000" d="M428.87454,138.4434 L431.46127,139.35376 435.7402,141.82286 439.0018,144.18507 442.48108,147.02562 446.49612,150.63243 450.66202,154.6987 459.30872,164.04335 468.14056,174.72154 472.53973,180.4567 481.1303,192.50903 485.25348,198.74438 492.97372,211.41293 496.50293,217.7648 499.76373,224.06998 502.72214,230.28752 505.3435,236.37628 507.50357,242.04277 509.27817,247.48372 510.63324,252.65855 511.53778,257.5457 511.92624,261.3949 511.9293,264.90094 511.5138,267.94324 511.12497,269.35294 509.0494,273.8329 507.35602,276.84787 505.54657,279.6864 501.607,284.8432 499.49164,287.1646 495.0089,291.2992 492.65573,293.1163 487.76273,296.25797 482.6722,298.75238 477.4397,300.61383 474.78918,301.3108 469.44904,302.24573 466.76813,302.4866 461.42023,302.51855 456.13763,301.9543 450.98163,300.79944 446.007,299.0586 443.60657,297.97028 439.01276,295.35965 436.83548,293.8396 433.7779,291.273 431.8644,288.99576 430.11316,286.2589 427.71274,281.27863 426.273,277.4566 424.94885,273.25845 422.63016,263.86935 421.55423,258.2846 420.6254,252.4513 419.1942,240.18239 418.68518,233.81937 418.06332,220.82097 417.94388,214.25917 418.07333,201.12982 418.31677,194.66776 419.14407,182.13702 420.4024,170.38199 422.0418,159.82564 424.0127,150.76385 425.12152,146.83244 427.14368,141.27989 428.17947,139.20781 428.638,138.53009 428.87454,138.4434 Z M755.0926,143.30634 L755.3265,143.40005 755.7703,144.10228 756.7375,146.20044 758.59515,151.86267 759.5731,155.81915 761.245,164.92009 762.5396,175.51157 763.4152,187.29433 763.8347,199.84174 763.8679,206.30794 763.56995,219.43587 763.2368,225.99141 762.192,238.96457 761.476,245.30801 759.6448,257.53204 758.5252,263.33725 755.9249,273.94882 754.45514,278.6835 752.8536,283.06024 751.1195,287.03793 749.51935,290.11884 746.93384,294.0228 745.1468,296.0003 742.0383,298.43643 739.8105,299.88712 735.13556,302.34915 732.7014,303.3607 727.67303,304.94357 722.48315,305.93552 717.18756,306.3335 711.84485,306.13416 709.1749,305.80948 703.869,304.70773 701.2449,303.92856 696.07684,301.9036 691.0722,299.25012 686.2893,295.95755 683.9981,294.06714 679.65765,289.79465 677.6224,287.40924 673.8596,282.13425 672.14655,279.24118 670.55646,276.17795 668.6503,271.6764 668.3134,270.2587 667.999,267.14563 668.1237,263.65863 668.6446,259.8076 669.7064,254.98338 671.23474,249.84468 673.19,244.45363 675.5317,238.86353 678.3483,232.86212 681.50616,226.74007 684.9682,220.54008 688.69995,214.30046 696.8255,201.87164 701.14746,195.76422 710.12445,183.97372 714.707,178.37291 723.88306,167.96036 732.8349,158.87259 737.13654,154.92845 741.273,151.43985 744.85297,148.69986 748.1349,146.47517 752.56604,144.10378 755.0926,143.30634 Z M428.5324,122.251274 L426.3419,122.356804 423.8213,122.889626 422.52786,123.36217 420.29388,124.57048 418.2502,126.250854 417.29086,127.30702 415.33508,130.06735 414.38757,131.70795 411.7755,137.47614 410.22614,141.98561 408.94867,146.50089 406.70508,156.74646 404.9146,168.22801 403.58032,180.64964 402.7051,193.84402 402.31573,207.51901 402.43988,221.4138 403.10995,235.22789 404.35324,248.63062 406.19638,261.321 407.3511,267.30548 408.78452,273.4452 411.33408,282.0187 413.2957,287.2271 416.6381,294.1926 419.13577,298.21472 421.85052,301.69272 424.7899,304.59244 427.59778,306.8295 430.51654,308.8737 433.54166,310.7279 436.66125,312.3896 439.86957,313.85934 443.1557,315.13525 446.50928,316.21576 449.92285,317.10046 453.38452,317.78745 456.88873,318.27652 460.4233,318.56598 463.9798,318.65494 467.54926,318.54214 471.12228,318.2266 474.6894,317.70712 478.24075,316.98288 481.7633,316.0539 485.24713,314.91998 488.6801,313.582 492.0563,312.0387 495.3657,310.2902 498.599,308.3363 501.7474,306.17682 504.80176,303.81155 507.75363,301.2397 510.59192,298.46298 513.31024,295.47852 515.89746,292.2882 518.3454,288.8912 520.6454,285.28647 522.78723,281.4756 524.7614,277.45847 525.7114,275.09943 526.4799,272.53925 527.0321,269.91122 527.38654,267.2344 527.5645,264.37006 527.3707,258.34064 526.5352,252.28723 525.1977,246.26122 523.36456,239.9716 519.76794,230.14642 516.96155,223.6214 513.8054,216.97325 510.33536,210.24536 506.58527,203.47743 502.59088,196.71388 498.38657,189.99564 489.49188,176.87085 480.16913,164.42648 470.70752,153.01614 466.0124,147.80493 461.388,142.97957 456.8692,138.58215 450.18265,132.73355 443.5552,127.884285 439.40643,125.4456 437.4277,124.4809 433.05826,122.91242 430.7418,122.43901 428.5324,122.251274 Z M755.94025,127.131676 L753.6649,127.26322 751.41644,127.65797 747.0772,129.06367 745.05615,129.96974 740.8139,132.28651 734.0186,136.94095 727.1572,142.57544 722.4929,146.83934 717.71045,151.52779 712.8463,156.59866 703.01855,167.72253 693.2959,179.88438 683.98114,192.73613 679.5628,199.32295 675.35156,205.96277 671.38605,212.61073 667.6998,219.22961 664.3315,225.77441 661.3165,232.20451 657.3922,241.93608 655.3559,248.16058 653.8227,254.13329 652.78815,260.13947 652.3895,266.14246 652.46735,269.0007 652.7396,271.77606 653.2049,274.4178 653.8909,277.00455 654.76086,279.38528 656.57715,283.40527 658.5912,287.28006 660.7688,290.952 663.1015,294.4219 665.58093,297.69034 668.1981,300.75723 670.94196,303.62018 673.8055,306.28137 676.7789,308.74 679.8531,310.9957 683.0192,313.04877 686.269,314.89935 689.59064,316.54602 692.97864,317.99042 696.4214,319.2313 699.9105,320.2689 703.4363,321.103 706.9839,321.73267 710.5449,322.15878 714.1072,322.38187 717.6633,322.40326 721.206,322.2235 724.7221,321.84357 728.20624,321.264 731.645,320.48618 735.0314,319.51065 738.3576,318.33762 741.6108,316.96918 744.7845,315.40512 747.86743,313.64706 750.8524,311.69495 753.72455,309.55374 756.93884,306.58252 759.92,302.98123 762.66095,298.79825 763.9398,296.50397 766.21735,291.76184 769.127,284.1998 770.859,278.66803 772.42017,272.8071 773.7725,266.85205 776.03143,254.21309 777.7129,240.84483 778.83344,227.05113 779.4101,213.16447 779.46564,199.48544 779.01965,186.27222 778.0896,173.82074 776.6739,162.29901 774.7678,152.00754 773.6434,147.47308 772.2417,142.91464 769.8237,137.0676 768.0096,133.89339 767.0265,132.51573 766.10583,131.43646 764.1174,129.69533 761.92505,128.42148 760.6479,127.91056 758.1462,127.30278 755.94025,127.131676 Z M738.8219,413.24237 L741.9,413.53662 744.7617,414.37958 747.35114,415.7126 749.6066,417.47745 751.4672,419.61594 752.8714,422.06958 753.7583,424.7802 754.06665,427.69006 753.75604,430.59946 752.86725,433.30908 751.4616,435.7612 749.5998,437.89835 747.3432,439.66177 744.753,440.99323 741.8906,441.83453 738.8172,442.1272 735.74396,441.83267 732.88214,440.9897 730.2929,439.65674 728.03723,437.8918 726.17676,435.75327 724.7725,433.29968 723.88574,430.58905 723.5774,427.6793 723.888,424.7698 724.7767,422.06027 726.18243,419.60785 728.0441,417.47092 730.30084,415.70752 732.89087,414.37604 735.7533,413.53476 738.8219,413.24237 Z M432.55954,413.58173 L435.63754,413.87598 438.49936,414.71893 441.08865,416.05194 443.34424,417.81683 445.20477,419.95535 446.60892,422.40894 447.49576,425.11957 447.80417,428.02945 447.4935,430.93887 446.60486,433.64832 445.19907,436.10083 443.33737,438.2377 441.08072,440.00116 438.49063,441.33264 435.62814,442.17392 432.5548,442.46655 429.48154,442.17206 426.61975,441.3291 424.03046,439.9961 421.7748,438.2312 419.91434,436.0927 418.51013,433.63913 417.6233,430.92847 417.31494,428.01865 417.62555,425.10916 418.51425,422.39963 419.92004,419.94727 421.78168,417.81033 424.0384,416.04688 426.62848,414.7154 429.4909,413.8741 432.55954,413.58173 Z M738.82196,404.91998 L736.4471,405.03494 734.1071,405.37646 731.84717,405.93423 729.6806,406.69666 727.61957,407.65198 725.6749,408.78937 723.85876,410.09717 722.13525,411.6102 720.6168,413.2285 719.26227,414.98337 718.0843,416.8625 717.0945,418.855 716.3052,420.94818 715.72766,423.13217 715.37427,425.39374 715.25635,427.72134 715.37427,429.9756 715.72766,432.2371 716.3052,434.42108 717.0945,436.51425 718.0843,438.50677 719.26227,440.3859 720.6168,442.14084 722.1833,443.80557 723.85864,445.27203 725.67505,446.58002 727.6194,447.71713 729.68085,448.67276 731.84717,449.43503 734.1069,449.9927 736.3794,450.32767 738.82306,450.44928 741.2645,450.32767 743.6048,449.97937 745.7968,449.43503 747.9632,448.67276 750.02454,447.71713 751.9689,446.58002 753.78534,445.27203 755.5088,443.75906 757.0272,442.14084 758.3818,440.3859 759.5597,438.50677 760.54944,436.51425 761.3388,434.42108 761.9164,432.23703 762.2698,429.9756 762.38763,427.64804 762.2698,425.39374 761.9164,423.13223 761.3388,420.94818 760.54944,418.855 759.5597,416.8625 758.3818,414.98337 757.0272,413.2285 755.46075,411.5637 753.78516,410.09717 751.969,408.78937 750.02435,407.65198 747.9634,406.69666 745.7968,405.93423 743.53687,405.37646 741.1969,405.03494 738.82196,404.91998 Z M432.55957,405.25937 L430.18457,405.3744 427.84473,405.71585 425.58472,406.27365 423.4182,407.036 421.35715,407.9914 419.41248,409.1288 417.59637,410.43655 415.8727,411.9496 414.3543,413.56784 412.9998,415.32278 411.8219,417.20197 410.8295,419.20108 410.04272,421.28754 409.4652,423.47134 409.11182,425.7329 408.99393,428.0607 409.11182,430.3152 409.4652,432.5767 410.04272,434.76044 410.83197,436.8535 411.8219,438.84613 412.9998,440.72525 414.3543,442.48026 415.9208,444.145 417.59616,445.6114 419.35666,446.88284 421.35696,448.05655 423.42395,449.01407 425.51968,449.75482 427.84448,450.33212 430.11694,450.66702 432.56067,450.7887 434.93448,450.67365 437.2747,450.33212 439.53436,449.77438 441.70074,449.01212 443.76215,448.05655 445.70648,446.91937 447.57513,445.56967 449.24634,444.09845 450.76477,442.48026 452.11926,440.72525 453.29724,438.84613 454.28696,436.85373 455.07632,434.76044 455.65387,432.57645 456.00732,430.31494 456.12518,427.9874 456.00732,425.73315 455.65387,423.4716 455.07632,421.28754 454.28696,419.19437 453.29724,417.20197 452.11926,415.32278 450.76477,413.56784 449.19827,411.90308 447.5227,410.43655 445.7066,409.1288 443.7619,407.9914 441.70096,407.036 439.53436,406.27365 437.27444,405.71585 434.93448,405.3744 432.55957,405.25937 Z M436.98657,366.5931 L443.8119,367.0511 450.37845,368.18854 456.69806,369.9696 462.73746,372.3571 468.4668,375.31522 473.85287,378.80664 478.86575,382.79575 483.47296,387.2456 487.64508,392.1232 491.35742,397.40457 494.57504,403.0559 497.2635,409.04434 499.38718,415.33426 500.91168,421.89178 501.8026,428.68613 502.02475,435.67993 501.57034,442.658 500.45428,449.41452 498.71204,455.9207 496.38004,462.1404 493.4946,468.04102 490.09064,473.59113 486.20523,478.75623 481.8721,483.5055 477.11923,487.813 471.97617,491.6473 466.47476,494.9738 460.64877,497.75574 454.5319,499.9574 448.15497,501.54416 441.55283,502.47946 434.75705,502.7284 427.9731,502.26996 421.40652,501.1316 415.08694,499.34955 409.04755,496.96112 403.3182,494.0022 397.93216,490.5103 392.91928,486.52094 388.31207,482.07126 384.1399,477.19434 380.4281,471.91528 377.20993,466.26578 374.5217,460.2826 372.39755,453.9979 370.87274,447.4478 369.98187,440.66656 369.75946,433.68613 370.2144,426.67892 371.3305,419.91867 373.07275,413.40955 375.40482,407.18753 378.2903,401.2854 381.69424,395.73416 385.5798,390.56845 389.91275,385.8189 394.6657,381.51132 399.8088,377.67694 405.31018,374.35065 411.13617,371.56866 417.25308,369.3668 423.62994,367.7798 430.23212,366.8436 436.98657,366.5931 Z M739.604,371.09198 L746.40234,371.5474 752.95374,372.6796 759.2654,374.45416 765.3049,376.83643 771.03894,379.7912 776.43634,383.28455 781.46295,387.2807 786.08765,391.74634 790.2767,396.646 793.9975,401.9449 797.2178,407.60922 799.90344,413.60168 802.02325,419.8901 803.54395,426.439 804.43304,433.21344 804.65765,440.17886 804.20245,447.13358 803.0896,453.8754 801.3523,460.37463 799.0254,466.59372 796.1419,472.5018 792.7365,478.06314 788.8413,483.24667 784.49194,488.016 779.72156,492.33826 774.56335,496.18002 769.05255,499.5066 763.2224,502.28488 757.1067,504.48105 750.73724,506.06158 744.1518,506.9922 737.38196,507.23935 730.62396,506.78342 724.0726,505.65015 717.7616,503.8747 711.72186,501.4912 705.9877,498.53534 700.58997,495.04083 695.5631,491.04355 690.9383,486.57697 686.7491,481.67645 683.0282,476.37677 679.8079,470.71204 677.1223,464.71942 675.00275,458.4311 673.48224,451.88278 672.5937,445.10913 672.36975,438.145 672.8243,431.19037 673.93677,424.44888 675.6737,417.9502 678.00037,411.73187 680.8841,405.82385 684.2896,400.26346 688.1844,395.08163 692.53394,390.31326 697.3044,385.99203 702.46295,382.1509 707.9739,378.825 713.8043,376.04724 719.9203,373.85153 726.28973,372.27094 732.87555,371.34018 739.604,371.09198 Z M437.2358,350.51834 L433.0918,350.56403 428.9448,350.82465 424.851,351.2956 420.8191,351.97156 416.85022,352.8482 412.95294,353.92 409.13144,355.1822 405.39117,356.62973 398.1755,360.06174 391.3505,364.17526 384.95776,368.9315 379.04254,374.28882 373.64725,380.20663 368.82443,386.63083 364.61313,393.51978 361.0533,400.8312 358.18536,408.5216 357.02267,412.49756 356.04846,416.5506 355.26675,420.67853 354.6828,424.87494 354.30176,429.13452 354.12903,433.44113 354.1594,437.7409 354.3994,442.00543 354.84424,446.2124 355.48917,450.35825 356.32898,454.4347 357.35928,458.43933 359.9717,466.2077 363.28827,473.6196 367.27014,480.6304 371.87756,487.19455 377.0736,493.27097 382.8093,498.80536 389.0398,503.75214 395.72498,508.0716 402.8215,511.72128 406.51175,513.2824 410.28934,514.66077 414.1483,515.85095 418.086,516.8486 422.09354,517.64734 426.1686,518.2429 430.30475,518.6299 434.49713,518.80316 438.69315,518.7585 442.84018,518.4985 446.9339,518.02795 450.96582,517.35223 454.93472,516.4759 458.83203,515.40424 462.65356,514.14215 466.39374,512.69464 473.60938,509.26263 480.43445,505.14908 486.82712,500.3927 492.74234,495.03555 498.13773,489.11813 502.96048,482.69495 507.17175,475.80795 510.7311,468.50082 513.5993,460.81445 514.76196,456.84198 515.7362,452.79285 516.5178,448.66946 517.1017,444.4783 517.48254,440.22476 517.6557,435.91312 517.62537,431.59753 517.3853,427.33005 516.94055,423.1204 516.29584,418.97318 515.4559,414.89352 514.4256,410.88693 511.8132,403.11526 508.49677,395.70084 504.5149,388.68832 499.9075,382.12296 494.7115,376.04596 488.9757,370.51138 482.74533,365.56482 476.06003,361.24594 468.96356,357.59705 465.27325,356.03622 461.4956,354.6584 457.6367,353.4687 453.699,352.47162 449.69144,351.67325 445.61633,351.0781 441.47916,350.69144 437.2358,350.51834 Z M739.85315,355.01727 L735.6943,355.063 731.53516,355.32462 727.432,355.7975 723.39294,356.47595 719.4201,357.35522 715.51917,358.4302 711.6978,359.69492 707.95776,361.1453 700.7489,364.58014 693.9359,368.6923 687.56006,373.4403 681.6623,378.78326 676.2858,384.6781 671.472,391.0837 667.26245,397.9578 663.6984,405.26007 660.82227,412.94833 659.6553,416.92407 658.6756,420.9816 657.88934,425.11182 657.3006,429.31546 656.9154,433.58316 656.7389,437.9107 656.77264,442.2407 657.0167,446.5192 657.4661,450.73676 658.1161,454.89194 658.961,458.9768 659.99664,462.98746 662.6176,470.76025 665.9383,478.1678 669.91974,485.1697 674.52,491.72018 679.69916,497.77722 685.4169,503.2979 691.632,508.23877 698.3055,512.5579 705.3955,516.2114 709.08484,517.77545 712.8633,519.1571 716.72485,520.3506 720.66644,521.3512 724.683,522.15344 728.7665,522.75134 732.9149,523.1401 737.1221,523.31415 741.3329,523.2691 745.492,523.00775 749.5952,522.535 753.63403,521.85657 757.60693,520.97736 761.50775,519.9023 765.32904,518.6375 769.069,517.18695 776.27765,513.75146 783.0904,509.6387 789.466,504.88983 795.3636,499.54596 800.74,493.65024 805.5533,487.2444 809.7632,480.3687 813.3274,473.06558 816.2037,465.3766 817.371,461.4005 818.3507,457.34274 819.13727,453.2123 819.72614,449.00854 820.11163,444.7407 820.2885,440.41312 820.25446,436.08246 820.0101,431.80334 819.5604,427.58533 818.9103,423.42972 818.06506,419.34464 817.0294,415.33377 814.4082,407.56076 811.0874,400.15344 807.1061,393.152 802.5058,386.6022 797.3268,380.54605 791.61,375.027 785.39435,370.08667 778.721,365.76865 771.6313,362.11636 767.9421,360.5528 764.1637,359.17188 760.3021,357.9788 756.36066,356.97876 752.3451,356.1772 748.26166,355.5797 744.1123,355.19128 739.85315,355.01727 Z M596.10406,535.22473 L596.3693,535.23505 597.5878,536.8939 600.14465,541.1171 604.1691,549.2637 608.2306,559.2288 610.7676,566.45636 613.0922,573.9626 616.0089,585.2652 617.50104,592.6666 618.551,599.7612 618.889,603.13947 619.16034,610.9859 618.792,615.24426 618.41486,617.0539 617.8913,618.6261 617.233,619.91266 615.49,622.2932 612.4431,625.3461 608.886,627.8367 606.29266,629.1504 603.5573,630.17236 599.25635,631.1315 594.7508,631.36566 590.1674,630.8169 585.5715,629.4235 582.5519,627.99426 581.06616,627.12213 578.15826,625.0494 576.74506,623.845 574.03815,621.10583 573.3399,620.07495 572.78467,618.7678 571.9969,615.2734 571.6989,612.4597 571.59924,609.3476 571.94684,602.5394 572.40424,598.59564 573.8186,590.32074 575.8144,581.7334 576.99786,577.40186 579.673,568.81134 582.66516,560.5466 585.87683,552.83734 587.53326,549.26776 590.8817,542.85767 592.5469,540.0812 593.9335,537.9868 596.10406,535.22473 Z M596.6558,517.71295 L594.50183,517.9322 592.8988,518.3607 591.29895,519.01544 589.7202,519.8884 587.0937,521.8661 583.8082,525.28735 581.63,528.09674 577.5309,534.5232 575.6125,538.0208 571.8394,545.792 568.2356,554.3924 564.904,563.5726 561.95386,573.0645 560.65137,577.85657 558.4576,587.3715 556.89813,596.58594 556.063,605.51306 555.97107,609.8239 556.126,613.9013 556.542,617.72534 557.39606,621.8969 557.976,623.83765 559.45825,627.4332 560.38367,629.1056 562.46356,631.94006 564.43695,634.04645 566.47687,635.9903 570.7352,639.404 572.94336,640.8777 577.4875,643.36597 579.813,644.3843 584.5433,645.97705 589.3393,646.9886 594.1567,647.43225 596.56036,647.4454 601.3245,647.0623 605.9764,646.15 610.4665,644.72894 614.748,642.82086 618.7786,640.44586 622.5147,637.62415 624.2582,636.0522 627.4675,632.6002 628.92255,630.72516 630.9752,627.5655 632.1999,624.9382 633.5706,620.4519 634.1891,617.1316 634.5788,613.595 634.75085,609.82587 634.71075,605.8716 634.0892,597.9603 632.93097,590.0529 631.2908,581.8455 629.2368,573.5085 625.5532,561.20197 622.7904,553.3415 619.8537,545.9308 616.8122,539.1415 613.6173,532.93304 610.43365,527.7039 608.5219,525.06586 606.6658,522.87836 604.7661,521.0244 602.7868,519.51404 600.89996,518.52795 599.81226,518.14935 597.776,517.76245 596.6558,517.71295 Z M475.10593,15.958238 L478.1421,16.087385 481.22308,16.448856 484.3287,17.019892 490.68866,18.723017 497.59167,21.19248 508.76956,26.133831 540.8775,42.5 549.39166,46.529816 558.00006,50.196682 562.5629,51.929913 571.7553,54.89596 576.38275,56.091553 581.0243,57.069412 585.6834,57.81216 590.3555,58.300404 595.0408,58.515625 599.7133,58.445 604.3834,58.101322 609.0506,57.502876 613.7099,56.668655 622.99866,54.36749 632.2347,51.346855 640.9375,47.953903 649.5629,44.19655 674.4387,32.405907 686.01074,27.22687 693.5265,24.302078 700.5078,22.071249 706.9343,20.59072 710.0644,20.131657 713.0951,19.886536 716.1076,19.866398 719.0633,20.093914 721.96106,20.587341 725.69025,21.56065 729.2817,22.794653 732.781,24.29042 736.1166,25.996645 739.3402,27.913725 742.4586,30.024124 745.482,32.312542 751.47314,37.545147 754.4383,40.471928 760.1359,46.696384 765.57404,53.30568 770.8084,60.16111 786.5758,81.96168 791.76105,88.822136 797.3973,95.70632 803.1833,101.9752 806.1497,104.83586 809.17474,107.490685 812.2639,109.92145 815.4296,112.114 819.1293,114.367775 826.91675,118.40878 830.9841,120.22439 839.40704,123.51022 848.12665,126.417625 857.0463,129.04805 884.0546,136.29219 892.11816,138.62834 899.8832,141.17534 907.2631,144.03754 910.7787,145.61891 917.1008,148.96732 922.55853,152.62886 925.01636,154.63641 927.3324,156.82233 929.4652,159.17703 931.40393,161.7144 933.1379,164.44847 934.63605,167.3609 935.86066,170.36186 936.8363,173.44934 937.5989,176.69757 938.14124,179.99802 938.49225,183.3888 938.6912,190.4304 938.553,194.42845 937.8327,202.63269 936.63544,211.0721 934.24396,224.06398 928.6767,251.94748 926.5204,266.0476 925.63855,275.6255 925.4152,285.00528 925.5936,289.60355 925.9883,294.13358 926.6164,298.58664 927.45,302.67517 928.5487,306.7602 929.89185,310.8329 933.24036,318.94998 937.3508,327.03546 939.64215,331.06082 944.2901,338.60803 964.6383,368.7286 969.3217,376.08554 973.6397,383.50623 977.45245,391.00577 980.4096,398.04346 981.6317,401.58762 982.6596,405.15182 983.4748,408.73846 984.0603,412.34924 984.3962,415.94455 984.4732,419.6107 984.28265,422.86945 983.82733,426.05493 983.1253,429.17282 982.17957,432.2682 981.0339,435.2622 978.17505,441.10318 974.48486,447.05753 972.32074,450.10748 967.5991,456.08685 962.47644,461.9229 957.09937,467.6386 939.7242,485.39545 931.56396,494.43777 926.49207,500.85477 922.1282,507.36392 920.2571,510.66113 918.61774,513.9902 917.22614,517.35944 915.9384,521.16705 914.8518,525.09216 913.94916,529.1295 913.2167,533.2679 912.2016,541.805 911.6874,550.6222 911.5499,559.0694 911.962,592.7186 911.5003,604.17566 910.69775,611.4328 910.10406,614.9135 908.67993,620.7936 907.76135,623.56476 906.7029,626.1705 905.4572,628.6821 904.02203,631.05536 902.38214,633.2822 900.5208,635.35583 898.4801,637.21735 896.2837,638.8546 893.9203,640.29395 891.4555,641.5223 888.8014,642.59985 883.21564,644.2605 876.8077,645.4762 873.2642,645.9244 865.91113,646.48737 858.2872,646.7063 825.2432,646.5132 816.9909,646.7935 808.37616,647.51404 800.08276,648.79645 796.07837,649.6876 792.18396,650.76544 788.3998,652.0492 783.1727,654.1398 778.6072,655.23193 768.383,656.7195 758.2035,657.8561 755.98584,658.85846 754.9418,659.67896 744.34106,669.29266 738.97986,673.9053 728.1323,682.75964 722.6589,686.99615 711.6484,695.07324 700.5916,702.6083 689.5396,709.5817 678.545,715.9725 667.6573,721.7621 656.92834,726.9303 646.4092,731.45734 636.151,735.32336 626.2041,738.50903 616.6193,740.9944 607.44904,742.7596 598.7446,743.78455 590.55615,744.0501 582.0351,743.534 572.9611,742.25037 563.3924,740.21893 553.39166,737.46075 543.015,733.9956 532.3249,729.8449 521.3786,725.02893 510.23538,719.56805 498.95657,713.48425 487.59952,706.797 476.2241,699.52765 464.88995,691.6972 453.65582,683.326 442.58142,674.4353 431.72552,665.04565 421.1328,655.1665 420.11578,654.3433 419.01505,653.7186 416.62076,653.05035 401.163,651.0688 393.42746,649.7082 388.03406,648.32117 382.71075,646.023 378.97543,644.6251 375.11426,643.4272 371.1389,642.4141 362.879,640.8792 354.29044,639.89935 346.04486,639.3715 312.92572,638.57605 305.30322,638.1282 297.96884,637.3434 291.00107,636.1005 285.21902,634.52155 282.5035,633.53046 279.95908,632.404 277.5145,631.0912 275.2164,629.5915 273.07306,627.88855 271.09317,625.9664 269.30414,623.8406 267.73996,621.56714 266.3846,619.15314 265.22226,616.60626 263.40396,611.1098 262.18063,605.2105 261.36133,598.12823 261.02512,590.6897 261.05255,582.9792 262.5537,549.4287 262.63385,536.5418 262.16876,527.84564 261.13568,519.45593 260.36868,515.40094 259.41443,511.45035 258.25922,507.61816 256.9843,504.208 255.45457,500.81955 253.69171,497.4593 249.53735,490.80582 244.66975,484.22778 236.8081,474.94653 219.96696,456.63184 214.75972,450.7399 209.82455,444.74997 205.29897,438.63055 203.23029,435.5088 199.73285,429.43634 197.06473,423.49582 196.0181,420.45877 195.19635,417.41455 194.59447,414.27707 194.24187,411.08112 194.15619,407.82193 194.3534,404.14484 194.81953,400.46182 195.52588,396.85577 196.45914,393.2792 197.60126,389.7316 198.935,386.20956 202.1079,379.2316 206.1439,371.81424 210.68172,364.4818 215.57605,357.2251 231.52432,335.04755 236.71611,327.59265 241.5618,320.1493 243.95786,316.17456 248.2723,308.18924 251.82654,300.1531 253.27367,296.11273 254.47691,292.0553 255.41864,287.97684 256.16238,283.5123 256.6726,278.96997 256.9678,274.35046 256.98108,264.92032 256.3398,255.28123 254.5379,241.09154 248.23015,204.18982 247.06552,195.59431 246.30804,187.22232 246.09389,179.12302 246.48816,172.07135 246.93663,168.67686 247.57567,165.38098 248.41612,162.2111 249.47836,159.14565 250.78922,156.17426 252.36014,153.32074 254.16623,150.63657 256.1713,148.15494 258.3798,145.84792 260.73682,143.74219 263.3081,141.76009 266.0036,139.95055 271.82385,136.71187 278.797,133.64154 282.46912,132.2732 290.1232,129.8073 302.2215,126.58659 329.43536,120.17197 338.46744,117.8173 347.31927,115.18334 355.88916,112.169136 364.08624,108.67071 368.01575,106.70762 371.8128,104.587204 375.05176,102.52731 378.2363,100.217094 381.3653,97.67912 384.44513,94.9312 390.4804,88.878944 396.38455,82.21135 401.8408,75.547356 418.51593,54.3041 424.0337,47.646378 429.7544,41.236523 432.70908,38.165936 438.83594,32.38556 445.07892,27.361868 448.22433,25.17451 451.46115,23.168818 454.79617,21.362238 458.2388,19.77079 461.79312,18.412773 465.44553,17.310509 469.25375,16.465221 472.14716,16.07953 475.10593,15.958238 Z M133.20708,480.1391 L136.92892,480.29446 140.65562,480.77225 142.36427,481.12082 144.80325,482.0639 145.40192,482.57013 145.77223,483.2122 146.01494,484.62762 145.76622,486.5635 145.09131,488.63864 144.16399,490.64023 138.07977,501.95593 134.38387,509.64948 120.52724,540.91376 114.85443,552.3719 108.74403,562.9807 93.659454,586.8326 89.4961,594.1977 87.57163,597.94946 84.12396,605.6317 82.63638,609.5764 80.51291,616.5391 79.207,622.4646 78.31886,628.4627 77.83677,634.51324 77.85176,643.62427 78.33758,649.6852 79.75262,658.69617 81.75659,666.8627 83.36115,671.98395 85.19751,677.01654 87.25078,681.9619 89.50724,686.8242 94.5709,696.30615 100.2717,705.47876 103.32479,709.9551 109.76585,718.7016 116.55261,727.1834 123.5738,735.42426 136.89528,750.0429 146.19376,759.4194 150.9803,763.95734 160.85153,772.67065 171.14384,780.8093 176.46031,784.6322 181.89305,788.27124 187.44785,791.7147 193.13045,794.9504 198.94145,797.9629 204.88683,800.74054 211.33086,803.4113 217.89035,805.7848 224.55038,807.8572 231.29752,809.62555 238.11874,811.08655 247.08716,812.4891 247.27226,812.6551 249.54074,822.3734 253.21352,835.9012 257.45377,849.24316 259.79877,855.83563 264.96042,868.83923 267.78705,875.2433 270.78265,881.5742 274.43607,888.74994 277.58597,894.488 277.4786,894.7262 271.86758,895.6038 267.30838,895.8192 262.7438,895.72546 255.25108,895.09393 247.8269,893.9547 244.14133,893.2154 236.82265,891.4385 225.9629,888.1484 218.81393,885.6399 204.69604,880.1559 193.20473,875.40234 176.14055,867.84424 159.39748,859.62634 148.4862,853.7038 137.82518,847.3714 127.458206,840.58307 117.424835,833.29047 110.01801,827.35455 102.86732,821.1024 95.999916,814.5429 89.43929,807.6821 86.28089,804.1401 80.22552,796.83936 74.53724,789.2534 69.23944,781.3878 66.74407,777.35144 60.836617,766.7858 55.470917,755.9343 50.473488,744.8898 40.7187,722.1912 32.941006,705.0166 27.274036,693.8166 18.683651,678.68787 16.31773,673.7165 15.373639,671.19135 14.611649,668.56287 14.072735,665.7847 13.789839,662.9737 13.741708,660.12225 14.262158,654.4322 14.784299,651.62054 16.244232,646.10004 19.85987,635.2893 20.873646,631.6087 21.899061,626.13824 23.729637,609.49677 24.468363,605.3401 25.43718,601.23047 26.606295,597.171 29.699228,588.5384 31.621435,583.9837 35.886612,575.0567 40.569424,566.31604 45.49099,557.7077 54.316357,542.97723 58.94558,535.7372 63.772522,528.64014 68.8321,521.7373 74.16721,515.0686 79.823074,508.67188 85.83596,502.59647 91.699814,497.36594 94.76919,494.90646 101.1875,490.3858 104.5405,488.35773 107.99034,486.50763 111.53951,484.8516 115.00867,483.47626 118.563934,482.31366 122.183846,481.3819 125.81235,480.7035 129.51045,480.2805 133.20708,480.1391 Z M256.95834,633.68854 L259.77057,637.0759 262.58582,639.8344 265.6092,642.297 268.90884,644.5281 272.28696,646.42804 275.87466,648.1037 279.64923,649.5547 283.5773,650.78534 287.64578,651.8095 295.3647,653.2008 299.36923,653.70264 307.61176,654.3946 320.3971,654.8811 344.9721,655.4123 352.9764,655.9219 360.16507,656.7189 367.0567,657.94366 370.3594,658.75354 376.6187,660.8413 381.94522,663.13666 388.52618,664.9856 397.5213,666.7118 412.27383,668.7227 421.53796,677.2619 432.95444,687.12256 444.60788,696.45526 456.4395,705.2398 468.38675,713.45325 480.39157,721.0763 492.39307,728.0869 504.33078,734.4641 516.1437,740.18616 527.7724,745.2321 539.15576,749.5806 550.2347,753.21106 560.94867,756.10187 571.2369,758.2319 581.0401,759.5799 590.2975,760.1249 599.2398,759.85175 608.69366,758.78174 618.6046,756.9359 628.91986,754.3348 639.5905,750.9982 650.5624,746.9469 661.78546,742.2006 673.20575,736.7801 684.7722,730.70514 696.431,723.99725 708.13446,716.6736 719.82605,708.7572 731.45544,700.2672 742.9706,691.22363 754.3193,681.6467 763.557,673.36786 775.44696,671.96765 783.0615,670.6335 788.82056,669.1158 794.0088,667.0428 800.3367,665.1487 803.65826,664.4413 810.5718,663.4277 817.78546,662.8474 825.79816,662.5782 850.31287,662.7803 863.0984,662.67596 871.34406,662.23224 879.2754,661.34564 887.1836,659.8018 891.14087,658.6958 894.95276,657.3666 898.6299,655.78784 902.1164,653.9657 905.41296,651.88306 908.9543,649.12286 909.21027,649.1828 913.2953,658.66016 917.5362,670.044 919.4313,675.81573 922.7653,687.49854 925.48285,699.34033 927.57434,711.3051 929.031,723.36383 929.5182,729.4186 929.9117,737.3101 930.03986,745.202 929.9109,753.0868 929.53253,760.9651 928.9128,768.8292 928.0592,776.67645 926.9801,784.50037 925.6829,792.2983 924.176,800.0636 922.4669,807.7928 918.4739,823.12537 913.76666,838.2581 911.1649,845.7385 906.2635,858.6198 901.6904,869.46515 899.2548,874.82697 894.0635,885.39197 891.29767,890.5829 885.40656,900.74 882.2711,905.6939 875.5993,915.31464 868.36145,924.507 864.51935,928.92456 860.5236,933.2121 854.9538,938.6943 854.7037,938.64374 853.0472,934.84 849.94794,928.55286 846.5281,922.5453 844.6925,919.65137 840.57794,913.8516 838.38025,911.0884 833.6969,905.8504 828.62244,901.02106 825.9356,898.76794 820.2542,894.5998 814.15735,890.90625 810.9493,889.24536 804.2081,886.3126 797.0249,883.9197 793.26514,882.9345 785.4016,881.4019 777.07117,880.4753 768.26605,880.18146 758.9743,880.5462 754.1432,880.98364 744.10535,882.38513 733.55585,884.5109 721.15814,887.72614 707.50464,891.89404 694.1795,896.64233 681.26166,901.98895 674.9818,904.8914 668.83234,907.9506 662.8246,911.1682 656.96796,914.5466 651.27185,918.0883 645.7484,921.7942 640.4053,925.6677 635.253,929.7111 630.3016,933.92615 625.4248,938.4464 620.7805,943.15283 616.38043,948.04535 612.2326,953.1279 608.35,958.39874 604.73584,963.8698 601.4067,969.5336 598.37616,975.3854 595.6501,981.4332 592.1543,990.8752 590.23413,997.419 588.654,1004.1638 587.4246,1011.1065 586.7815,1016.2052 586.5822,1016.38086 569.0998,1016.38086 568.9023,1016.2007 568.4109,1010.8845 567.4075,1003.8944 566.0479,997.1027 563.3623,987.2731 559.9313,977.86945 555.7894,968.8876 550.975,960.3303 545.51965,952.1858 541.5391,946.97845 537.2992,941.95276 532.8096,937.107 528.08044,932.4396 523.2665,928.07526 518.24695,923.87756 513.0308,919.8439 507.62738,915.9716 502.04913,912.26056 496.30356,908.707 490.40067,905.3093 484.35294,902.06696 471.85602,896.03613 458.89285,890.5992 445.54416,885.74115 431.89154,881.4469 421.1758,878.6327 410.94833,876.569 401.2029,875.23004 391.93048,874.5895 383.12274,874.62067 378.88998,874.88 370.76083,875.8692 363.07077,877.4647 359.3884,878.4814 352.34424,880.93555 345.71857,883.9293 342.55954,885.6205 336.54352,889.3749 330.9231,893.60315 328.25964,895.88574 323.2179,900.77325 320.8374,903.3714 316.35318,908.8586 312.3183,914.57684 310.11392,918.1116 309.8592,918.12427 307.0297,914.4554 300.91684,905.84344 301.08966,903.2622 300.85666,901.24744 300.27063,899.31396 299.32266,897.4661 298.1,895.86273 296.60504,894.4935 294.2163,893.0895 292.37497,892.40027 290.3429,888.9561 286.67487,882.27374 283.21683,875.48175 277.6377,863.2694 272.69565,850.7941 270.4524,844.4695 266.39764,831.66583 262.8883,818.6857 259.8885,805.56793 259.52615,803.7171 259.65396,800.17926 259.30862,799.79346 258.68228,799.5393 258.5675,798.9654 257.36002,792.3408 255.26706,779.04333 253.22469,762.526 252.28041,752.6552 251.53891,742.76685 251.00002,732.8646 250.66367,722.95496 250.52954,713.0395 250.59756,703.1222 250.86763,693.2104 251.33948,683.305 252.01309,673.41034 252.88812,663.5338 253.96454,653.676 255.24248,643.84064 256.78195,633.7349 256.95834,633.68854 Z M388.49973,890.5577 L396.38632,890.89935 404.7006,891.8325 413.49432,893.3824 422.77835,895.57367 434.03015,898.8607 446.68433,903.12946 459.01175,907.9183 470.93384,913.24365 482.37354,919.1221 487.88953,922.2744 493.25473,925.57086 498.46042,929.0139 503.49683,932.60535 508.3543,936.34753 513.0238,940.24286 517.49335,944.2913 521.62305,948.36163 525.5486,952.5827 529.25885,956.9558 532.74536,961.48444 535.99896,966.1722 539.00836,971.0194 541.7661,976.03143 544.2619,981.2099 546.48596,986.55725 549.2894,994.8927 551.43304,1003.63477 552.8804,1012.78235 553.4437,1019.12195 553.65924,1028.9576 553.16376,1038.3647 552.0034,1046.957 550.20776,1054.7389 547.79694,1061.7804 544.7961,1068.1152 541.23114,1073.7831 537.6635,1078.2031 537.4972,1078.1505 536.9667,1073.825 535.8172,1069.0417 535.0862,1066.7917 533.31573,1062.4824 532.28265,1060.4255 529.9407,1056.5223 527.25134,1052.9092 524.24426,1049.605 520.947,1046.6267 517.3868,1043.9899 513.5931,1041.7134 509.5943,1039.8132 505.41656,1038.306 501.0897,1037.2092 496.63977,1036.5393 494.3778,1036.3696 489.79764,1036.3723 487.48627,1036.5487 482.83887,1037.262 478.21283,1038.4623 473.79584,1040.0997 469.6294,1042.14 467.6446,1043.3027 463.88535,1045.894 460.42035,1048.8157 456.4208,1053.0372 456.1524,1053.0619 453.04672,1050.6631 449.26758,1048.2694 445.25235,1046.2437 441.02496,1044.6106 436.60645,1043.3931 432.02063,1042.6152 427.2915,1042.3007 424.90787,1042.3241 422.55225,1042.4674 417.94254,1043.1017 413.4842,1044.1808 409.20303,1045.6814 405.12158,1047.5804 401.26376,1049.8551 397.65924,1052.4769 395.45224,1054.3955 395.18552,1054.3582 391.5301,1049.321 388.48264,1046.0002 386.83817,1044.4484 383.31525,1041.5774 381.44135,1040.2661 377.47876,1037.9104 375.39508,1036.8737 371.0294,1035.0989 368.75232,1034.3684 366.4462,1033.7551 361.8317,1032.8971 359.53046,1032.6486 354.9578,1032.5029 352.69363,1032.6017 348.22656,1033.1323 346.03183,1033.56 341.73682,1034.7311 339.64285,1035.4702 335.58353,1037.245 333.62524,1038.2762 329.86578,1040.6189 326.34216,1043.3195 324.67767,1044.7994 321.5614,1048.0078 320.11682,1049.7323 317.47296,1053.4111 316.27985,1055.3632 314.1723,1059.477 313.26395,1061.6366 311.75766,1066.1467 311.2194,1068.3512 311.05048,1068.3763 307.92126,1062.5066 306.12912,1058.1548 303.95264,1051.0491 302.85278,1045.9017 302.04404,1040.4175 301.53586,1034.603 301.3481,1025.1923 301.52005,1018.30176 302.28143,1004.3705 302.89484,997.364 304.6452,983.4009 305.80606,976.4922 307.1723,969.66925 308.75623,962.9541 310.56967,956.37256 312.62372,949.9517 316.17612,940.68933 318.88217,934.7797 321.8703,929.1177 325.15164,923.7297 328.64337,918.76733 332.34058,914.2329 336.34592,910.01794 340.67267,906.14795 345.33417,902.6478 350.34424,899.54224 355.7188,896.8545 361.4693,894.6106 364.49207,893.66205 370.83395,892.12915 377.5922,891.10034 384.77524,890.6011 388.49973,890.5577 Z M767.259,896.2329 L771.1529,896.25037 778.54865,896.69867 785.4911,897.6761 791.997,899.15845 798.07947,901.1209 803.75354,903.539 809.03503,906.38794 813.9384,909.6433 818.4789,913.28046 822.6728,917.2764 826.53424,921.60645 830.07764,926.24554 833.40326,931.3078 836.50476,936.7883 839.3051,942.53394 841.8169,948.5202 845.0738,957.9084 846.9162,964.3836 848.5136,971.01263 849.87823,977.76886 851.0224,984.62854 851.9584,991.5637 853.25635,1005.56915 853.8719,1019.586 853.9043,1033.4198 853.64746,1039.8014 853.092,1045.7972 852.24695,1051.4207 850.4502,1059.2015 848.9084,1063.9777 846.0997,1070.5436 843.9079,1074.5397 840.7526,1079.1831 840.5873,1079.1437 839.31775,1073.573 838.5885,1071.3218 836.81964,1067.0061 835.78784,1064.9478 833.4459,1061.0393 832.144,1059.1951 829.2932,1055.7325 827.7519,1054.1194 824.45404,1051.1388 822.7053,1049.7764 819.0249,1047.3169 815.1244,1045.2252 813.1004,1044.3226 808.9222,1042.8141 806.775,1042.2124 802.38324,1041.3245 800.1448,1041.0426 795.60175,1040.813 793.3022,1040.8695 788.6703,1041.3362 786.3438,1041.7501 781.71606,1042.9464 779.4757,1043.7129 775.178,1045.5554 773.12665,1046.6234 769.22455,1049.0378 767.37994,1050.3761 763.9121,1053.2981 759.9086,1057.5212 759.6402,1057.5459 756.5496,1055.1578 752.7694,1052.7617 748.753,1050.7336 744.52313,1049.098 740.1038,1047.8789 735.5162,1047.0999 730.78503,1046.7849 728.4,1046.8083 726.04407,1046.9517 721.43115,1047.5873 716.97095,1048.6682 712.6881,1050.171 708.60565,1052.0725 704.74603,1054.3502 701.142,1056.9736 698.9457,1058.8835 698.67883,1058.8463 695.0345,1053.8306 691.9886,1050.5139 688.6211,1047.4889 686.8231,1046.0958 683.005,1043.5637 678.90643,1041.3966 676.7571,1040.4587 672.2683,1038.8927 667.6891,1037.7974 665.3976,1037.4303 660.8239,1037.0475 658.5501,1037.0289 654.0501,1037.3278 649.6357,1038.0637 645.3359,1039.2228 641.17926,1040.791 637.1974,1042.7542 633.4014,1045.1097 629.85,1047.8276 626.57086,1050.8907 623.592,1054.2816 620.9389,1057.9854 619.74335,1059.949 617.6313,1064.0898 615.9131,1068.5023 614.635,1073.1302 614.0464,1076.6672 613.88947,1076.707 612.51996,1074.7882 610.2097,1071.0142 607.2231,1064.8137 604.8396,1057.9379 603.0834,1050.336 601.98364,1041.9868 601.6258,1035.9688 601.6743,1026.2804 602.463,1016.5822 603.3916,1010.3808 605.3716,1001.4203 607.0632,995.69464 610.1457,987.43536 612.5448,982.15985 615.20886,977.0628 618.12897,972.1396 621.2958,967.3877 624.69977,962.80383 628.3316,958.3849 632.1819,954.12805 636.24054,950.0307 640.5003,946.088 645.09814,942.17737 649.89,938.4267 654.8653,934.8337 660.01465,931.39667 665.32825,928.11285 670.79584,924.98047 676.4093,921.99634 688.03485,916.46387 694.0241,913.91254 706.3173,909.2234 718.95996,905.073 731.8767,901.4419 741.49133,899.20465 750.588,897.6068 759.17865,896.6243 767.259,896.2329 Z M355.28192,1048.5796 L358.3133,1048.6819 361.36377,1049.0935 364.4197,1049.8246 367.42084,1050.8694 370.2079,1052.1619 372.83752,1053.7131 375.29446,1055.5096 377.51428,1057.4855 379.54022,1059.6685 381.35638,1062.0438 382.91324,1064.5321 384.2389,1067.1747 384.77084,1068.748 383.27185,1072.2031 381.8457,1076.5592 380.8442,1081.096 380.5101,1083.4257 380.19095,1088.1812 380.21423,1090.692 380.38647,1093.1711 380.81992,1096.0645 380.52777,1096.4432 379.11343,1097.2229 377.5528,1097.786 375.89157,1098.151 373.38766,1098.4131 370.72418,1098.4172 367.87344,1098.1866 364.9302,1097.7562 358.66403,1096.3966 351.97336,1094.5555 345.35828,1092.5144 339.33362,1090.2806 334.11093,1087.7247 331.8688,1086.2928 329.87842,1084.7173 328.65375,1083.5055 327.64572,1082.2216 326.83917,1080.7961 326.25818,1079.1685 325.95615,1077.4279 325.9219,1075.3922 326.1915,1073.1226 326.7801,1070.5641 327.7653,1067.6133 329.0226,1064.8297 330.5313,1062.2291 332.2893,1059.8018 334.22754,1057.6173 336.39673,1055.612 338.70276,1053.862 341.18506,1052.3322 343.80533,1051.048 346.54465,1050.02 349.38406,1049.2589 352.30447,1048.7751 355.28192,1048.5796 Z M493.45584,1052.4259 L496.45215,1052.7113 499.35898,1053.2827 502.17508,1054.1288 504.9029,1055.2491 507.46072,1056.6003 509.89337,1058.2037 512.1611,1060.0376 514.24524,1062.0902 516.12756,1064.3511 517.78937,1066.809 519.21216,1069.4523 520.3775,1072.2708 521.2668,1075.2528 521.7727,1077.8342 521.96643,1080.1454 521.867,1082.1306 521.5085,1083.8593 520.8935,1085.4282 520.04364,1086.8337 518.96246,1088.1248 517.6977,1089.2954 515.6528,1090.81 513.34467,1092.1837 510.7605,1093.4503 505.04324,1095.6492 495.21918,1098.4908 485.27872,1100.7821 479.20853,1101.6316 476.4306,1101.7687 473.7709,1101.6831 471.04373,1101.2847 470.9118,1101.0475 472.0683,1096.8593 472.70273,1092.1603 472.7964,1087.2346 472.40222,1082.5265 471.55447,1077.9608 470.27563,1073.5607 468.58908,1069.3514 466.7179,1065.7219 466.72806,1065.4893 468.88034,1062.7788 470.99164,1060.6425 473.2716,1058.7351 475.76346,1057.0286 478.43738,1055.5571 481.28204,1054.3398 484.31128,1053.3895 487.396,1052.7535 490.44,1052.437 493.45584,1052.4259 Z M658.69727,1053.102 L661.75275,1053.1981 664.8366,1053.6096 667.936,1054.3489 670.9337,1055.3933 673.7182,1056.6849 676.34595,1058.235 678.80164,1060.0302 681.0207,1062.0043 683.046,1064.1855 684.8622,1066.5594 686.419,1069.0465 687.7449,1071.688 688.2646,1073.2289 686.7568,1076.703 685.3319,1081.0564 684.33167,1085.5891 683.9982,1087.9161 683.68024,1092.6698 683.70703,1095.1919 683.882,1097.6727 684.3195,1100.5754 684.0279,1100.953 682.6116,1101.7332 681.04895,1102.2969 679.38684,1102.6622 676.886,1102.925 674.2246,1102.9305 671.3739,1102.7017 668.43304,1102.2736 662.17255,1100.919 655.4961,1099.0829 648.8697,1097.0308 642.83673,1094.7921 637.6096,1092.2356 635.36346,1090.8026 633.3692,1089.2262 632.14343,1088.0165 631.13434,1086.7346 630.3273,1085.3116 629.7459,1083.6864 629.44385,1081.9479 629.4098,1079.9143 629.67993,1077.6459 630.2704,1075.0822 631.261,1072.1138 632.5202,1069.3275 634.028,1066.7312 635.7811,1064.3141 637.709,1062.1431 639.8613,1060.1533 642.1427,1058.419 644.59143,1056.9023 647.20087,1055.6133 649.935,1054.576 652.77527,1053.8032 655.70386,1053.3075 658.69727,1053.102 Z M426.9863,1058.3756 L430.13602,1058.5797 433.17404,1059.0883 436.1015,1059.8846 438.90323,1060.9536 441.56396,1062.2795 444.0688,1063.8468 446.40222,1065.64 448.04202,1067.1699 448.1003,1067.4026 446.7486,1071.6991 445.81573,1076.1388 445.3129,1080.6809 445.2572,1085.296 445.6658,1089.9578 446.55548,1094.634 447.98535,1099.3406 449.1862,1102.1532 449.08786,1102.4058 445.28067,1103.6041 439.51956,1104.5132 433.132,1104.8744 426.22382,1104.8826 419.30637,1104.6669 412.91257,1104.109 407.2351,1103.0336 404.65878,1102.2301 402.35782,1101.247 400.86795,1100.4043 399.54214,1099.4119 398.65283,1098.5049 398.60944,1098.2634 400.0639,1094.6453 400.8083,1092.2338 401.3938,1089.9094 402.1985,1085.2587 402.42224,1082.9365 402.52203,1078.3201 402.4025,1076.0348 401.78397,1070.8839 403.14713,1069.1284 405.1632,1066.99 407.3746,1065.0522 409.7656,1063.3301 412.32053,1061.839 415.0235,1060.594 417.8588,1059.6097 420.81094,1058.902 423.86414,1058.4851 426.9863,1058.3756 Z M796.9425,1056.9247 L799.93866,1057.2114 802.8454,1057.7833 805.6618,1058.6296 808.39044,1059.75 810.94946,1061.1012 813.3832,1062.705 815.65234,1064.5397 817.7382,1066.5941 819.622,1068.8578 821.2854,1071.32 822.7096,1073.9697 823.8761,1076.796 824.76636,1079.7885 825.2715,1082.3633 825.465,1084.6694 825.3654,1086.6487 825.00714,1088.3726 824.3919,1089.9398 823.52167,1091.372 822.4622,1092.6329 821.198,1093.8046 819.15375,1095.3214 816.8463,1096.6971 814.26276,1097.9668 808.55133,1100.1691 798.74097,1103.0126 788.78046,1105.292 782.7005,1106.1384 779.91724,1106.2751 777.2521,1106.1895 774.54083,1105.7968 774.4091,1105.5599 775.5706,1101.3535 776.2044,1096.6481 776.2983,1091.7223 775.9052,1087.02 775.0582,1082.4584 773.77997,1078.0609 772.09393,1073.853 770.2112,1070.2028 770.2213,1069.97 772.3661,1067.2698 774.47845,1065.132 776.75964,1063.2233 779.2528,1061.5159 781.9281,1060.0441 784.7742,1058.8268 787.80475,1057.877 790.8876,1057.2461 793.92847,1056.9335 796.9425,1056.9247 Z M730.4798,1062.8599 L733.6315,1063.0645 736.6714,1063.5741 739.6006,1064.3724 742.4037,1065.4435 745.06573,1066.7719 747.5716,1068.3416 749.90594,1070.1372 751.52844,1071.6522 751.5863,1071.8843 750.2325,1076.1863 749.2985,1080.629 748.7948,1085.1748 748.73804,1089.7948 749.1455,1094.4634 750.0338,1099.146 751.46643,1103.864 752.66187,1106.6641 752.5636,1106.9163 748.7945,1108.0977 745.9822,1108.6344 739.9132,1109.2375 728.5806,1109.3317 722.8002,1109.1527 716.4073,1108.5989 710.73114,1107.5283 708.15717,1106.7274 705.8566,1105.746 704.3681,1104.9045 703.0423,1103.9113 702.162,1103.0121 702.11884,1102.771 703.57196,1099.156 704.316,1096.7461 704.9016,1094.4171 705.70557,1089.7617 705.929,1087.4374 706.02826,1082.818 705.90845,1080.532 705.28564,1075.3612 706.6299,1073.6289 708.64594,1071.4889 710.8575,1069.5491 713.24896,1067.8246 715.80457,1066.331 718.50867,1065.0835 721.34546,1064.0974 724.29944,1063.3876 727.3549,1062.9698 730.4798,1062.8599 Z M474.38962,-0.100046344 L468.4829,0.32807404 464.13965,1.1225779 459.47287,2.334448 452.75934,4.7278433 448.4395,6.6905603 444.25037,8.922087 440.18542,11.405132 436.2431,14.119255 432.41522,17.048332 428.89764,19.997665 422.1323,26.35073 418.87027,29.720285 412.56015,36.75192 406.489,44.059822 389.9847,65.09476 384.58652,71.68938 379.5732,77.387924 374.51672,82.53754 371.9508,84.867775 366.71466,88.946754 364.03766,90.65722 360.49323,92.631165 356.81854,94.452995 349.13245,97.686554 341.07782,100.4575 332.74725,102.868515 324.2405,105.02081 298.6313,110.947685 289.69238,113.26469 281.05005,115.85051 276.87552,117.27451 268.87213,120.45092 265.07083,122.227425 261.11652,124.31478 257.33856,126.58736 253.75255,129.05544 250.35391,131.74667 245.69983,136.17114 241.56606,141.14822 238.03566,146.66463 236.08453,150.55771 233.73947,156.71077 232.57727,160.87817 231.67194,165.23932 231.02898,169.71245 230.6313,174.28873 230.46199,178.96222 230.68488,187.82736 231.48605,196.95712 232.72823,206.30156 239.04808,243.2966 240.75887,256.62576 241.3489,264.9887 241.3831,273.13647 240.7243,281.01895 240.09204,284.84283 239.31096,288.1897 238.30116,291.52383 237.07886,294.8543 234.0667,301.51028 230.41344,308.17645 223.69176,318.7297 202.6591,348.19714 197.41714,356.0023 192.54996,363.90448 188.20747,371.90564 186.1536,376.2195 184.30553,380.56952 182.67998,384.95987 181.29533,389.39072 180.16942,393.86423 179.32072,398.37985 178.60526,405.2492 178.53351,409.75198 179.08063,416.29935 179.83913,420.4748 180.90297,424.61124 182.25888,428.69922 183.88187,432.71634 185.75499,436.66797 187.85959,440.55478 192.28932,447.57172 194.73393,451.01007 199.99075,457.75974 208.513,467.5982 225.04645,485.56284 232.33412,494.13074 236.35657,499.47922 239.78082,504.8246 242.4622,510.19113 243.47838,512.8856 244.43361,516.0797 245.83575,522.79706 246.65656,529.88416 247.05779,541.0484 246.92142,549.3024 245.70604,574.39716 245.4199,583.1266 245.41902,591.6677 245.82388,599.93805 246.21574,603.942 247.45712,611.61505 246.89441,611.92566 246.5947,612.3764 244.77888,621.7787 243.0512,631.83057 241.53004,641.91644 240.21588,652.0302 239.10867,662.1687 238.20865,672.3267 237.51578,682.50287 237.03043,692.69006 236.75272,702.88403 236.68271,713.0836 236.82063,723.2814 237.1666,733.4734 237.72087,743.6582 238.48352,753.82855 239.45476,763.9812 240.63474,774.11316 242.60689,787.99854 244.29955,797.8717 244.11827,798.05383 240.71461,797.48505 234.50717,796.1555 228.36827,794.547 222.30705,792.66113 216.33948,790.5022 210.47849,788.0732 204.88196,785.4553 199.41226,782.6105 194.06961,779.5539 188.84457,776.29565 183.73724,772.8513 173.85275,765.4525 164.38194,757.46075 155.29115,748.98004 150.87679,744.5877 142.29097,735.56555 134.00102,726.3137 127.50893,718.7176 118.17578,706.93164 112.38303,698.77325 109.65792,694.59515 104.62551,686.03375 100.242134,677.17633 98.32966,672.63043 96.62229,668.0027 95.134285,663.29065 93.87959,658.49066 92.84597,653.412 92.11169,648.2768 91.59596,640.5281 91.656815,635.35 92.05498,630.20355 92.80213,625.0899 93.909096,620.042 95.771614,613.9581 98.59037,607.0039 100.20632,603.6165 103.76663,596.9787 107.64609,590.47656 122.836136,566.4279 128.8804,555.3824 132.60019,547.693 136.12373,539.8966 146.47238,516.40106 150.16992,508.70514 157.04312,495.72565 158.77936,491.4158 159.59518,487.9716 159.81895,485.94092 159.67772,482.0644 159.19632,479.7567 158.48134,477.70877 157.46034,475.6951 156.15793,473.83936 154.64973,472.24203 153.02103,470.92142 151.2437,469.80164 149.3575,468.88522 146.26588,467.83484 140.66678,466.77264 135.96487,466.3603 128.89157,466.44864 121.871666,467.33005 114.96365,468.94437 110.4526,470.4011 106.04522,472.14178 101.93461,474.05527 97.94025,476.1847 94.0563,478.51562 90.28653,481.0277 86.62508,483.70685 79.627846,489.49365 73.05541,495.7364 66.87983,502.33154 61.05679,509.23492 55.545395,516.40295 47.78162,527.544 42.872387,535.1807 33.527622,550.7358 28.296919,559.903 23.331411,569.2154 21.004253,573.94324 16.767992,583.58685 14.903077,588.5177 13.349547,593.1715 12.000579,597.8833 10.883882,602.65656 10.030059,607.4841 8.357657,623.25085 7.401548,628.4103 6.4473157,631.84985 3.026208,641.9753 1.9839883,645.6206 1.1278536,649.32007 0.4806309,653.05585 0.0639108,656.8152 -0.099437654,660.60535 0.013477813,664.3692 0.7469644,669.97217 2.0357904,674.91705 3.136415,677.9573 5.833056,683.84503 15.158894,700.5212 20.634163,711.36194 28.144794,727.9895 37.931458,750.75714 43.138527,762.2303 48.729755,773.50555 54.87809,784.48785 57.544254,788.8008 63.20234,797.2061 69.275444,805.3137 75.739845,813.11804 79.10976,816.9027 86.11399,824.2377 93.44501,831.2484 101.078476,837.9287 108.990166,844.27155 114.15125,848.12634 124.742065,855.4364 135.655,862.2527 146.84596,868.6207 158.27414,874.5887 175.75914,882.88873 187.59216,888.06055 207.08424,895.99945 214.71996,898.86743 222.4247,901.5353 230.20953,903.939 242.02457,906.8992 249.99303,908.3447 258.03983,909.2912 262.09396,909.55664 267.92688,909.6527 273.74396,909.3233 276.62985,908.9674 282.31833,907.81024 284.93393,907.0326 285.17322,907.12134 287.09796,910.12006 285.94705,913.55786 286.03253,914.2019 286.41046,914.47296 287.7141,914.7894 290.41785,915.02423 295.93726,922.7432 302.9307,931.64514 302.9636,931.8756 301.01123,936.43134 298.44394,943.2181 296.14908,950.20184 294.11618,957.3542 292.3342,964.64746 290.79147,972.0554 289.47607,979.5541 288.37674,987.1164 287.4821,994.7144 286.25974,1009.9229 285.9093,1017.47894 285.7022,1028.7473 285.78513,1032.461 286.24115,1039.6 287.07614,1046.3671 288.28073,1052.7715 289.845,1058.8195 290.75977,1061.715 292.84604,1067.2458 294.0161,1069.8867 296.60324,1074.9205 298.01828,1077.3168 301.08484,1081.872 302.73395,1084.0332 306.25845,1088.1284 308.13077,1090.064 312.09085,1093.7175 318.54984,1098.6675 325.60184,1103.0067 332.8832,1106.6151 337.9167,1108.6996 343.15732,1110.579 348.5926,1112.2622 354.21573,1113.7601 360.01895,1115.0835 365.99167,1116.242 378.41348,1118.1066 391.41205,1119.436 404.91888,1120.3124 425.97214,1120.9575 440.1146,1121.0283 453.86322,1120.7578 467.1465,1120.0618 479.90433,1118.8567 492.06787,1117.0586 497.90558,1115.9114 503.57098,1114.5839 509.05396,1113.0664 514.348,1111.348 519.44293,1109.4186 526.8641,1106.0206 531.7181,1103.3401 536.3225,1100.3851 540.6681,1097.1467 544.7461,1093.6154 548.5447,1089.7847 552.05743,1085.6426 553.70306,1083.4528 556.7668,1078.8298 558.1831,1076.3939 560.7766,1071.2709 561.95245,1068.5798 564.0548,1062.9359 565.81793,1056.935 566.56934,1053.7975 567.8057,1047.2456 568.67975,1040.3127 569.25104,1030.4138 569.44543,1030.2275 585.7528,1030.2275 585.9434,1030.419 586.1951,1040.5173 586.8421,1047.473 587.8633,1054.0607 589.2494,1060.2883 590.9908,1066.1647 593.0774,1071.697 595.50085,1076.8969 598.2506,1081.7695 601.31757,1086.3252 604.6926,1090.5724 608.3646,1094.5173 610.30927,1096.3796 614.41095,1099.8903 618.7853,1103.1198 625.83813,1107.4578 633.1193,1111.0643 638.15436,1113.1482 643.3954,1115.0265 648.83014,1116.708 654.4557,1118.2053 660.2583,1119.5273 672.36676,1121.6876 678.6524,1122.5465 691.6519,1123.8741 698.34546,1124.3632 712.0771,1125.0427 726.2099,1125.3933 740.3497,1125.4645 754.0953,1125.1951 767.37823,1124.5012 780.1351,1123.2985 792.29816,1121.5034 798.13574,1120.3577 803.8012,1119.0321 809.2851,1117.5161 814.5776,1115.8002 819.6737,1113.8722 827.0963,1110.4766 831.9498,1107.7986 836.5547,1104.8458 842.9734,1099.8832 846.91394,1096.2048 848.7782,1094.2523 852.2914,1090.1124 853.93713,1087.9236 857.00165,1083.3021 858.4184,1080.867 861.0127,1075.7448 862.1889,1073.0541 864.292,1067.4114 866.05646,1061.4089 867.4725,1055.0403 868.52997,1048.2975 869.22095,1041.1691 869.42584,1037.459 869.5844,1026.1548 869.4771,1018.59314 868.7459,1003.36224 868.0971,995.74414 867.2432,988.1567 866.17194,980.62744 864.8703,973.1801 863.3271,965.8432 861.5287,958.63837 859.9021,953.0911 859.9665,952.8641 866.95917,946.3811 870.4941,942.82025 874.72864,938.2788 878.8034,933.6008 882.7207,928.7964 890.10004,918.8372 893.57166,913.6963 900.1,903.12866 903.1652,897.7174 908.9222,886.67285 911.62213,881.0549 916.687,869.6647 921.33545,858.1165 924.2212,850.34955 929.4923,834.61694 931.861,826.66254 934.0416,818.6547 936.026,810.5994 937.806,802.50226 939.37427,794.366 940.72217,786.1976 941.8421,778.0005 942.72656,769.77893 943.3671,761.5394 943.7561,753.2858 943.8853,745.02203 943.74695,736.75397 943.3332,728.48535 942.1292,715.65894 940.2477,702.9201 937.698,690.2989 934.4901,677.82935 930.63336,665.5449 926.13745,653.4793 923.653,647.5399 918.82477,637.12836 922.0243,630.1096 923.3793,626.2303 924.5109,622.2014 926.1015,614.13995 927.0222,606.0501 927.5816,593.34033 927.5801,584.5866 927.17865,559.4107 927.3108,551.15063 927.72754,543.65533 928.5411,536.4183 929.8695,529.5265 931.8237,523.08344 932.94135,520.4003 934.2682,517.7629 935.7953,515.1404 939.38446,509.91986 943.57025,504.70795 951.13696,496.35736 968.1921,478.94272 977.0291,469.36047 982.49335,462.77985 985.0435,459.42178 989.693,452.5493 991.9165,448.73914 993.9137,444.85464 995.66534,440.8957 997.1539,436.85828 998.365,432.71967 999.60345,426.39868 1000.0221,422.06375 1000.1008,417.5717 999.6147,410.71582 998.91266,406.18237 997.92975,401.6836 996.68353,397.21786 995.19354,392.7883 993.47754,388.394 989.57446,379.97128 987.4465,375.93555 982.8119,367.93256 977.79236,360.01245 957.52954,330.03033 951.0927,319.34055 947.6087,312.58606 944.76605,305.8555 943.6291,302.4935 942.7059,299.13272 942.0141,295.7741 941.4835,291.9676 941.0278,284.12424 941.26697,276.0278 942.06433,267.73093 944.1075,254.49216 951.34393,217.82779 952.8257,208.53592 953.8651,199.44391 954.32275,190.61633 954.2796,185.96019 954.0079,181.39006 953.49066,176.91774 952.7115,172.55148 951.6317,168.22667 949.49445,162.12393 946.6196,156.28021 944.2948,152.59073 940.32117,147.52385 935.7947,142.96677 932.4881,140.19133 928.97095,137.61772 925.2566,135.23433 921.3578,133.02966 913.70404,129.37589 909.68243,127.727165 901.30817,124.7215 888.13354,120.763664 862.7539,114.06822 854.3618,111.66138 846.1686,109.00037 838.2654,105.98257 830.757,102.50955 827.18286,100.57156 823.7413,98.47991 821.1245,96.6576 818.56836,94.62032 813.58954,89.95659 811.151,87.36224 806.3412,81.73491 798.8264,71.94796 783.2352,50.37975 777.4788,42.860752 771.4775,35.608986 765.1826,28.771603 758.5375,22.486124 754.8539,19.425016 751.047,16.572891 747.11096,13.948084 743.0429,11.57019 738.83325,9.4552965 732.2221,6.810244 725.2879,4.871935 721.4105,4.1934443 717.38763,3.8432455 713.4225,3.8126583 709.3782,4.0726314 705.25354,4.6114254 701.0817,5.4085712 696.8659,6.445094 688.65424,9.036916 680.63153,12.143621 668.32227,17.624128 643.6688,29.319128 635.4054,32.92968 627.0776,36.181644 619.161,38.790516 611.21405,40.802578 607.23553,41.538036 603.25446,42.068714 599.2754,42.375706 595.2987,42.44087 591.3117,42.251854 587.3325,41.821465 583.3619,41.168148 575.4497,39.266315 567.58466,36.69442 563.6689,35.202003 555.42786,31.686733 547.2715,27.81542 523.0317,15.352669 514.91095,11.33687 506.9271,7.712218 502.99158,6.0938168 494.89026,3.2284536 490.71808,2.0470212 486.58374,1.1046505 482.49048,0.42015976 478.4171,0.01136192 474.38962,-0.100046344 Z " />
</g></svg>