<?xml version="1.0" encoding="UTF-8" standalone="no"?>
<svg
   xmlns:dc="http://purl.org/dc/elements/1.1/"
   xmlns:cc="http://creativecommons.org/ns#"
   xmlns:rdf="http://www.w3.org/1999/02/22-rdf-syntax-ns#"
   xmlns:svg="http://www.w3.org/2000/svg"
   xmlns="http://www.w3.org/2000/svg"
   xmlns:sodipodi="http://sodipodi.sourceforge.net/DTD/sodipodi-0.dtd"
   xmlns:inkscape="http://www.inkscape.org/namespaces/inkscape"
   version="1.1"
   id="svg885"
   width="1073.8912"
   height="772.37933"
   viewBox="0 0 1073.8912 772.37931"
   sodipodi:docname="guppy_c.svg"
   inkscape:version="1.0 (4035a4f, 2020-05-01)">
  <metadata
     id="metadata891">
    <rdf:RDF>
      <cc:Work
         rdf:about="">
        <dc:format>image/svg+xml</dc:format>
        <dc:type
           rdf:resource="http://purl.org/dc/dcmitype/StillImage" />
        <dc:title />
      </cc:Work>
    </rdf:RDF>
  </metadata>
  <defs
     id="defs889">
    <clipPath
       clipPathUnits="userSpaceOnUse"
       id="clipPath929">
      <g
         id="g935"
         style="opacity:0.71"
         transform="translate(-226.38248,-210.58844)">
        <path
           style="color:#000000;font-style:normal;font-variant:normal;font-weight:normal;font-stretch:normal;font-size:medium;line-height:normal;font-family:sans-serif;font-variant-ligatures:normal;font-variant-position:normal;font-variant-caps:normal;font-variant-numeric:normal;font-variant-alternates:normal;font-variant-east-asian:normal;font-feature-settings:normal;font-variation-settings:normal;text-indent:0;text-align:start;text-decoration:none;text-decoration-line:none;text-decoration-style:solid;text-decoration-color:#000000;letter-spacing:normal;word-spacing:normal;text-transform:none;writing-mode:lr-tb;direction:ltr;text-orientation:mixed;dominant-baseline:auto;baseline-shift:baseline;text-anchor:start;white-space:normal;shape-padding:0;shape-margin:0;inline-size:0;clip-rule:nonzero;display:inline;overflow:visible;visibility:visible;isolation:auto;mix-blend-mode:normal;color-interpolation:sRGB;color-interpolation-filters:linearRGB;solid-color:#000000;solid-opacity:1;vector-effect:none;fill:#7b3001;fill-opacity:0.958217;fill-rule:nonzero;stroke:none;stroke-width:0;stroke-linecap:butt;stroke-linejoin:miter;stroke-miterlimit:4;stroke-dasharray:none;stroke-dashoffset:0;stroke-opacity:1;color-rendering:auto;image-rendering:auto;shape-rendering:auto;text-rendering:auto;enable-background:accumulate;stop-color:#000000;stop-opacity:1"
           d="M 242.19336,215.86914 V 694.99023 H 963.50977 V 215.86914 Z"
           id="path931" />
        <path
           style="color:#000000;font-style:normal;font-variant:normal;font-weight:normal;font-stretch:normal;font-size:medium;line-height:normal;font-family:sans-serif;font-variant-ligatures:normal;font-variant-position:normal;font-variant-caps:normal;font-variant-numeric:normal;font-variant-alternates:normal;font-variant-east-asian:normal;font-feature-settings:normal;font-variation-settings:normal;text-indent:0;text-align:start;text-decoration:none;text-decoration-line:none;text-decoration-style:solid;text-decoration-color:#000000;letter-spacing:normal;word-spacing:normal;text-transform:none;writing-mode:lr-tb;direction:ltr;text-orientation:mixed;dominant-baseline:auto;baseline-shift:baseline;text-anchor:start;white-space:normal;shape-padding:0;shape-margin:0;inline-size:0;clip-rule:nonzero;display:inline;overflow:visible;visibility:visible;isolation:auto;mix-blend-mode:normal;color-interpolation:sRGB;color-interpolation-filters:linearRGB;solid-color:#000000;solid-opacity:1;vector-effect:none;fill:#000000;fill-opacity:1;fill-rule:nonzero;stroke:none;stroke-width:0;stroke-linecap:butt;stroke-linejoin:miter;stroke-miterlimit:4;stroke-dasharray:none;stroke-dashoffset:0;stroke-opacity:1;color-rendering:auto;image-rendering:auto;shape-rendering:auto;text-rendering:auto;enable-background:accumulate;stop-color:#000000;stop-opacity:1"
           d="m 242.17773,215.85352 v 0.0156 479.13672 H 963.52539 V 215.85352 Z m 0.0312,0.0312 H 963.49414 V 694.97461 H 242.20898 Z"
           id="path933" />
      </g>
    </clipPath>
  </defs>
  <sodipodi:namedview
     inkscape:snap-midpoints="true"
     inkscape:document-rotation="0"
     pagecolor="#ffffff"
     bordercolor="#666666"
     borderopacity="1"
     objecttolerance="10"
     gridtolerance="10"
     guidetolerance="10"
     inkscape:pageopacity="0"
     inkscape:pageshadow="2"
     inkscape:window-width="1280"
     inkscape:window-height="755"
     id="namedview887"
     showgrid="false"
     fit-margin-top="0"
     fit-margin-left="0"
     fit-margin-right="0"
     fit-margin-bottom="0"
     inkscape:zoom="0.37986112"
     inkscape:cx="590.34612"
     inkscape:cy="303.65506"
     inkscape:window-x="0"
     inkscape:window-y="23"
     inkscape:window-maximized="1"
     inkscape:current-layer="layer1" />
  <g
     transform="translate(-126.6582,-277.76545)"
     inkscape:groupmode="layer"
     id="layer1"
     inkscape:label="sw">
    <path
       id="path1064"
       style="fill:none;stroke:#000000;stroke-width:4.3;stroke-linecap:butt;stroke-linejoin:miter;stroke-miterlimit:4;stroke-dasharray:none;stroke-opacity:1"
       d="m 871.17624,599.39904 29.7838,-57.70612 m -55.84463,37.22975 42.81422,-39.09124 m -74.45951,42.81422 57.70612,-43.74496 M 770.6559,585.43788 846.04615,537.0392 M 165.6724,345.30597 427.21142,418.83473 M 642.21325,611.49871 V 504.46316 L 510.04763,523.07804 M 148.91902,534.24697 536.38026,574.5521 M 199.17918,736.21838 536.38026,574.5521 M 330.41406,918.64417 547.27738,595.67606 M 275.50018,836.73872 547.27738,595.67606 M 177.77207,644.07474 536.38026,574.5521 M 174.0491,357.40564 528.48263,559.41499 M 155.43422,443.03407 528.48263,559.41499 M 148.91902,534.24697 528.48263,559.41499 M 591.95309,924.22864 547.27738,595.67606 M 538.90069,944.705 547.27738,595.67606 M 416.97324,970.76583 547.27738,595.67606 m -304.35324,135.8886 304.35324,-135.8886 v 0 M 427.21142,418.83473 510.04763,523.07804 v 0 m -250.3701,-225.24001 167.53389,120.9967 29.78381,-6.04983 m -45.60645,-31.17992 136.81934,94.93587 m -195.4562,-151.71125 58.63686,56.77538 28.85306,-5.58447 v 0 m 135.8886,67.9443 -66.08281,79.11323 37.22975,72.59802 m 94.93587,15.82265 -94.93587,-15.82265 94.93587,-91.2129 m 129.3734,36.29901 -129.3734,-36.29901 m -66.08281,-60.49835 66.08281,60.49835 262.46977,-47.9333 v 0 0 m -253.16233,-87.02455 37.38242,8.59341 215.77991,78.43114 M 649.6592,354.6134 l 50.26767,17.89117 m -58.64436,-31.85232 75.75588,23.62563 m -63.65621,-32.93307 77.97065,26.18718 m -78.9014,-35.49462 97.00013,27.1034 m -109.0998,-41.9953 125.71771,34.09767 m -107.10283,-40.61288 124.54342,32.38619 m 18.79113,-9.11759 -94.00512,-28.85306 v 0 m 162.88017,304.35324 38.1605,-7.44595 v 0 M 802.30119,323.89886 681.30449,381.60498 m 223.37853,74.92488 -73.52877,78.64785 96.79736,7.44595 m -23.26859,-86.0938 -102.38183,-132.631 M 959.5969,310.86844 935.39756,417.90399 866.52252,314.59142 927.95161,542.62366 M 1003.3419,523.07804 935.39756,417.90399 1059.1865,317.38365 m 0,0 -55.8446,205.69439 m 162.8801,-113.55075 19.5457,-67.9443 m -126.5812,-24.19934 75.3902,127.51191 v 0 m -0.9307,-92.14364 -6.5152,15.82264 1.8615,13.03042 13.0304,11.16892 14.8919,-10.23818 v -14.8919 l -7.446,-13.03042 z m 52.1217,-11.16893 -47.468,-10.23818 -79.1132,-13.96116 -99.5896,-6.51521 -93.07438,3.72298 -64.22133,9.30744 -24.19934,-19.54562 -33.50677,-11.16893 -42.81422,-9.30744 6.51521,11.16893 -59.56761,-3.72298 10.23818,9.30744 -25.13008,-2.79223 6.5152,9.30744 -15.82264,-0.93075 27.92231,15.82265 h -11.16892 l 12.09967,9.30744 -12.09967,9.30744 8.37669,13.96115 -18.61487,4.65372 20.47636,10.23819 -12.09967,3.72297 41.88347,8.3767 -105.17405,62.35983 -92.14364,-41.88347 -43.74496,-26.06083 -98.65885,-88.42066 11.16893,37.22975 -80.04397,-44.6757 -17.68414,7.44595 4.65372,10.23818 -7.44595,12.09967 34.43752,23.2686 -32.57603,-7.44595 5.58446,11.16892 -71.66727,-32.57603 v 13.96115 l -8.3767,14.89191 -13.96116,12.09967 8.3767,12.09967 -11.16893,3.72297 1.86149,20.47637 -13.96116,10.23818 10.23819,14.8919 -7.44596,9.30744 -1.86148,7.44595 -14.8919,-3.72298 18.61487,23.2686 -26.06083,11.16893 7.44596,20.47636 -2.79224,20.47637 7.44595,10.23818 -0.93074,14.8919 8.3767,13.96116 -0.93075,16.75339 9.30744,13.96115 -5.58446,19.54562 20.47636,1.86149 -13.03041,21.40711 16.75339,7.44595 -6.51521,17.68413 8.37669,11.16893 -4.65371,30.71455 13.03041,7.44595 -1.86149,15.82264 0.93075,22.33786 13.96115,15.82264 19.54562,-11.16893 24.19934,6.51521 -20.47636,7.44595 -12.09967,18.61488 5.58446,16.75339 7.44595,10.23818 13.03042,6.51521 16.75339,-10.23818 24.19934,13.03041 -19.54563,24.19934 2.79224,18.61488 h 14.8919 l 0.93074,27.92231 11.16893,-5.58446 4.65372,32.57603 11.16892,-3.72297 8.3767,31.64529 18.61487,-0.93075 -13.03041,23.2686 10.23818,25.13008 7.44595,21.40711 12.09967,1.86149 9.30744,13.96115 21.40711,20.4764 39.09124,-53.98317 6.51521,12.09967 -24.19934,38.1605 17.68413,17.6841 13.96116,-11.1689 17.68413,-7.4459 2.79223,26.0608 14.89191,-11.1689 13.03041,10.2381 10.23818,-29.7838 16.75339,30.7146 22.33785,-15.8227 10.23819,-85.6284 10.23818,18.61488 13.96116,-30.71455 13.03041,-14.8919 15.82265,6.51521 13.96115,-27.92232 12.09967,13.03042 8.3767,-165.67241 1.86148,-70.73653 13.96116,-61.42909 129.3734,-70.73654 59.5676,-5.58446 -28.85306,13.96116 -13.96115,3.72297 4.65372,9.30744 -36.29901,19.54562 13.96115,3.72298 -13.03041,16.75339 55.84463,-19.54562 31.64529,-3.72298 26.06083,20.47637 -20.47637,26.99157 4.65372,11.16892 35.36827,-32.57603 18.61488,-13.03041 18.61487,-49.32943 75.39029,-19.54562 80.9747,-48.39868 50.2601,-29.7838 31.6453,-35.36827 18.6149,-33.50678 13.0304,-21.40711 z M 642.21325,611.49871 V 504.46316 m 0,0 -132.16562,18.61488 m 132.16562,88.42067 V 504.46316 l -132.16562,18.61488" />
    <path
       style="opacity:0.71;fill:#000000;fill-opacity:0.958217;stroke:#000000;stroke-width:1.00055"
       d="m 1009.7829,107.19774 -5.3357,-4.57241 -0.8196,-5.744179 -0.8195,-5.744181 2.7736,-6.747893 c 1.5255,-3.711341 2.8091,-6.790144 2.8525,-6.841786 0.09,-0.107632 12.6635,1.354536 12.899,1.500063 0.085,0.05266 1.6346,2.693908 3.4432,5.869444 l 3.2884,5.773701 v 6.40263 6.402631 l -5.8753,4.04723 c -3.2315,2.22597 -6.1443,4.08771 -6.4731,4.13719 -0.4965,0.0747 -1.5022,-0.68505 -5.9335,-4.48244 z"
       id="path851"
       transform="translate(126.6582,277.76545)" />
    <path
       style="opacity:0.71;fill:#000000;fill-opacity:0.958217;stroke:#000000;stroke-width:0.500275"
       d="m 1048.0701,110.42819 c 0,-0.084 2.6801,-9.51043 5.9626,-20.947538 5.9595,-20.764204 5.9687,-20.794739 6.2702,-20.796307 0.2485,-0.0013 0.9911,0.742446 4.1884,4.194668 2.1375,2.307931 3.8693,4.25813 3.8486,4.333776 -0.021,0.07565 -2.7162,4.535303 -5.9898,9.910348 -4.4741,7.34616 -6.8921,11.462799 -9.7381,16.578873 -3.71,6.66941 -3.7935,6.8068 -4.1611,6.84252 -0.2487,0.0242 -0.377,-0.015 -0.3808,-0.11634 z"
       id="path855"
       transform="translate(126.6582,277.76545)" />
    <path
       transform="translate(126.6582,277.76545)"
       id="path869"
       d="m 1005.4609,158.45506 c -1.3139,-2.21513 -17.02664,-28.78533 -34.91723,-59.044882 -33.59486,-56.821249 -33.58967,-56.812106 -32.0048,-56.44222 0.28795,0.0672 16.59633,2.952585 36.24084,6.41196 35.50799,6.252907 35.85099,6.318542 58.52049,11.198082 12.5418,2.69957 22.8308,4.930781 22.8644,4.958247 0.1309,0.107004 -18.6167,64.944663 -18.8711,65.264543 -0.1487,0.18694 -6.5448,7.35948 -14.2135,15.93899 -11.3482,12.69579 -14.0631,15.61247 -14.5868,15.67094 -0.6055,0.0676 -0.7843,-0.16563 -3.0323,-3.95566 z m 18.6343,-46.655 8.3884,-5.77119 v -8.438822 -8.438829 l -4.0895,-7.149217 c -2.2492,-3.93207 -4.1212,-7.181003 -4.1601,-7.21985 -0.1339,-0.133948 -17.908,-2.163374 -18.3522,-2.095444 -0.3503,0.05356 -1.2251,1.961347 -4.1028,8.94771 l -3.65763,8.879636 1.00208,6.943009 c 0.55114,3.818657 1.00535,7.072017 1.00945,7.229687 0.011,0.44083 14.9177,13.1355 15.2667,13.00156 0.1678,-0.0644 4.0798,-2.71409 8.6934,-5.88825 z"
       style="opacity:0.71;fill:#0000ff;fill-opacity:0.958217;stroke:#000000;stroke-width:1.00055" />
    <path
       transform="translate(126.6582,277.76545)"
       id="path871"
       d="m 1005.4609,158.45506 c -1.3139,-2.21513 -17.02664,-28.78533 -34.91723,-59.044882 -33.59486,-56.821249 -33.58967,-56.812106 -32.0048,-56.44222 0.28795,0.0672 16.59633,2.952585 36.24084,6.41196 35.50799,6.252907 35.85099,6.318542 58.52049,11.198082 12.5418,2.69957 22.8308,4.930781 22.8644,4.958247 0.1309,0.107004 -18.6167,64.944663 -18.8711,65.264543 -0.1487,0.18694 -6.5448,7.35948 -14.2135,15.93899 -11.3482,12.69579 -14.0631,15.61247 -14.5868,15.67094 -0.6055,0.0676 -0.7843,-0.16563 -3.0323,-3.95566 z m 18.6343,-46.655 8.3884,-5.77119 v -8.438822 -8.438829 l -4.0895,-7.149217 c -2.2492,-3.93207 -4.1212,-7.181003 -4.1601,-7.21985 -0.1339,-0.133948 -17.908,-2.163374 -18.3522,-2.095444 -0.3503,0.05356 -1.2251,1.961347 -4.1028,8.94771 l -3.65763,8.879636 1.00208,6.943009 c 0.55114,3.818657 1.00535,7.072017 1.00945,7.229687 0.011,0.44083 14.9177,13.1355 15.2667,13.00156 0.1678,-0.0644 4.0798,-2.71409 8.6934,-5.88825 z"
       style="opacity:0.71;fill:#000000;fill-opacity:0.94946808;stroke:#000000;stroke-width:1.00055" />
    <path
       transform="translate(126.6582,277.76545)"
       id="path887"
       d="m 880.83818,239.25704 c 0.14658,-0.48715 11.90355,-43.81629 26.12661,-96.28697 14.22306,-52.470683 26.01186,-95.752814 26.19734,-96.182513 0.2423,-0.561303 10.29527,16.064042 35.70551,59.048803 19.45255,32.90655 35.42686,59.97758 35.49846,60.15786 0.072,0.18028 -9.87566,6.25392 -22.10513,13.49698 -17.31441,10.25469 -92.05194,54.82115 -100.12285,59.70389 -1.50541,0.91075 -1.55607,0.91316 -1.29994,0.0619 z"
       style="opacity:0.71;fill:#00003f;fill-opacity:1;stroke:#000000;stroke-width:2.0011" />
    <path
       transform="translate(126.6582,277.76545)"
       id="path889"
       d="m 882.77807,236.62617 c 0.16134,-0.45189 45.42441,-166.99307 49.70671,-182.891164 0.53431,-1.983648 1.12332,-3.606632 1.3089,-3.606632 0.975,0 69.44822,115.692356 68.95012,116.498216 -0.2028,0.32816 -0.3609,0.33557 -0.4655,0.0218 -0.087,-0.26134 -11.61907,6.36859 -25.62658,14.73319 -64.56,38.55202 -93.59278,55.82627 -93.82707,55.82627 -0.13986,0 -0.16082,-0.26177 -0.0466,-0.58171 z"
       style="opacity:0.71;fill:#00003f;fill-opacity:1;stroke:#000000;stroke-width:2.0011" />
    <path
       transform="translate(126.6582,277.76545)"
       id="path891"
       d="m 812.80895,132.92457 c 0.12747,-0.36193 5.13672,-22.40848 11.13167,-48.992326 l 10.89991,-48.334271 4.88641,0.321867 c 2.68752,0.177027 23.10571,1.513562 45.37376,2.970078 22.26804,1.456516 40.4415,2.808979 40.38546,3.005473 -0.0993,0.348106 -110.93443,90.483329 -112.24817,91.284339 -0.47028,0.28674 -0.59398,0.21318 -0.42904,-0.25516 z"
       style="opacity:0.71;fill:#00003f;fill-opacity:1;stroke:#000000;stroke-width:2.0011" />
    <path
       transform="translate(126.6582,277.76545)"
       id="path893"
       d="m 814.7712,129.413 c 0.25009,-0.79937 11.91773,-52.112303 18.26599,-80.331713 l 2.69578,-11.983327 h 1.99008 c 3.58724,0 84.40686,5.461101 84.66617,5.721018 0.0527,0.05287 -2.76603,2.422384 -6.26396,5.265582 -3.49792,2.843198 -18.9463,15.420373 -34.32974,27.949278 -43.90583,35.758722 -66.31255,53.891162 -66.82462,54.077222 -0.26753,0.0972 -0.35397,-0.20496 -0.1997,-0.69806 z"
       style="opacity:0.71;fill:#00003f;fill-opacity:1;stroke:#000000;stroke-width:2.0011" />
    <path
       transform="translate(126.6582,277.76545)"
       id="path895"
       d="m 753.49839,258.8494 c -23.74991,-1.85553 -43.25612,-3.45267 -43.34713,-3.5492 -0.091,-0.0965 14.83825,-16.22581 33.17615,-35.84287 19.18951,-20.52807 33.46569,-35.44164 33.6339,-35.13557 0.36351,0.66141 20.88215,76.82869 20.88215,77.51666 0,0.27475 -0.26177,0.4737 -0.58171,0.44211 -0.31994,-0.0316 -20.01346,-1.5756 -43.76336,-3.43113 z"
       style="opacity:0.71;fill:#00003f;fill-opacity:1;stroke:#000000;stroke-width:2.0011" />
    <path
       transform="translate(126.6582,277.76545)"
       id="path897"
       d="m 762.24251,258.36437 c -16.893,-1.36039 -35.09113,-2.79918 -40.44029,-3.1973 -5.34917,-0.39813 -9.83768,-0.8358 -9.97447,-0.97259 -0.35825,-0.35825 0.77192,-1.38486 1.53157,-1.39124 0.35374,-0.003 6.76643,-6.60205 14.25042,-14.66462 23.66192,-25.49121 48.82662,-52.06934 48.82662,-51.56907 0,0.11964 1.79158,6.79796 3.9813,14.84072 3.99057,14.65723 13.9651,51.83412 15.25433,56.85569 l 0.687,2.67589 -1.70096,-0.052 c -0.93554,-0.0286 -15.52252,-1.16506 -32.41552,-2.52546 z"
       style="opacity:0.71;fill:#00003f;fill-opacity:1;stroke:#000000;stroke-width:2.0011" />
    <path
       transform="translate(126.6582,277.76545)"
       id="path899"
       d="M 669.51833,136.77276 C 614.1688,116.63346 568.88738,100.05115 568.89295,99.923168 c 0.009,-0.197606 97.27413,-46.716896 103.80327,-49.646105 l 2.26184,-1.014741 40.83266,52.903708 c 22.45797,29.09704 44.0327,57.0397 47.94386,62.0948 3.91116,5.05511 6.95551,9.17709 6.76523,9.15997 -0.19029,-0.0171 -45.63195,-16.50874 -100.98148,-36.64804 z"
       style="opacity:0.71;fill:#00003f;fill-opacity:1;stroke:#000000;stroke-width:2.0011" />
    <path
       transform="translate(126.6582,277.76545)"
       id="path901"
       d="M 723.84933,155.26336 C 613.13766,114.94504 571.99986,99.909332 571.73961,99.667851 c -0.26801,-0.248676 12.13387,-6.351377 13.17607,-6.483666 0.52298,-0.06638 15.92422,-7.288633 34.22497,-16.049444 40.83608,-19.548774 54.66459,-26.075624 55.24669,-26.075624 0.24605,0 1.69873,1.622985 3.22818,3.606633 1.52944,1.983647 20.56055,26.642541 42.29136,54.79754 46.69218,60.4956 46.75667,60.57962 46.75667,60.92634 0,0.14854 -0.15707,0.25686 -0.34903,0.24071 -0.19197,-0.0161 -19.3013,-6.93129 -42.46519,-15.36698 z"
       style="opacity:0.71;fill:#00003f;fill-opacity:1;stroke:#000000;stroke-width:2.0011" />
    <path
       transform="translate(126.6582,277.76545)"
       id="path903"
       d="M 802.46723,259.89885 C 802.17386,258.80879 789.49429,211.74415 774.29041,155.31076 759.08654,98.877356 746.70802,52.521516 746.7826,52.297775 c 0.40742,-1.222259 125.68352,189.561485 125.59543,191.270055 -0.0139,0.26888 -53.17394,14.31822 -68.11666,18.00212 -1.17229,0.28901 -1.29816,0.17177 -1.79414,-1.6711 z"
       style="opacity:0.71;fill:#00003f;fill-opacity:1;stroke:#000000;stroke-width:2.0011" />
    <path
       transform="translate(126.6582,277.76545)"
       id="path905"
       d="M 803.2135,257.99437 C 800.21477,247.44106 749.91016,59.88486 749.91016,59.257687 c 0,-1.577253 96.68225,145.386973 120.34711,182.936573 0.86628,1.37454 0.87116,1.36685 -0.86288,1.35996 -0.83185,-0.003 -10.30798,2.35502 -21.05807,5.24071 -10.7501,2.8857 -25.14678,6.67705 -31.99263,8.42523 l -12.44701,3.17851 z"
       style="opacity:0.71;fill:#00003f;fill-opacity:1;stroke:#000000;stroke-width:2.0011" />
    <path
       transform="translate(126.6582,277.76545)"
       id="path907"
       d="m 843.8955,190.04802 -31.89777,-49.38665 49.5819,-40.26437 c 27.27004,-22.145414 53.42748,-43.383302 58.12766,-47.195311 4.70017,-3.81201 8.42454,-6.534153 8.27638,-6.049208 -0.21881,0.71617 -50.47784,185.857189 -51.80061,190.819759 -0.37254,1.39764 -1.80279,-0.72527 -32.28756,-47.92422 z"
       style="opacity:0.71;fill:#00003f;fill-opacity:1;stroke:#000000;stroke-width:2.0011" />
    <path
       transform="translate(126.6582,277.76545)"
       id="path909"
       d="m 869.16687,226.66699 c -3.37115,-5.08058 -17.22849,-26.40964 -30.79409,-47.39791 l -24.66474,-38.1605 1.02612,-0.99375 c 1.06632,-1.03269 106.26695,-86.445542 109.34143,-88.774791 0.95983,-0.727174 1.74515,-1.208496 1.74515,-1.069604 0,0.459916 -49.80515,183.895295 -50.1684,184.773245 -0.28311,0.68428 -1.61262,-1.03293 -6.48547,-8.37669 z"
       style="opacity:0.71;fill:#00005b;fill-opacity:1;stroke:#000000;stroke-width:2.0011" />
    <path
       transform="translate(126.6582,277.76545)"
       id="path911"
       d="M 775.85523,86.498203 C 758.51463,60.479864 744.48367,39.14614 744.67531,39.089926 c 0.65801,-0.193012 83.95175,-3.443034 84.55425,-3.299206 0.44506,0.106245 -2.27819,12.876786 -10.42532,48.888972 -6.06526,26.809848 -11.11615,48.830538 -11.2242,48.934868 -0.10805,0.10434 -14.38421,-21.09802 -31.72481,-47.116357 z"
       style="opacity:0.71;fill:#00005b;fill-opacity:1;stroke:#000000;stroke-width:2.0011" />
    <path
       transform="translate(126.6582,277.76545)"
       id="path913"
       d="m 806.07418,130.73352 c -0.46291,-0.51151 -0.63978,-1.0041 -0.39304,-1.09463 0.24675,-0.0905 -9.27837,-14.71911 -21.16693,-32.507954 -34.29656,-51.317917 -37.60266,-56.447465 -36.61087,-56.803211 0.46386,-0.166382 4.40348,-0.440199 8.75471,-0.608482 4.35123,-0.168284 21.31403,-0.826745 37.69512,-1.463248 16.3811,-0.636502 30.6514,-1.157447 31.7118,-1.157656 l 1.92798,-3.79e-4 -1.53915,7.329608 c -1.84734,8.797201 -5.18468,23.765885 -12.99556,58.287832 -3.21411,14.20548 -6.00102,26.53014 -6.19312,27.38815 -0.34523,1.54191 -0.35904,1.54921 -1.19094,0.62997 z"
       style="opacity:0.71;fill:#00005b;fill-opacity:1;stroke:#000000;stroke-width:2.0011" />
    <path
       transform="translate(126.6582,277.76545)"
       id="path915"
       d="M 726.0846,107.46737 C 700.84545,74.779127 680.33186,47.983923 680.49884,47.922473 c 0.4443,-0.163512 57.53511,-8.431999 57.59518,-8.341537 0.26788,0.403337 34.17483,127.024694 34.04873,127.150794 -0.0928,0.0928 -20.81902,-26.57611 -46.05815,-59.26436 z"
       style="opacity:0.71;fill:#00005b;fill-opacity:1;stroke:#000000;stroke-width:2.0011" />
    <path
       transform="translate(126.6582,277.76545)"
       id="path917"
       d="m 767.54718,158.90432 c -2.61912,-3.28248 -37.52963,-48.41807 -55.15803,-71.313508 -24.27969,-31.534021 -29.55256,-38.488294 -29.34213,-38.698725 0.0955,-0.09551 11.0428,-1.744391 24.3273,-3.664178 13.28451,-1.919786 25.41015,-3.673743 26.94588,-3.89768 1.53573,-0.223938 2.83209,-0.37283 2.8808,-0.330871 0.11057,0.09523 14.34935,53.075351 24.32887,90.523622 4.11997,15.46023 7.43168,28.28703 7.35935,28.50399 -0.0723,0.21696 -0.67624,-0.28824 -1.34204,-1.12265 z"
       style="opacity:0.71;fill:#00005b;fill-opacity:1;stroke:#000000;stroke-width:2.0011" />
    <path
       transform="translate(126.6582,277.76545)"
       id="path919"
       d="m 585.4763,243.82402 c -32.46492,-9.12678 -58.8515,-16.64675 -58.63686,-16.71104 0.69006,-0.20668 240.45263,-43.96766 242.38365,-44.23937 l 1.86149,-0.26192 -5.63424,6.00733 c -3.09884,3.30403 -18.35696,19.61946 -33.90694,36.25651 l -28.27269,30.24917 -27.75484,2.64286 c -15.26517,1.45357 -28.48781,2.6446 -29.38365,2.64673 -0.89584,0.002 -28.191,-7.4635 -60.65592,-16.59027 z"
       style="opacity:0.71;fill:#00005b;fill-opacity:1;stroke:#000000;stroke-width:2.0011" />
    <path
       transform="translate(126.6582,277.76545)"
       id="path921"
       d="m 638.2209,257.1878 c -3.71134,-1.03955 -13.55396,-3.76758 -21.87248,-6.06229 -31.14614,-8.59185 -83.30156,-23.40509 -83.30135,-23.65934 1.2e-4,-0.14508 3.29844,-0.86295 7.3296,-1.59526 4.03117,-0.73231 25.5487,-4.66495 47.81675,-8.7392 104.15737,-19.05703 178.60718,-32.52893 178.78455,-32.35156 0.10714,0.10715 -9.39591,10.44267 -21.11789,22.96784 -11.72198,12.52517 -26.21538,28.02717 -32.20755,34.4489 l -10.89486,11.67587 -2.36824,0.28199 c -5.32176,0.63368 -46.89864,4.44498 -50.99961,4.67508 -4.14278,0.23244 -4.84572,0.1291 -11.16892,-1.64203 z"
       style="opacity:0.71;fill:#00005b;fill-opacity:1;stroke:#000000;stroke-width:2.0011" />
    <path
       transform="translate(126.6582,277.76545)"
       id="path923"
       d="m 485.12064,195.3293 c -25.05233,-22.94167 -30.83949,-28.54815 -30.13707,-29.19614 1.04619,-0.96512 99.67078,-59.40097 103.79334,-61.49838 1.58807,-0.80795 3.51311,-1.33553 4.27788,-1.1724 1.35917,0.28992 204.59269,74.14624 204.91998,74.4692 0.0911,0.0899 -4.94359,1.07638 -11.1883,2.1921 -6.2447,1.11572 -62.5308,11.3821 -125.0802,22.81417 -62.54941,11.43208 -114.14312,20.78559 -114.6527,20.78559 -0.50957,0 -14.87939,-12.77736 -31.93293,-28.39414 z"
       style="opacity:0.71;fill:#00005b;fill-opacity:1;stroke:#000000;stroke-width:2.82998" />
    <path
       transform="translate(126.6582,277.76545)"
       id="path925"
       d="m 508.50377,214.0746 c -14.29359,-12.74951 -36.41122,-33.05295 -44.00539,-40.39585 l -7.1742,-6.93682 7.49107,-4.49623 c 13.57271,-8.14648 81.04576,-48.09166 88.82236,-52.58433 4.19107,-2.42125 8.04116,-4.39686 8.55576,-4.39025 0.5146,0.007 14.26286,4.83703 30.55171,10.73424 63.40964,22.95683 168.70511,61.3162 168.59673,61.42016 -0.15302,0.14677 0.84217,-0.0355 -128.94143,23.61007 -62.52961,11.3924 -114.06161,20.70379 -114.51553,20.69199 -0.45393,-0.0118 -4.67541,-3.45565 -9.38108,-7.65298 z"
       style="opacity:0.71;fill:#00005b;fill-opacity:1;stroke:#000000;stroke-width:2.82998" />
    <path
       transform="translate(126.6582,277.76545)"
       id="path927"
       d="m 404.5184,280.99679 c -9.04936,-17.70659 -16.45339,-32.55946 -16.45339,-33.00638 0,-0.57697 17.2701,-3.24236 59.56125,-9.19243 32.75868,-4.60892 59.6467,-8.29521 59.75116,-8.19175 0.25735,0.25488 -85.51541,82.62878 -86.01234,82.60398 -0.21631,-0.0108 -7.79732,-14.50683 -16.84668,-32.21342 z"
       style="opacity:0.71;fill:#00005b;fill-opacity:1;stroke:#000000;stroke-width:2.82998" />
    <path
       transform="translate(126.6582,277.76545)"
       id="path929"
       d="m 420.59292,308.37643 c -0.57035,-1.13136 -7.45609,-14.6697 -15.30165,-30.08521 -7.84555,-15.4155 -14.26465,-28.33387 -14.26465,-28.70748 0,-0.71686 7.21264,-1.95453 33.5649,-5.75965 29.64732,-4.28091 77.30341,-10.80455 77.49911,-10.60885 0.10639,0.10639 -2.70146,2.96097 -6.23967,6.3435 -3.53821,3.38253 -20.20459,19.35893 -37.0364,35.50311 -16.83181,16.14418 -32.0841,30.70722 -33.89397,32.36232 l -3.29068,3.00928 z"
       style="opacity:0.71;fill:#00005b;fill-opacity:1;stroke:#000000;stroke-width:2.82998" />
    <path
       transform="translate(126.6582,277.76545)"
       id="path932"
       d="m 107.79271,448.96432 c -3.60002,-1.03243 -5.48799,-1.8593 -4.93601,-2.16182 1.00765,-0.55225 285.39817,-136.93294 297.79669,-142.80969 l 7.98144,-3.78309 4.19406,8.09849 c 2.30675,4.45417 4.046,8.24127 3.86501,8.41578 -1.18474,1.14235 -300.24369,134.04171 -301.50007,133.98418 -0.86417,-0.0396 -4.19467,-0.8243 -7.40112,-1.74385 z"
       style="opacity:0.71;fill:#00005b;fill-opacity:1;stroke:#000000;stroke-width:2.82998" />
    <path
       transform="translate(126.6582,277.76545)"
       id="path934"
       d="m 110.661,448.03669 c -1.26691,-0.35766 -2.50165,-0.84923 -2.74386,-1.09238 -0.24221,-0.24314 40.62799,-20.12452 90.82267,-44.18083 50.19468,-24.05632 117.73671,-56.4366 150.09339,-71.95617 45.69889,-21.91903 58.96304,-28.02153 59.42483,-27.33985 1.37146,2.02447 5.80333,11.11755 5.80333,11.90696 0,0.47163 -0.81444,1.18528 -1.80987,1.58588 -0.99543,0.4006 -15.13712,6.71547 -31.42596,14.03305 -51.31382,23.05215 -215.65208,96.03716 -252.84755,112.29327 -6.9455,3.03549 -13.16487,5.49238 -13.82084,5.45973 -0.65597,-0.0326 -2.22923,-0.35199 -3.49614,-0.70966 z"
       style="opacity:0.71;fill:#00005b;fill-opacity:1;stroke:#000000;stroke-width:2.82998" />
    <path
       transform="translate(126.6582,277.76545)"
       id="path936"
       d="m 328.50377,274.37382 c -44.31709,-3.00863 -103.27447,-6.93377 -241.436688,-16.07385 -47.979772,-3.1741 -62.946833,-4.36285 -63.576466,-5.04952 -0.452924,-0.49397 -2.229582,-3.25198 -3.948129,-6.12891 l -3.12463,-5.23079 0.455657,-7.60285 0.455658,-7.60285 -3.664723,-5.01575 -3.6647227,-5.01575 1.3648557,-10.12136 1.364856,-10.12136 -3.3474446,-9.16758 C 7.5408988,182.20109 6.133899,177.97633 6.2553272,177.8549 6.3767553,177.73347 11.52034,175.45651 17.685514,172.79498 l 11.209409,-4.83913 21.96165,6.84594 c 281.818487,87.84916 329.423167,102.82555 326.678277,102.77268 -1.4479,-0.0279 -23.51188,-1.46818 -49.03108,-3.20065 z"
       style="opacity:0.71;fill:#00005b;fill-opacity:1;stroke:#000000;stroke-width:2.82998" />
    <path
       transform="translate(126.6582,277.76545)"
       id="path938"
       d="M 219.91145,265.49724 C 67.953801,255.32396 32.200382,252.84301 27.494676,252.14531 c -2.942043,-0.43621 -3.14641,-0.61882 -6.184405,-5.52618 l -3.141818,-5.07506 0.491851,-7.67516 0.49185,-7.67515 -3.605721,-4.93737 c -1.983147,-2.71556 -3.605722,-5.27856 -3.605722,-5.69556 0,-0.417 0.587276,-4.92781 1.305058,-10.02402 l 1.305058,-9.26585 -2.950396,-8.11767 c -1.6227181,-4.46472 -2.9503964,-8.43466 -2.9503964,-8.82209 0,-0.38743 4.5824104,-2.68742 10.1831354,-5.11108 l 10.183135,-4.40667 43.290355,13.50043 c 200.06179,62.39081 291.16957,90.96223 291.68158,91.47141 0.4036,0.40138 7.14488,0.83596 -144.07679,-9.28805 z"
       style="opacity:0.71;fill:#00005b;fill-opacity:1;stroke:#000000;stroke-width:2.82998" />
    <path
       transform="translate(126.6582,277.76545)"
       id="path944"
       d="m 186.77463,637.94921 c -0.20818,-0.68524 -2.04935,-7.61335 -4.09149,-15.3958 -2.04213,-7.78244 -3.97762,-14.43055 -4.30108,-14.77355 -0.36708,-0.38927 -2.27584,-0.0801 -5.07879,0.82267 -2.46988,0.79547 -4.7791,1.44631 -5.1316,1.44631 -0.35251,0 -1.65095,-7.25594 -2.88544,-16.12431 -1.23449,-8.86837 -2.4873,-16.12431 -2.78403,-16.12431 -0.29673,0 -2.63559,1.05557 -5.19747,2.34571 -2.56189,1.29014 -4.7592,2.24448 -4.88293,2.12075 -0.12373,-0.12373 -0.43183,-5.12318 -0.68466,-11.1099 l -0.4597,-10.88494 127.27861,-112.91437 c 70.00324,-62.10291 127.36118,-112.84154 127.46209,-112.75252 0.13445,0.11861 -202.48234,302.31286 -203.57972,303.63042 -0.0988,0.11867 -3.57847,0.38316 -7.73249,0.58775 -7.01519,0.34549 -7.57972,0.28329 -7.9313,-0.87391 z"
       style="opacity:0.71;fill:#00005b;fill-opacity:1;stroke:#000000;stroke-width:2.82998" />
    <path
       transform="translate(126.6582,277.76545)"
       id="path946"
       d="m 187.62949,634.23532 c -3.05398,-11.50921 -4.85163,-18.02293 -6.2663,-22.70567 -1.61305,-5.33941 -1.67548,-5.4295 -3.75808,-5.4225 -1.16478,0.004 -3.4908,0.42384 -5.16894,0.93316 l -3.05114,0.92603 -0.69669,-3.73022 c -0.38318,-2.05164 -1.3264,-8.02457 -2.09605,-13.2732 -1.68339,-11.47996 -2.34827,-14.23298 -3.54861,-14.69359 -0.5016,-0.19249 -2.69148,0.4916 -4.86641,1.52018 l -3.95442,1.87014 -0.36289,-2.08146 c -0.19958,-1.1448 -0.43508,-5.33922 -0.52332,-9.32093 l -0.16044,-7.23949 41.1374,-36.52651 c 50.76281,-45.07304 174.05291,-154.36097 191.40871,-169.67024 7.03692,-6.20715 12.90619,-11.17395 13.04281,-11.03733 0.45241,0.45241 -24.34452,37.16641 -25.23779,37.36674 -0.48171,0.10802 -20.02635,28.77593 -43.43253,63.70646 -42.05358,62.75922 -121.64721,181.38316 -126.45733,188.46819 l -2.48287,3.65713 -6.39145,0.0251 -6.39145,0.0251 z"
       style="opacity:0.71;fill:#00008e;fill-opacity:1;stroke:#000000;stroke-width:2.82998" />
    <path
       transform="translate(126.6582,277.76545)"
       id="path948"
       d="m 68.47163,449.99873 c -8.267134,-9.29046 -7.59151,-7.65012 -7.986033,-19.38914 -0.230752,-6.86598 -0.04308,-12.81101 0.556689,-17.63478 1.338718,-10.76689 1.785487,-9.62542 -5.335408,-13.63159 -4.686011,-2.63633 -6.246142,-3.84712 -6.228281,-4.83367 0.04416,-2.43922 3.744555,-25.37751 4.161079,-25.79404 0.22688,-0.22687 13.075452,-2.86536 28.552383,-5.86329 15.47693,-2.99793 90.891411,-17.62049 167.587721,-32.49458 76.69632,-14.87408 139.52014,-26.95986 139.60849,-26.85727 0.0883,0.10258 -66.11553,31.94976 -147.1197,70.77152 -94.49779,45.28864 -147.988343,70.585 -149.255907,70.585 -1.256174,0 -5.103599,1.79744 -10.565599,4.93602 -4.724515,2.71481 -8.854682,4.93601 -9.178149,4.93601 -0.323466,0 -2.482244,-2.12858 -4.797285,-4.73019 z"
       style="opacity:0.71;fill:#00008e;fill-opacity:1;stroke:#000000;stroke-width:2.82998" />
    <path
       transform="translate(126.6582,277.76545)"
       id="path950"
       d="m 68.564164,447.42585 c -2.594955,-2.94003 -4.961488,-5.98567 -5.258961,-6.76808 -1.175057,-3.09064 -1.498258,-15.821 -0.663372,-26.12915 0.614008,-7.58102 0.651879,-10.89933 0.13728,-12.02876 -0.404194,-0.88711 -3.004676,-2.88288 -6.030462,-4.62815 -3.371173,-1.9445 -5.325893,-3.48387 -5.336396,-4.20252 -0.0091,-0.62373 0.779503,-6.19278 1.752485,-12.37568 l 1.769058,-11.24163 10.587552,-2.10159 c 24.670611,-4.89703 270.281402,-52.50567 294.572922,-57.09935 6.69652,-1.26635 12.9159,-2.44591 13.82084,-2.62125 2.83353,-0.54899 -6.75571,4.15821 -83.54809,41.01246 -140.57797,67.46627 -190.705499,91.20355 -199.450077,94.44715 -1.99086,0.73847 -3.915905,1.55439 -4.27788,1.81316 -0.361974,0.25878 -3.515334,2.00014 -7.007466,3.86971 l -6.349332,3.3992 z"
       style="opacity:0.71;fill:#00008e;fill-opacity:1;stroke:#000000;stroke-width:2.82998" />
    <path
       transform="translate(126.6582,277.76545)"
       id="path952"
       d="m 348.5769,262.45751 c -28.65488,-9.0296 -57.02079,-17.88744 -213.56489,-66.69006 -54.115177,-16.8704 -99.808095,-31.13239 -101.539823,-31.69331 -2.822247,-0.91413 -3.831136,-1.86627 -9.733706,-9.18618 -3.62181,-4.49149 -6.203114,-8.16283 -5.73623,-8.15853 0.466884,0.004 2.477765,0.44502 4.468624,0.97939 1.990859,0.53437 3.805859,0.97509 4.033334,0.97939 0.227474,0.005 0.911045,-1.99127 1.519045,-4.4346 1.065354,-4.28126 1.653786,-5.26691 7.404387,-12.40275 l 2.172043,-2.69526 -4.470407,-6.51864 c -2.458724,-3.58525 -4.680722,-6.86485 -4.937774,-7.28802 -0.295454,-0.48638 1.943037,-2.51631 6.085637,-5.51865 5.828348,-4.22407 6.522259,-4.93956 6.274999,-6.4701 -0.481571,-2.98093 -1.727078,-17.967176 -1.508039,-18.145106 0.115074,-0.09348 1.992685,-0.7624 4.172472,-1.486495 3.253706,-1.080837 4.196315,-1.170842 5.265082,-0.502737 0.994693,0.621801 322.324156,183.701418 328.395066,187.105288 l 1.31627,0.73802 -1.31627,-0.0544 c -0.72395,-0.0299 -13.45887,-3.88067 -28.29982,-8.55729 z"
       style="opacity:0.71;fill:#00008e;fill-opacity:1;stroke:#000000;stroke-width:2.82998" />
    <path
       transform="translate(126.6582,277.76545)"
       id="path954"
       d="M 289.34472,242.16636 C 249.16557,229.5766 175.28208,206.48052 125.1592,190.84176 75.036319,175.20299 33.425717,162.10618 32.691195,161.73773 c -1.490308,-0.74756 -3.542069,-2.96256 -8.034903,-8.67413 -2.446245,-3.10982 -2.761434,-3.78069 -1.623332,-3.45521 0.776776,0.22215 1.988165,0.56671 2.691975,0.7657 1.61152,0.45563 2.950241,-1.49705 4.049792,-5.90707 0.537392,-2.15534 2.1927,-5.07737 4.939169,-8.71884 2.271991,-3.01238 4.314538,-5.7742 4.538993,-6.13737 0.224455,-0.36318 -1.67338,-3.66498 -4.217412,-7.33733 -2.544032,-3.67235 -4.469289,-6.92978 -4.278348,-7.23873 0.19094,-0.30895 2.696132,-2.34984 5.567093,-4.53532 2.929841,-2.23029 5.383752,-4.62631 5.593341,-5.46138 0.205377,-0.81829 0.06014,-4.54054 -0.322744,-8.271662 -1.069268,-10.419744 -1.077264,-10.365358 1.656596,-11.267613 1.294014,-0.427063 3.009207,-0.650989 3.811541,-0.497613 0.802334,0.153376 12.552553,6.597599 26.111598,14.320496 20.182333,11.495362 230.038886,131.062402 277.992506,158.387922 7.21619,4.11201 12.69516,7.44733 12.1755,7.41182 -0.51965,-0.0355 -33.81868,-10.36528 -73.99784,-22.95504 z"
       style="opacity:0.71;fill:#0066d0;fill-opacity:1;stroke:#000000;stroke-width:2.82998" />
    <path
       transform="translate(126.6582,277.76545)"
       id="path966"
       d="M 240.97178,121.7425 C 216.90049,114.93725 163.14729,99.812119 121.52023,88.131104 79.893177,76.45009 45.592544,66.679685 45.296603,66.419093 c -0.295941,-0.260592 1.751249,-2.434989 4.54931,-4.831993 4.463673,-3.823877 5.63909,-5.339934 9.587435,-12.365914 4.498144,-8.004333 4.500049,-8.009909 4.500049,-13.169549 0,-2.839004 0.160212,-5.161825 0.356026,-5.161825 0.195814,0 16.672089,7.414036 36.613947,16.475636 19.94185,9.061599 36.42713,16.306416 36.63395,16.099593 0.20683,-0.206824 -0.86693,-2.882286 -2.38611,-5.945472 -1.51918,-3.063186 -2.49054,-5.569429 -2.15857,-5.569429 0.33198,0 6.37517,1.332724 13.42934,2.961609 7.05416,1.628885 12.96383,2.961609 13.13261,2.961609 0.58743,0 1.907,-3.873596 1.5283,-4.486343 -0.20972,-0.339337 -7.50485,-5.413787 -16.21139,-11.276556 L 129.04142,31.45088 130.5059,29.031406 c 0.80547,-1.33071 1.86616,-3.054408 2.35709,-3.830439 0.86334,-1.3647 3.38949,0.391463 77.04183,53.559063 41.88208,30.23352 76.27263,55.0796 76.42345,55.21352 0.84129,0.74702 -5.49106,-0.96059 -45.35649,-12.23105 z"
       style="opacity:0.71;fill:#0066d0;fill-opacity:1;stroke:#000000;stroke-width:2.82998" />
    <path
       transform="translate(126.6582,277.76545)"
       id="path968"
       d="m 356.36861,150.4666 c -35.53173,-24.68314 -64.46,-45.02652 -64.28503,-45.2075 0.17497,-0.18099 4.96958,-1.22683 10.65469,-2.32408 l 10.33656,-1.99502 21.37078,12.74504 21.37078,12.74503 44.0897,20.04536 c 24.24934,11.02494 44.31303,20.26866 44.58596,20.5416 0.47736,0.47736 -21.88179,27.90143 -22.98184,28.18782 -0.29614,0.0771 -29.60985,-20.05511 -65.1416,-44.73825 z"
       style="opacity:0.71;fill:#0066d0;fill-opacity:1;stroke:#000000;stroke-width:2.82998" />
    <path
       transform="translate(126.6582,277.76545)"
       id="path970"
       d="m 353.84198,288.53361 c -24.97623,-2.63445 -67.32724,-7.0692 -94.11334,-9.855 -70.37185,-7.31878 -90.25625,-9.56062 -81.60877,-9.20084 9.53497,0.39669 217.9121,14.09225 220.50039,14.49236 1.70102,0.26294 2.31503,0.94896 4.11335,4.59576 1.16262,2.35767 2.11385,4.42915 2.11385,4.60329 0,0.64741 -6.64617,0.0434 -51.00548,-4.63557 z"
       style="opacity:0.71;fill:#0066d0;fill-opacity:1;stroke:#000000;stroke-width:2.82998" />
    <path
       transform="translate(126.6582,277.76545)"
       id="path972"
       d="m 48.862722,358.93071 -3.268366,-4.31741 1.665896,-4.40289 c 3.065524,-8.10202 4.82671,-13.11254 4.82671,-13.73182 0,-0.33766 -3.547778,-2.1838 -7.883952,-4.10253 -6.630551,-2.93397 -7.790928,-3.66076 -7.298826,-4.57152 0.321819,-0.59561 3.286971,-5.50187 6.589225,-10.9028 3.605321,-5.8966 5.729015,-9.98988 5.315568,-10.24541 -0.378693,-0.23404 -5.048422,-0.79598 -10.377177,-1.24874 -5.328754,-0.45276 -9.763758,-0.89832 -9.855564,-0.99012 -0.09181,-0.0918 0.866218,-3.75552 2.128942,-8.14158 1.262724,-4.38606 2.295861,-8.44689 2.295861,-9.02406 0,-0.57718 -2.075069,-4.14225 -4.611266,-7.92239 l -4.611266,-6.87298 0.432318,-6.59686 c 0.237774,-3.62827 0.581506,-6.59685 0.763848,-6.59685 0.182343,0 14.427586,1.4758 31.656096,3.27955 46.889801,4.90917 240.947731,25.07723 294.578671,30.61499 19.18464,1.98094 36.21389,3.80054 37.84278,4.04355 l 2.96161,0.44184 -2.63254,0.53417 c -1.4479,0.2938 -20.99452,4.08997 -43.43693,8.43593 -22.44241,4.34596 -97.34312,18.86681 -166.44602,32.26854 -69.1029,13.40174 -126.029895,24.3668 -126.504441,24.3668 -0.474547,0 -2.333576,-1.94283 -4.131177,-4.31741 z"
       style="opacity:0.71;fill:#0066d0;fill-opacity:1;stroke:#000000;stroke-width:2.82998" />
    <path
       transform="translate(126.6582,277.76545)"
       id="path974"
       d="m 136.00757,555.25908 c -0.19018,-0.81444 -0.75423,-4.29433 -1.25343,-7.73309 -0.82072,-5.65349 -0.80456,-6.38926 0.16871,-7.68263 0.592,-0.78669 5.14857,-6.46436 10.12572,-12.61705 4.97715,-6.15268 9.04222,-11.43224 9.0335,-11.73235 -0.009,-0.30012 -6.23155,-3.87616 -13.82853,-7.94677 l -13.81268,-7.40111 -8.42719,5.1652 -8.42719,5.1652 -5.55049,-2.79649 c -4.905628,-2.47159 -5.932807,-3.31872 -8.841168,-7.29137 -2.465668,-3.36797 -3.966224,-6.46791 -5.985207,-12.36461 l -2.694531,-7.86972 5.170892,-7.9412 c 2.843991,-4.36766 5.685414,-8.29224 6.314275,-8.72129 0.62886,-0.42905 6.622359,-2.76159 13.318889,-5.18344 6.69652,-2.42184 12.32358,-4.59924 12.50457,-4.83865 0.40137,-0.53096 281.14966,-125.86264 281.37317,-125.61065 0.0872,0.0983 -57.8655,51.63677 -128.78386,114.52983 l -128.94247,114.351 h -5.5586 c -5.22326,0 -5.57946,-0.0893 -5.90438,-1.48081 z"
       style="opacity:0.71;fill:#0066d0;fill-opacity:1;stroke:#000000;stroke-width:2.82998" />
    <path
       transform="translate(126.6582,277.76545)"
       id="path976"
       d="M 466.52193,636.02301 C 465.76976,633.38737 423.69351,321.8061 424.04261,321.457 c 0.19936,-0.19936 20.186,2.94135 44.41477,6.97934 l 44.05231,7.34182 -6.68299,29.38646 -6.68299,29.38647 -1.04763,38.15107 c -0.86571,31.52604 -7.35043,171.04127 -8.72409,187.69402 l -0.39209,4.75318 -5.14532,-5.41132 c -2.82993,-2.97622 -5.28944,-5.26324 -5.46558,-5.08225 -0.17615,0.18099 -2.8307,5.35382 -5.89901,11.49519 -4.02455,8.05533 -5.68164,10.80559 -5.94806,9.87203 z"
       style="opacity:0.71;fill:#0066d0;fill-opacity:1;stroke:#000000;stroke-width:2.82998" />
    <path
       transform="translate(126.6582,277.76545)"
       id="path978"
       d="m 240.89294,733.55416 c -7.44453,-7.21014 -10.67823,-10.90674 -14.29043,-16.33608 l -4.66863,-7.01723 -5.79914,-0.82078 -5.79914,-0.82078 -3.54922,-10.26071 c -1.95208,-5.64339 -5.72606,-15.5727 -8.38663,-22.06514 l -4.8374,-11.80443 6.0996,-10.96171 c 4.34686,-7.81182 35.50735,-54.75898 108.43963,-163.37782 56.28702,-83.82885 102.41226,-152.2148 102.50053,-151.96877 0.0883,0.24604 -27.4764,79.96653 -61.25482,177.15666 l -61.41532,176.70932 -17.63196,24.351 c -9.69758,13.39305 -18.11646,24.84247 -18.70862,25.44316 -1.00032,1.01473 -1.75879,0.43149 -10.69845,-8.22669 z"
       style="opacity:0.71;fill:#004ec1;fill-opacity:1;stroke:#000000;stroke-width:2.82998" />
    <path
       transform="translate(126.6582,277.76545)"
       id="path980"
       d="M 217.93705,78.328511 C 135.80256,18.946479 135.33137,18.592887 133.60477,15.043824 c -0.95497,-1.962951 -1.61015,-3.703581 -1.45597,-3.868066 0.15419,-0.164486 3.29307,-1.5697733 6.9753,-3.1228619 l 6.69494,-2.8237975 19.11202,10.6559474 c 10.51161,5.860772 28.19904,15.720636 39.30538,21.91081 l 20.19336,11.254861 29.25444,28.338892 29.25445,28.338891 20.29074,14.07531 c 14.10188,9.78221 19.89652,14.14596 18.99826,14.30694 -0.71086,0.1274 -5.43676,1.09191 -10.502,2.14337 -5.06524,1.05146 -9.65574,1.88437 -10.2011,1.85091 -0.54536,-0.0335 -38.15975,-26.9329 -83.58754,-59.776519 z"
       style="opacity:0.71;fill:#004ec1;fill-opacity:1;stroke:#000000;stroke-width:2.82998" />
    <path
       transform="translate(126.6582,277.76545)"
       id="path982"
       d="M 349.23503,248.76425 C 324.62078,234.70642 247.02663,190.45937 176.80359,150.43747 62.523842,85.306524 48.931642,77.391347 47.279422,75.011359 46.26416,73.548895 45.74585,72.352333 46.127621,72.352333 c 0.976513,0 248.678319,69.602807 251.232689,70.594967 1.61456,0.62712 11.38336,12.50146 42.77879,51.99918 l 40.68643,51.18648 7.0612,13.63984 c 7.05524,13.62834 7.52177,14.66036 6.5951,14.58911 -0.27148,-0.0209 -20.63254,-11.53983 -45.2468,-25.59766 z"
       style="opacity:0.71;fill:#004ec1;fill-opacity:1;stroke:#000000;stroke-width:2.82998" />
    <path
       transform="translate(126.6582,277.76545)"
       id="path984"
       d="m 344.6681,192.43165 c -21.32718,-26.84738 -38.73814,-49.07619 -38.69103,-49.39735 0.0834,-0.56879 19.47269,-4.77467 22.29929,-4.83711 0.83216,-0.0184 19.32004,12.37494 44.75319,30.00025 23.8344,16.51738 43.70702,30.37501 44.16135,30.79474 0.6477,0.59835 -2.90668,5.2428 -16.46002,21.50802 l -17.2861,20.74488 z"
       style="opacity:0.71;fill:#004ec1;fill-opacity:1;stroke:#000000;stroke-width:2.82998" />
    <path
       transform="translate(126.6582,277.76545)"
       id="path988"
       d="m 379.81045,762.74192 c -0.4848,-0.62914 -4.36638,-7.63581 -8.62572,-15.5704 -4.25935,-7.93459 -7.90837,-14.62382 -8.10894,-14.86495 -0.74306,-0.89332 -2.21064,2.64567 -6.84588,16.50851 l -4.75085,14.2086 -5.84838,-4.6537 -5.84838,-4.65371 -6.1279,4.63895 c -3.37035,2.55141 -6.3036,4.63894 -6.51833,4.63894 -0.21473,0 -0.92968,-5.44485 -1.58877,-12.09967 -0.65909,-6.65482 -1.43264,-12.09967 -1.71901,-12.09967 -0.28636,0 -5.13952,1.93819 -10.7848,4.30709 -6.91522,2.90181 -12.26859,5.91501 -16.40761,9.23522 l -6.14348,4.92812 -7.17702,-7.21937 -7.17702,-7.21936 11.69169,-18.38638 c 6.43044,-10.11252 11.6917,-18.83255 11.6917,-19.37786 0,-0.5453 -1.41389,-3.54472 -3.14198,-6.66537 L 293.2378,692.723 355.2359,514.31701 c 34.09895,-98.12329 62.07619,-178.32789 62.17163,-178.23244 0.0954,0.0955 -1.68148,75.35213 -3.94873,167.23706 l -4.12229,167.06352 -4.88781,40.25808 -4.88782,40.25808 -7.90341,5.65694 c -10.1802,7.28657 -10.76279,7.59065 -11.84702,6.18367 z"
       style="opacity:0.71;fill:#004ec1;fill-opacity:1;stroke:#000000;stroke-width:4.0022" />
    <path
       transform="translate(126.6582,277.76545)"
       id="path990"
       d="m 458.77779,566.37453 c -4.75131,-34.9378 -13.82552,-102.26548 -20.1649,-149.61707 -6.33938,-47.35159 -11.76825,-87.84101 -12.06415,-89.97649 l -0.53801,-3.88269 3.07101,0.84774 c 1.68905,0.46625 20.45264,3.63607 41.69687,7.04404 21.24423,3.40797 38.78608,6.33002 38.98189,6.49346 0.19581,0.16343 -2.63132,13.4776 -6.28252,29.58704 -6.10902,26.95357 -6.63887,30.12991 -6.64267,39.82108 -0.008,21.04704 -6.8432,178.6575 -8.94641,206.29935 l -0.59028,7.7579 -3.8742,-3.80224 c -2.13081,-2.09124 -4.50515,-3.80224 -5.27631,-3.80224 -0.84098,0 -3.0453,3.35238 -5.50801,8.37669 -2.25825,4.60718 -4.35738,8.3767 -4.66473,8.3767 -0.30736,0 -4.44626,-28.58547 -9.19758,-63.52327 z"
       style="opacity:0.71;fill:#004ec1;fill-opacity:1;stroke:#000000;stroke-width:4.0022" />
    <path
       transform="translate(126.6582,277.76545)"
       id="path992"
       d="m 241.05226,730.81199 c -5.0545,-5.07976 -11.14117,-12.16777 -13.52594,-15.75113 l -4.33594,-6.51521 -5.6805,-0.93075 -5.6805,-0.93074 -4.4235,-12.09967 c -2.43293,-6.65482 -5.94748,-15.84587 -7.8101,-20.42455 -1.86263,-4.57867 -3.3866,-8.82656 -3.3866,-9.43974 0,-2.62262 10.53947,-19.25925 45.4306,-71.71252 57.56982,-86.54707 161.31532,-240.661 161.72856,-240.24776 0.15259,0.15259 -6.99547,21.21111 -15.88458,46.79671 -8.88912,25.58559 -35.00259,100.75836 -58.02994,167.05059 -23.02736,66.29222 -42.27618,121.57841 -42.77516,122.85818 -0.75758,1.94302 -33.07309,47.0579 -35.61648,49.72329 -0.48851,0.51193 -4.53446,-2.87388 -10.00992,-8.3767 z"
       style="opacity:0.71;fill:#004ec1;fill-opacity:1;stroke:#000000;stroke-width:4.0022" />
    <path
       transform="translate(126.6582,277.76545)"
       id="path996"
       d="m 390.73464,241.2472 c 0,-0.57692 58.56588,-70.67148 59.04791,-70.67148 0.68036,0 59.17474,53.80983 58.84876,54.13582 -0.34611,0.3461 -11.34801,1.93393 -76.0132,10.97047 -20.22041,2.82567 -37.91617,5.34266 -39.32392,5.59333 -1.40775,0.25066 -2.55955,0.238 -2.55955,-0.0281 z"
       style="opacity:0.71;fill:#00005c;fill-opacity:1;stroke:#000000;stroke-width:4.0022" />
    <path
       transform="translate(126.6582,277.76545)"
       id="path998"
       d="m 398.29399,235.34486 c 1.21741,-1.49038 13.10316,-15.6011 26.4128,-31.35715 13.30964,-15.75605 24.44336,-29.00244 24.74161,-29.43642 0.29824,-0.43397 2.183,0.71371 4.18834,2.55041 49.03874,44.91472 49.7004,45.56518 47.09545,46.29859 -2.45072,0.68999 -100.99857,14.65436 -103.41716,14.65436 -0.80133,0 -0.45782,-0.95083 0.97896,-2.70979 z"
       style="opacity:0.71;fill:#00005c;fill-opacity:1;stroke:#000000;stroke-width:4.0022" />
    <path
       transform="translate(126.6582,277.76545)"
       id="path1000"
       d="m 468.12334,323.18032 c -22.19272,-3.75342 -40.52126,-6.99525 -40.73008,-7.20408 -0.20882,-0.20882 13.54601,-13.74297 30.56629,-30.07588 17.02028,-16.33291 36.29119,-34.88747 42.82425,-41.23234 l 11.87828,-11.53614 v 48.5332 48.53321 l -2.09417,-0.0968 c -1.1518,-0.0532 -20.25186,-3.16776 -42.44457,-6.92118 z"
       style="opacity:0.71;fill:#00005c;fill-opacity:1;stroke:#000000;stroke-width:4.0022" />
    <path
       transform="translate(126.6582,277.76545)"
       id="path1002"
       d="m 470.15266,321.06633 c -20.05277,-3.42392 -36.6941,-6.46228 -36.98072,-6.75191 -0.43929,-0.44388 50.20221,-49.88703 70.41539,-68.74913 l 6.28252,-5.86258 v 43.85167 c 0,41.1648 -0.0998,43.84817 -1.6288,43.79447 -0.89584,-0.0315 -18.03562,-2.85859 -38.08839,-6.28252 z"
       style="opacity:0.71;fill:#00005c;fill-opacity:1;stroke:#000000;stroke-width:4.0022" />
    <path
       transform="translate(126.6582,277.76545)"
       id="path1004"
       d="m 518.24654,279.75723 v -49.36564 l 2.09418,0.52487 c 16.15723,4.04958 116.78836,32.87759 116.30499,33.31813 -0.36304,0.33088 -27.15137,15.0661 -59.52962,32.74493 l -58.86955,32.14334 z"
       style="opacity:0.71;fill:#00005c;fill-opacity:1;stroke:#000000;stroke-width:4.0022" />
    <path
       transform="translate(126.6582,277.76545)"
       id="path1006"
       d="m 521.03878,279.18431 v -45.59777 l 8.60938,2.33087 c 6.82714,1.84835 40.22918,11.39412 98.41728,28.12608 l 2.31797,0.66653 -2.31797,1.45832 c -1.84206,1.1589 -48.59289,26.77079 -100.27877,54.93654 l -6.74789,3.6772 z"
       style="opacity:0.71;fill:#00005c;fill-opacity:1;stroke:#000000;stroke-width:4.0022" />
    <path
       transform="translate(126.6582,277.76545)"
       id="path1008"
       d="M 257.101,73.228616 228.45266,45.58411 224.57104,32.689667 c -2.13488,-7.091944 -3.76438,-13.03997 -3.62111,-13.217837 0.14328,-0.177867 19.54898,16.966367 43.12377,38.098296 23.5748,21.131931 42.62956,38.659099 42.34392,38.949263 -0.28565,0.290164 -5.05286,1.388459 -10.59382,2.440652 l -10.07446,1.913079 z"
       style="opacity:0.71;fill:#00005c;fill-opacity:1;stroke:#000000;stroke-width:4.0022" />
    <path
       transform="translate(126.6582,277.76545)"
       id="path1010"
       d="m 258.69495,71.311759 -28.04434,-27.035191 -2.40823,-7.895347 c -1.32452,-4.342441 -2.20495,-8.098624 -1.9565,-8.347073 0.46223,-0.462228 22.54858,19.03018 56.45108,49.821161 l 19.04885,17.300572 -4.62232,1.020876 c -11.45231,2.529336 -7.20148,5.276963 -38.46854,-24.864998 z"
       style="opacity:0.71;fill:#00005c;fill-opacity:1;stroke:#000000;stroke-width:4.0022" />
    <path
       transform="translate(126.6582,277.76545)"
       id="path1012"
       d="M 346.98968,245.33318 C 323.69782,232.0085 252.70533,191.46235 189.2286,155.23062 68.366418,86.243997 52.515368,77.084988 53.053851,76.546505 53.365296,76.23506 133.89032,98.668161 245.53861,130.16996 c 46.33504,13.07352 50.95688,14.5554 53.39833,17.12085 1.47004,1.5447 20.18329,24.69982 41.58501,51.45583 35.86563,44.8385 39.35741,49.52048 44.59836,59.80029 3.12738,6.13415 5.35586,11.12149 4.95218,11.08298 -0.40368,-0.0385 -19.79094,-10.97205 -43.08281,-24.29673 z"
       style="opacity:0.71;fill:#00005c;fill-opacity:1;stroke:#000000;stroke-width:4.0022" />
    <path
       transform="translate(126.6582,277.76545)"
       id="path1014"
       d="m 418.3841,672.42991 -3.53046,-6.69848 3.76017,-155.35368 c 2.06809,-85.44452 3.88383,-155.47734 4.03498,-155.62849 0.31017,-0.31017 39.50335,286.62379 39.21174,287.06978 -0.1032,0.15782 -2.7334,-0.78456 -5.84491,-2.09417 -3.11151,-1.30962 -6.19345,-2.37707 -6.84876,-2.3721 -0.65531,0.005 -4.34809,3.66977 -8.20618,8.144 -5.84537,6.7789 -7.92256,10.152 -12.46076,20.23466 -2.99533,6.65482 -5.7024,12.39156 -6.01571,12.74832 -0.31331,0.35675 -2.15836,-2.36567 -4.10011,-6.04984 z"
       style="opacity:0.71;fill:#00005c;fill-opacity:1;stroke:#000000;stroke-width:4.0022" />
    <path
       transform="translate(126.6582,277.76545)"
       id="path1016"
       d="m 419.62985,669.34206 -2.27451,-4.28748 1.63637,-69.46736 c 3.14052,-133.32137 5.17127,-207.91462 5.67401,-208.41737 0.27854,-0.27854 0.50644,0.20536 0.50644,1.07533 0,0.86997 5.43356,41.25261 12.07456,89.73921 13.81624,100.8736 21.43205,157.43008 21.43215,159.15941 5e-5,0.84745 -0.4748,0.94462 -1.62873,0.3333 -0.89584,-0.47458 -3.2176,-1.29824 -5.15946,-1.83035 -3.2654,-0.89479 -3.77152,-0.756 -6.73655,1.84733 -6.00529,5.27272 -12.63236,14.65409 -17.94572,25.4042 l -5.30405,10.73127 z"
       style="opacity:0.71;fill:#00005c;fill-opacity:1;stroke:#000000;stroke-width:4.0022" />
    <path
       transform="translate(126.6582,277.76545)"
       id="path1018"
       d="M 593.80078,36.173142 C 548.18902,24.251614 532.84438,19.892197 531.44095,18.456683 l -1.86149,-1.90403 7.44595,0.555602 c 4.09527,0.305582 15.40381,1.015333 25.13008,1.577225 l 17.68413,1.021622 32.11067,9.752858 c 17.66086,5.364072 37.54441,11.449047 44.18568,13.522166 l 12.07501,3.769309 -5.91894,2.686819 c -3.25542,1.477751 -6.38559,2.655432 -6.95593,2.617068 -0.57034,-0.03836 -28.26124,-7.185345 -61.53533,-15.88218 z"
       style="opacity:0.71;fill:#00005c;fill-opacity:1;stroke:#000000;stroke-width:4.0022" />
    <path
       transform="translate(126.6582,277.76545)"
       id="path1020"
       d="M 611.48491,38.237494 C 548.88422,21.829937 545.89927,20.987401 549.22347,20.663516 c 1.58984,-0.154902 9.07146,0.124595 16.62582,0.621105 l 13.73521,0.902745 40.78149,12.409308 c 35.8079,10.895908 40.53415,12.547175 38.75343,13.539758 -1.11544,0.621746 -2.86573,1.118797 -3.88955,1.104555 -1.02382,-0.01424 -20.70905,-4.965812 -43.74496,-11.003493 z"
       style="opacity:0.71;fill:#00005c;fill-opacity:1;stroke:#000000;stroke-width:4.0022" />
    <path
       transform="translate(126.6582,277.76545)"
       id="path1022"
       d="m 572.86747,54.743106 c -43.6359,-12.308154 -46.5298,-13.258566 -54.91388,-18.034798 -4.86777,-2.773065 -8.43166,-5.067168 -7.91975,-5.098006 1.64201,-0.09892 120.51729,32.128729 120.52443,32.674743 0.0139,1.057457 -6.64342,3.65966 -9.09944,3.556798 -1.39038,-0.05823 -23.25649,-5.952663 -48.59136,-13.098737 z"
       style="opacity:0.71;fill:#00005c;fill-opacity:1;stroke:#000000;stroke-width:4.0022" />
    <path
       transform="translate(126.6582,277.76545)"
       id="path1024"
       d="m 556.57103,73.180968 c -18.42873,-5.774813 -34.0805,-10.692657 -34.78171,-10.92854 -0.84541,-0.28439 -0.13063,-1.30169 2.12165,-3.019585 l 3.39659,-2.590704 29.98901,9.969075 c 16.49395,5.48299 32.25954,10.806072 35.03463,11.82907 l 5.04563,1.859997 -3.18414,1.696029 c -1.75128,0.932816 -3.39356,1.693394 -3.64951,1.690174 -0.25596,-0.0032 -15.54342,-4.730702 -33.97215,-10.505516 z"
       style="opacity:0.71;fill:#00005c;fill-opacity:1;stroke:#000000;stroke-width:4.0022" />
    <path
       transform="translate(126.6582,277.76545)"
       id="path1026"
       d=""
       style="opacity:0.71;fill:#00005c;fill-opacity:1;stroke:#000000;stroke-width:4.0022" />
    <path
       transform="translate(126.6582,277.76545)"
       id="path1028"
       d="m 549.13945,83.283442 c -23.10459,-8.235956 -24.27234,-8.767685 -26.30357,-11.977152 -1.16907,-1.847214 -1.86371,-3.358571 -1.54363,-3.358571 0.32007,0 14.04301,4.199097 30.49541,9.331327 16.4524,5.132232 30.24877,9.432351 30.6586,9.555823 0.40984,0.123472 -1.47649,1.314093 -4.19184,2.645824 l -4.937,2.421329 z"
       style="opacity:0.71;fill:#00005c;fill-opacity:1;stroke:#000000;stroke-width:4.0022" />
    <path
       transform="translate(126.6582,277.76545)"
       id="path1030"
       d="m 549.16177,83.310253 c -23.17251,-8.234069 -24.25051,-8.724745 -26.30706,-11.974217 -1.17943,-1.863574 -1.89295,-3.388317 -1.5856,-3.388317 0.42778,0 47.81692,14.608079 59.78104,18.427981 1.9392,0.619149 1.67571,0.911879 -2.79223,3.102058 l -4.9335,2.418395 z m 25.98034,5.895175 c 1.30386,-0.594078 2.37065,-1.362303 2.37065,-1.707167 0,-0.344864 -11.20382,-4.101271 -24.89739,-8.347571 -13.69357,-4.246299 -25.42094,-7.920649 -26.06083,-8.165221 -0.63989,-0.244572 -1.16343,-0.02816 -1.16343,0.48092 0,1.195332 7.45235,4.307533 29.31843,12.24377 9.72627,3.530125 17.76913,6.453734 17.87302,6.49691 0.1039,0.04318 1.25569,-0.407563 2.55955,-1.001641 z"
       style="opacity:0.71;fill:#00005c;fill-opacity:1;stroke:#000000;stroke-width:4.0022" />
    <path
       transform="translate(126.6582,277.76545)"
       id="path1032"
       d="m 639.07898,303.57128 c -0.89998,-0.59956 2.87829,-3.03015 13.24983,-8.52375 19.25197,-10.19737 17.96523,-9.06079 15.57098,-13.75391 -1.0815,-2.11991 -1.96636,-4.03871 -1.96636,-4.264 0,-0.22529 2.19888,-0.93195 4.8864,-1.57036 2.68752,-0.63841 11.58776,-4.35237 19.77831,-8.25324 11.9051,-5.66997 15.49444,-6.99586 17.89613,-6.61072 2.79481,0.44818 0.68624,1.97096 -30.24917,21.84545 -18.28938,11.75003 -34.3005,21.49994 -35.58027,21.66647 -1.27977,0.16653 -2.8934,-0.0746 -3.58585,-0.53594 z"
       style="opacity:0.71;fill:#00005c;fill-opacity:1;stroke:#000000;stroke-width:4.0022" />
    <path
       transform="translate(126.6582,277.76545)"
       id="path1034"
       d="m 670.69397,281.4162 c -1.38197,-3.03311 -1.5076,-2.82214 2.45272,-4.11861 1.91966,-0.62843 6.60128,-2.55576 10.40359,-4.28296 3.80232,-1.72719 7.31911,-3.00509 7.8151,-2.83976 0.49599,0.16533 -3.71872,3.27464 -9.36602,6.90957 l -10.26782,6.60898 z"
       style="opacity:0.71;fill:#00005c;fill-opacity:1;stroke:#000000;stroke-width:4.0022" />
    <path
       transform="translate(126.6582,277.76545)"
       id="path1036"
       d="m 639.90037,317.71933 c 0.11724,-3.36661 9.80643,-10.5048 44.01495,-32.42651 40.47908,-25.94006 37.5984,-24.59695 49.26731,-22.97079 l 4.424,0.61652 -26.1597,19.82678 -26.1597,19.82679 -21.54388,7.5198 c -11.84914,4.13589 -22.06743,7.71898 -22.70732,7.96242 -0.63989,0.24344 -1.15093,0.0837 -1.13566,-0.35501 z"
       style="opacity:0.71;fill:#00005c;fill-opacity:1;stroke:#000000;stroke-width:4.0022" />
    <path
       transform="translate(126.6582,277.76545)"
       id="path1038"
       d="m 648.24929,312.3926 c 0,-1.2429 60.79417,-40.66982 70.42684,-45.674 3.45301,-1.79385 5.88477,-2.41671 8.62238,-2.20853 l 3.81299,0.28997 -23.31356,17.68413 -23.31356,17.68413 -16.48874,5.82507 c -19.91865,7.03677 -19.74635,6.98093 -19.74635,6.39923 z"
       style="opacity:0.71;fill:#00005c;fill-opacity:1;stroke:#000000;stroke-width:4.0022" />
    <path
       transform="translate(126.6582,277.76545)"
       id="path1040"
       d=""
       style="opacity:0.71;fill:#00005c;fill-opacity:1;stroke:#000000;stroke-width:4.0022" />
    <path
       transform="translate(126.6582,277.76545)"
       id="path1042"
       d="m 698.04409,299.94763 c 0.51191,-0.50585 11.52994,-8.93513 24.48452,-18.73172 22.52899,-17.03701 23.73711,-17.81199 27.76719,-17.81199 2.31738,0 4.0738,0.3847 3.90317,0.85489 -0.17064,0.47018 -8.55634,8.37037 -18.63488,17.55597 -19.92122,18.15622 -18.12075,17.11704 -31.93554,18.4323 -4.29415,0.40883 -6.19791,0.30675 -5.58446,-0.29945 z"
       style="opacity:0.71;fill:#00005c;fill-opacity:1;stroke:#000000;stroke-width:4.0022" />
    <path
       transform="translate(126.6582,277.76545)"
       id="path1044"
       d=""
       style="opacity:0.71;fill:#00005c;fill-opacity:1;stroke:#000000;stroke-width:4.0022" />
    <path
       transform="translate(126.6582,277.76545)"
       id="path1046"
       d="m 718.05508,287.70775 c 27.2216,-20.85261 36.15309,-26.57632 24.63938,-15.79006 -22.82553,21.3834 -26.77406,24.34609 -33.94682,25.47125 -4.15129,0.6512 -4.06894,0.56554 9.30744,-9.68119 z"
       style="opacity:0.71;fill:#00005c;fill-opacity:1;stroke:#000000;stroke-width:4.0022" />
    <path
       transform="translate(126.6582,277.76545)"
       id="path1048"
       d="m 733.37132,309.34817 c -5.60843,-4.3812 -10.29975,-8.06237 -10.42516,-8.18036 -0.1254,-0.11799 8.85101,-8.48604 19.94758,-18.59567 19.87906,-18.11099 20.22439,-18.37202 23.4966,-17.76092 1.82656,0.34111 3.43875,0.73549 3.58265,0.87638 0.19369,0.18967 -25.38548,50.29786 -26.25406,51.43024 -0.0828,0.10789 -4.73917,-3.38846 -10.34761,-7.76967 z"
       style="opacity:0.71;fill:#00005c;fill-opacity:1;stroke:#000000;stroke-width:4.0022" />
    <path
       transform="translate(126.6582,277.76545)"
       id="path1050"
       d="m 734.33625,306.9438 c -4.60342,-3.56519 -8.54179,-6.65031 -8.75195,-6.85582 -0.78771,-0.77027 2.93383,-3.96331 4.09843,-3.51641 0.67723,0.25987 6.72288,-4.60626 13.66512,-10.99901 15.65982,-14.42035 20.57071,-18.44566 22.50371,-18.44566 1.81872,0 1.80182,-0.11835 0.51153,3.58298 -0.56177,1.61151 -1.38831,2.70326 -1.83674,2.42611 -0.44843,-0.27715 -4.55307,6.94825 -9.12141,16.05643 -4.56835,9.10819 -9.29446,18.28682 -10.50247,20.39695 l -2.19638,3.8366 z"
       style="opacity:0.71;fill:#00005c;fill-opacity:1;stroke:#000000;stroke-width:4.0022" />
    <path
       transform="translate(126.6582,277.76545)"
       id="path1052"
       d="m 755.12896,306.91619 c 3.02729,-5.75897 9.1269,-17.45847 13.55469,-25.99888 l 8.05053,-15.52802 3.0038,0.37894 c 1.65209,0.20841 6.24976,0.63511 10.21706,0.94821 3.9673,0.3131 7.21327,0.75334 7.21327,0.9783 0,1.12612 -16.05639,42.82944 -16.76805,43.55172 -0.80991,0.82199 -25.8188,6.08026 -29.10887,6.12031 -1.36995,0.0167 -0.68691,-1.84339 3.83757,-10.45058 z"
       style="opacity:0.71;fill:#00005c;fill-opacity:1;stroke:#000000;stroke-width:4.0022" />
    <path
       transform="translate(126.6582,277.76545)"
       id="path1054"
       d="m 754.47666,313.79731 c 0.18854,-0.54608 5.57824,-11.05974 11.9771,-23.36371 l 11.6343,-22.37084 6.98058,0.57778 c 3.83931,0.31778 7.35101,0.91742 7.80376,1.33254 0.899,0.82426 -12.9523,37.54774 -14.67018,38.89454 -0.99061,0.77662 -10.26268,3.10853 -17.33292,4.3592 -1.79169,0.31693 -4.04012,0.79834 -4.99653,1.0698 -1.00531,0.28533 -1.5943,0.0747 -1.39611,-0.49931 z"
       style="opacity:0.71;fill:#00005c;fill-opacity:1;stroke:#000000;stroke-width:4.0022" />
    <path
       transform="translate(126.6582,277.76545)"
       id="path1056"
       d="M 631.03053,29.699826 C 581.94856,14.544912 583.20588,14.975971 582.10981,12.927945 c -0.56369,-1.053265 -0.85805,-2.081872 -0.65413,-2.285792 1.02061,-1.0206062 36.7836,7.793349 51.68532,12.738087 14.63401,4.855905 17.71316,6.220792 22.10516,9.798493 2.80654,2.286191 5.1028,4.343119 5.1028,4.570948 0,0.891851 -3.24171,0.0018 -29.31843,-8.049855 z"
       style="opacity:0.71;fill:#00005c;fill-opacity:1;stroke:#000000;stroke-width:4.0022" />
    <path
       transform="translate(126.6582,277.76545)"
       id="path1058"
       d="M 576.61585,43.737762 C 533.72184,32.040206 515.3344,26.640888 514.49831,25.497472 c -0.6532,-0.893307 -1.05407,-1.757755 -0.89083,-1.920997 0.16324,-0.163242 4.66138,0.281508 9.99588,0.988331 7.83148,1.037678 95.50926,23.036485 119.99222,30.106666 l 5.11909,1.478289 -4.65372,2.118883 c -2.55955,1.165385 -5.07256,2.111306 -5.58447,2.102047 -0.5119,-0.0092 -28.3492,-7.494078 -61.86063,-16.632929 z"
       style="opacity:0.71;fill:#00005c;fill-opacity:1;stroke:#000000;stroke-width:4.0022" />
    <path
       transform="translate(126.6582,277.76545)"
       id="path1060"
       d="M 566.69208,64.19826 C 533.45811,53.104536 521.44797,48.312016 522.99757,46.762419 c 0.33245,-0.33245 90.87353,24.657356 91.45946,25.243282 0.12841,0.128409 -1.95371,1.299162 -4.62693,2.601678 l -4.86039,2.368208 z"
       style="opacity:0.71;fill:#00005c;fill-opacity:1;stroke:#000000;stroke-width:4.0022" />
    <path
       transform="translate(126.6582,277.76545)"
       id="path1062"
       d="m 627.77293,26.350247 c -33.72831,-10.433486 -36.11654,-11.199822 -35.3585,-11.345808 0.8706,-0.167662 17.11926,3.844609 28.13739,6.947947 14.33206,4.036731 30.95508,10.121518 30.95508,11.330976 0,0.402221 -0.37803,0.291793 -23.73397,-6.933115 z"
       style="opacity:0.71;fill:#00005c;fill-opacity:1;stroke:#000000;stroke-width:2.0011" />
    <path
       transform="translate(126.6582,277.76545)"
       id="path1065"
       d="m 629.40173,55.766293 c -4.60718,-1.265679 -22.61707,-6.172546 -40.02198,-10.904148 -38.35052,-10.425757 -55.398,-15.223798 -54.79933,-15.423356 1.17907,-0.393023 76.39943,18.509225 103.85411,26.09767 l 3.91371,1.081745 -1.9453,0.778352 c -1.06991,0.428094 -2.09812,0.754192 -2.2849,0.724663 -0.18679,-0.02953 -4.10913,-1.089246 -8.71631,-2.354926 z"
       style="opacity:0.71;fill:#00005c;fill-opacity:1;stroke:#000000;stroke-width:2.0011" />
    <path
       transform="translate(126.6582,277.76545)"
       id="path1067"
       d="M 612.88103,63.477259 C 572.03451,52.482624 526.6161,39.270436 527.98976,38.782438 c 0.51675,-0.183579 32.75145,8.395764 70.46474,18.754357 28.38521,7.796479 26.4728,7.219342 25.36277,7.654104 -1.61518,0.632613 -3.06165,0.40596 -10.93624,-1.71364 z"
       style="opacity:0.71;fill:#00005c;fill-opacity:1;stroke:#000000;stroke-width:2.0011" />
    <path
       transform="translate(126.6582,277.76545)"
       id="path1069"
       d="m 578.21082,77.653147 c -6.39886,-2.030357 -20.74395,-6.53895 -31.87797,-10.019096 -11.13403,-3.480145 -20.33676,-6.409713 -20.45051,-6.510151 -0.11376,-0.100437 0.21685,-0.606302 0.73469,-1.124142 l 0.94153,-0.941529 30.91059,10.318271 c 36.56023,12.204175 33.3919,11.072077 32.52363,11.621226 -0.84485,0.534339 0.79576,0.963626 -12.78196,-3.344579 z"
       style="opacity:0.71;fill:#00005c;fill-opacity:1;stroke:#000000;stroke-width:2.0011" />
    <path
       transform="translate(126.6582,277.76545)"
       id="path1071"
       d="m 543.30793,93.54853 -17.68413,-4.111835 -6.86424,-3.402486 c -3.77533,-1.871368 -6.86423,-3.524978 -6.86423,-3.674691 0,-0.149713 2.49452,-0.871604 5.54339,-1.604202 l 5.54339,-1.331997 22.16476,7.874328 22.16476,7.874329 -2.69441,1.244127 c -1.48193,0.684271 -2.90383,1.244159 -3.15979,1.244195 -0.25595,3.8e-5 -8.42323,-1.850258 -18.1495,-4.111768 z"
       style="opacity:0.71;fill:#00005c;fill-opacity:1;stroke:#000000;stroke-width:2.0011" />
    <path
       transform="translate(126.6582,277.76545)"
       id="path1073"
       d="m 542.84256,92.196235 c -16.75979,-3.946276 -17.36142,-4.127099 -22.57054,-6.783708 l -5.35178,-2.729361 3.95566,-1.011376 3.95566,-1.011376 3.49029,1.257473 c 1.91966,0.691611 11.09453,3.950123 20.38859,7.241138 14.58769,5.165483 16.78678,6.065208 16.08273,6.580022 -0.44857,0.327997 -1.24673,0.577273 -1.77371,0.553946 -0.52698,-0.02333 -8.70658,-1.866868 -18.1769,-4.096758 z"
       style="opacity:0.71;fill:#00005c;fill-opacity:1;stroke:#000000;stroke-width:2.0011" />
    <path
       transform="translate(126.6582,277.76545)"
       id="path1075"
       d="m 535.28026,97.577323 c -10.77584,-2.184741 -13.86538,-3.103405 -10.43697,-3.103405 1.1064,0 22.64739,4.77104 24.0491,5.326551 1.70955,0.677511 -3.50877,-0.174749 -13.61213,-2.223146 z"
       style="opacity:0.71;fill:#00005c;fill-opacity:1;stroke:#000000;stroke-width:2.0011" />
    <path
       transform="translate(126.6582,277.76545)"
       id="path1077"
       d="m 728.49697,352.96712 c -0.63833,-1.44338 -1.20707,-2.99883 -1.26387,-3.45654 -0.0583,-0.46966 3.8502,-6.05231 8.97149,-12.81437 4.99111,-6.59018 9.2,-12.17804 9.35308,-12.41747 0.31843,-0.49802 23.4732,-5.13986 24.57786,-4.92713 0.42383,0.0816 -1.11163,1.42926 -3.68835,3.23719 -2.55011,1.78925 -11.2509,9.41225 -20.60203,18.05 l -16.18758,14.95266 z"
       style="opacity:0.71;fill:#00005c;fill-opacity:1;stroke:#000000;stroke-width:2.0011" />
    <path
       transform="translate(126.6582,277.76545)"
       id="path1079"
       d="m 729.22686,351.36786 c -0.59621,-1.80654 -0.567,-1.9199 1.16935,-4.53737 1.2711,-1.91614 13.8285,-18.91726 15.84868,-21.45709 0.25275,-0.31776 19.40048,-4.29613 19.6201,-4.07651 0.0642,0.0642 -1.19058,1.16674 -2.78848,2.45001 -3.58941,2.88264 -13.25685,11.52363 -24.31238,21.73098 -4.60718,4.25371 -8.50024,7.73601 -8.65124,7.73842 -0.15099,0.002 -0.54971,-0.82938 -0.88603,-1.84844 z"
       style="opacity:0.71;fill:#000000;fill-opacity:1;stroke:#000000;stroke-width:2.0011" />
    <path
       transform="translate(126.6582,277.76545)"
       id="path1081"
       d="m 1012.024,108.10568 c -7.553,-6.28207 -6.8326,-5.21174 -7.6915,-11.427293 l -0.7601,-5.500033 2.6618,-6.484229 2.6619,-6.484229 5.7835,0.702698 c 3.7951,0.461108 6.0043,0.942692 6.4257,1.400755 0.3532,0.383932 1.9301,2.970114 3.5041,5.747071 l 2.8618,5.049013 v 5.994381 5.994386 l -5.4681,3.64774 c -3.0075,2.00625 -5.7,3.7843 -5.9833,3.95121 -0.2834,0.16691 -2.0815,-0.99925 -3.9958,-2.59147 z"
       style="opacity:0.71;fill:#000000;fill-opacity:1;stroke:#000000;stroke-width:2.0011" />
  </g>
</svg>
