<?xml version="1.0" encoding="UTF-8" standalone="no"?>
<svg
   xmlns:dc="http://purl.org/dc/elements/1.1/"
   xmlns:cc="http://creativecommons.org/ns#"
   xmlns:rdf="http://www.w3.org/1999/02/22-rdf-syntax-ns#"
   xmlns:svg="http://www.w3.org/2000/svg"
   xmlns="http://www.w3.org/2000/svg"
   xmlns:sodipodi="http://sodipodi.sourceforge.net/DTD/sodipodi-0.dtd"
   xmlns:inkscape="http://www.inkscape.org/namespaces/inkscape"
   inkscape:version="1.0 (4035a4f, 2020-05-01)"
   sodipodi:docname="guppy_v1.svg"
   viewBox="0 0 1073.8912 772.37931"
   height="772.37933"
   width="1073.8912"
   id="svg885"
   version="1.1">
  <metadata
     id="metadata891">
    <rdf:RDF>
      <cc:Work
         rdf:about="">
        <dc:format>image/svg+xml</dc:format>
        <dc:type
           rdf:resource="http://purl.org/dc/dcmitype/StillImage" />
        <dc:title />
      </cc:Work>
    </rdf:RDF>
  </metadata>
  <defs
     id="defs889">
    <clipPath
       id="clipPath929"
       clipPathUnits="userSpaceOnUse">
      <g
         transform="translate(-226.38248,-210.58844)"
         style="opacity:0.71"
         id="g935">
        <path
           id="path931"
           d="M 242.19336,215.86914 V 694.99023 H 963.50977 V 215.86914 Z"
           style="color:#000000;font-style:normal;font-variant:normal;font-weight:normal;font-stretch:normal;font-size:medium;line-height:normal;font-family:sans-serif;font-variant-ligatures:normal;font-variant-position:normal;font-variant-caps:normal;font-variant-numeric:normal;font-variant-alternates:normal;font-variant-east-asian:normal;font-feature-settings:normal;font-variation-settings:normal;text-indent:0;text-align:start;text-decoration:none;text-decoration-line:none;text-decoration-style:solid;text-decoration-color:#000000;letter-spacing:normal;word-spacing:normal;text-transform:none;writing-mode:lr-tb;direction:ltr;text-orientation:mixed;dominant-baseline:auto;baseline-shift:baseline;text-anchor:start;white-space:normal;shape-padding:0;shape-margin:0;inline-size:0;clip-rule:nonzero;display:inline;overflow:visible;visibility:visible;isolation:auto;mix-blend-mode:normal;color-interpolation:sRGB;color-interpolation-filters:linearRGB;solid-color:#000000;solid-opacity:1;vector-effect:none;fill:#7b3001;fill-opacity:0.958217;fill-rule:nonzero;stroke:none;stroke-width:0;stroke-linecap:butt;stroke-linejoin:miter;stroke-miterlimit:4;stroke-dasharray:none;stroke-dashoffset:0;stroke-opacity:1;color-rendering:auto;image-rendering:auto;shape-rendering:auto;text-rendering:auto;enable-background:accumulate;stop-color:#000000;stop-opacity:1" />
        <path
           id="path933"
           d="m 242.17773,215.85352 v 0.0156 479.13672 H 963.52539 V 215.85352 Z m 0.0312,0.0312 H 963.49414 V 694.97461 H 242.20898 Z"
           style="color:#000000;font-style:normal;font-variant:normal;font-weight:normal;font-stretch:normal;font-size:medium;line-height:normal;font-family:sans-serif;font-variant-ligatures:normal;font-variant-position:normal;font-variant-caps:normal;font-variant-numeric:normal;font-variant-alternates:normal;font-variant-east-asian:normal;font-feature-settings:normal;font-variation-settings:normal;text-indent:0;text-align:start;text-decoration:none;text-decoration-line:none;text-decoration-style:solid;text-decoration-color:#000000;letter-spacing:normal;word-spacing:normal;text-transform:none;writing-mode:lr-tb;direction:ltr;text-orientation:mixed;dominant-baseline:auto;baseline-shift:baseline;text-anchor:start;white-space:normal;shape-padding:0;shape-margin:0;inline-size:0;clip-rule:nonzero;display:inline;overflow:visible;visibility:visible;isolation:auto;mix-blend-mode:normal;color-interpolation:sRGB;color-interpolation-filters:linearRGB;solid-color:#000000;solid-opacity:1;vector-effect:none;fill:#000000;fill-opacity:1;fill-rule:nonzero;stroke:none;stroke-width:0;stroke-linecap:butt;stroke-linejoin:miter;stroke-miterlimit:4;stroke-dasharray:none;stroke-dashoffset:0;stroke-opacity:1;color-rendering:auto;image-rendering:auto;shape-rendering:auto;text-rendering:auto;enable-background:accumulate;stop-color:#000000;stop-opacity:1" />
      </g>
    </clipPath>
  </defs>
  <sodipodi:namedview
     inkscape:current-layer="layer1"
     inkscape:window-maximized="1"
     inkscape:window-y="23"
     inkscape:window-x="0"
     inkscape:cy="356.00393"
     inkscape:cx="521.44428"
     inkscape:zoom="0.37986112"
     fit-margin-bottom="0"
     fit-margin-right="0"
     fit-margin-left="0"
     fit-margin-top="0"
     showgrid="false"
     id="namedview887"
     inkscape:window-height="755"
     inkscape:window-width="1280"
     inkscape:pageshadow="2"
     inkscape:pageopacity="0"
     guidetolerance="10"
     gridtolerance="10"
     objecttolerance="10"
     borderopacity="1"
     bordercolor="#666666"
     pagecolor="#ffffff"
     inkscape:document-rotation="0" />
  <g
     inkscape:label="sw"
     id="layer1"
     inkscape:groupmode="layer"
     transform="translate(-126.6582,-277.76545)">
    <path
       d="m 871.17624,599.39904 29.7838,-57.70612 m -55.84463,37.22975 42.81422,-39.09124 m -74.45951,42.81422 57.70612,-43.74496 M 770.6559,585.43788 846.04615,537.0392 M 165.6724,345.30597 427.21142,418.83473 M 642.21325,611.49871 V 504.46316 L 510.04763,523.07804 M 148.91902,534.24697 536.38026,574.5521 M 199.17918,736.21838 536.38026,574.5521 M 330.41406,918.64417 547.27738,595.67606 M 275.50018,836.73872 547.27738,595.67606 M 177.77207,644.07474 536.38026,574.5521 M 174.0491,357.40564 528.48263,559.41499 M 155.43422,443.03407 528.48263,559.41499 M 148.91902,534.24697 528.48263,559.41499 M 591.95309,924.22864 547.27738,595.67606 M 538.90069,944.705 547.27738,595.67606 M 416.97324,970.76583 547.27738,595.67606 m -304.35324,135.8886 304.35324,-135.8886 v 0 M 427.21142,418.83473 510.04763,523.07804 v 0 m -250.3701,-225.24001 167.53389,120.9967 29.78381,-6.04983 m -45.60645,-31.17992 136.81934,94.93587 m -195.4562,-151.71125 58.63686,56.77538 28.85306,-5.58447 v 0 m 135.8886,67.9443 -66.08281,79.11323 37.22975,72.59802 m 94.93587,15.82265 -94.93587,-15.82265 94.93587,-91.2129 m 129.3734,36.29901 -129.3734,-36.29901 m -66.08281,-60.49835 66.08281,60.49835 262.46977,-47.9333 v 0 0 m -253.16233,-87.02455 37.38242,8.59341 215.77991,78.43114 M 649.6592,354.6134 l 50.26767,17.89117 m -58.64436,-31.85232 75.75588,23.62563 m -63.65621,-32.93307 77.97065,26.18718 m -78.9014,-35.49462 97.00013,27.1034 m -109.0998,-41.9953 125.71771,34.09767 m -107.10283,-40.61288 124.54342,32.38619 m 18.79113,-9.11759 -94.00512,-28.85306 v 0 m 162.88017,304.35324 38.1605,-7.44595 v 0 M 802.30119,323.89886 681.30449,381.60498 m 223.37853,74.92488 -73.52877,78.64785 96.79736,7.44595 m -23.26859,-86.0938 -102.38183,-132.631 M 959.5969,310.86844 935.39756,417.90399 866.52252,314.59142 927.95161,542.62366 M 1003.3419,523.07804 935.39756,417.90399 1059.1865,317.38365 m 0,0 -55.8446,205.69439 m 162.8801,-113.55075 19.5457,-67.9443 m -126.5812,-24.19934 75.3902,127.51191 v 0 m -0.9307,-92.14364 -6.5152,15.82264 1.8615,13.03042 13.0304,11.16892 14.8919,-10.23818 v -14.8919 l -7.446,-13.03042 z m 52.1217,-11.16893 -47.468,-10.23818 -79.1132,-13.96116 -99.5896,-6.51521 -93.07438,3.72298 -64.22133,9.30744 -24.19934,-19.54562 -33.50677,-11.16893 -42.81422,-9.30744 6.51521,11.16893 -59.56761,-3.72298 10.23818,9.30744 -25.13008,-2.79223 6.5152,9.30744 -15.82264,-0.93075 27.92231,15.82265 h -11.16892 l 12.09967,9.30744 -12.09967,9.30744 8.37669,13.96115 -18.61487,4.65372 20.47636,10.23819 -12.09967,3.72297 41.88347,8.3767 -105.17405,62.35983 -92.14364,-41.88347 -43.74496,-26.06083 -98.65885,-88.42066 11.16893,37.22975 -80.04397,-44.6757 -17.68414,7.44595 4.65372,10.23818 -7.44595,12.09967 34.43752,23.2686 -32.57603,-7.44595 5.58446,11.16892 -71.66727,-32.57603 v 13.96115 l -8.3767,14.89191 -13.96116,12.09967 8.3767,12.09967 -11.16893,3.72297 1.86149,20.47637 -13.96116,10.23818 10.23819,14.8919 -7.44596,9.30744 -1.86148,7.44595 -14.8919,-3.72298 18.61487,23.2686 -26.06083,11.16893 7.44596,20.47636 -2.79224,20.47637 7.44595,10.23818 -0.93074,14.8919 8.3767,13.96116 -0.93075,16.75339 9.30744,13.96115 -5.58446,19.54562 20.47636,1.86149 -13.03041,21.40711 16.75339,7.44595 -6.51521,17.68413 8.37669,11.16893 -4.65371,30.71455 13.03041,7.44595 -1.86149,15.82264 0.93075,22.33786 13.96115,15.82264 19.54562,-11.16893 24.19934,6.51521 -20.47636,7.44595 -12.09967,18.61488 5.58446,16.75339 7.44595,10.23818 13.03042,6.51521 16.75339,-10.23818 24.19934,13.03041 -19.54563,24.19934 2.79224,18.61488 h 14.8919 l 0.93074,27.92231 11.16893,-5.58446 4.65372,32.57603 11.16892,-3.72297 8.3767,31.64529 18.61487,-0.93075 -13.03041,23.2686 10.23818,25.13008 7.44595,21.40711 12.09967,1.86149 9.30744,13.96115 21.40711,20.4764 39.09124,-53.98317 6.51521,12.09967 -24.19934,38.1605 17.68413,17.6841 13.96116,-11.1689 17.68413,-7.4459 2.79223,26.0608 14.89191,-11.1689 13.03041,10.2381 10.23818,-29.7838 16.75339,30.7146 22.33785,-15.8227 10.23819,-85.6284 10.23818,18.61488 13.96116,-30.71455 13.03041,-14.8919 15.82265,6.51521 13.96115,-27.92232 12.09967,13.03042 8.3767,-165.67241 1.86148,-70.73653 13.96116,-61.42909 129.3734,-70.73654 59.5676,-5.58446 -28.85306,13.96116 -13.96115,3.72297 4.65372,9.30744 -36.29901,19.54562 13.96115,3.72298 -13.03041,16.75339 55.84463,-19.54562 31.64529,-3.72298 26.06083,20.47637 -20.47637,26.99157 4.65372,11.16892 35.36827,-32.57603 18.61488,-13.03041 18.61487,-49.32943 75.39029,-19.54562 80.9747,-48.39868 50.2601,-29.7838 31.6453,-35.36827 18.6149,-33.50678 13.0304,-21.40711 z M 642.21325,611.49871 V 504.46316 m 0,0 -132.16562,18.61488 m 132.16562,88.42067 V 504.46316 l -132.16562,18.61488"
       style="fill:none;stroke:#000000;stroke-width:4.3;stroke-linecap:butt;stroke-linejoin:miter;stroke-miterlimit:4;stroke-dasharray:none;stroke-opacity:1"
       id="path1064" />
  </g>
</svg>
