<?xml version="1.0" encoding="UTF-8" standalone="no"?>
<svg
   xmlns:dc="http://purl.org/dc/elements/1.1/"
   xmlns:cc="http://creativecommons.org/ns#"
   xmlns:rdf="http://www.w3.org/1999/02/22-rdf-syntax-ns#"
   xmlns:svg="http://www.w3.org/2000/svg"
   xmlns="http://www.w3.org/2000/svg"
   xmlns:sodipodi="http://sodipodi.sourceforge.net/DTD/sodipodi-0.dtd"
   xmlns:inkscape="http://www.inkscape.org/namespaces/inkscape"
   viewBox="0 0 856.21692 1210.9596"
   height="1210.9596"
   width="856.21692"
   id="svg78"
   version="1.1"
   sodipodi:docname="hummingbird_v1_c.svg"
   inkscape:version="1.0 (4035a4f, 2020-05-01)">
  <sodipodi:namedview
     fit-margin-bottom="0"
     fit-margin-right="0"
     fit-margin-left="0"
     fit-margin-top="0"
     inkscape:document-rotation="0"
     pagecolor="#ffffff"
     bordercolor="#666666"
     borderopacity="1"
     objecttolerance="10"
     gridtolerance="10"
     guidetolerance="10"
     inkscape:pageopacity="0"
     inkscape:pageshadow="2"
     inkscape:window-width="1280"
     inkscape:window-height="755"
     id="namedview843"
     showgrid="false"
     inkscape:zoom="0.22627417"
     inkscape:cx="59.23293"
     inkscape:cy="505.67533"
     inkscape:window-x="0"
     inkscape:window-y="23"
     inkscape:window-maximized="1"
     inkscape:current-layer="svg78">
    <inkscape:grid
       originy="-274.63165"
       originx="-3.1346027"
       type="xygrid"
       id="grid915" />
  </sodipodi:namedview>
  <metadata
     id="metadata84">
    <rdf:RDF>
      <cc:Work
         rdf:about="">
        <dc:format>image/svg+xml</dc:format>
        <dc:type
           rdf:resource="http://purl.org/dc/dcmitype/StillImage" />
        <dc:title></dc:title>
      </cc:Work>
    </rdf:RDF>
  </metadata>
  <defs
     id="defs82">
    <filter
       inkscape:collect="always"
       style="color-interpolation-filters:sRGB"
       id="filter977"
       x="-0.027771899"
       width="1.0555438"
       y="-0.0098296106"
       height="1.0196592">
      <feGaussianBlur
         inkscape:collect="always"
         stdDeviation="0.64280117"
         id="feGaussianBlur979" />
    </filter>
  </defs>
  <g
     transform="translate(-3.1346027,-274.63165)"
     id="layer1">
    <path
       d="m 645.04163,857.61217 -91.61901,83.0211 -32.9913,-44.5385 -87.6821,66.66525 m 212.29241,-105.14785 -44.96371,91.13506 m 177.4928,-94.32478 -132.52909,3.18972 m 79.78839,50.56526 -79.78839,-50.56526 M 111.87799,879.99819 268.46193,762.32193 M 87.740225,898.2356 148.43288,1049.1089 M 8.8902248,1472.1777 123.69406,1271.7582 m -96.566425,211.1474 96.566425,-211.1474 m -58.482405,200.9559 58.482405,-200.9559 m -18.78921,208.4654 18.78921,-208.4654 m 87.96023,-209.8218 -87.96023,209.8218 11.24889,177.8909 m -11.24889,-177.8909 -28.980715,-187.93 m 0,0 -75.47205,252.0677 104.452765,-64.1377 86.34416,-14.6746 1.61607,-195.1472 M 94.713345,1083.8282 332.34412,1038.7811 M 380.24471,911.67106 148.43288,1049.1089 332.34412,1038.7811 M 380.24471,911.67106 268.46193,762.32193 m 0,0 139.27035,10.07878 m -35.73384,221.73306 60.75078,-31.37375 m 0,0 -52.50451,-51.08896 m 108.44451,-213.55026 -80.95694,74.27991 57.7239,46.72887 -85.21147,92.54148 v 0 l 79.04021,0.8864 M 365.58468,731.16935 488.68922,698.1208 m -220.22729,64.20113 -38.4826,85.21147 -39.39885,103.53651 -42.1476,98.03899 -53.719535,34.7193 -58.9795,108.2161 h -1.83251 m 234.560595,-429.72237 97.12275,-31.15258 42.1476,41.23136 -27.48757,139.27035 -8.24627,82.46271 -39.65432,44.64733 M 294.11699,583.65273 v 0 l -25.65506,178.6692 -146.39245,24.88 m 0,0 172.04751,-203.5492 194.57223,114.46807 m 20.081,-46.61667 -214.65323,-67.8514 -24.53897,-99.51371 m 89.59289,64.69612 149.59931,102.66899 M 269.57802,484.13902 v 0 l 89.59289,64.69612 132.38701,-69.45407 m 0,0 -221.9799,4.75795 m 262.8592,-93.68819 -132.95121,53.93155 92.07191,34.99869 m -217.6888,-66.58251 v 0 l 125.61689,31.58382 -68.07069,-114.22062 m 0,0 201.0219,60.28907 m 9.8624,-66.35768 v 0 l -9.8624,66.35768 -82.6839,-81.52921 m 130.0177,37.78126 -37.4714,-22.60973 v 0 m -456.168585,702.87715 -80.4006302,14.0732 3.04273,67.9545 41.9558602,8.0866 43.98435,-33.2564 z m 373.153885,-114.41284 374.0693,-109.86149 22.3134,14.19942 -27.3846,34.48433 -50.7123,3.04273 -52.7407,53.75498 -124.7521,40.5698 -46.6553,-8.11396 -120.6734,22.12675 z m 277.2102,-635.49605 -194.1955,47.03174 -92.5463,-15.17153 -118.338,21.24014 -57.5462,82.6368 -4.2911,71.34046 -147.50854,303.06291 -10.19149,92.79626 -24.137765,18.23741 -1.60919,128.7347 8.58231,56.8579 -43.98435,33.2564 -25.74693,119.616 -16.0918402,235.4771 18.2374102,10.7279 38.08402,-10.1915 39.693195,7.5095 30.0381,-30.5745 31.11087,-75.0952 43.9844,-117.4703 75.0952,-144.8265 47.2107,-73.476 100.4051,-76.02108 26.5357,-50.20256 -5.0203,-23.66693 34.4246,-190.76973 20.081,-46.61667 -17.2123,-172.12306 40.8793,-88.93024 47.3338,-43.74795 z m -183.0725,663.57186 -32.9913,-44.5385 m 32.9913,44.5385 -32.9913,-44.5385 M 50.728995,1117.0846 5.7304048,1041.0435 M 777.57072,854.42245 855.66762,816.89539 M 5.7304048,1041.0435 94.713345,1083.8282"
       style="fill:none;stroke:#000000;stroke-width:5;stroke-linecap:butt;stroke-linejoin:miter;stroke-miterlimit:4;stroke-dasharray:none;stroke-opacity:1"
       id="path1059" />
  </g>
  <path
     style="opacity:0.71;fill:none;stroke:#000000;stroke-width:0;stroke-miterlimit:4;stroke-dasharray:none"
     d="m 562.16512,60.244561 c -13.12146,-7.93547 -14.09263,-8.57521 -14.17066,-9.33458 -0.0809,-0.7872 -0.0239,-0.83019 1.65728,-1.2499 7.38601,-1.84392 122.87006,-29.74718 123.11556,-29.74718 0.22245,0 0.29223,0.94778 0.23729,3.22308 l -0.0778,3.22308 -47.75044,21.22182 c -26.26273,11.67201 -48.01455,21.2131 -48.33737,21.20243 -0.32282,-0.0107 -6.92604,-3.8531 -14.67384,-8.53875 z"
     id="path865" />
  <path
     style="opacity:0.71;fill:#00a2c9;fill-opacity:1;stroke:#000000;stroke-width:0.835166"
     d="m 533.3008,107.07308 c 0,-0.0871 1.74015,-11.866279 3.86699,-26.175999 2.12685,-14.30971 3.86699,-26.11662 3.86699,-26.23757 0,-0.79009 2.85223,0.75873 15.88229,8.62444 10.75229,6.49072 14.63932,8.9709 14.63932,9.34085 0,0.31212 -6.97799,6.95598 -18.34711,17.46859 -13.97646,12.923519 -18.53309,16.985529 -19.12779,17.051459 -0.42938,0.0476 -0.78069,0.0153 -0.78069,-0.0718 z"
     id="path867" />
  <path
     style="opacity:0.71;fill:#00a2c9;fill-opacity:1;stroke:#000000;stroke-width:0;stroke-miterlimit:4;stroke-dasharray:none"
     d="m 429.72071,83.200761 -86.31675,-25.89241 -0.0849,-0.85909 c -0.0823,-0.83299 -0.0403,-0.8681 1.38107,-1.15608 0.80626,-0.16335 23.34203,-4.215 50.07951,-9.00366 26.73748,-4.78866 49.12612,-8.81079 49.75253,-8.93807 l 1.13895,-0.23142 35.87367,35.35972 c 24.12756,23.78189 35.9023,35.570989 35.96108,36.004939 0.0742,0.54745 -0.0305,0.64243 -0.69053,0.62685 -0.42786,-0.0101 -39.62047,-11.669959 -87.09468,-25.910779 z"
     id="path869" />
  <path
     style="opacity:0.71;fill:#00ff00;fill-opacity:1;stroke:#000000;stroke-width:0;stroke-miterlimit:4;stroke-dasharray:none"
     d="m 506.92241,90.017861 c -10.63423,-10.4977 -26.32661,-25.98299 -34.87197,-34.41174 -13.36399,-13.18163 -15.53701,-15.4359 -15.53701,-16.11785 0,-0.45811 0.14857,-0.79284 0.3519,-0.79284 0.19355,0 8.61461,1.35726 18.71347,3.01614 20.07373,3.29739 50.04611,8.21172 56.26838,9.22587 2.1629,0.35252 4.0092,0.71761 4.1029,0.81131 0.0937,0.0937 -1.73809,13.04246 -4.07065,28.77502 l -4.241,28.604679 -0.69054,-0.0119 c -0.53654,-0.009 -5.00238,-4.26841 -20.02548,-19.098669 z"
     id="path871" />
  <path
     style="opacity:0.71;fill:#00ff00;fill-opacity:1;stroke:#000000;stroke-width:0;stroke-miterlimit:4;stroke-dasharray:none"
     d="M 366.33162,114.1708 C 349.33102,85.648281 335.37003,61.969871 335.3072,61.552101 c -0.097,-0.64509 -0.0158,-0.76074 0.53859,-0.76727 0.35906,-0.004 41.82945,12.33216 92.15643,27.4142 90.79404,27.209249 91.50301,27.427179 91.4267,28.104069 -0.0717,0.63583 -4.17796,2.34722 -60.42957,25.18538 -33.19397,13.47676 -60.66877,24.5118 -61.05511,24.52231 -0.64499,0.0175 -3.23048,-4.22227 -31.61262,-51.83999 z"
     id="path873" />
  <path
     style="opacity:0.71;fill:#00a2c9;fill-opacity:0.709804;stroke:#000000;stroke-width:0;stroke-miterlimit:4;stroke-dasharray:none"
     d="m 446.01731,185.80379 -40.18908,-15.29362 -0.0838,-0.82288 c -0.0825,-0.80959 -0.0289,-0.84539 3.31456,-2.21466 33.1414,-13.57258 113.35257,-45.91312 113.87396,-45.91312 0.38524,0 0.70043,0.0486 0.70043,0.1081 0,0.0595 -8.18957,17.92703 -18.19905,39.70571 -14.08651,30.6495 -18.3153,39.61189 -18.71348,39.66084 -0.28292,0.0348 -18.5995,-6.81888 -40.70349,-15.23037 z"
     id="path877" />
  <path
     style="opacity:0.71;fill:#009f00;fill-opacity:1;stroke:#000000;stroke-width:0;stroke-miterlimit:4;stroke-dasharray:none"
     d="m 332.5872,151.03709 c -31.25976,-7.87767 -56.85791,-14.32845 -56.88476,-14.33507 -0.61196,-0.15081 1.634,-3.47179 25.89759,-38.293289 23.9191,-34.3271 25.96783,-37.20703 26.46836,-37.20703 0.51416,0 2.14722,2.6914 31.22732,51.464849 19.02898,31.91562 30.71688,51.70597 30.76927,52.09961 0.0697,0.52376 0.021,0.6312 -0.27867,0.61437 -0.19975,-0.0112 -25.93934,-6.46577 -57.19911,-14.34344 z"
     id="path879" />
  <path
     style="opacity:0.71;fill:#009f00;fill-opacity:1;stroke:#000000;stroke-width:0;stroke-miterlimit:4;stroke-dasharray:none"
     d="m 316.57158,242.34335 c -34.72794,-25.10577 -38.87979,-28.21791 -38.98547,-29.2227 l -0.11827,-1.12456 11.25109,-0.26109 c 6.18809,-0.14361 27.59874,-0.60984 47.57921,-1.03606 19.98047,-0.42623 52.23633,-1.12211 71.67969,-1.5464 19.44336,-0.42429 42.00174,-0.89046 50.12972,-1.03593 l 14.77817,-0.26451 -0.12973,1.05214 c -0.11992,0.97266 -4.48749,3.33834 -57.8115,31.31348 -31.72498,16.64373 -58.09217,30.25288 -58.59375,30.24256 -0.56825,-0.0117 -15.56101,-10.60896 -39.77916,-28.11693 z"
     id="path883" />
  <path
     style="opacity:0.71;fill:#00ff00;fill-opacity:0.709804;stroke:#000000;stroke-width:0;stroke-miterlimit:4;stroke-dasharray:none"
     d="m 269.47764,203.6202 c 0.13627,-1.79208 0.93725,-14.94779 1.77996,-29.2349 2.02944,-34.40643 1.86011,-32.42187 2.76633,-32.42187 0.40787,0 27.9458,6.84808 61.1954,15.21796 l 60.45381,15.21796 36.91406,14.03426 c 35.29391,13.4183 36.91949,14.07908 37.03767,15.05548 0.1218,1.00631 0.0876,1.02124 -2.34375,1.02291 -1.35705,7.8e-4 -9.76228,0.17606 -18.67829,0.38916 -8.91602,0.21311 -32.99805,0.73823 -53.51563,1.16694 -20.51758,0.42871 -45.21484,0.95448 -54.88281,1.16837 -9.66797,0.2139 -26.10352,0.56385 -36.52344,0.77767 -10.41992,0.21382 -22.43411,0.49578 -26.69819,0.62658 l -7.75288,0.23781 z"
     id="path885" />
  <path
     style="opacity:0.71;fill:#00a3cb;fill-opacity:0.501961;stroke:#000000;stroke-width:0;stroke-miterlimit:4;stroke-dasharray:none"
     d="m 431.7051,322.79942 c -63.69884,-43.71399 -68.54943,-47.12039 -68.54943,-48.13978 0,-1.06079 1.9995,-2.14711 60.54687,-32.89493 33.30078,-17.48885 60.98633,-31.87455 61.52344,-31.96822 l 0.97656,-0.17032 7.92436,79.42442 c 4.35839,43.68342 7.91796,79.73203 7.91015,80.108 -0.009,0.44552 -0.32213,0.6836 -0.89836,0.6836 -0.5341,0 -28.02465,-18.62545 -69.43359,-47.04277 z"
     id="path889" />
  <path
     style="opacity:0.71;fill:#666666;fill-opacity:0.501961;stroke:#000000;stroke-width:0;stroke-miterlimit:4;stroke-dasharray:none"
     d="m 564.82979,61.862421 c -6.38054,-3.86666 -12.78179,-7.75045 -14.225,-8.63064 -2.32726,-1.41936 -2.62403,-1.68946 -2.62403,-2.38824 v -0.78789 l 73.88713,-17.89845 c 40.63793,-9.84415 74.05038,-17.90054 74.24991,-17.90308 0.24119,-0.003 0.33376,0.28411 0.27621,0.85694 l -0.0865,0.86156 -59.52403,26.4695 c -32.73822,14.55822 -59.71047,26.46524 -59.93835,26.46005 -0.22788,-0.005 -5.63476,-3.17309 -12.01529,-7.03975 z"
     id="path891" />
  <path
     style="opacity:0.71;fill:#00ff00;fill-opacity:0.709804;stroke:#000000;stroke-width:0;stroke-miterlimit:4;stroke-dasharray:none"
     d="m 384.84209,335.77924 c -50.22773,-15.89748 -91.3957,-28.99254 -91.48438,-29.10014 -0.27016,-0.32778 -21.33094,-86.32455 -21.32234,-87.0648 0.0266,-2.29191 4.61914,0.75085 43.77418,29.00243 25.65757,18.51273 64.05871,45.39728 101.98749,71.40121 55.7728,38.23778 60.83556,41.83466 60.84443,43.22743 0.008,1.22182 -0.2336,1.51127 -1.23328,1.47878 -0.68363,-0.0222 -42.33837,-13.04743 -92.5661,-28.94491 z"
     id="path893" />
  <path
     style="opacity:0.71;fill:#00a3ca;fill-opacity:0.356863;stroke:#000000;stroke-width:0;stroke-miterlimit:4;stroke-dasharray:none"
     d="m 403.29658,371.96873 c -77.00559,-45.3441 -79.49601,-46.84644 -79.61459,-48.02723 -0.10418,-1.0374 0.007,-1.21892 0.74976,-1.21892 0.98108,0 176.53318,55.38935 177.04307,55.85977 0.17967,0.16576 -3.52148,9.24228 -8.22477,20.17003 -7.81889,18.16658 -8.63326,19.87532 -9.50637,19.94665 -0.65187,0.0533 -26.18137,-14.77637 -80.4471,-46.7303 z"
     id="path895" />
  <path
     style="opacity:0.71;fill:#009f00;fill-opacity:0.709804;stroke:#000000;stroke-width:0;stroke-miterlimit:4;stroke-dasharray:none"
     d="m 142.60668,472.52727 c 0.0288,-1.18164 27.02861,-57.51953 59.99967,-125.19531 59.14793,-121.40595 59.97755,-123.04688 62.20934,-123.04688 h 2.26197 l 10.31911,41.79688 c 5.67552,22.98828 10.08942,42.17472 9.80868,42.63654 -0.28073,0.46181 -31.92877,37.9911 -70.32896,83.39843 -62.84511,74.31286 -70.04344,82.55878 -72.07032,82.55878 -1.94832,0 -2.24473,-0.28953 -2.19949,-2.14844 z"
     id="path897" />
  <path
     style="opacity:0.71;fill:#00a2c9;fill-opacity:0.709804;stroke:#000000;stroke-width:0;stroke-miterlimit:4;stroke-dasharray:none"
     d="m 269.39655,479.8956 c 0.21653,-1.18164 5.47889,-37.83204 11.69414,-81.44532 6.21525,-43.61328 11.48521,-80.08789 11.71104,-81.05468 0.25902,-1.10892 0.9945,-1.75782 1.99235,-1.75782 0.86997,0 41.48189,23.4668 90.24872,52.14844 81.993,48.22323 88.65005,52.2927 88.44242,54.06506 -0.21708,1.8529 -2.12014,2.42635 -57.25579,17.25268 -46.09767,12.39596 -65.26972,17.98208 -100.00438,29.13807 -23.63522,7.5911 -43.92917,13.802 -45.09766,13.802 -1.89227,0 -2.08149,-0.23486 -1.73084,-2.14843 z"
     id="path899" />
  <path
     style="opacity:0.71;fill:#009f00;fill-opacity:0.991643;stroke:#000000;stroke-width:0;stroke-miterlimit:4;stroke-dasharray:none"
     d="m 130.68255,505.46042 c 0,-1.71225 15.19047,-20.12102 74.85334,-90.71198 67.7743,-80.18812 75.08886,-88.58693 77.34375,-88.80859 1.69148,-0.16628 2.49041,0.0937 2.49041,0.81054 0,2.08546 -22.56165,157.80321 -22.915,158.15657 -0.19886,0.19885 -29.13801,5.24864 -64.30922,11.22173 -35.17121,5.97309 -64.73867,10.99962 -65.70546,11.17005 -1.47187,0.25946 -1.75782,-0.0396 -1.75782,-1.83832 z"
     id="path901" />
  <path
     style="opacity:0.71;fill:#00a2c9;fill-opacity:0.709804;stroke:#000000;stroke-width:0;stroke-miterlimit:4;stroke-dasharray:none"
     d="m 112.5352,596.3995 c 0.0277,-2.10609 8.7989,-81.11378 9.03073,-81.34561 0.11823,-0.11823 5.82135,-1.1696 12.6736,-2.33638 56.07485,-9.54822 116.11823,-19.73598 116.31758,-19.73598 0.13345,0 0.24263,0.50344 0.24263,1.11876 0,1.02608 -2.4997,2.99556 -30.17578,23.77504 -16.59668,12.46095 -47.27654,35.5122 -68.17746,51.22499 -26.38054,19.83224 -38.29622,28.56871 -38.96484,28.56871 -0.82966,0 -0.96085,-0.17597 -0.94646,-1.26953 z"
     id="path903" />
  <path
     style="opacity:0.71;fill:#7d00fc;fill-opacity:0.991643;stroke:#000000;stroke-width:0;stroke-miterlimit:4;stroke-dasharray:none"
     d="m 153.71851,763.29325 c 0,-0.6753 8.42536,-20.8734 18.72302,-44.88467 16.49455,-38.46071 20.99932,-49.64689 37.84778,-93.98303 l 19.12476,-50.32612 17.5644,-38.89087 17.56441,-38.89086 h 1.84769 c 1.80982,0 2.91566,1.42658 53.95582,69.60582 28.65947,38.28321 52.10279,69.85442 52.09627,70.15825 -0.007,0.30384 -18.58314,11.53618 -41.28136,24.96075 -22.69822,13.42457 -71.27222,42.19912 -107.94222,63.94344 -41.62288,24.68129 -67.20396,39.53509 -68.08665,39.53509 -1.09283,0 -1.41392,-0.2788 -1.41392,-1.2278 z"
     id="path909" />
  <path
     style="opacity:0.71;fill:#6400c9;fill-opacity:0.709804;stroke:#000000;stroke-width:0;stroke-miterlimit:4;stroke-dasharray:none"
     d="m 110.67424,801.47485 0.12093,-1.433 17.72827,-11.4582 17.72827,-11.4582 62.43185,-3.5099 c 34.33753,-1.9304 62.71426,-3.5099 63.0594,-3.5099 0.45245,0 0.59306,0.2956 0.50394,1.0596 l -0.1236,1.0595 -79.49219,15.0745 c -43.7207,8.291 -80.07395,15.1947 -80.78499,15.3416 -1.29137,0.2668 -1.29267,0.2655 -1.17188,-1.166 z"
     id="path913" />
  <path
     style="opacity:0.71;fill:#9600c9;fill-opacity:0.986072;stroke:#000000;stroke-width:0;stroke-miterlimit:4;stroke-dasharray:none"
     d="m 125.95477,992.09935 c 0.12598,-0.8172 17.52323,-42.7066 38.66056,-93.0875 l 38.4315,-91.6015 1.23745,-0.1224 1.23746,-0.1224 0.01,7.1536 c 0.0105,7.8002 -1.25759,165.711 -1.33148,165.8053 -0.0249,0.032 -17.27189,2.9769 -38.32658,6.5446 -21.05469,3.5678 -38.70117,6.5835 -39.21441,6.7015 -0.8853,0.2037 -0.92142,0.1385 -0.70412,-1.2712 z"
     id="path917" />
  <path
     style="opacity:0.71;fill:#9600c9;fill-opacity:0.986072;stroke:#000000;stroke-width:0;stroke-miterlimit:4;stroke-dasharray:none"
     d="m 323.45977,560.8623 c -39.2914,-52.5457 -50.41624,-67.66834 -50.5069,-68.65699 l -0.11628,-1.26792 14.76471,1.06324 c 56.0428,4.03578 113.60368,8.23089 113.66091,8.28375 0.0374,0.0346 -5.60397,28.80177 -12.53648,63.92709 l -12.60455,63.86423 -1.13539,0.0878 c -1.07978,0.0835 -3.6038,-3.21325 -51.52602,-67.30123 z"
     id="path919" />
  <path
     style="opacity:0.71;fill:#9600c9;fill-opacity:0.986072;stroke:#000000;stroke-width:0;stroke-miterlimit:4;stroke-dasharray:none"
     d="m 22.353489,1050.7193 c 0.192196,-0.9875 15.094957,-51.01665 33.117248,-111.17595 l 32.7678,-109.3806 h 1.873889 1.873893 l 12.756161,82.7274 c 12.71531,82.4624 12.7525,82.7298 11.61234,83.466 -0.62911,0.4062 -21.450834,13.20805 -46.270494,28.44855 -29.988671,18.4145 -45.622061,27.71 -46.603469,27.71 -1.369546,0 -1.451432,-0.1304 -1.127368,-1.7954 z"
     id="path921" />
  <path
     style="opacity:0.71;fill:#9600c9;fill-opacity:0.986072;stroke:#000000;stroke-width:0;stroke-miterlimit:4;stroke-dasharray:none"
     d="m 30.143675,1202.359 c 0.0087,-0.5908 15.618711,-35.1758 34.688894,-76.8554 l 34.673058,-75.7813 1.457483,-0.122 c 1.35088,-0.1132 1.44088,-0.056 1.23045,0.7812 -0.12487,0.4968 -9.689571,33.4228 -21.254888,73.1689 l -21.02785,72.2657 -14.012584,3.7914 c -7.706922,2.0853 -14.408093,3.7991 -14.891492,3.8086 -0.706258,0.014 -0.875795,-0.1939 -0.863071,-1.0571 z"
     id="path923" />
  <path
     style="opacity:0.71;fill:#9600c9;fill-opacity:0.986072;stroke:#000000;stroke-width:0;stroke-miterlimit:4;stroke-dasharray:none"
     d="m 105.54078,1194.3512 c 0.0123,-0.6982 2.96235,-33.7891 6.55574,-73.5351 l 6.53343,-72.2657 1.25676,-0.1224 c 0.73381,-0.071 1.25676,0.058 1.25676,0.3111 0,0.2384 1.76268,28.2427 3.91708,62.2318 2.15439,33.989 3.86826,62.1086 3.80859,62.4879 -0.0597,0.3792 -4.82443,5.5208 -10.58836,11.4257 -8.99321,9.2132 -10.64177,10.7362 -11.6211,10.7362 -1.03168,0 -1.13907,-0.1218 -1.1189,-1.2695 z"
     id="path925" />
  <path
     style="opacity:0.71;fill:#7d00fc;fill-opacity:0.991643;stroke:#000000;stroke-width:0;stroke-miterlimit:4;stroke-dasharray:none"
     d="m 110.84952,801.40785 v -1.2208 l 16.77998,-10.8432 c 9.22898,-5.9638 17.21501,-11.1248 17.74672,-11.4689 0.93489,-0.6051 1.62199,-0.6626 20.85412,-1.7453 50.22321,-2.8274 104.21224,-5.8181 105.02869,-5.8181 0.81707,0 0.89923,0.077 0.89923,0.8373 0,0.4606 -0.15537,0.893 -0.34527,0.9611 -0.1899,0.068 -24.58301,4.7184 -54.20692,10.3339 -29.62391,5.6156 -65.67492,12.4544 -80.11337,15.1974 -14.43845,2.743 -26.33981,4.9873 -26.44746,4.9873 -0.10764,0 -0.19572,-0.5493 -0.19572,-1.2207 z"
     id="path927" />
  <path
     style="opacity:0.71;fill:#7d00fc;fill-opacity:0.991643;stroke:#000000;stroke-width:0;stroke-miterlimit:4;stroke-dasharray:none"
     d="m 15.948463,1200.3921 c -4.972054,-2.9655 -5.566187,-3.4327 -5.564351,-4.3753 0.0013,-0.6816 12.009868,-22.0168 33.903418,-60.2351 l 33.901363,-59.1797 1.500176,-0.1243 c 1.311328,-0.1087 1.466777,-0.035 1.234847,0.5859 -0.145929,0.3907 -13.221101,29.0539 -29.055937,63.6962 -24.42457,53.4342 -28.909085,62.9834 -29.57186,62.9691 -0.429687,-0.01 -3.286133,-1.5108 -6.347656,-3.3368 z"
     id="path929" />
  <path
     style="opacity:0.71;fill:#7d00fc;fill-opacity:0.991643;stroke:#000000;stroke-width:0;stroke-miterlimit:4;stroke-dasharray:none"
     d="m 81.866432,1199.1029 c -14.161938,-2.7039 -15.8293,-3.0998 -15.90605,-3.7763 -0.04716,-0.4157 10.157521,-35.9121 22.677059,-78.8808 l 22.762799,-78.125 1.4231,-0.12 c 1.40566,-0.1185 1.42084,-0.1042 1.23845,1.1718 -0.19164,1.3408 -14.617233,161.5813 -14.617233,162.3693 0,0.2453 -0.39551,0.4315 -0.87891,0.4138 -0.48339,-0.018 -7.998043,-1.3915 -16.699215,-3.0528 z"
     id="path931" />
  <path
     style="opacity:0.71;fill:#7d00fc;fill-opacity:0.991643;stroke:#000000;stroke-width:0;stroke-miterlimit:4;stroke-dasharray:none"
     d="m 133.41916,1157.1969 c -0.30471,-1.5267 -10.00616,-157.47485 -9.80871,-157.67225 0.1019,-0.1019 7.61454,-1.4523 16.69476,-3.0009 51.99664,-8.8675 61.6427,-10.4608 61.88215,-10.2213 0.14536,0.1453 -9.18519,25.50615 -20.73454,56.35755 -18.14353,48.466 -22.66302,60.1116 -33.23773,85.645 -12.23434,29.5408 -12.23933,29.5518 -13.42734,29.6732 -0.97675,0.1 -1.22053,-0.039 -1.36859,-0.7813 z"
     id="path933" />
  <path
     style="opacity:0.71;fill:#7d00fc;fill-opacity:0.991643;stroke:#000000;stroke-width:0;stroke-miterlimit:4;stroke-dasharray:none"
     d="m 9.7459893,1179.8542 c 8.86e-4,-0.7119 1.7586997,-26.9533 3.9062497,-58.3142 2.147549,-31.361 3.904635,-57.2278 3.904635,-57.4818 0,-0.254 20.636369,-13.1351 45.858598,-28.6246 42.518508,-26.1115 47.928678,-29.2606 47.881458,-27.8698 -0.005,0.1611 -22.318595,39.2285 -49.584716,86.8164 -47.896692,83.5947 -49.615268,86.5276 -50.771303,86.6459 -1.1191087,0.1144 -1.1964317,0.039 -1.1949217,-1.1719 z"
     id="path935" />
  <path
     style="opacity:0.71;fill:#7d00fc;fill-opacity:0.991643;stroke:#000000;stroke-width:0;stroke-miterlimit:4;stroke-dasharray:none"
     d="m 121.0725,982.89025 c 0,-0.1528 -17.90463,-116.421 -26.112302,-169.5668 l -0.30196,-1.9552 54.424202,-10.3108 c 29.93331,-5.6709 54.52139,-10.2136 54.64017,-10.0948 0.11878,0.1188 -17.86248,43.3436 -39.95836,96.0551 l -40.17433,95.8391 -1.25871,0.1224 c -0.69229,0.067 -1.25871,0.027 -1.25871,-0.089 z"
     id="path937" />
  <path
     style="opacity:0.71;fill:#7d00fc;fill-opacity:0.991643;stroke:#000000;stroke-width:0;stroke-miterlimit:4;stroke-dasharray:none"
     d="m 209.76135,960.71365 c 0.0754,-26.5818 1.48909,-171.0947 1.67551,-171.2811 0.13095,-0.1309 24.63281,-4.8616 54.44858,-10.5126 29.81578,-5.651 54.71379,-10.3725 55.32892,-10.4921 1.03914,-0.2022 1.10655,-0.1415 0.95094,0.8557 -0.0921,0.5903 -9.69339,15.8864 -21.33617,33.9913 l -21.16869,32.9181 -33.76872,65.1288 c -33.00678,63.6593 -33.79555,65.1316 -34.95803,65.2512 l -1.18931,0.1224 z"
     id="path939" />
  <path
     style="opacity:0.71;fill:#7d00fc;fill-opacity:0.991643;stroke:#000000;stroke-width:0;stroke-miterlimit:4;stroke-dasharray:none"
     d="m 20.006229,1029.5056 c 0.0031,-0.7119 1.05499,-16.3236 2.33743,-34.69265 l 2.331707,-33.3985 4.429439,-20.3527 c 2.436192,-11.1939 4.654785,-20.5982 4.930206,-20.8984 0.275422,-0.3001 9.691555,-17.4207 20.92474,-38.0457 l 20.423971,-37.5 1.444415,-0.1233 c 1.354156,-0.1156 1.425976,-0.067 1.14932,0.7812 -0.162301,0.4975 -12.71984,42.3889 -27.905643,93.0921 l -27.610552,92.18745 -1.230377,0.1224 c -1.158096,0.1152 -1.230041,0.046 -1.224656,-1.1719 z"
     id="path941" />
  <path
     style="opacity:0.71;fill:#7d00fc;fill-opacity:0.991643;stroke:#000000;stroke-width:0;stroke-miterlimit:4;stroke-dasharray:none"
     d="m 370.94316,492.71673 c -24.66081,-1.81584 -54.9498,-4.01711 -75.40631,-5.48021 l -12.1534,-0.86924 -0.078,-0.82813 -0.078,-0.82812 39.02408,-12.50063 c 21.46324,-6.87535 39.15599,-12.49975 39.31723,-12.49867 0.50423,0.003 34.78115,33.66851 34.87423,34.25177 0.11182,0.70076 2.60448,0.82263 -25.49991,-1.24677 z"
     id="path943" />
  <path
     style="opacity:0.71;fill:#9600c9;fill-opacity:0.980501;stroke:#000000;stroke-width:0;stroke-miterlimit:4;stroke-dasharray:none"
     d="m 166.5875,767.75835 c 0.2503,-2.5395 1.73644,-3.4568 101.4259,-62.60117 69.60405,-41.29515 101.86936,-60.03088 103.40726,-60.04626 2.09227,-0.0209 2.2079,0.1402 1.80612,2.51671 -0.23609,1.39649 -1.92971,17.83203 -3.76359,36.52344 l -3.33432,33.98438 -19.11277,21.4844 c -10.51202,11.8164 -19.66808,21.5743 -20.3468,21.6842 -1.14753,0.1858 -129.27262,7.4464 -150.7068,8.5402 l -9.62903,0.4914 z"
     id="path945" />
  <path
     style="opacity:0.71;fill:#7d00fb;fill-opacity:0.972145;stroke:#000000;stroke-width:0;stroke-miterlimit:4;stroke-dasharray:none"
     d="m 383.187,621.83517 c -0.005,-0.53171 5.14775,-27.13108 11.45098,-59.10971 11.01906,-55.90377 11.50687,-58.14296 12.66661,-58.14296 1.36894,0 50.62693,39.57872 50.33774,40.44629 -0.097,0.291 -16.17343,17.909 -35.72541,39.15111 -31.20403,33.9014 -35.74287,38.62202 -37.13477,38.62202 -1.13832,0 -1.58838,-0.27276 -1.59515,-0.96675 z"
     id="path947" />
  <path
     style="opacity:0.71;fill:#009f00;fill-opacity:0.983287;stroke:#000000;stroke-width:0;stroke-miterlimit:4;stroke-dasharray:none"
     d="m 143.22454,761.78205 c -0.26787,-0.7029 -12.61015,-31.3577 -27.42729,-68.1217 -14.81714,-36.76403 -27.028065,-67.46517 -27.135388,-68.22476 -0.174078,-1.23205 1.369648,-2.55092 14.307498,-12.22345 7.97645,-5.96331 44.80981,-33.6192 81.85191,-61.45752 57.9296,-43.53596 67.60693,-50.61514 69.1915,-50.61514 1.01323,0 1.84223,0.1518 1.84223,0.33733 0,0.18553 -7.19346,16.28188 -15.98547,35.76966 -15.73611,34.87963 -16.29547,36.24665 -35.85901,87.6367 -17.70475,46.50731 -21.88415,56.87655 -38.29754,95.01747 l -18.424,42.81311 -1.78871,0.1731 c -1.44539,0.1399 -1.88218,-0.072 -2.27573,-1.1048 z"
     id="path949" />
  <path
     style="opacity:0.71;fill:#00a3cb;fill-opacity:0.991643;stroke:#000000;stroke-width:0;stroke-miterlimit:4;stroke-dasharray:none;filter:url(#filter977)"
     d="m 93.225256,801.24555 c -0.167166,-0.8356 -1.919458,-12.3329 -3.893983,-25.5498 l -3.590047,-24.0305 0.673634,-52.75684 0.673633,-52.7568 1.709114,-0.16667 1.709113,-0.16667 25.55172,63.5234 c 14.05345,34.93788 25.40719,63.75728 25.23053,64.04308 -0.17666,0.2859 -10.36465,7.0133 -22.63997,14.9498 -14.24219,9.2083 -22.825592,14.4302 -23.719295,14.4302 -1.085866,0 -1.468797,-0.3413 -1.704449,-1.5192 z"
     id="path951" />
  <path
     style="opacity:0.71;fill:#00a3cb;fill-opacity:0.991643;stroke:#000000;stroke-width:0;stroke-miterlimit:4;stroke-dasharray:none"
     d="m 40.431064,889.94515 c 0.01247,-0.7029 2.193319,-11.2941 4.846337,-23.5361 l 4.823669,-22.258 13.464937,-10.1971 c 10.429865,-7.8985 13.833522,-10.197 15.100145,-10.197 1.092197,0 1.540371,0.2293 1.349616,0.6905 -0.157075,0.3798 -8.363717,15.4818 -18.23698,33.56 -17.371211,31.8071 -18.006638,32.875 -19.66089,33.0425 -1.473375,0.1492 -1.70637,0 -1.686834,-1.1048 z"
     id="path981" />
  <path
     style="opacity:0.71;fill:#00a3cb;fill-opacity:0.991643;stroke:#000000;stroke-width:0;stroke-miterlimit:4;stroke-dasharray:none"
     d="m 386.70345,476.45775 c -12.73819,-12.51742 -17.21808,-17.15289 -17.30564,-17.90662 -0.10848,-0.9339 0.0671,-1.06817 2.14844,-1.64327 16.19355,-4.47441 98.7206,-26.44129 99.33691,-26.44129 0.68286,0 0.80894,0.19976 0.70832,1.12231 -0.1015,0.93069 -5.74843,6.28289 -33.07384,31.34765 -19.22382,17.63342 -33.3004,30.26399 -33.78907,30.31809 -0.63428,0.0702 -5.00992,-4.00725 -18.02512,-16.79687 z"
     id="path983" />
  <path
     style="opacity:0.71;fill:#009f00;fill-opacity:0.983287;stroke:#000000;stroke-width:0;stroke-miterlimit:4;stroke-dasharray:none"
     d="m 434.94564,518.8619 c -20.57433,-16.69503 -24.82467,-20.3078 -24.92185,-21.18347 -0.10521,-0.94794 3.37848,-4.26273 34.1283,-32.47363 29.80289,-27.34214 34.4186,-31.43375 35.57995,-31.53996 1.21876,-0.11147 1.31597,-0.0437 1.12107,0.78125 -0.11737,0.49681 -4.34121,23.84274 -9.38631,51.87985 -5.0451,28.03711 -9.26516,51.37207 -9.37791,51.85547 -0.51175,2.19398 -1.48109,1.50404 -27.14325,-19.31951 z"
     id="path985" />
  <path
     style="opacity:0.71;fill:#00a3cb;fill-opacity:0.986072;stroke:#000000;stroke-width:0;stroke-miterlimit:4;stroke-dasharray:none"
     d="m 395.50041,634.27204 c -7.93217,-0.2508 -8.00782,-0.27147 -8.00782,-2.18774 0,-1.46267 8.0307,-10.65081 32.92288,-37.66798 28.8343,-31.29582 33.23211,-35.76256 35.41295,-35.96793 l 2.49008,-0.23449 -5.0728,27.91253 -5.07281,27.91253 1.75487,8.65009 c 0.96518,4.75754 1.94007,9.4411 2.16642,10.40789 l 0.41155,1.75782 -24.49875,-0.16477 c -13.47432,-0.0906 -28.10228,-0.2787 -32.50657,-0.41795 z"
     id="path987" />
  <path
     style="opacity:0.71;fill:#00a3cb;fill-opacity:0.986072;stroke:#000000;stroke-width:0;stroke-miterlimit:4;stroke-dasharray:none"
     d="m 372.2371,712.49148 c 0.11528,-0.69825 1.61892,-15.59571 3.34143,-33.10547 1.72251,-17.50977 3.22616,-32.40723 3.34143,-33.10547 0.18,-1.09024 0.36863,-1.26953 1.33572,-1.26953 0.95943,0 4.28421,3.07418 22.46179,20.76883 15.49345,15.08181 21.30385,20.97309 21.21946,21.51478 -0.0865,0.55524 -6.47929,4.03397 -25.00376,13.60618 -13.82651,7.14461 -25.33602,12.86021 -25.89661,12.86021 -0.921,0 -0.99076,-0.11079 -0.79946,-1.26953 z"
     id="path989" />
  <path
     style="opacity:0.71;fill:#009f00;fill-opacity:0.983287;stroke:#000000;stroke-width:0;stroke-miterlimit:4;stroke-dasharray:none"
     d="m 406.69098,662.08894 c -16.95971,-16.50747 -21.37656,-20.94815 -21.44529,-21.56096 l -0.0865,-0.77177 2.57248,0.0126 c 9.83706,0.0482 63.79281,0.76622 63.86337,0.84992 0.0483,0.0573 -4.91115,9.55074 -11.02106,21.09646 -9.97335,18.84638 -11.18126,21.00096 -11.81657,21.07759 -0.60645,0.0731 -3.76188,-2.88744 -22.06638,-20.70384 z"
     id="path993" />
  <path
     style="opacity:0.71;fill:#656565;fill-opacity:0.958217;stroke:#000000;stroke-width:0;stroke-miterlimit:4;stroke-dasharray:none"
     d="m 790.56375,575.59138 0.0596,-0.67641 24.97889,-12.00176 c 13.73839,-6.60097 25.19171,-12.00176 25.45183,-12.00176 1.1752,0 0.57723,0.86622 -8.41703,12.19323 -7.7028,9.70059 -8.84133,11.05306 -9.375,11.13666 -0.33409,0.0523 -7.50685,0.49359 -15.93947,0.98057 -8.43261,0.48698 -15.66646,0.92152 -16.07522,0.96565 -0.7422,0.0801 -0.74311,0.0793 -0.68359,-0.59618 z"
     id="path999" />
  <path
     style="opacity:0.71;fill:#656565;fill-opacity:0.958217;stroke:#000000;stroke-width:0;stroke-miterlimit:4;stroke-dasharray:none"
     d="M 687.69366,608.77838 C 656.61327,589.06489 654.87484,587.90263 654.7615,586.76091 l -0.11965,-1.20535 3.24465,-0.22226 c 1.78456,-0.12224 11.94583,-0.40859 22.58059,-0.63634 22.45692,-0.48091 61.91745,-1.41524 75.87891,-1.79662 l 9.66797,-0.2641 v 0.89646 c 0,0.63428 -1.97062,2.90875 -6.73828,7.77725 -30.4522,31.09627 -37.64194,38.31039 -38.16706,38.2965 -0.33136,-0.009 -15.3681,-9.3814 -33.41497,-20.82807 z"
     id="path1001" />
  <path
     style="opacity:0.71;fill:#656565;fill-opacity:0.958217;stroke:#000000;stroke-width:0;stroke-miterlimit:4;stroke-dasharray:none"
     d="m 576.07256,667.78306 -17.87109,-3.14995 v -1.04503 c 0,-0.88916 5.2161,-5.77214 34.97333,-32.73973 30.21967,-27.3867 35.13482,-31.69472 36.16145,-31.69472 0.87517,0 1.15486,0.16237 1.06183,0.61642 -0.0695,0.33904 -7.94856,16.50403 -17.50911,35.92222 -14.58326,29.6197 -17.50864,35.30056 -18.16406,35.27328 -0.42969,-0.0179 -8.82325,-1.45001 -18.65235,-3.18249 z"
     id="path1003" />
  <path
     style="opacity:0.71;fill:#656565;fill-opacity:0.958217;stroke:#000000;stroke-width:0;stroke-miterlimit:4;stroke-dasharray:none"
     d="m 441.01397,673.48472 c 0,-0.62611 3.4599,-7.61718 8.45781,-17.08985 4.6518,-8.81666 8.48118,-16.06573 8.50973,-16.10903 0.16916,-0.25659 41.58952,-12.22504 42.3098,-12.22545 0.70585,-4.1e-4 0.87891,0.21856 0.87891,1.11206 0,1.01504 -2.55122,3.0524 -29.10437,23.24219 -20.44306,15.54396 -29.39416,22.12962 -30.07813,22.12962 -0.79859,0 -0.97375,-0.19059 -0.97375,-1.05954 z"
     id="path1005" />
  <path
     style="opacity:0.71;fill:#656565;fill-opacity:0.958217;stroke:#000000;stroke-width:0;stroke-miterlimit:4;stroke-dasharray:none"
     d="m 352.09849,742.62335 c 0.005,-0.3035 1.85674,-2.459 9.21863,-10.7292 l 9.21273,-10.34953 13.99258,-7.22461 c 7.69592,-3.97353 14.14771,-7.2246 14.33733,-7.2246 0.30494,0 0.33975,0.0512 0.30147,0.44301 -0.0404,0.41389 -1.56369,1.59417 -23.17112,17.95393 -17.87403,13.533 -23.21527,17.5108 -23.51268,17.5108 -0.32918,0 -0.38398,-0.055 -0.37894,-0.3798 z"
     id="path1009" />
  <path
     style="opacity:0.71;fill:#656565;fill-opacity:0.958217;stroke:#000000;stroke-width:0;stroke-miterlimit:4;stroke-dasharray:none"
     d="m 47.873429,837.77665 c -0.153147,-0.2417 -8.63662,-14.5699 -18.85216,-31.8405 -11.750452,-19.8656 -18.573712,-31.5866 -18.573712,-31.9061 0,-0.4561 0.06154,-0.4973 0.634766,-0.4247 0.349121,0.044 17.356941,8.1178 37.795154,17.9413 31.973032,15.3676 37.153268,17.9147 37.109376,18.2465 -0.0613,0.4634 -36.929739,28.423 -37.479467,28.423 -0.195532,0 -0.480813,-0.1978 -0.633957,-0.4395 z"
     id="path1011" />
  <path
     style="opacity:0.71;fill:#7b3001;fill-opacity:0.958217;stroke:#000000;stroke-width:0;stroke-miterlimit:4;stroke-dasharray:none"
     d="m 669.92178,578.74237 0.0865,-0.86039 43.50364,-12.77463 c 23.92701,-7.02604 59.88123,-17.58485 79.89827,-23.46401 l 36.39463,-10.68938 8.14481,5.18232 c 6.39062,4.06617 8.14299,5.30437 8.13632,5.74903 -0.007,0.47817 -5.65928,3.2789 -36.17588,17.92582 l -36.16738,17.35911 -38.33274,0.92239 c -21.083,0.50731 -43.49102,1.05561 -49.7956,1.21843 -6.30457,0.16283 -12.43403,0.29507 -13.62102,0.29387 l -2.15815,-0.002 z"
     id="path1013" />
  <path
     style="opacity:0.71;fill:#7b3001;fill-opacity:0.958217;stroke:#000000;stroke-width:0;stroke-miterlimit:4;stroke-dasharray:none"
     d="m 603.07809,668.29933 c 0.0476,-0.43814 8.97373,-18.82797 19.83583,-40.8663 16.61486,-33.71022 19.83985,-40.07179 20.31998,-40.08299 0.31389,-0.007 16.41023,10.02521 35.76966,22.29451 26.95949,17.08595 35.21876,22.44594 35.28356,22.89786 0.0734,0.5118 -0.20134,0.68416 -2.0716,1.29967 -18.30529,6.02433 -108.53461,35.25388 -108.82595,35.25388 -0.27457,0 -0.37118,-0.2471 -0.31148,-0.79663 z"
     id="path1015" />
  <path
     style="opacity:0.71;fill:#7b3001;fill-opacity:0.958217;stroke:#000000;stroke-width:0;stroke-miterlimit:4;stroke-dasharray:none"
     d="m 535.90664,642.13211 c -8.8453,-11.95902 -14.25353,-19.50676 -14.30043,-19.95774 l -0.0754,-0.72526 52.66289,-15.44444 c 28.96459,-8.49444 52.9657,-15.50233 53.33579,-15.57307 0.60654,-0.11595 0.6641,-0.0465 0.58365,0.7046 -0.0768,0.71733 -5.40473,5.64957 -38.30506,35.46045 -28.02249,25.39108 -38.41062,34.64598 -38.94612,34.69758 -0.66879,0.0644 -1.92819,-1.54923 -14.95529,-19.16212 z"
     id="path1017" />
  <path
     style="opacity:0.71;fill:#7b3001;fill-opacity:0.958217;stroke:#000000;stroke-width:0;stroke-miterlimit:4;stroke-dasharray:none"
     d="m 443.09887,682.0961 c 0,-0.95626 -2.33711,0.89896 25.82597,-20.50096 11.08998,-8.4268 26.19196,-19.90853 33.55995,-25.51495 8.97076,-6.82598 13.61855,-10.19649 14.06894,-10.20257 0.57288,-0.008 2.75213,2.79558 14.7015,18.91154 7.71591,10.40635 13.99167,19.04168 13.94613,19.18963 -0.0455,0.14795 -1.56507,0.54575 -3.37674,0.88399 -7.92729,1.48006 -98.39557,18.04386 -98.55206,18.04386 -0.0955,0 -0.17369,-0.36474 -0.17369,-0.81054 z"
     id="path1019" />
  <path
     style="opacity:0.71;fill:#7b3001;fill-opacity:0.958217;stroke:#000000;stroke-width:0;stroke-miterlimit:4;stroke-dasharray:none"
     d="m 50.323148,786.40725 c -36.243626,-17.4343 -36.32227,-17.474 -36.40688,-18.3402 -0.06316,-0.6466 0.04256,-0.9038 0.414321,-1.0083 2.007877,-0.5642 66.183245,-11.5291 66.352995,-11.3369 0.11822,0.1338 1.796038,10.8084 3.728489,23.7214 1.932448,12.913 3.575648,23.6957 3.651554,23.9616 0.108279,0.3792 -0.02963,0.4824 -0.640191,0.4789 -0.455559,0 -15.837396,-7.2483 -37.100288,-17.4765 z"
     id="path1021" />
  <path
     style="opacity:0.71;fill:#7b3001;fill-opacity:0.958217;stroke:#000000;stroke-width:0;stroke-miterlimit:4;stroke-dasharray:none"
     d="m 24.082857,835.25935 -15.8822807,-3.0901 -0.07733,-1.3656 c -0.08403,-1.4841 -2.2704877,-50.3139 -2.2704877,-50.7065 0,-0.1318 0.3598542,-0.2395 0.7996759,-0.2395 0.7679958,0 1.4737798,1.139 17.8157765,28.7533 9.358855,15.8144 17.0161,28.9897 17.0161,29.2786 0,0.3969 -0.185753,0.5173 -0.759587,0.4926 -0.417773,-0.018 -7.906614,-1.4232 -16.641869,-3.1228 z"
     id="path1023" />
</svg>
