<?xml version="1.0" encoding="UTF-8" standalone="no"?>
<svg
   xmlns:dc="http://purl.org/dc/elements/1.1/"
   xmlns:cc="http://creativecommons.org/ns#"
   xmlns:rdf="http://www.w3.org/1999/02/22-rdf-syntax-ns#"
   xmlns:svg="http://www.w3.org/2000/svg"
   xmlns="http://www.w3.org/2000/svg"
   viewBox="0 0 852 1608"
   height="1608"
   width="852"
   id="svg883"
   version="1.1">
  <metadata
     id="metadata889">
    <rdf:RDF>
      <cc:Work
         rdf:about="">
        <dc:format>image/svg+xml</dc:format>
        <dc:type
           rdf:resource="http://purl.org/dc/dcmitype/StillImage" />
        <dc:title></dc:title>
      </cc:Work>
    </rdf:RDF>
  </metadata>
  <defs
     id="defs887" />
  <g
     style="opacity:0.8"
     id="g891" />
  <g
     id="layer1">
    <path
       id="path1169"
       style="fill:none;stroke:#000000;stroke-width:2.89133858;stroke-linecap:butt;stroke-linejoin:miter;stroke-opacity:1;stroke-miterlimit:4;stroke-dasharray:none"
       d="m 57.046062,1396.0324 74.580018,49.8799 13.90881,-70.2635 m -92.805357,75.5393 4.316529,-55.1557 m 9.352475,73.8606 65.227543,-23.9807 -78.896547,5.2758 -8.153442,-57.7935 m -35.7312637,72.6615 v 0 l 30.4555067,-6.235 -30.6953137,-6.235 m 44.1245127,-2.398 -13.429199,8.633 -29.7360857,-44.8439 m 73.8605987,-113.9084 -75.5392487,33.573 36.6904927,58.7528 v 0 l -35.0118427,21.5826 43.1652847,36.2109 13.669004,18.7049 -27.098203,-10.0719 -15.10785,22.5419 v 0 m 59.232363,-181.2942 -26.378785,94.9636 -12.469971,-2.6378 z m 36.210873,47.4818 25.89917,27.0982 -88.488828,20.3836 z m 29.97589,14.3884 13.90882,7.1943 -17.98554,5.5155 z m 27.09821,-55.1556 -57.0741,40.7672 29.97589,14.3884 z m -148.920229,-19.1846 55.635256,12.47 36.210873,47.4818 -10.79132,-66.1868 v 0 m -40.767213,-18.4651 40.767213,18.4651 -25.419553,18.705 z m 108.632633,43.8847 -67.86542,-25.4196 17.98554,-15.8272 m -58.752753,-2.6379 58.752753,2.6379 49.87988,41.2468 -15.34766,-45.0837 47.96143,-8.6331 m -107.91321,-108.6326 88.72864,42.9254 m -48.44104,-99.0403 48.44104,99.0403 m -28.77686,74.3403 -34.53222,3.8369 63.30908,-78.1772 -114.388003,22.3021 50.839113,55.6353 0.23981,0.2398 m 63.30908,-78.1772 22.06226,36.9303 -50.83912,37.41 z m 29.25647,-62.3498 -29.25647,62.3498 47.96143,-19.6641 v 0 m -225.418709,112.2297 15.10785,7.6738 -19.9039927,46.043 m 60.1915887,-70.7431 -40.287596,24.7001 -3.597107,-57.5537 m 77.217896,-85.6111 -25.659363,65.2275 -51.558533,20.3836 43.884703,32.8536 7.67383,-53.2372 m -9.35248,-83.2131 35.011843,17.9856 -35.971073,12.7097 10.31171,52.5178 -40.04779,-16.0671 m 202.397223,-25.8991 -18.70496,-42.6857 -77.69751,-36.6905 -40.2876,56.1149 -7.194213,-66.4266 m 188.008793,33.0934 v 0 l -62.82947,13.9088 -3.59711,-80.0956 66.42658,66.1868 m 546.76028,-310.79 -3.83692,52.75757 m -49.87988,-35.01185 49.87988,35.01185 28.05744,-32.61377 m -77.93732,-2.39808 -1.91846,39.80799 v 0 m 0,0 -19.18457,-35.25165 -35.97107,47.0022 -47.24201,-1.91846 40.2876,-32.85358 6.95441,34.77204 m -65.22754,56.35468 17.98553,-58.27314 16.54669,47.48182 30.69532,-45.56336 -0.47962,37.1701 v 0 m -64.74792,19.18458 -44.36432,-33.09339 v 0 m -41.00702,-15.82727 41.00702,15.82727 62.34985,-25.17975 -8.15344,-18.46515 -54.19641,43.6449 M 548.8905,996.99342 v 0 l 48.92066,-52.51776 -18.94477,-14.62824 -26.13898,7.43402 45.08375,7.19422 m -89.68787,-48.92066 44.60412,41.72644 14.86805,-59.23236 11.27093,51.79834 29.73609,-35.97107 -10.79132,50.59931 49.87988,-15.58747 v 0 m -158.0329,19.18457 59.23236,48.92066 3.83691,-59.71198 z m 18.46515,-52.51776 -18.46515,52.51776 -75.77906,95.20344 m 20.62341,-87.04999 z m 23.2613,-48.44105 31.89435,40.2876 -55.15565,8.15345 m 0,0 -20.62341,87.04999 m -109.35205,31.4147 -5.99518,9.5922 43.6449,-39.3283 71.70233,-1.6786 -38.60895,-53.23719 v 0 m -44.12451,42.92549 44.12451,-42.92549 -33.09338,54.91579 z m 0,0 -26.61859,41.7264 m 30.21569,-103.83646 -3.5971,62.11006 -80.81501,-39.56819 m 0,0 -34.53223,52.51769 88.72865,28.7769 z m -99.99957,35.97109 3.11749,20.3835 -11.75055,39.5682 74.1004,-43.4051 -7.19421,-34.2923 -55.15564,38.1292 v 0 m -36.45069,5.7554 36.45069,-5.7554 -11.51074,-19.4243 v 0 m -24.93995,25.1797 -22.781673,23.5011 47.481813,10.3117 z m -67.625606,-14.3883 -41.4866357,1.9184 39.8079857,62.11 z m 70.023676,-70.98298 -32.853573,49.87988 55.395453,10.3117 -24.93995,25.1797 -30.455503,-35.4914 7.67383,58.9925 -44.843933,-37.8894 37.170103,-21.1031 m 32.853573,-49.87988 30.93513,59.23238 -8.39325,0.9592 z m -39.568173,1.91846 39.568173,-1.91846 59.95179,-9.83209 -29.01666,69.06447 58.27313,-17.7457 M 179.3477,960.30293 141.69798,937.28144 119.39591,970.13502 85.822917,933.44453 m 111.510313,11.75055 v 0 l -48.44104,-14.62824 30.45551,29.73609 m 17.98553,-15.10785 15.10785,-55.15564 m -15.10785,55.15564 11.27094,66.42662 -29.25647,-51.31877 z m 11.27094,66.42662 41.72644,-18.22539 -8.63305,-38.36914 -7.19422,-35.73126 -37.17011,25.89917 44.36433,9.83209 z m 3.83691,-121.58226 22.06226,29.25647 13.4292,-4.07672 m 83.45288,-10.55152 3.3573,66.18677 -86.81018,-55.63525 -6.23498,39.80798 93.04516,15.82727 -84.41211,22.54187 m 103.35688,-37.64972 21.58264,34.29242 -40.52741,-19.18457 z m -22.78168,-50.83911 22.78168,50.83911 h 33.33319 l 4.31653,-35.97107 m -142.20563,-67.62561 48.92065,25.41956 -50.11969,37.64972 82.97327,-10.31171 -32.85358,-27.33801 73.14118,-24.93995 -39.80799,52.03815 51.31873,2.87769 -29.01666,48.20123 37.64972,-35.97107 m -142.20563,-67.62561 -36.6905,37.88953 35.49146,25.17975 z m -81.53443,-18.94476 44.84393,56.83429 26.37879,-59.23237 10.31171,21.34284 14.38842,-18.46515 m -114.86761,19.18457 0.2398,77.69751 63.54889,-40.5274 z m -62.829473,80.5752 55.875063,3.83691 7.19421,-6.7146 -40.2876,-57.3139 m 40.0478,-20.38361 -40.0478,20.38361 33.09339,64.0285 -54.196413,-43.8847 m 28.297243,-74.10041 32.85358,33.573 18.94476,-19.66418 v 0 m 63.7887,-46.7624 v 0 l -63.7887,46.7624 71.22272,-2.39808 -7.43402,-44.36432 -70.74311,7.19422 -44.84393,25.65936 51.31873,14.14862 -6.4748,-39.80798 m 70.74311,-7.19422 -59.71198,-34.53222 -50.59931,27.33801 39.56818,14.38843 11.03113,-41.72644 m 0,0 63.30909,-3.83692 m -91.12672,-14.38843 27.81763,18.22535 -14.14862,-48.44105 v 0 m 205.51472,122.78126 -64.98774,51.31873 -34.53223,-43.88471 -24.70013,-2.87769 29.01666,-37.40991 v 0 m 95.20344,32.85358 -95.20344,-32.85358 -4.31653,40.2876 z m 71.46252,129.97547 -43.16528,-36.45069 60.6712,-36.9303 v 0 m 5.75538,24.93994 -23.2613,48.44105 -59.23236,33.8128 11.75055,-34.29242 4.31653,-35.97107 z m -75.05964,-0.2398 69.30426,-24.70014 -60.6712,36.9303 z m 7.19422,-50.83911 -18.70496,-4.07673 11.51074,54.91584 z m -26.8584,-30.45551 8.15344,26.37878 29.73608,-25.65936 m 0,0 51.07892,55.87506 -62.11004,-26.13897 z m 11.99036,-60.19159 -11.99036,60.19159 66.42658,-25.89917 z m -30.2157,-5.99518 -19.66418,65.46735 37.88952,0.71942 z m -108.15302,-27.09821 -6.7146,59.71198 30.2157,-37.64972 64.98774,70.5033 -39.56818,-88.96845 m -165.94654,-33.81281 77.45771,44.60413 -3.59711,38.36914 36.45068,6.95441 -32.85357,-45.32355 v 0 m 239.08771,22.30207 -61.15082,-3.59711 -30.2157,-5.99518 -59.23236,-23.5011 -25.41956,18.46515 -23.5011,-22.06226 -39.56817,14.38843 3.5971,-55.63525 v 0 m 184.6515,-32.37397 62.34985,54.91584 -77.93732,37.1701 5.27576,14.62824 64.50812,-13.4292 -69.78388,-1.19904 -24.93994,8.63306 -11.75055,-38.36914 m -62.82947,-59.23237 -33.573,70.5033 48.92066,3.59711 47.48181,-14.86804 36.69049,29.73608 15.58747,-92.08594 63.30908,36.69049 -21.34283,-37.1701 v 0 m -307.67256,43.8847 81.05481,-11.03112 35.97107,41.24682 8.63306,-69.78387 m 140.04737,-3.83692 -85.13154,7.43402 -29.97589,-4.31653 15.34766,74.10041 14.62823,-69.78388 m 85.13154,-7.43402 -10.31171,-29.73608 -74.81983,37.1701 32.85358,54.91584 z m -166.42616,-23.02148 -18.22534,55.39545 44.60413,-28.53705 24.93994,-0.71943 v -36.21087 l 29.97589,40.5274 9.35248,-47.48181 v 0 m -139.32794,10.31171 -17.50593,7.43402 47.96143,54.67603 z m 204.79529,0 -65.46735,-10.31171 -39.32837,6.95441 -24.93994,36.9303 -26.37879,-26.8584 -48.68084,-6.7146 14.14862,-57.0741 m 49.40027,27.0982 36.45068,26.6186 m 104.79572,3.3573 -59.23236,-29.49628 -6.23499,19.18457 -38.12933,-46.04297 -38.12934,26.37878 30.45551,-37.40991 -36.21088,0.95923 v 0 l 6.23499,36.45068 -49.40027,-27.0982 34.53222,63.7887 51.31873,-10.0719 1.19904,-52.99738 m 0,0 44.36432,26.8584 70.7431,-4.55634 m 2.15827,-62.34985 -72.90137,66.90619 -14.86804,-70.5033 -29.49628,43.6449 -7.67383,-11.03113 m -36.21088,0.95923 -43.16528,9.35248 m 67.62561,-57.79352 -24.46033,48.44104 3.3573,-85.85096 m 70.02369,52.27796 -48.92066,-14.86804 11.75055,47.48181 z m 87.76941,3.59711 -87.76941,-3.59711 17.0263,-25.89917 m 68.58484,91.84613 36.21088,25.41956 -47.72162,8.63306 z m 40.0478,-29.25647 -37.88953,-33.09338 -2.15827,62.34985 z m -3.83692,54.67603 -37.40991,38.36914 41.96625,-0.47961 m -4.55634,-37.88953 47.96143,26.13898 -43.40509,11.75055 z m 43.6449,-18.22534 -39.80798,-36.45069 -3.83692,54.67603 43.6449,-18.22534 m -33.09338,-73.62079 -6.7146,37.1701 18.46515,-4.31653 m 0,0 21.34283,40.76722 v 0 m -11.99036,-129.25605 -9.35247,88.48883 -11.75055,-32.85357 m -44.60413,4.07672 44.60413,-4.07672 m 0,0 -43.88471,-14.86805 -71.46253,-10.55151 70.74311,29.49628 0.71942,-18.94477 m -5.27576,-62.82947 5.27576,62.82947 44.36432,-28.53705 -0.47961,43.4051 21.10302,-55.63526 m -136.45026,30.2157 66.18677,-52.27796 m 70.26349,22.06226 -20.62341,12.23016 -18.46515,-56.11487 -31.17493,21.82245 49.40027,33.3332 m -63.06927,-91.12672 -54.91584,56.59449 68.58484,1.19903 z m -54.91584,56.59449 2.39807,53.47699 m -65.94696,11.03113 65.94696,-11.03113 -69.54407,-43.40509 m -17.50592,17.0263 17.50592,-17.0263 3.59711,54.43622 -21.10303,-37.40992 m 0,0 21.10303,-40.28759 63.54889,13.18939 -67.146,10.0719 3.59711,-23.26129 m 82.01404,-51.79835 -18.46515,64.98774 -22.06226,-61.63044 -41.48663,48.44105 -17.26611,-28.77686 m 0,0 58.75274,-19.66419 m 40.52741,-3.3573 -40.2876,3.3573 25.41956,-36.21087 -43.88471,0.47961 18.46515,35.73126 h -0.23981 m -0.2398,-61.87024 25.89917,25.65937 m 34.29242,-8.39325 v 0 l -27.33801,-16.7865 -6.95441,25.17975 m 88.24902,-49.64008 -32.85357,23.98071 h -81.29462 m 60.19159,17.26612 -34.29242,8.39325 14.86804,32.85357 v 0 m 19.42438,-41.24682 17.02631,49.64007 -36.45069,-8.39325 z m 17.02631,49.64007 29.49627,-56.83429 -25.41955,-10.0719 -21.10303,17.26612 46.52258,-7.19422 v 0 m 49.16047,73.62079 -33.81281,19.18457 -44.84393,-35.97107 z m 10.3117,23.2613 -5.03595,39.80798 -39.08856,-43.88471 z m 33.3332,-47.48182 -43.6449,24.22052 10.3117,23.2613 z m -92.80537,-49.40027 49.16047,73.62079 -5.51557,-77.2179 m -36.21088,-30.4555 -7.43402,34.05261 43.6449,-3.59711 m 0,0 49.16047,52.99738 m 7.67382,-69.06445 -7.67382,69.06445 m -41.00702,-64.26831 -8.15345,11.27093 -36.21088,-30.4555 44.12452,18.94476 48.92065,-4.55633 v 0 l -56.83429,16.30688 m 56.83429,-16.30688 40.2876,22.06225 v 0 m 86.33057,-50.83911 -86.33057,50.83911 23.02149,-36.45068 h -0.95923 m 138.12891,-27.81763 -200.47877,42.20606 -93.04517,-14.38843 -114.14819,23.98071 -58.51294,81.53443 -3.83692,69.06445 -147.7212,301.19777 -12.46997,94.0044 -21.103023,20.1438 -0.95923,36.45068 -6.7146,42.20606 6.7146,47.96142 -51.798339,12.47 -26.8583997,10.5515 -0.959228,65.2275 37.4099137,-0.9593 45.083743,-24.9399 -23.02149,45.0837 -0.95923,30.6953 -29.73608,36.4507 -11.510743,36.4507 -11.510743,49.8799 -4.7961427,53.7168 0.959229,75.7791 v 55.6352 l 15.3476567,16.3069 42.206053,-12.47 37.409923,8.6331 27.81762,-32.6138 31.65454,-71.9421 13.4292,-66.1868 32.61377,-53.7168 2.87769,-28.7769 25.89917,-56.5944 44.12451,-56.5945 16.30689,-27.8177 110.31128,-39.3283 140.04737,-47.96138 98.80054,-68.10523 70.02368,-21.10303 55.63526,-48.92065 51.79834,-4.79614 29.73609,7.67382 0.95922,-39.32837 -26.85839,-21.10302 -319.42311,94.00439 -51.79834,12.46997 -5.75538,-24.93994 15.34766,-79.61597 18.22534,-88.24902 0.95923,-18.22535 22.06226,-48.92065 -16.30689,-173.62037 38.36915,-87.2898 47.96142,-47.0022 z" />
  </g>
</svg>
