<?xml version="1.0" encoding="UTF-8" standalone="no"?>
<svg
   xmlns:dc="http://purl.org/dc/elements/1.1/"
   xmlns:cc="http://creativecommons.org/ns#"
   xmlns:rdf="http://www.w3.org/1999/02/22-rdf-syntax-ns#"
   xmlns:svg="http://www.w3.org/2000/svg"
   xmlns="http://www.w3.org/2000/svg"
   xmlns:sodipodi="http://sodipodi.sourceforge.net/DTD/sodipodi-0.dtd"
   xmlns:inkscape="http://www.inkscape.org/namespaces/inkscape"
   width="652.26147mm"
   height="309.65906mm"
   viewBox="0 0 652.26148 309.65906"
   version="1.1"
   id="svg8"
   inkscape:version="1.0 (4035a4f, 2020-05-01)"
   sodipodi:docname="racing-car.svg">
  <defs
     id="defs2" />
  <sodipodi:namedview
     id="base"
     pagecolor="#ffffff"
     bordercolor="#666666"
     borderopacity="1.0"
     inkscape:pageopacity="0.0"
     inkscape:pageshadow="2"
     inkscape:zoom="0.35"
     inkscape:cx="891.72342"
     inkscape:cy="57.32071"
     inkscape:document-units="mm"
     inkscape:current-layer="layer2"
     inkscape:document-rotation="0"
     showgrid="false"
     fit-margin-top="0"
     fit-margin-left="0"
     fit-margin-right="0"
     fit-margin-bottom="0"
     inkscape:window-width="1248"
     inkscape:window-height="755"
     inkscape:window-x="0"
     inkscape:window-y="23"
     inkscape:window-maximized="0" />
  <metadata
     id="metadata5">
    <rdf:RDF>
      <cc:Work
         rdf:about="">
        <dc:format>image/svg+xml</dc:format>
        <dc:type
           rdf:resource="http://purl.org/dc/dcmitype/StillImage" />
        <dc:title></dc:title>
      </cc:Work>
    </rdf:RDF>
  </metadata>
  <g
     inkscape:groupmode="layer"
     id="layer2"
     inkscape:label="sw"
     transform="translate(172.17262,49.973717)">
    <path
       style="fill:none;stroke:#000000;stroke-width:1;stroke-linecap:butt;stroke-linejoin:miter;stroke-miterlimit:4;stroke-dasharray:none;stroke-opacity:1"
       d="m 41.577373,257.77974 35.318012,-7.14835 166.241645,8.55263 185.48506,-19.24341 29.93419,-9.62171 20.84703,-18.70887 -6.41448,-8.01807 -4.2763,-48.10852 L 463.36712,123.4111 454.27995,95.080519 431.82932,71.560807 398.6879,57.6628 l -40.09043,8.018066 -10.69078,-5.345377 -88.19893,-73.231851 -36.34867,-11.759856 -37.95226,-3.207226 -1.06908,-10.156243 -25.12335,-11.225318 -1.60361,11.759856 -159.8271755,2.138151 -120.8058245,9.087167 -27.79603,3.741764 -19.77794,-11.759856 -1.06908,15.50162 8.55262,19.24341035 14.43256,-8.01809195 v -3.2072264 l 47.03943,-3.207226 26.192417,9.621705 -5.34539,28.330551"
       id="path1085"
       sodipodi:nodetypes="ccccccccccccccccccccccccccccccc" />
    <path
       style="fill:none;stroke:#000000;stroke-width:1;stroke-linecap:butt;stroke-linejoin:miter;stroke-miterlimit:4;stroke-dasharray:none;stroke-opacity:1"
       d="m 46.113099,152.70238 14.746128,7.05736 55.057513,63.61014 34.74503,6.41448 h 10.69078 l -4.2763,11.75986 -78.577226,-8.55263 z"
       id="path1087"
       sodipodi:nodetypes="cccccccc" />
    <path
       style="fill:none;stroke:#000000;stroke-width:1;stroke-linecap:butt;stroke-linejoin:miter;stroke-miterlimit:4;stroke-dasharray:none;stroke-opacity:1"
       d="m 161.35255,229.78436 -74.300922,-105.30419 28.865112,3.74177 68.95555,30.46872 -2.68779,21.22599"
       id="path1089"
       sodipodi:nodetypes="ccccc" />
    <path
       style="fill:none;stroke:#000000;stroke-width:1;stroke-linecap:butt;stroke-linejoin:miter;stroke-miterlimit:4;stroke-dasharray:none;stroke-opacity:1"
       d="m -121.95313,77.440748 25.123333,-14.432571 14.432555,1.603613 68.420998,56.12662 20.8470312,27.79601"
       id="path1091" />
    <path
       style="fill:none;stroke:#000000;stroke-width:1;stroke-linecap:butt;stroke-linejoin:miter;stroke-miterlimit:4;stroke-dasharray:none;stroke-opacity:1"
       d="m -10.234469,53.386472 26.192424,21.381561 21.916098,4.276328 4.81084,-4.276328 -2.138151,-67.3519091 -6.949017,-10.6907805 -15.454868,-5.7967826 14.920339,-9.1703078 12.294399,2.672695 9.087164,21.3815624 4.810851,67.3519206 5.345391,5.87993 41.159509,3.207234 173.72519,63.610145 64.67923,-5.34539 13.89801,-12.2944 4.27631,-17.63978 -14.43256,-50.246681"
       id="path1093"
       sodipodi:nodetypes="cccccccccccccccccc" />
    <path
       style="fill:none;stroke:#000000;stroke-width:1;stroke-linecap:butt;stroke-linejoin:miter;stroke-miterlimit:4;stroke-dasharray:none;stroke-opacity:1"
       d="M 54.444748,5.8125108 71.01547,-3.8091943 259.70776,-12.896362"
       id="path1095"
       sodipodi:nodetypes="ccc" />
    <path
       style="fill:none;stroke:#000000;stroke-width:1;stroke-linecap:butt;stroke-linejoin:miter;stroke-miterlimit:4;stroke-dasharray:none;stroke-opacity:1"
       d="m 105.7605,82.251587 55.05752,4.276302 146.4637,-9.621679 40.62497,-16.570721"
       id="path1097" />
    <path
       style="fill:none;stroke:#000000;stroke-width:1;stroke-linecap:butt;stroke-linejoin:miter;stroke-miterlimit:4;stroke-dasharray:none;stroke-opacity:1"
       d="m 317.43796,33.608524 5.87994,-2.672688 z"
       id="path1099" />
    <path
       style="fill:none;stroke:#000000;stroke-width:1;stroke-linecap:butt;stroke-linejoin:miter;stroke-miterlimit:4;stroke-dasharray:none;stroke-opacity:1"
       d="m 323.3179,30.935836 6.41445,-17.105233 22.9852,-3.207253 2.13815,12.828931 -16.03618,10.690781 -16.30344,5.345403"
       id="path1103" />
    <path
       style="fill:none;stroke:#000000;stroke-width:1;stroke-linecap:butt;stroke-linejoin:miter;stroke-miterlimit:4;stroke-dasharray:none;stroke-opacity:1"
       d="m 347.90669,60.335489 20.99804,19.795463 14.3631,46.113088 -6.04761,53.67261 56.69642,-19.65476 15.11906,-30.23809 2.26785,32.50594"
       id="path1105"
       sodipodi:nodetypes="ccccccc" />
    <path
       style="fill:none;stroke:#000000;stroke-width:1;stroke-linecap:butt;stroke-linejoin:miter;stroke-miterlimit:4;stroke-dasharray:none;stroke-opacity:1"
       d="m 449.0357,130.0238 -29.48215,12.09524 9.07143,-29.48215 18.14285,-10.20535 4.53572,60.0982"
       id="path1107"
       sodipodi:nodetypes="ccccc" />
    <path
       style="fill:none;stroke:#000000;stroke-width:1;stroke-linecap:butt;stroke-linejoin:miter;stroke-miterlimit:4;stroke-dasharray:none;stroke-opacity:1"
       d="m 377.22022,179.91665 -106.58927,8.31548 -88.44645,-8.31548"
       id="path1109"
       sodipodi:nodetypes="ccc" />
    <path
       style="fill:none;stroke:#000000;stroke-width:1;stroke-linecap:butt;stroke-linejoin:miter;stroke-miterlimit:4;stroke-dasharray:none;stroke-opacity:1"
       d="M 279.4857,145.86173 160.81802,86.527889"
       id="path1119" />
    <path
       style="fill:none;stroke:#000000;stroke-width:1;stroke-linecap:butt;stroke-linejoin:miter;stroke-miterlimit:4;stroke-dasharray:none;stroke-opacity:1"
       d="M 358.06293,128.22194 307.28172,76.90621"
       id="path1121" />
    <path
       style="fill:none;stroke:#000000;stroke-width:1;stroke-linecap:butt;stroke-linejoin:miter;stroke-miterlimit:4;stroke-dasharray:none;stroke-opacity:1"
       d="M 279.4857,145.86173 307.28172,76.90621"
       id="path1123" />
    <path
       style="fill:none;stroke:#000000;stroke-width:1;stroke-linecap:butt;stroke-linejoin:miter;stroke-miterlimit:4;stroke-dasharray:none;stroke-opacity:1"
       d="m 368.90473,80.130952 -6.5655,30.451208 20.9286,15.66188"
       id="path1125" />
    <path
       style="fill:none;stroke:#000000;stroke-width:1;stroke-linecap:butt;stroke-linejoin:miter;stroke-miterlimit:4;stroke-dasharray:none;stroke-opacity:1"
       d="m 377.22022,179.91665 -19.15729,-51.69471 1.01444,52.45067"
       id="path1127" />
    <path
       style="fill:none;stroke:#000000;stroke-width:1;stroke-linecap:butt;stroke-linejoin:miter;stroke-miterlimit:4;stroke-dasharray:none;stroke-opacity:1"
       d="m 344.16492,140.51633 14.91245,40.15626"
       id="path1129" />
    <path
       style="fill:none;stroke:#000000;stroke-width:1;stroke-linecap:butt;stroke-linejoin:miter;stroke-miterlimit:4;stroke-dasharray:none;stroke-opacity:1"
       d="m 359.07737,180.67259 -79.59167,-34.81086 -8.85475,42.3704"
       id="path1131" />
    <path
       style="fill:none;stroke:#000000;stroke-width:1;stroke-linecap:butt;stroke-linejoin:miter;stroke-miterlimit:4;stroke-dasharray:none;stroke-opacity:1"
       d="m 279.4857,145.86173 -94.61341,12.82893 85.75866,29.54147"
       id="path1133" />
    <path
       style="fill:none;stroke:#000000;stroke-width:1;stroke-linecap:butt;stroke-linejoin:miter;stroke-miterlimit:4;stroke-dasharray:none;stroke-opacity:1"
       d="M 115.91674,128.22194 105.7605,82.251587 184.87229,158.69066 109.61308,155.34821"
       id="path1137" />
    <path
       style="fill:none;stroke:#000000;stroke-width:1;stroke-linecap:butt;stroke-linejoin:miter;stroke-miterlimit:4;stroke-dasharray:none;stroke-opacity:1"
       d="M 105.7605,82.251587 87.051628,124.48017 64.601001,79.044361 77.429923,132.49826"
       id="path1139" />
    <path
       style="fill:none;stroke:#000000;stroke-width:1;stroke-linecap:butt;stroke-linejoin:miter;stroke-miterlimit:4;stroke-dasharray:none;stroke-opacity:1"
       d="M 64.600991,79.044361 42.684893,74.768033"
       id="path1141" />
    <path
       style="fill:none;stroke:#000000;stroke-width:1;stroke-linecap:butt;stroke-linejoin:miter;stroke-miterlimit:4;stroke-dasharray:none;stroke-opacity:1"
       d="M 42.684893,74.768033 54.444748,5.8125108 40.546742,7.4161239"
       id="path1143" />
    <path
       style="fill:none;stroke:#000000;stroke-width:1;stroke-linecap:butt;stroke-linejoin:miter;stroke-miterlimit:4;stroke-dasharray:none;stroke-opacity:1"
       d="M 33.597725,-3.2746566 45.357581,-15.56905"
       id="path1145" />
    <path
       style="fill:none;stroke:#000000;stroke-width:1;stroke-linecap:butt;stroke-linejoin:miter;stroke-miterlimit:4;stroke-dasharray:none;stroke-opacity:1"
       d="M 185.40683,-27.863444 71.01547,-3.8091943 45.357581,-15.56905"
       id="path1147"
       sodipodi:nodetypes="ccc" />
    <path
       style="fill:none;stroke:#000000;stroke-width:1;stroke-linecap:butt;stroke-linejoin:miter;stroke-miterlimit:4;stroke-dasharray:none;stroke-opacity:1"
       d="m 259.70776,-12.896362 -74.30093,-14.967082 -27.79604,-9.621705"
       id="path1149" />
    <path
       style="fill:none;stroke:#000000;stroke-width:1;stroke-linecap:butt;stroke-linejoin:miter;stroke-miterlimit:4;stroke-dasharray:none;stroke-opacity:1"
       d="M -148.68008,-7.5509846 -171.66526,-18.776303"
       id="path1151" />
    <path
       style="fill:none;stroke:#000000;stroke-width:1;stroke-linecap:butt;stroke-linejoin:miter;stroke-miterlimit:4;stroke-dasharray:none;stroke-opacity:1"
       d="m -171.66526,-18.776303 20.84702,-3.741764 2.13816,11.759856"
       id="path1153" />
    <path
       style="fill:none;stroke:#000000;stroke-width:1;stroke-linecap:butt;stroke-linejoin:miter;stroke-miterlimit:4;stroke-dasharray:none;stroke-opacity:1"
       d="m -101.64065,-13.965437 98.616825,-20.808394 188.430655,6.910387"
       id="path1155" />
    <path
       style="fill:none;stroke:#000000;stroke-width:1;stroke-linecap:butt;stroke-linejoin:miter;stroke-miterlimit:4;stroke-dasharray:none;stroke-opacity:1"
       d="M -3.0238276,-34.773831 33.063188,-18.241765"
       id="path1157" />
    <path
       style="fill:none;stroke:#000000;stroke-width:1;stroke-linecap:butt;stroke-linejoin:miter;stroke-miterlimit:4;stroke-dasharray:none;stroke-opacity:1"
       d="M -3.0238303,-34.773831 -75.448236,-4.343732 -62.74405,-4.53572"
       id="path1159" />
    <path
       style="fill:none;stroke:#000000;stroke-width:1;stroke-linecap:butt;stroke-linejoin:miter;stroke-miterlimit:4;stroke-dasharray:none;stroke-opacity:1"
       d="m -75.448238,-4.343732 7.412526,33.069926"
       id="path1161" />
    <path
       style="fill:none;stroke:#000000;stroke-width:1;stroke-linecap:butt;stroke-linejoin:miter;stroke-miterlimit:4;stroke-dasharray:none;stroke-opacity:1"
       d="m -46.113094,41.577377 35.878622,11.809095"
       id="path1163" />
    <path
       style="fill:none;stroke:#000000;stroke-width:1;stroke-linecap:butt;stroke-linejoin:miter;stroke-miterlimit:4;stroke-dasharray:none;stroke-opacity:1"
       d="M -10.234475,53.386472 -30.994053,35.529743"
       id="path1165" />
    <path
       style="fill:none;stroke:#000000;stroke-width:1;stroke-linecap:butt;stroke-linejoin:miter;stroke-miterlimit:4;stroke-dasharray:none;stroke-opacity:1"
       d="m 37.874053,79.044361 39.55587,53.453899 -31.316824,20.20412"
       id="path1167" />
    <path
       style="fill:none;stroke:#000000;stroke-width:1;stroke-linecap:butt;stroke-linejoin:miter;stroke-miterlimit:4;stroke-dasharray:none;stroke-opacity:1"
       d="M 77.429923,132.49826 60.859227,159.75974"
       id="path1169"
       sodipodi:nodetypes="cc" />
    <path
       style="fill:none;stroke:#000000;stroke-width:1;stroke-linecap:butt;stroke-linejoin:miter;stroke-miterlimit:4;stroke-dasharray:none;stroke-opacity:1"
       d="m 398.6879,57.6628 -29.78317,22.468152 59.72025,32.505938"
       id="path1175" />
    <path
       style="fill:none;stroke:#000000;stroke-width:1;stroke-linecap:butt;stroke-linejoin:miter;stroke-miterlimit:4;stroke-dasharray:none;stroke-opacity:1"
       d="m 398.6879,57.6628 48.07993,44.76874 -14.93851,-30.870733"
       id="path1177" />
    <path
       style="fill:none;stroke:#000000;stroke-width:1;stroke-linecap:butt;stroke-linejoin:miter;stroke-miterlimit:4;stroke-dasharray:none;stroke-opacity:1"
       d="m 446.76783,102.43154 21.9447,53.0519"
       id="path1179" />
    <path
       style="fill:none;stroke:#000000;stroke-width:1;stroke-linecap:butt;stroke-linejoin:miter;stroke-miterlimit:4;stroke-dasharray:none;stroke-opacity:1"
       d="m 472.98883,203.59196 -4.2763,-48.10852"
       id="path1181"
       sodipodi:nodetypes="cc" />
    <path
       style="fill:none;stroke:#000000;stroke-width:1;stroke-linecap:butt;stroke-linejoin:miter;stroke-miterlimit:4;stroke-dasharray:none;stroke-opacity:1"
       d="M 472.98883,203.59196 451.30355,162.52974"
       id="path1185" />
    <path
       style="fill:none;stroke:#000000;stroke-width:1;stroke-linecap:butt;stroke-linejoin:miter;stroke-miterlimit:4;stroke-dasharray:none;stroke-opacity:1"
       d="m 458.55628,230.3189 -7.25273,-67.78916"
       id="path1187" />
    <path
       style="fill:none;stroke:#000000;stroke-width:1;stroke-linecap:butt;stroke-linejoin:miter;stroke-miterlimit:4;stroke-dasharray:none;stroke-opacity:1"
       d="m 433.91664,160.26189 3.77976,46.86906"
       id="path1189" />
    <path
       style="fill:none;stroke:#000000;stroke-width:1;stroke-linecap:butt;stroke-linejoin:miter;stroke-miterlimit:4;stroke-dasharray:none;stroke-opacity:1"
       d="M 377.22022,179.91665 437.6964,207.13095 330.80144,250.09686 161.35255,229.78436 87.051628,124.48017"
       id="path1191"
       sodipodi:nodetypes="ccccc" />
    <path
       style="fill:none;stroke:#000000;stroke-width:1;stroke-linecap:butt;stroke-linejoin:miter;stroke-miterlimit:4;stroke-dasharray:none;stroke-opacity:1"
       d="m 182.1845,179.91665 -20.83195,49.86771"
       id="path1193" />
    <path
       style="fill:none;stroke:#000000;stroke-width:1;stroke-linecap:butt;stroke-linejoin:miter;stroke-miterlimit:4;stroke-dasharray:none;stroke-opacity:1"
       d="M 330.80144,250.09686 270.63095,188.23213"
       id="path1195"
       sodipodi:nodetypes="cc" />
    <path
       style="fill:none;stroke:#000000;stroke-width:1;stroke-linecap:butt;stroke-linejoin:miter;stroke-miterlimit:4;stroke-dasharray:none;stroke-opacity:1"
       d="M 359.07737,180.67259 330.80144,250.09686 182.1845,179.91665"
       id="path1197"
       sodipodi:nodetypes="ccc" />
    <path
       style="fill:none;stroke:#000000;stroke-width:1;stroke-linecap:butt;stroke-linejoin:miter;stroke-miterlimit:4;stroke-dasharray:none;stroke-opacity:1"
       d="m 157.07625,241.54422 -80.180865,9.08717 1.603639,-17.6398 -36.921651,24.78815"
       id="path1199"
       sodipodi:nodetypes="cccc" />
    <path
       style="fill:none;stroke:#000000;stroke-width:1;stroke-linecap:butt;stroke-linejoin:miter;stroke-miterlimit:4;stroke-dasharray:none;stroke-opacity:1"
       d="M 78.499024,232.99159 50.648798,212.42262"
       id="path1201" />
    <path
       style="fill:none;stroke:#000000;stroke-width:1;stroke-linecap:butt;stroke-linejoin:miter;stroke-miterlimit:4;stroke-dasharray:none;stroke-opacity:1"
       d="M 6.8707872,148.53442 30.238073,184.45238 23.43453,117.17262"
       id="path1205" />
    <path
       style="fill:none;stroke:#000000;stroke-width:1;stroke-linecap:butt;stroke-linejoin:miter;stroke-miterlimit:4;stroke-dasharray:none;stroke-opacity:1"
       d="m 34.017857,118.6845 -3.779784,65.76788 15.875027,-31.75"
       id="path1207" />
    <path
       style="fill:none;stroke:#000000;stroke-width:1;stroke-linecap:butt;stroke-linejoin:miter;stroke-miterlimit:4;stroke-dasharray:none;stroke-opacity:1"
       d="m 30.238073,184.45238 20.410725,27.97024"
       id="path1209" />
    <path
       style="fill:none;stroke:#000000;stroke-width:1;stroke-linecap:butt;stroke-linejoin:miter;stroke-miterlimit:4;stroke-dasharray:none;stroke-opacity:1"
       d="M 41.577373,257.77974 30.238073,184.45238 16.25298,243.03869"
       id="path1211" />
    <path
       style="fill:none;stroke:#000000;stroke-width:1;stroke-linecap:butt;stroke-linejoin:miter;stroke-miterlimit:4;stroke-dasharray:none;stroke-opacity:1"
       d="M 10.583315,221.49404 30.238073,184.45238 5.29167,173.86905"
       id="path1213" />
    <path
       style="fill:none;stroke:#000000;stroke-width:1;stroke-linecap:butt;stroke-linejoin:miter;stroke-miterlimit:4;stroke-dasharray:none;stroke-opacity:1"
       d="M -13.976247,120.73841 10.583315,221.49404"
       id="path1215" />
    <path
       style="fill:none;stroke:#000000;stroke-width:1;stroke-linecap:butt;stroke-linejoin:miter;stroke-miterlimit:4;stroke-dasharray:none;stroke-opacity:1"
       d="M 3.0237985,221.49404 -82.397244,64.61179 -98.27381,173.11307"
       id="path1217" />
    <path
       style="fill:none;stroke:#000000;stroke-width:1;stroke-linecap:butt;stroke-linejoin:miter;stroke-miterlimit:4;stroke-dasharray:none;stroke-opacity:1"
       d="m -145.14286,68.03571 10.58332,53.67261 -2.26784,-64.25594"
       id="path1219" />
    <path
       style="fill:none;stroke:#000000;stroke-width:1;stroke-linecap:butt;stroke-linejoin:miter;stroke-miterlimit:4;stroke-dasharray:none;stroke-opacity:1"
       d="m -125.48809,64.255952 -9.07145,57.452368 27.84077,47.67312"
       id="path1221" />
    <path
       style="fill:none;stroke:#000000;stroke-width:1;stroke-linecap:butt;stroke-linejoin:miter;stroke-miterlimit:4;stroke-dasharray:none;stroke-opacity:1"
       d="m -128.3676,185.68488 -6.19194,-63.97656 -7.70608,50.88038"
       id="path1223" />
    <path
       style="fill:none;stroke:#000000;stroke-width:1;stroke-linecap:butt;stroke-linejoin:miter;stroke-miterlimit:4;stroke-dasharray:none;stroke-opacity:1"
       d="m -148.68008,144.25812 14.12054,-22.5498 -15.45689,-21.81694"
       id="path1225" />
    <path
       style="fill:none;stroke:#000000;stroke-width:1;stroke-linecap:butt;stroke-linejoin:miter;stroke-miterlimit:4;stroke-dasharray:none;stroke-opacity:1"
       d="M 34.017857,118.6845 37.874053,79.044361 23.43453,117.17262 -10.234469,53.386472 -13.976244,120.73841 -46.11309,41.57738 -82.397242,64.61179 -80.793623,23.986819"
       id="path1227" />
    <path
       style="fill:none;stroke:#000000;stroke-width:1;stroke-linecap:butt;stroke-linejoin:miter;stroke-miterlimit:4;stroke-dasharray:none;stroke-opacity:1"
       d="M -80.793626,23.986819 -96.829799,63.008177 -107.34524,15.875 -125.48809,64.25595 -139.09524,37.79762"
       id="path1229" />
    <path
       style="fill:none;stroke:#000000;stroke-width:1;stroke-linecap:butt;stroke-linejoin:miter;stroke-miterlimit:4;stroke-dasharray:none;stroke-opacity:1"
       d="m 323.3179,30.935836 31.5378,-7.483555"
       id="path1231" />
    <path
       style="fill:none;stroke:#000000;stroke-width:1;stroke-linecap:butt;stroke-linejoin:miter;stroke-miterlimit:4;stroke-dasharray:none;stroke-opacity:1"
       d="m 329.73235,13.830603 25.12335,9.621678"
       id="path1233" />
    <path
       style="fill:none;stroke:#000000;stroke-width:1;stroke-linecap:butt;stroke-linejoin:miter;stroke-miterlimit:4;stroke-dasharray:none;stroke-opacity:1"
       d="m 377.22022,179.91665 42.33333,-37.79761 -36.28572,-15.875"
       id="path1245" />
    <path
       style="fill:none;stroke:#000000;stroke-width:1;stroke-linecap:butt;stroke-linejoin:miter;stroke-miterlimit:4;stroke-dasharray:none;stroke-opacity:1"
       d="m 428.62209,239.94061 9.07431,-32.80966 20.85988,23.18795"
       id="path1247" />
    <path
       style="fill:none;stroke:#000000;stroke-width:1;stroke-linecap:butt;stroke-linejoin:miter;stroke-miterlimit:4;stroke-dasharray:none;stroke-opacity:1"
       d="M 437.6964,207.13095 449.0357,130.0238"
       id="path1249" />
    <path
       style="fill:none;stroke:#000000;stroke-width:1;stroke-linecap:butt;stroke-linejoin:miter;stroke-miterlimit:4;stroke-dasharray:none;stroke-opacity:1"
       d="m 87.051628,124.48017 -9.621705,8.01809 6.858756,19.07019 44.601191,32.12797"
       id="path1257" />
    <path
       style="fill:none;stroke:#000000;stroke-width:0.264583px;stroke-linecap:butt;stroke-linejoin:miter;stroke-opacity:1"
       d="m 109.61307,155.34821 c 0,0 0,0 0,0 z"
       id="path1259" />
    <path
       style="opacity:0.995444;fill:none;stroke:#000000;stroke-width:1;stroke-linecap:butt;stroke-linejoin:miter;stroke-miterlimit:4;stroke-dasharray:none;stroke-opacity:1"
       d="m 109.61307,155.34821 72.57143,24.56844"
       id="path1261" />
    <path
       style="fill:none;stroke:#000000;stroke-width:1;stroke-linecap:butt;stroke-linejoin:miter;stroke-miterlimit:4;stroke-dasharray:none;stroke-opacity:1"
       d="m -134.55954,121.70832 24.099,1.16824"
       id="path1273" />
    <path
       style="fill:none;stroke:#000000;stroke-width:1;stroke-linecap:butt;stroke-linejoin:miter;stroke-miterlimit:4;stroke-dasharray:none;stroke-opacity:1"
       d="m 157.07625,241.54422 86.06078,17.6398"
       id="path1289" />
    <path
       style="fill:none;stroke:#000000;stroke-width:1;stroke-linecap:butt;stroke-linejoin:miter;stroke-miterlimit:4;stroke-dasharray:none;stroke-opacity:1"
       d="M 9.8273736,137.58332 -10.234477,53.386472"
       id="path1311" />
  </g>
  <path
     style="fill:none;stroke:#000000;stroke-width:1;stroke-linecap:butt;stroke-linejoin:miter;stroke-miterlimit:4;stroke-dasharray:none;stroke-opacity:1"
     d="m 190.31548,40.902287 -49.13691,44.60119 -15.11904,6.04762 -21.92262,-12.85119 5.29166,-33.26191 z"
     id="path1075" />
  <path
     style="fill:none;stroke:#000000;stroke-width:1;stroke-linecap:butt;stroke-linejoin:miter;stroke-miterlimit:4;stroke-dasharray:none;stroke-opacity:1"
     d="m 104.13691,78.699907 v 0 l -39.309527,-12.85119 -31.75,21.92262 -6.04762,30.238093 8.31548,-10.58333 11.33929,6.80357 10.58333,40.06548 16.63095,68.79166 101.297617,48.38096 h 7.55952 l -5.29166,-47.625 4.53571,-36.28572 13.60715,-20.41071 10.58333,1.5119 12.09524,34.01786 4.53571,59.72024 -9.07143,45.35714 -25.70238,-15.11905 0.37798,0.37798"
     id="path1077"
     sodipodi:nodetypes="cccccccccccccccccccc" />
  <path
     style="fill:none;stroke:#000000;stroke-width:1;stroke-linecap:butt;stroke-linejoin:miter;stroke-miterlimit:4;stroke-dasharray:none;stroke-opacity:1"
     d="m 188.4256,293.01241 -5.66965,-21.54464 v 0"
     id="path1079" />
  <path
     style="fill:none;stroke:#000000;stroke-width:1;stroke-linecap:butt;stroke-linejoin:miter;stroke-miterlimit:4;stroke-dasharray:none;stroke-opacity:1"
     d="m 205.23581,31.731947 152.34364,-9.62167"
     id="path1111"
     sodipodi:nodetypes="cc" />
  <path
     style="fill:none;stroke:#000000;stroke-width:1;stroke-linecap:butt;stroke-linejoin:miter;stroke-miterlimit:4;stroke-dasharray:none;stroke-opacity:1"
     d="m 27.029763,118.00943 -4.87357,31.85567 1.33635,44.36674 6.41446,28.33058 13.89802,13.09618 21.64883,-16.30344 8.44496,3.73163"
     id="path1113"
     sodipodi:nodetypes="ccccccc" />
  <path
     style="fill:none;stroke:#000000;stroke-width:1;stroke-linecap:butt;stroke-linejoin:miter;stroke-miterlimit:4;stroke-dasharray:none;stroke-opacity:1"
     d="m 65.453853,219.35516 -3.74177,-46.50488"
     id="path1115" />
  <path
     style="fill:none;stroke:#000000;stroke-width:1;stroke-linecap:butt;stroke-linejoin:miter;stroke-miterlimit:4;stroke-dasharray:none;stroke-opacity:1"
     d="m 213.2539,96.945737 -16.03618,-3.74179 -10.15625,-12.29439 -22.44839,-0.88676 -7.18155,0.94496 -5.10267,0.75595 8.50446,12.28423 17.57588,6.614583 35.52979,2.45684 0.37795,-0.56697"
     id="path1235" />
  <path
     style="fill:none;stroke:#000000;stroke-width:1;stroke-linecap:butt;stroke-linejoin:miter;stroke-miterlimit:4;stroke-dasharray:none;stroke-opacity:1"
     d="M 197.21772,93.203947 164.61308,80.022797"
     id="path1237" />
  <path
     style="fill:none;stroke:#000000;stroke-width:1;stroke-linecap:butt;stroke-linejoin:miter;stroke-miterlimit:4;stroke-dasharray:none;stroke-opacity:1"
     d="m 164.61308,80.022797 -3.77976,13.98514"
     id="path1239" />
  <path
     style="fill:none;stroke:#000000;stroke-width:1;stroke-linecap:butt;stroke-linejoin:miter;stroke-miterlimit:4;stroke-dasharray:none;stroke-opacity:1"
     d="m 160.83332,94.007937 36.3844,-0.80399"
     id="path1241" />
  <path
     style="fill:none;stroke:#000000;stroke-width:1;stroke-linecap:butt;stroke-linejoin:miter;stroke-miterlimit:4;stroke-dasharray:none;stroke-opacity:1"
     d="m 178.4092,100.62252 18.80852,-7.418573 16.72127,9.875413"
     id="path1243" />
</svg>
